<?xml version="1.0" encoding="utf-8"?>
<!-- Generator: Adobe Illustrator 25.4.1, SVG Export Plug-In . SVG Version: 6.00 Build 0)  -->
<svg version="1.1" id="Layer_1" xmlns="http://www.w3.org/2000/svg" xmlns:xlink="http://www.w3.org/1999/xlink" x="0px" y="0px"
	 viewBox="0 0 2400 800" style="enable-background:new 0 0 2400 800;" xml:space="preserve">
<style type="text/css">
	.st0{fill:#FFFFFF;}
	.st1{fill:none;stroke:#FFFFFF;stroke-width:3.276;stroke-linecap:round;stroke-linejoin:round;stroke-miterlimit:10;}
	.st2{fill:none;stroke:#FFFFFF;stroke-width:3.6565;stroke-miterlimit:10;}
	.st3{fill:none;stroke:#FFFFFF;stroke-width:78.1534;stroke-linecap:round;stroke-miterlimit:3.9984;}
	.st4{clip-path:url(#SVGID_00000076594754702567072560000016750241512451045305_);}
	.st5{clip-path:url(#SVGID_00000025414525815738168470000015636118846067542179_);}
	.st6{clip-path:url(#SVGID_00000142140570755524603750000001672877832762907302_);}
	.st7{clip-path:url(#SVGID_00000103955833893789160610000011304182410566103437_);}
	.st8{clip-path:url(#SVGID_00000111889597833859574090000007625825927638716579_);}
	.st9{clip-path:url(#SVGID_00000030471296340280749580000003208536759192097701_);}
	.st10{clip-path:url(#SVGID_00000001627419333560323150000004404898501361157563_);}
	.st11{clip-path:url(#SVGID_00000155124842355803572620000013346840277783897985_);}
	.st12{clip-path:url(#SVGID_00000140702069017789499410000010802904455047692446_);}
	.st13{clip-path:url(#SVGID_00000010270653603787785260000013741013778473818810_);}
	.st14{clip-path:url(#SVGID_00000103972941269655810800000018104389633549069208_);}
	.st15{clip-path:url(#SVGID_00000008150119385986828310000011075338075029396661_);}
	.st16{fill:#020203;}
	.st17{fill:none;stroke:#C72B27;stroke-width:78.1534;stroke-linecap:round;stroke-miterlimit:3.9984;}
	.st18{clip-path:url(#SVGID_00000048494291949582114890000008853080945912670635_);}
	.st19{clip-path:url(#SVGID_00000173868211288354984480000012283321603482839468_);}
	.st20{clip-path:url(#SVGID_00000054979331829846990440000007907812335606905998_);}
	.st21{clip-path:url(#SVGID_00000052794710590627447040000002912074762794877873_);}
	.st22{clip-path:url(#SVGID_00000139292401716558063460000009134696734266235296_);}
	.st23{clip-path:url(#SVGID_00000070820976687475913640000004918152872431744947_);}
	.st24{fill:none;stroke:#C72B27;stroke-width:19.3449;stroke-linecap:round;stroke-miterlimit:3.9984;}
	.st25{fill:#EF7D05;}
	.st26{fill:none;}
	.st27{fill:#E3584B;}
</style>
<g>
	<path class="st0" d="M804,80.2c-165.4-5.4-297,136.6-301.3,286.3C497.9,537.1,632.3,678,800.8,678.3
		c164.8,0.3,299.2-132.4,301.3-293.2C1104.4,208.1,958.1,75.2,804,80.2z M789.3,262.5c2.4-35.3,8-70.5,12.5-105.7
		c0.4-3.5,2.1-6.8,4.9-10.1c4.9,32.2-9.6,64.7-4.8,96.7c3.1-0.2,6.2-0.4,9.3-0.6c4.5-32.6,8.9-65.3,13.4-97.9
		c1.9,0.2,3.7,0.4,5.6,0.6c-3.5,33.3-6.9,66.7-10.4,100c3,0.5,6,0.9,9,1.4c11.7-31,7.6-65.8,16.1-97.5c1.7,0.2,3.5,0.4,5.2,0.7
		c-1.3,13.7-2.4,27.5-4.1,41.2c-1.8,14.5-4.7,28.8-5.8,43.3c-0.4,4.6,3.4,9.5,5.2,14.2c2.6-4.3,7-8.3,7.6-12.9
		c4.2-28,7.5-56.1,11.1-84.1c1.9,0.2,3.8,0.3,5.8,0.5c-1.5,16.2-2.8,32.5-4.6,48.8c-1.4,12.6-4.1,25-5.2,37.6
		c-0.3,3.9,2.9,8.2,4.5,12.3c2.6-3.3,7-6.4,7.6-10c4.2-26.9,7.6-53.9,11.5-80.9c0.4-2.6,1.8-5.1,7-6.8c-1.9,19.7-3.6,39.4-5.9,59
		c-2.2,18.9-2.7,38.3-8.1,56.3c-4.1,13.6-12.4,27.7-23,37c-13.5,11.8-21.2,23.4-22.4,41.6c-3.2,51.8-7.9,103.5-12.2,157.8
		c-9.6-3.5-17.6-6.5-26.8-9.9c7-46.8,13.3-93,20.9-139.1c3.5-21.7,2.7-40.6-12.9-58.7C793.1,288.5,788.5,273.9,789.3,262.5z
		 M658.8,196.4c3.5-15.3,10.3-29.2,27.5-33.2c18.5-4.3,32.6,4.8,43,18.5c25.2,33.4,35,70.7,20,110.9c-10.1,26.9-10.3,52.5-2.5,79.8
		c10.7,37.5,19.2,75.7,28.6,113.6c-2.4,1.8-4.7,3.6-7.1,5.4c-4.8-5.4-12.3-10.1-14-16.4c-9.3-34.8-17.7-69.9-25.4-105.1
		c-5.5-25.2-18.3-45-37-62.6C659.8,277.1,649.1,239.4,658.8,196.4z M855.6,615c-44.6-4.1-83.6-10.1-119.5-28.8
		c-46.1-24.1-67.7-69.9-57.3-123.3c3.6-18.4,9.9-36.2,18.1-53.9c1.6,11.3,2.7,22.7,4.8,34c5.2,27.9,23.5,44,49.4,52.2
		c19.2,6.1,39.1,10.3,58.1,17.2c37.4,13.7,51,45.8,62.7,86.3C846,587.5,825.5,578.8,805,570c-0.7,1.2-1.4,2.3-2.1,3.4
		C819.2,586.3,835.6,599.2,855.6,615z M856.4,507.1c8.3-14.5,15.6-27.2,22.8-39.8c-1.7-1.5-3.4-3-5.2-4.4
		c-10.2,13.8-20.5,27.6-30.7,41.4c-2.7-2-5.4-4-8.1-5.9c-2.6-24.4,0.3-47.9,18.7-67c9.6-10,21.8-17.4,31.7-27
		c16.4-16,32-32.8,48.3-49.7C976.4,412.1,935.2,476.8,856.4,507.1z"/>
</g>
<g>
	<g>
		<path class="st0" d="M1408.3,336.8c-1.2,19.9-8.1,37-20.5,51.4c-15.8,18.5-38.4,27.7-67.7,27.7c-31.3,0-55.5-10.8-72.7-32.5
			c-14.7-18.3-22.1-40.9-22.1-67.9c0-27.9,8.4-51.3,25.3-70.3c17.6-19.7,41.3-29.6,71.1-29.6c24.9,0,45.6,7.7,62.1,23.2
			c14.2,13.3,21.9,29.7,23.2,49h-48.5c-2-8.7-5-15.3-9.1-19.7c-6.9-7.6-16.4-11.5-28.5-11.5c-14.9,0-26.5,6-34.6,17.9
			c-6.9,10.5-10.4,24.2-10.4,41.3c0,19.7,4.4,34.8,13.3,45.3c7.8,9.2,18.2,13.9,31.2,13.9c13.3,0,23.4-4.9,30.4-14.7
			c3.7-5.3,6.3-13.1,7.7-23.4H1408.3z"/>
		<path class="st0" d="M1482.1,220.3v190.8h-49.8V220.3H1482.1z"/>
		<path class="st0" d="M1667.3,220.3v42.9h-57v147.9h-49.6V263.2h-56.8v-42.9H1667.3z"/>
		<path class="st0" d="M1855.9,220.3l-70.3,119.1v71.7h-49.8v-71.7l-70.1-119.1h56.5l22.1,40.5c6,11,11.6,23.3,16.8,36.8
			c6.2-15.8,12.3-29,18.1-39.7l21.1-37.6H1855.9z"/>
	</g>
	<g>
		<path class="st0" d="M1179.7,458.7h40.5c8.3,0,14.7,1.3,19,3.9c7.4,4.4,11.1,11,11.1,19.8c0,4.6-1.1,8.7-3.4,12.3
			c-2.3,3.6-5.4,6.2-9.3,7.8c3.4,0.9,6.2,3,8.3,6.2c1.4,2.1,2.3,4.3,2.8,6.6c0.5,2.3,1.1,7.4,1.8,15.3c0.5,5,1.2,8.2,2.1,9.4
			l0.7,0.8h-21.9c-0.7-1.6-1.5-7.3-2.4-17.2c-0.6-5-2-8.4-4.1-10.4c-2.1-1.9-5.6-2.9-10.4-2.9h-13.2v30.5h-21.4V458.7z
			 M1201.2,475.6V495h15.1c8.6,0,13-3.3,13-9.9c0-6.3-4.4-9.5-13.2-9.5H1201.2z"/>
		<path class="st0" d="M1331.5,458.7v17.7h-44.2V490h40.5v16.8h-40.5v16.3h45.3v17.7h-66.7v-82.1H1331.5z"/>
		<path class="st0" d="M1407.5,483.4h-20.4c-0.3-6.7-4.7-10.1-13.2-10.1c-7.4,0-11.1,2.4-11.1,7.2c0,2.2,1,3.8,3,4.8
			c1.7,0.8,7.1,2.4,16.2,4.7c8.6,2.2,14.9,4.5,18.8,7c6.7,4.1,10.1,10.3,10.1,18.6c0,9-3.6,16-10.7,20.9c-6.2,4.3-14.3,6.4-24.4,6.4
			c-12.2,0-21.5-2.9-28-8.8c-5.7-5.1-8.6-12.1-8.7-20.9h21.5c0.5,8.7,5.8,13.1,15.9,13.1c8.3,0,12.5-2.8,12.5-8.4
			c0-2.6-1.1-4.5-3.3-5.8c-2.2-1.3-7.6-3.1-16.2-5.6c-10.5-3-17.5-6-21.1-9.1c-4.2-3.6-6.3-8.8-6.3-15.6c0-8.1,3.4-14.5,10.1-19.1
			c5.9-4.1,13.4-6.1,22.6-6.1c10.9,0,19.3,2.6,25,7.9C1404.8,469.2,1407.3,475.4,1407.5,483.4z"/>
		<path class="st0" d="M1486.6,458.7v18.5H1462v63.6h-21.3v-63.6h-24.4v-18.5H1486.6z"/>
		<path class="st0" d="M1540.7,458.7l30.7,82.1h-22.2l-5.3-15h-28.4l-5.3,15h-22l30.7-82.1H1540.7z M1539,510.4l-3.9-11.1
			c-2.3-6.7-4.1-12.9-5.3-18.5c-1.5,6-3.4,12.2-5.6,18.7l-3.8,10.9H1539z"/>
		<path class="st0" d="M1578.3,458.7h40.5c8.3,0,14.7,1.3,19,3.9c7.4,4.4,11.1,11,11.1,19.8c0,4.6-1.1,8.7-3.4,12.3
			c-2.3,3.6-5.4,6.2-9.3,7.8c3.4,0.9,6.2,3,8.3,6.2c1.4,2.1,2.3,4.3,2.8,6.6c0.5,2.3,1.1,7.4,1.8,15.3c0.5,5,1.2,8.2,2.1,9.4
			l0.7,0.8h-21.9c-0.7-1.6-1.5-7.3-2.4-17.2c-0.6-5-2-8.4-4.1-10.4c-2.1-1.9-5.6-2.9-10.4-2.9h-13.2v30.5h-21.4V458.7z
			 M1599.7,475.6V495h15.1c8.6,0,13-3.3,13-9.9c0-6.3-4.4-9.5-13.2-9.5H1599.7z"/>
		<path class="st0" d="M1708.8,458.7l30.7,82.1h-22.2l-5.3-15h-28.4l-5.3,15h-22l30.7-82.1H1708.8z M1707.1,510.4l-3.9-11.1
			c-2.3-6.7-4.1-12.9-5.3-18.5c-1.5,6-3.4,12.2-5.6,18.7l-3.8,10.9H1707.1z"/>
		<path class="st0" d="M1817.8,458.7v82.1H1797l-22.1-37.3l-4.7-8.4c-0.8-1.4-2-3.7-3.4-7c0.5,6,0.8,13,0.8,20.9v31.8h-20.9v-82.1
			h21.7l20.4,34.7c4,6.9,7,12.6,9.2,17.2c-0.6-8-0.9-15.1-0.9-21.2v-30.7H1817.8z"/>
		<path class="st0" d="M1897.4,458.7v18.5h-24.5v63.6h-21.3v-63.6h-24.4v-18.5H1897.4z"/>
	</g>
</g>
</svg>
