<?xml version="1.0" encoding="utf-8"?>
<!-- Generator: Adobe Illustrator 25.4.1, SVG Export Plug-In . SVG Version: 6.00 Build 0)  -->
<svg version="1.1" id="Layer_1" xmlns="http://www.w3.org/2000/svg" xmlns:xlink="http://www.w3.org/1999/xlink" x="0px" y="0px"
	 viewBox="0 0 2400 800" style="enable-background:new 0 0 2400 800;" xml:space="preserve">
<style type="text/css">
	.st0{fill:#FFFFFF;}
	.st1{fill:none;stroke:#FFFFFF;stroke-width:3.276;stroke-linecap:round;stroke-linejoin:round;stroke-miterlimit:10;}
	.st2{fill:none;stroke:#FFFFFF;stroke-width:3.6565;stroke-miterlimit:10;}
	.st3{fill:none;stroke:#FFFFFF;stroke-width:78.1534;stroke-linecap:round;stroke-miterlimit:3.9984;}
	.st4{clip-path:url(#SVGID_00000152244651365304985160000009620834478603205011_);}
	.st5{clip-path:url(#SVGID_00000052812021243561402370000004349697425255424651_);}
	.st6{clip-path:url(#SVGID_00000024704258784686110980000012079028823551985324_);}
	.st7{clip-path:url(#SVGID_00000044168402100148967550000017576591961483634087_);}
	.st8{clip-path:url(#SVGID_00000075161373614103773540000010199325032427571329_);}
	.st9{clip-path:url(#SVGID_00000010282590872444961830000013797089368991350662_);}
	.st10{clip-path:url(#SVGID_00000167357538251287897930000004094938356629476494_);}
	.st11{clip-path:url(#SVGID_00000017509557265134799470000015027804277794994361_);}
	.st12{clip-path:url(#SVGID_00000023995967858698082000000009676014729670156426_);}
	.st13{clip-path:url(#SVGID_00000137850582632926047700000015753345023457163944_);}
	.st14{clip-path:url(#SVGID_00000154422701472415835410000011251181138067613619_);}
	.st15{clip-path:url(#SVGID_00000160188409024595618990000009175539390472887202_);}
	.st16{fill:#020203;}
	.st17{fill:none;stroke:#C72B27;stroke-width:78.1534;stroke-linecap:round;stroke-miterlimit:3.9984;}
	.st18{clip-path:url(#SVGID_00000129896561566602703730000000838336602576439209_);}
	.st19{clip-path:url(#SVGID_00000008146380953458697160000010823440072118625198_);}
	.st20{clip-path:url(#SVGID_00000005264873964120124310000014300616098097562265_);}
	.st21{clip-path:url(#SVGID_00000028283440492734132830000015807960209864066710_);}
	.st22{clip-path:url(#SVGID_00000078764014744118043060000017852110709136519809_);}
	.st23{clip-path:url(#SVGID_00000121980896926880762610000017114608755231622320_);}
	.st24{fill:none;stroke:#C72B27;stroke-width:19.3449;stroke-linecap:round;stroke-miterlimit:3.9984;}
	.st25{fill:#EF7D05;}
	.st26{fill:none;}
	.st27{fill:#E3584B;}
</style>
<path class="st0" d="M333.6,220.7l305.5,1.1l29.7-27.4l-2.2,27.1H841c2.6,0,14.7-14.3,15.5-20c4-28.5-35.3-58-60.3-62.2
	c-123.8-25.5-309.2-28.5-438.1,6.8C333.8,154.3,297.8,201.6,333.6,220.7"/>
<path class="st1" d="M873.1,247.3c4.9,7,4.9,16.3-0.1,23.2l-12.9,17.8c7,3.1,11.6,10.1,11.7,18.1c0,0.7,0,1.4-0.1,2.1
	c-2.6,41.5-5.9,84.3-9.1,125.7c-3.2,41.4-6.5,84.2-9.1,125.5c-0.3,4.6-2.1,8.8-5,12.1c2.1,3.1,6.4,10.1,8.8,20.1
	c2.8,11.5,3.6,29.4-8.1,49.3c-12.1,20.5-32.8,34.7-57,38.9c-77.3,13.5-133.9,19-195.3,19.1h-1.7c-62.6,0-129.5-5.8-216.9-13.9
	c-0.3,0-0.5-0.1-0.8-0.1c-16.2-2.2-31.5-7.9-44.3-16.5c-17.4-11.7-28.8-27.8-33-46.6c-3.9-17.3-0.7-32,1.5-39.3
	c0.9-3.1,2-5.9,3.2-8.2c0-0.1,0.1-0.2,0.1-0.3l-0.6-1.4c-1.1-2.4-1.7-5-1.8-7.6l-4.2-127.9c-0.1-3.7,0.8-7.3,2.6-10.5l2.3-4.1
	c1.3-2.4,3.1-4.4,5.2-6c-0.3-1.2-0.5-2.4-0.5-3.6l-9.6-159.2c-0.2-2.6,0.2-5.1,1-7.6c2.4-7.1,7.4-12.6,14.2-15.5
	c-10.9-9.6-16.3-22.9-15.1-37.9c1.1-13.5,7.9-28.2,19-41.2c10.1-11.9,22.5-20.9,34.1-24.8c0.4-0.1,0.7-0.2,1.1-0.3
	c62.3-17.1,140.5-26.4,226.1-26.9c78.2-0.5,156.7,6.5,221,19.7c16.5,2.9,36,13.2,50.9,27c19.2,17.7,28.3,38.2,25.5,57.7
	c-0.3,2.3-1.3,9.4-11.3,21.8c-3.3,4.1-6.4,7.4-9.4,9.7c0.5,0.1,0.9,0.3,1.4,0.4C860.2,237.4,867.7,239.7,873.1,247.3z"/>
<path class="st0" d="M349.4,412.1c6.4-0.2,24.5,1.7,28.3-2.2c5.3-5.3-4.2-39,1.4-42.9c1.9-1.3,8.7-1.2,10.8,0.1
	c7,7,27.8,39.1,35,41.3c4.3,1.3,10,0.8,14.6,0.7c6.6-0.2,37.5-3.3,41.9-5.4c1.2-0.6,2-2.1,3.1-3c-14.7-15.3-31.4-29.2-42.5-47.6
	l0.5-2c26.1-15.3,34.7-48.6,22.5-75.8c-15.7-35.1-61.5-32.2-93.7-30.5c-13.6,0.7-34.8,1.8-47.7,4.2c-2.5,0.5-4.2,1.6-5.1,4.1
	l9.6,159.2C332.2,416.2,343.9,412.3,349.4,412.1 M377.3,288.9c10.4-3.8,32.6-3.1,38.4,8.2c3.6,7.1,2.5,20.3-3.4,26
	c-7.5,7.2-26.3,7.6-36.2,6c-2.6-1.8-1.3-21.4-1.4-26C374.5,298.1,369.9,291.6,377.3,288.9"/>
<path class="st0" d="M548.5,377.7c5.5-5,20.9,0.4,28.3,0.8c10.9,0.6,35-2.1,43.6,0.7c7.4,2.4,5.2,15.4,10.1,20.8
	c7.2-1,44.2-2.3,47.2-6.1L626,235.5l-66.1-3.6l-67.8,152.7l46.3,10.4C543.4,394.1,544.7,381.2,548.5,377.7 M567.6,332.8
	c1.2-5.9,13.4-34.2,16.8-39.7c7.9-12.6,11.5-4.8,14.9,5c3.2,9.2,9.6,27.3,11.2,36.2c0.3,1.6,1,3-0.1,4.6c-1.1,1.8-2.6,2.6-4.7,3
	c-5.6,1.1-33.2,0.2-37-3.4C567.3,337.2,567.2,334.7,567.6,332.8"/>
<path class="st0" d="M782.5,411.9c1.2-0.4,1.7-1.2,2.4-2.1c4.3-6.1,1.2-47.1,4-57l67.8-93.9c-1.4-2-3.5-2.7-5.8-3.4
	c-14.2-4.5-31.5-6.9-46.2-10.3c-4.6,1.7-28.4,46.2-34.4,54c-1.4,1.9-3.2,4.5-5.8,4.6c-2.2-0.4-14.7-24.6-17-28.9
	c-3.5-6.7-15.2-34.9-20.1-36.3c-3.2-0.9-5.5-0.1-8.4,0.1c-11.1,0.8-30.1,3.8-41.3,6c-2.6,0.5-5.5,1.2-7.2,3.4l61.5,103.3l-1.4,57.7
	c0.8,1.1,15.4,2.8,18.3,3C754.8,412.5,778.8,413.1,782.5,411.9"/>
<path class="st0" d="M436.9,505c13.8-20.3,10.1-51.1-10.8-65c-26.4-17.5-74.9-8.8-105.3-7.2l-2.3,4.1l4.2,127.8l1.4,3.1
	c1.5,1.1,33.8,1.3,37.5,0.7c1.7-0.3,2.9-0.8,3.8-2.3v-34.3c2.2,0.4,4.6-1.3,6.7-1.1c7.4,0.9,23.4,32.4,31.3,37.1
	c11.3,1.1,24.7,0.6,36-0.9c3.2-0.4,15.4-1.1,14.5-5.3c-6.8-7.1-32-29.8-33.4-38.5C419.8,518.3,433.1,510.6,436.9,505 M389.1,499.9
	h-22.9c-2.2-1.3-2.1-3-2.4-5.3c-0.4-3.7-0.8-28.3,2.4-28.3h22.9c6.1,0,12.3,10.3,12.4,16.3C401.8,488.9,395.6,499.9,389.1,499.9"/>
<path class="st0" d="M501.8,553.1c5.3-1.7,3.3-15.6,10.9-15.9l56.3,1.1c4.9,1.7,4.3,15.2,9.6,16.2l37.2-5.8l-46.4-128.1
	c-2.9-3-20.4-1.1-26-1.4c-9-0.5-18.8-3.5-28.2-0.8l-51.8,128.9L501.8,553.1z M539,465c1.8-0.5,3.5-0.6,5.1,0.5
	c1.8,2,2.7,4.6,3.8,6.9c1.6,3.5,10.6,28,10.8,30.4c0.8,8.1-32.4,7.6-35.3,1.6C522,501.8,534.6,466.3,539,465"/>
<path class="st0" d="M685.1,564c2.6,0.1,5.3,1.6,7.7,1.6c4.8,0,9.9-2.3,14.9-1.8l2.5-2v-45.8l51.7-79.5c0.8-2.9-0.4-1.7-1.8-2.5
	c-3.1-1.5-34-9-37.1-8.9c-1.4,0-2.4,0.2-3.7,0.8c-4.5,2.2-20.3,38.3-26.1,45.6c-2,2.5-5,4-7.6,1.5l-29.9-49.2l-46.3,10.5l54.9,80.1
	v47.3C669.5,565.8,678.5,563.7,685.1,564"/>
<path class="st0" d="M851.9,306.9C820,400,782.2,475.3,750.3,527.3c37.6,1.5,62.6,14.5,83.4,31.2
	C838.9,475.5,846.7,389.9,851.9,306.9C851.9,305.7,851.4,307.9,851.9,306.9"/>
<path class="st0" d="M735.1,582.4c-1.6,2.1-2.6,3.6-3.9,4.9c-10.3,10.7-20.6,21.4-31.1,32c-9.7,9.8-15.8,9.9-25.5,0.4
	c-10.7-10.6-21.2-21.5-31.7-32.4c-1.3-1.4-2.4-3-4-5.2l-132.8-0.4H324.3c-2.2,0-19.9,43.4,20.2,70.5c10.7,7.2,23,11.5,35.8,13.2
	c184.4,17.2,257.3,21.4,408.6-5c18-3.1,34-13.6,43.2-29.4c16.1-27.3-0.4-48.5-0.4-48.5L735.1,582.4z"/>
<path class="st2" d="M2180.9,483.5l-0.2-0.3c-4.1-8.2-11.5-16.5-19.4-25.3c-4.5-5-9.1-10.1-12.4-14.6c0.4-0.4,0.8-0.8,1.3-1.1
	c3.5-3,7.4-6.5,10.6-10.6c6.5-8.6,11.4-18.5,14.4-29.5c2.8-10.5,3.9-21.4,3.1-32.4c-0.8-11.1-3.4-21.8-7.7-31.6
	c-4.6-10.5-11-19.5-18.9-26.8c-33.2-30.6-79.7-28.5-117-26.8c-1.3,0.1-2.6,0.1-3.9,0.2c-3.4,0.2-6.9,0.1-10.6,0.1
	c-9.8-0.1-20.9-0.1-32.1,3.4c-2.1,0.7-4,1.9-5.5,3.5c-5.3,5.6-7.1,14.1-8.2,59.6c-0.1,4.1-0.2,7.7-0.3,9.5
	c-0.5,8.7-0.8,17.6-1.1,26.2c-0.1,2.3-0.2,4.7-0.3,7c-0.3,8.8-0.9,18.3-1.6,28.3c-0.5,8.1-1,16.5-1.4,25c0-0.1-0.1-0.2-0.1-0.3
	c-1.1-3.5-3-6.7-6-9.8c-2.5-2.5-5.8-4-9.4-4h-2.2c0.8-0.9,1.7-1.9,2.5-3.1c1.9-2.9,2.8-6,4-17.7c0.6-5.8,1-12,1.1-14.4
	c0-0.4,0-0.9,0.1-1.4c0.5-13,0.4-23.5-6.7-29.5c-0.4-0.3-0.8-0.6-1.2-0.9c6.4-0.6,9.7-1.9,12.5-4.3c1.3-1.1,2.3-2.4,3.1-3.8
	c1.6-3.1,3.9-8.8,4.8-22.6c0.2-3.1,0.5-10.9,0.5-18.6c0.1-14.8-0.6-18.1-1.3-20.4c-1.7-5.5-5.8-9.6-11.6-11.6c-3.1-1.1-6-1.4-8-1.5
	l-0.4,0c-22.6-2.2-46.7-1.2-70-0.3c-20.9,0.8-42.5,1.7-62.2,0.2c-1.8-0.1-3.6,0.1-5.3,0.7l-4.2,1.5c-5,1.8-8.4,6.4-8.7,11.7
	l-2.9,55.1c-0.1-1-0.3-1.8-0.4-2.5c-0.6-3.6-1.6-7.8-3.1-12.5c-6.8-22.3-22.1-39.5-44-49.8c-15.5-7.2-34.1-10.8-53.9-10.4
	c-17.9,0.4-36.2,4.2-51.5,10.6c-13.1,5.6-24.9,13.7-34.9,24.1c-9.3,9.7-17,21.2-22.8,34.2c-1.2,2.6-2.3,5.3-3.3,8.1
	c-0.6-3.4-1.3-6.7-2.2-9.9c-3.2-11.6-8.6-21.8-16.1-30.6c-16.9-19.7-43.8-31.2-77.8-33.3c-24-1.5-57.9-1.4-79.5,2
	c-2.4,0.4-5.5,1-8.6,2.3c-7,3-9.8,8-10.9,11.2c-0.3-1.1-0.7-2.2-1.3-3.1l-1.6-2.8c-1.2-2.1-3-3.9-5.1-5.1c-3.1-1.7-6.9-2.5-14.8-3
	c-4.6-0.3-10.4-0.5-17.3-0.6c-11.5-0.1-24.8,0.1-29.6,0.5c-9.2,0.8-18.6,2.1-24.3,9.3c-5.3,6.7-4.2,14.3-3.3,20.4
	c0.4,2.8,0.9,6.1,1,9.8c0.4,17.1,1.5,69-5.9,88.4c-1.6,4.2-5,7.5-8.9,8.7c-2.3,0.7-5.8,1-9.4-1.5c-0.3-0.2-3.3-2.7-4.9-15.2
	c-1.2-9.8-1-21.6-0.8-31.9c0.1-7.3,0.3-13.6-0.1-18.8l2.6-47.6c0.3-5.5-2.9-10.6-7.9-12.7c-1.2-0.8-3.3-2.1-6.1-2.6
	c-0.8-0.1-1.5-0.2-2.3-0.2H1186c-3,0-10.3,1-14.5,10.2c-1.1,2.4-2,5.4-2.7,9.1c-1.1,5.5-1.6,11.4-1.9,14.6c0,0.5-0.1,0.9-0.1,1.2
	c-3.4,34.5-3.2,65.1,0.4,91c4.9,34.9,16.3,61.8,33.8,79.9c17.7,18.3,41.4,27.6,70.4,27.6c3.1,0,6.3-0.1,9.5-0.3
	c26.6-1.8,48.8-11.1,66.1-27.7c14.7-14.1,25.9-33.7,33.1-58.2c1.2-3.9,2.2-7.9,3.1-11.9c-0.1,2.7-0.3,5.4-0.4,8.1
	c-1.2,23.1-2.6,49.2-0.3,69.8c0,0.2,0,0.4,0.1,0.5c0.3,2.6,0.9,9.5,7.9,14.1c2.1,1.4,4.6,2.2,7.2,2.2h50.5c2.4,0,4.4-0.4,9.6-3
	c3.3-1.6,8.3-4,10.3-9.6c2.6-6.8,2.3-15.5,2-25.6c-0.1-4.2-0.3-8.4-0.2-12.2c3.6,5.4,8,12.8,10.6,17.1c5.7,9.6,10.6,17.9,14.9,22.4
	c5.5,5.9,13.2,9,22.9,9.1c6.6,0.1,13.1-1.1,18.9-2.2c1.9-0.4,3.7-0.7,5.3-0.9c2.7-0.4,11.8-2.1,20.4-3.9c5-1.1,9-2,12.1-2.9
	c5.5-1.5,9.9-3,12.9-7.2c4.1-5.7,4.2-12.8,0.4-19c-0.1-0.2-0.3-0.4-0.4-0.7l-28.9-41.3c6.3-6.6,12.2-14,16.8-22.7
	c0.3,3.7,0.7,7.5,1.2,11.2c3.6,24.5,13.2,46.3,27.8,62.9c16.4,18.7,38.4,30,63.8,32.7c6.4,0.7,12.8,1,18.9,1c11.5,0,22.6-1.2,33-3.6
	c17.2-4,32.3-11.2,44.7-21.4c10.6-8.7,19.2-19.5,25.4-32.1c1.8-3.6,3.4-7.5,4.9-11.4l-0.5,46.8c0,2.4,0.6,4.7,1.8,6.8
	c3.4,5.8,9.3,6.9,16.1,8.1c3.3,0.6,7.9,1.3,10,1.5c16.2,1.2,37.2,1.8,58.6,1.8c21.4,0,43.2-0.6,61.1-1.8c2.7-0.2,5.1-0.7,7.3-1.1
	c1.8-0.4,3.4-0.7,4.4-0.7c2.7,0.1,5.4-0.6,7.6-2.1c5.8-3.7,6.9-10,7.7-17.8c0.1,1.5,0.2,3,0.4,4.5c0,0.2,0,0.5,0,0.8
	c0.1,2.9,0.5,9.8,6.7,14.9c3.5,2.9,8.3,4.3,17.6,5.2c5.6,0.5,12.7,0.9,20.2,0.9c0.6,0,1.3,0,1.9,0c6.7,0,13.1-0.2,18.3-0.6
	c10.2-0.8,14.1-2.2,17.1-4.1c8.9-5.8,9.4-18.1,9.7-41.3c0-1.2,0-2.5,0.1-3.8c2,3.1,4.8,7.8,7.3,12.1c12.4,21.1,18.3,30.1,25.8,33.4
	c8.2,3.6,18.1,2.6,29.2,1.1c1-0.1,1.9-0.3,2.8-0.4c3.7-0.5,13.5-2,23.5-3.9c18.4-3.5,22.6-5.5,25.1-7c7.5-4.7,8.6-11.1,8.6-14.5
	C2183.8,489.2,2182.1,485.9,2180.9,483.5z"/>
<path class="st2" d="M1165.3,433.6c2.4,25.6-6.8,47.1-26.8,62.1c-18.3,13.8-41.7,19.4-58.2,21.6c-11,1.5-22.5,2.2-34.7,2.2
	c-23.7,0-49.8-2.8-79.1-8.5c-3.6-0.7-6.7-2.8-8.6-5.9c-3.1-5-3.5-10.1-3.7-13.5l0-0.4c-2.4-34.4-0.8-74.8,0.6-110.5
	c0.3-8.5,0.6-16.5,0.9-24.4c0.2-5.3,0.2-10.7,0.3-16.3c0.1-13.9,0.2-28.3,2.5-42.5c0.3-2,1.1-3.9,2.3-5.5c3.6-5.1,9.8-7.5,26.4-10.4
	c9.3-1.6,18.6-2.8,21.7-3.1c24.2-2.4,45.7-2.9,64-1.4c13.1,1,24.8,3.1,34.7,6.1c12.3,3.7,22.4,9.1,29.9,15.9
	c10.9,9.9,18.2,24.4,20.1,39.7c2.1,16.6-2.2,32.3-12.1,44.1c-1.9,2.2-4.6,4.5-8.5,7.5c4,2.6,7.9,5.5,11.5,8.8
	C1158.5,408.8,1164.1,420,1165.3,433.6z"/>
<path class="st0" d="M969,498.2c-1.5-2.3-1.6-5.1-1.8-7.9c-2.9-41.5,0.1-91.7,1.5-133.5c0.6-19-0.4-38.6,2.6-57.2
	c2.5-3.5,32.6-7.5,38.7-8.1c32.4-3.2,92.6-6.3,118.4,17.2c17.5,15.9,22.7,46.6,6.8,65.8c-3.6,4.3-21.4,15.6-20.8,18.2
	c17.2,9.3,35.6,18.8,37.8,42c4.4,46.7-37.6,64.6-73.8,69.5C1042.7,509.2,1004.4,505.1,969,498.2 M1074.8,373.6
	c0.7-0.6,3.9-5.6,4.3-6.6c10.7-28.3-32.8-31.6-48.8-24.9c-0.9,7.2-4.7,35.5,1.5,38.8c2.7,1.4,21.8-0.2,25.8-0.9
	C1061.9,379.1,1071.7,376.4,1074.8,373.6 M1030.7,456.2c11.4,4.4,41.1-0.6,48-11.7c19.2-30.9-43.9-38.1-49-26.9
	C1028.1,421,1028.4,453.7,1030.7,456.2"/>
<path class="st0" d="M2134.6,439c-0.8,1-1.2,2-1.3,3.3c0,1.5,0.9,2.5,1.6,3.6c8.1,13.5,27.8,30.5,34.1,43.1c1.8,3.5,2.9,5.5-0.8,7.8
	c-4.8,3-36,8.1-43.4,9.1c-7.1,0.9-18.9,3.1-25.2,0.3c-7-3.1-23.4-36-30-44.4c-5.5-7-18.2-13.3-20.7-1.2c-1.6,7.8,0.8,42.7-4.5,46.1
	c-5.5,3.6-54.7,3.5-59.7-0.6c-2.2-1.8-1.8-4.3-2-6.8c-2.8-31.2,1.6-73.1,2.9-105.1c0.4-11.1,0.8-22,1.4-33
	c0.5-9.6,0.6-56.2,4.9-60.8c12.8-4.1,26.2-2.3,39.3-2.9c37.2-1.7,81.2-4.7,111.4,23.2c27.2,25.1,30.3,73.3,7.7,102.8
	C2146,429.3,2138.4,434.3,2134.6,439 M2095.9,365.6c-9.5-10.9-31.5-11.6-44-7.7c-3,3.3-1.5,21.7-1.7,27.5
	c-0.2,7.3-5.8,23.4,4.8,24.8c12.3,1.6,36.8-4.5,43.1-17C2102.3,384.7,2102.1,372.7,2095.9,365.6"/>
<path class="st0" d="M1789.4,419.8c-6.3,70-59.8,95.5-119.7,89.1c-101.8-10.9-108-172-19.5-209.5c43.1-18.3,114.9-13.7,131.7,41.3
	c1.4,4.4,5.2,17.5,1.8,20.6c-2,1.8-44,7.9-49.8,8.2c-3.2,0.2-8.2,0.6-11.2,0c-6.6-1.4-8.7-14.4-24-16.3c-58.4-7.2-61.8,104.2,4,93.9
	c10.1-1.6,22-9.9,20.7-22.1h-25.2c-0.8-4.8-2.7-9.3-2.9-14.2c-0.1-4.2,1.4-21.4,3.5-23.3c0.6-0.5,5.3-2.9,5.7-2.9h82.7l2.1,2.2
	C1788.7,397.5,1790.4,409.3,1789.4,419.8"/>
<path class="st0" d="M1249,300.6c0.8,0.1,2.2,1.5,3.3,1.8l-2.6,48.4c1.5,18.6-4.9,65,11.3,76.5c13.6,9.7,32,2.7,38.1-13.1
	c8.1-21.1,7.3-69.6,6.8-93.4c-0.4-18.9-8.6-24.2,14.7-26.2c7.9-0.7,49.7-1.1,54.3,1.5l1.6,2.8c5,80.7,3.3,202.2-96.5,208.8
	c-101.2,6.7-108.2-102.6-100.3-183.8c0.4-4.2,1.7-23.3,6.3-23.3H1249z"/>
<path class="st0" d="M1397.6,504.6c-2-1.3-1.9-3-2.2-5.2c-3-27.6,0.8-66.2,1.5-94.5c0.9-35,0.9-70,4.4-104.8c1-3.6,6.1-4.6,9.2-5.1
	c21.1-3.3,55.1-3.2,76.7-1.9c50.4,3.1,90.3,29.2,84.6,89.1c-2.3,23.8-14.1,39.1-30.2,54.1l35.2,50.3c0.9,1.5,1.2,3,0.1,4.6
	c-1.6,2.2-31.8,7.9-36.8,8.7c-11.2,1.7-27.3,6.7-35.5-2c-8-8.6-25.6-45.3-33.6-48.1c-23.3-8-10.2,37.9-15.5,50.7
	c-0.3,1-7.3,4.1-7.7,4.1H1397.6z M1458.6,404.1c22.2,5.8,57.6-3.5,51.5-34.9c-1.2-6.3-7.9-13.3-13.3-15.8
	c-6.8-3.2-38.3-7.3-38.3,3.4V404.1z"/>
<path class="st0" d="M1954.1,446.1c1.2,1.3,2.3,2.7,2.9,4.4c1.7,5.5,0.4,50.5-2.4,52.4c-4.4-0.2-8.7,1.5-13.1,1.8
	c-33.6,2.3-84.3,2.5-117.9,0c-2.5-0.2-15.3-2.3-15.9-3.3l1.2-110.1l4.9-93.8l4.2-1.5c42.5,3.2,90-4,131.9,0c2.9,0.3,7.7,0.5,8.8,4.1
	c1.2,3.8,0.6,28.6,0.2,34.2c-0.4,5.1-1.2,13.3-3.4,17.4c-4.4,3.8-56.2-0.1-67.3,1.5c-12.6,1.8-13.1,9.3-11.8,21.4l2.1,2.2l65.8,0.1
	c3,2.6,2.2,15.7,2,20.5c-0.1,4.1-1.7,23.4-3,25.3c-1.5,2.3-2.4,2.2-4.7,2.4c-17.4,2.1-40.4-2.9-57.2,0.3c-2,0.4-4.4,2.1-6.3,3
	c-2.4,2.7-3.2,14.9,0.3,17.6H1954.1z"/>
</svg>
