<?xml version="1.0" encoding="utf-8"?>
<!-- Generator: Adobe Illustrator 25.4.1, SVG Export Plug-In . SVG Version: 6.00 Build 0)  -->
<svg version="1.1" id="Layer_1" xmlns="http://www.w3.org/2000/svg" xmlns:xlink="http://www.w3.org/1999/xlink" x="0px" y="0px"
	 viewBox="0 0 2400 800" style="enable-background:new 0 0 2400 800;" xml:space="preserve">
<style type="text/css">
	.st0{fill:#FFFFFF;}
	.st1{fill:none;stroke:#FFFFFF;stroke-width:3.276;stroke-linecap:round;stroke-linejoin:round;stroke-miterlimit:10;}
	.st2{fill:none;stroke:#FFFFFF;stroke-width:3.6565;stroke-miterlimit:10;}
	.st3{fill:none;stroke:#FFFFFF;stroke-width:78.1534;stroke-linecap:round;stroke-miterlimit:3.9984;}
	.st4{clip-path:url(#SVGID_00000076588809839327421770000007504038092970642870_);}
	.st5{clip-path:url(#SVGID_00000114064133020739477090000017159701937281591991_);}
	.st6{clip-path:url(#SVGID_00000032626890088107120330000015596014919623580548_);}
	.st7{clip-path:url(#SVGID_00000150091475603591622870000001038345209305867943_);}
	.st8{clip-path:url(#SVGID_00000016038079292650769380000003097198335384517261_);}
	.st9{clip-path:url(#SVGID_00000040571818475720258170000017633350539472025000_);}
	.st10{clip-path:url(#SVGID_00000057135640012560991120000005195616829383075263_);}
	.st11{clip-path:url(#SVGID_00000148655511812603053430000017715263915116262585_);}
	.st12{clip-path:url(#SVGID_00000172434964258614551780000016646788207814975636_);}
	.st13{clip-path:url(#SVGID_00000084527107336994890570000010193301412897508270_);}
	.st14{clip-path:url(#SVGID_00000150809401782368528160000009032305580524234124_);}
	.st15{clip-path:url(#SVGID_00000008846509379590257280000005562866392421884584_);}
	.st16{fill:#020203;}
	.st17{fill:none;stroke:#C72B27;stroke-width:78.1534;stroke-linecap:round;stroke-miterlimit:3.9984;}
	.st18{clip-path:url(#SVGID_00000178916491269764568890000014638839733045069484_);}
	.st19{clip-path:url(#SVGID_00000144339823025851350840000010486263694962958269_);}
	.st20{clip-path:url(#SVGID_00000114040508445491621090000006959842157598219966_);}
	.st21{clip-path:url(#SVGID_00000079444664480513056170000001654781862178623400_);}
	.st22{clip-path:url(#SVGID_00000127025080106758325950000009509228944527173774_);}
	.st23{clip-path:url(#SVGID_00000150810457411148530390000001084217025943080122_);}
	.st24{fill:none;stroke:#C72B27;stroke-width:19.3449;stroke-linecap:round;stroke-miterlimit:3.9984;}
	.st25{fill:#EF7D05;}
	.st26{fill:none;}
	.st27{fill:#E3584B;}
</style>
<g>
	<path class="st0" d="M574.1,506.2c-23.2,0-42.2-3.7-57-11.2c-14.8-7.4-25.6-18.4-32.5-33c-6.9-14.5-10.4-32.3-10.4-53.1V266.2h50.7
		v141.4c0,19.5,4,34,12,43.5c8,9.5,20.5,14.2,37.6,14.2c17.2,0,29.7-4.8,37.4-14.2c7.7-9.5,11.5-24,11.5-43.5V266.2h50.8v142.7
		c0,20.9-3.5,38.6-10.4,53.1c-6.9,14.5-17.7,25.5-32.5,33C616.7,502.4,597.6,506.2,574.1,506.2z"/>
	<path class="st0" d="M779.8,503v-88.5l-80.2-148.3h54.9l50.7,102.9l50.7-102.9h54.9l-80.2,148.3V503H779.8z"/>
	<path class="st0" d="M1019.4,506.2c-17.9,0-34.1-2.6-48.5-7.7c-14.4-5.1-25.8-13.2-34.2-24.4c-8.4-11.1-12.7-25.7-12.7-43.6h50.7
		c0.2,9.1,2.3,16.3,6.3,21.6c4,5.2,9.4,8.9,16.1,11.2c6.7,2.2,14.5,3.3,23.1,3.3c8.3,0,15.7-1,22-3c6.3-2,11.3-5.1,14.9-9.2
		c3.6-4.2,5.4-9.5,5.4-15.9c0-6.2-1.5-11.3-4.6-15.4c-3.1-4-8.4-7.7-16.2-11.1c-7.7-3.3-18.6-6.9-32.5-10.8
		c-16.3-4.7-30.4-9.9-42.3-15.5c-11.9-5.6-21.1-12.9-27.6-21.8c-6.5-8.9-9.8-20.5-9.8-34.8c0-15.4,3.7-27.9,11.2-37.6
		c7.4-9.7,17.7-16.8,30.9-21.4c13.1-4.6,28.2-6.9,45.2-6.9c16.2,0,31.1,2.5,44.6,7.4c13.5,4.9,24.4,12.4,32.5,22.5
		c8.1,10.1,12.1,22.9,12.1,38.5h-50.7c0.1-10.1-3.6-17.6-11.3-22.6c-7.6-5-16.8-7.5-27.4-7.5c-10.6,0-19.3,2-26.2,5.9
		c-6.9,3.9-10.4,10-10.4,18.2c0,4.7,1.5,8.8,4.4,12.4c2.9,3.6,8.4,7.1,16.3,10.5c7.9,3.4,19.4,7.3,34.4,11.6
		c17.9,5.3,32.7,10.8,44.2,16.6c11.5,5.8,20,13.3,25.6,22.5c5.6,9.2,8.4,21.3,8.4,36.3c0,16.8-4.1,30.3-12.3,40.6
		c-8.2,10.3-19.4,17.9-33.5,22.7C1053.2,503.7,1037.2,506.2,1019.4,506.2z"/>
	<path class="st0" d="M1227.7,503V266.2h49.4V503H1227.7z"/>
	<path class="st0" d="M1333.6,503V266.2h56.8l74.2,126.3H1445l73.2-126.3h54.7V503h-48.7V292.6h21.6l-77.4,134.8h-30.4l-79.3-134.8
		h22.3V503H1333.6z"/>
	<path class="st0" d="M1629.3,503V266.2h80.9c25.6,0,45.8,4.8,60.7,14.5c14.9,9.7,22.3,24.5,22.3,44.6c0,12.6-3.1,23.2-9.4,31.9
		c-6.3,8.7-14.6,15-25.1,18.9c16.4,3.3,28.9,10,37.6,20.1c8.6,10.1,12.9,22.5,12.9,37.3c0,15.8-3.6,28.9-10.8,39.1
		c-7.2,10.3-17.5,17.9-31,22.9c-13.4,5-29.5,7.5-48.3,7.5H1629.3z M1678.8,362.1h30.8c9.5,0,17.5-2.5,23.9-7.4
		c6.4-4.9,9.7-12.1,9.7-21.6c0-6.7-1.5-12-4.4-15.9c-2.9-3.9-6.9-6.7-12-8.4c-5-1.7-10.8-2.6-17.2-2.6h-30.8V362.1z M1678.8,462
		h38.7c7.7,0,14.8-1,21.1-2.9c6.3-1.9,11.3-5.3,15-10.2c3.7-4.9,5.5-11.4,5.5-19.6c0-10.6-3.9-18.1-11.8-22.6
		c-7.9-4.5-17.8-6.8-29.9-6.8h-38.7V462z"/>
	<path class="st0" d="M1852.4,503V266.2h49.4V503H1852.4z"/>
	<path class="st0" d="M2038.7,506.2c-17.9,0-34.1-2.6-48.5-7.7c-14.4-5.1-25.8-13.2-34.2-24.4c-8.4-11.1-12.7-25.7-12.7-43.6h50.7
		c0.2,9.1,2.3,16.3,6.3,21.6c4,5.2,9.4,8.9,16.1,11.2c6.7,2.2,14.5,3.3,23.1,3.3c8.3,0,15.7-1,22-3c6.3-2,11.3-5.1,14.9-9.2
		c3.6-4.2,5.4-9.5,5.4-15.9c0-6.2-1.5-11.3-4.6-15.4c-3.1-4-8.4-7.7-16.2-11.1c-7.7-3.3-18.6-6.9-32.5-10.8
		c-16.3-4.7-30.4-9.9-42.3-15.5c-11.9-5.6-21.1-12.9-27.6-21.8c-6.5-8.9-9.8-20.5-9.8-34.8c0-15.4,3.7-27.9,11.2-37.6
		c7.4-9.7,17.7-16.8,30.9-21.4c13.1-4.6,28.2-6.9,45.2-6.9c16.2,0,31.1,2.5,44.6,7.4c13.5,4.9,24.4,12.4,32.5,22.5
		c8.1,10.1,12.1,22.9,12.1,38.5h-50.7c0.1-10.1-3.6-17.6-11.3-22.6c-7.6-5-16.8-7.5-27.4-7.5c-10.6,0-19.3,2-26.2,5.9
		c-6.9,3.9-10.4,10-10.4,18.2c0,4.7,1.5,8.8,4.4,12.4c2.9,3.6,8.4,7.1,16.3,10.5c7.9,3.4,19.4,7.3,34.4,11.6
		c17.9,5.3,32.7,10.8,44.2,16.6c11.5,5.8,20,13.3,25.6,22.5c5.6,9.2,8.4,21.3,8.4,36.3c0,16.8-4.1,30.3-12.3,40.6
		c-8.2,10.3-19.4,17.9-33.5,22.7C2072.5,503.7,2056.5,506.2,2038.7,506.2z"/>
	<path class="st0" d="M2254.2,506.2c-17.9,0-34.1-2.6-48.5-7.7c-14.4-5.1-25.8-13.2-34.2-24.4c-8.4-11.1-12.7-25.7-12.7-43.6h50.7
		c0.2,9.1,2.3,16.3,6.3,21.6c4,5.2,9.4,8.9,16.1,11.2c6.7,2.2,14.5,3.3,23.1,3.3c8.3,0,15.7-1,22-3c6.3-2,11.3-5.1,14.9-9.2
		c3.6-4.2,5.4-9.5,5.4-15.9c0-6.2-1.5-11.3-4.6-15.4c-3.1-4-8.4-7.7-16.2-11.1c-7.7-3.3-18.6-6.9-32.5-10.8
		c-16.3-4.7-30.4-9.9-42.3-15.5c-11.9-5.6-21.1-12.9-27.6-21.8c-6.5-8.9-9.8-20.5-9.8-34.8c0-15.4,3.7-27.9,11.2-37.6
		c7.4-9.7,17.7-16.8,30.9-21.4c13.1-4.6,28.2-6.9,45.2-6.9c16.2,0,31.1,2.5,44.6,7.4c13.5,4.9,24.4,12.4,32.5,22.5
		c8.1,10.1,12.1,22.9,12.1,38.5h-50.7c0.1-10.1-3.6-17.6-11.3-22.6c-7.6-5-16.8-7.5-27.4-7.5c-10.6,0-19.3,2-26.2,5.9
		c-6.9,3.9-10.4,10-10.4,18.2c0,4.7,1.5,8.8,4.4,12.4c2.9,3.6,8.4,7.1,16.3,10.5c7.9,3.4,19.4,7.3,34.4,11.6
		c17.9,5.3,32.7,10.8,44.2,16.6c11.5,5.8,20,13.3,25.6,22.5c5.6,9.2,8.4,21.3,8.4,36.3c0,16.8-4.1,30.3-12.3,40.6
		c-8.2,10.3-19.4,17.9-33.5,22.7C2288,503.7,2272,506.2,2254.2,506.2z"/>
</g>
<rect x="135.3" y="414.3" transform="matrix(1.829930e-03 -1 1 1.829930e-03 -343.3933 647.2203)" class="st25" width="34.4" height="162.7"/>
<path class="st25" d="M75.8,335.1h37.7c0-24.8,20.1-44.9,44.9-44.9v-37.7C112.7,252.5,75.8,289.5,75.8,335.1z"/>
<path class="st25" d="M240.9,335.1h-37.7c0-24.8-20.1-44.9-44.9-44.9v-37.7C203.9,252.5,240.9,289.5,240.9,335.1z"/>
<path class="st26" d="M158.3,417.7H75.8v-82.5C75.8,380.7,112.7,417.7,158.3,417.7z"/>
<path class="st25" d="M240.9,335.1c0,45.6-37,82.5-82.6,82.5V380c24.8,0,44.9-20.1,44.9-44.9H240.9z"/>
<path class="st25" d="M71.1,462.5c0-45.6,37-82.5,82.6-82.5v37.7c-24.8,0-44.9,20.1-44.9,44.9H71.1z"/>
<path class="st26" d="M158.3,380c-24.8,0-44.9-20.1-44.9-44.9H75.8v-82.6h82.5v37.7c24.8,0,44.9,20.1,44.9,44.9
	C203.2,359.9,183.1,380,158.3,380z"/>
<path class="st26" d="M240.9,335.1v82.5h-82.6C203.9,417.7,240.9,380.7,240.9,335.1z"/>
<path class="st26" d="M240.9,252.5v82.6c0-45.6-37-82.6-82.6-82.6H240.9z"/>
<path class="st25" d="M434.4,431.5c0,45.6-37,82.5-82.6,82.5c-45.6,0-82.5-37-82.5-82.5h37.7c0,24.8,20.1,44.9,44.9,44.9
	c24.8,0,44.9-20.1,44.9-44.9H434.4z"/>
<path class="st25" d="M394.5,331.9c0,24.8-20.1,44.9-44.9,44.9c-24.8,0-44.9-20.1-44.9-44.9c0-24.8,20.1-44.9,44.9-44.9v-37.7
	c-45.6,0-82.5,37-82.5,82.6c0,45.6,37,82.5,82.5,82.5c45.6,0,82.6-37,82.6-82.5H394.5z"/>
<path class="st25" d="M432.8,328.1h-37.7c0-24.8-16.3-41.1-41.1-41.1v-37.7C399.6,249.3,432.8,282.4,432.8,328.1z"/>
<path class="st26" d="M432.2,249.3v82.6c0-45.6-37-82.6-82.6-82.6H432.2z"/>
</svg>
