<?xml version="1.0" encoding="utf-8"?>
<!-- Generator: Adobe Illustrator 25.4.1, SVG Export Plug-In . SVG Version: 6.00 Build 0)  -->
<svg version="1.1" id="Layer_1" xmlns="http://www.w3.org/2000/svg" xmlns:xlink="http://www.w3.org/1999/xlink" x="0px" y="0px"
	 viewBox="0 0 2400 800" style="enable-background:new 0 0 2400 800;" xml:space="preserve">
<style type="text/css">
	.st0{fill:#FFFFFF;}
	.st1{fill:none;stroke:#FFFFFF;stroke-width:3.276;stroke-linecap:round;stroke-linejoin:round;stroke-miterlimit:10;}
	.st2{fill:none;stroke:#FFFFFF;stroke-width:3.6565;stroke-miterlimit:10;}
	.st3{fill:none;stroke:#FFFFFF;stroke-width:78.1534;stroke-linecap:round;stroke-miterlimit:3.9984;}
	.st4{clip-path:url(#SVGID_00000142864254294381600190000015653196254442679188_);}
	.st5{clip-path:url(#SVGID_00000170270677943175449540000002218388920546930586_);}
	.st6{clip-path:url(#SVGID_00000123422386942787353970000013955462354106136989_);}
	.st7{clip-path:url(#SVGID_00000063604093501637349060000008948026037136238222_);}
	.st8{clip-path:url(#SVGID_00000051341834105289658930000002643147511553481613_);}
	.st9{clip-path:url(#SVGID_00000039829734690878837780000013520991217880771993_);}
	.st10{clip-path:url(#SVGID_00000165929922136337695190000001324425180813154962_);}
	.st11{clip-path:url(#SVGID_00000121989571002594495100000006232085426140484276_);}
	.st12{clip-path:url(#SVGID_00000063604622978812369380000010988964144768457878_);}
	.st13{clip-path:url(#SVGID_00000006701307597025937890000014812412390595118985_);}
	.st14{clip-path:url(#SVGID_00000020386461929844367530000000104489703341738405_);}
	.st15{clip-path:url(#SVGID_00000149356066534741730950000005033002745989915320_);}
	.st16{fill:#020203;}
	.st17{fill:none;stroke:#C72B27;stroke-width:78.1534;stroke-linecap:round;stroke-miterlimit:3.9984;}
	.st18{clip-path:url(#SVGID_00000092416169658389595900000013065724515217261443_);}
	.st19{clip-path:url(#SVGID_00000160894623799474594010000006631842595258728104_);}
	.st20{clip-path:url(#SVGID_00000137842268688341997650000013353282504586001035_);}
	.st21{clip-path:url(#SVGID_00000079445949520623423250000006686870702379211666_);}
	.st22{clip-path:url(#SVGID_00000070092288962195879880000005663855992036898948_);}
	.st23{clip-path:url(#SVGID_00000129177993231255617540000009335747223441188741_);}
	.st24{fill:none;stroke:#C72B27;stroke-width:19.3449;stroke-linecap:round;stroke-miterlimit:3.9984;}
	.st25{fill:#EF7D05;}
	.st26{fill:none;}
	.st27{fill:#E3584B;}
</style>
<path class="st0" d="M385.1,531.7c0,11.4-1.4,21.7-4.3,30.8c-2.9,9.1-6.7,17.2-11.4,24.1c-4.7,7-10.3,12.9-16.7,17.8
	c-6.4,4.9-13,8.9-19.8,12c-6.8,3.1-13.7,5.4-20.8,6.9c-7,1.5-13.7,2.2-19.9,2.2h-223v-57.8h223c11.1,0,19.8-3.3,25.9-9.8
	c6.1-6.5,9.2-15.3,9.2-26.2c0-5.3-0.8-10.2-2.4-14.7c-1.6-4.4-4-8.3-7-11.6c-3-3.3-6.7-5.8-11.1-7.6c-4.4-1.8-9.2-2.7-14.6-2.7h-133
	c-9.3,0-19.4-1.7-30.2-5c-10.8-3.3-20.9-8.7-30.1-16.1c-9.3-7.4-17-17.1-23.1-29.1c-6.2-12-9.2-26.7-9.2-44c0-17.3,3.1-32,9.2-43.9
	c6.1-11.9,13.9-21.6,23.1-29.1c9.3-7.5,19.3-12.9,30.1-16.2c10.8-3.3,20.9-5,30.2-5H356v57.8H159.2c-11,0-19.5,3.3-25.7,10
	c-6.2,6.7-9.2,15.5-9.2,26.5c0,11.1,3.1,19.9,9.2,26.3c6.1,6.5,14.7,9.7,25.7,9.7h133h0.4c6.2,0.1,12.8,1,19.8,2.6
	c7,1.6,13.9,4,20.8,7.2c6.9,3.3,13.5,7.4,19.7,12.3c6.2,5,11.7,10.9,16.6,17.9c4.8,7,8.6,15,11.4,24
	C383.7,510.1,385.1,520.3,385.1,531.7z"/>
<path class="st0" d="M689.5,596.4c0,4.2-0.7,8-2.2,11.6c-1.5,3.6-3.5,6.6-6.1,9.2c-2.6,2.6-5.6,4.6-9.1,6.1
	c-3.5,1.5-7.2,2.2-11.2,2.2H530.1c-7.1,0-14.7-0.8-22.8-2.4c-8.1-1.6-16-4.3-23.9-7.9c-7.9-3.6-15.5-8.2-22.8-13.8
	c-7.3-5.6-13.7-12.3-19.2-20.2c-5.5-7.9-9.9-17.1-13.2-27.5c-3.3-10.4-5-22.1-5-35.1V385.2h57.8v133.4c0,7.6,1.3,14.3,3.9,20.3
	c2.6,6,6.1,11.2,10.6,15.5c4.4,4.3,9.7,7.6,15.7,9.9c6,2.3,12.5,3.4,19.5,3.4h101.2V385.2h57.8V596.4z"/>
<path class="st0" d="M976,544.4c0,9.9-1.3,18.9-3.8,26.8c-2.5,7.9-5.9,14.9-10,20.9c-4.2,6-9,11.1-14.5,15.3
	c-5.5,4.2-11.2,7.7-17.2,10.3c-6,2.7-12.1,4.6-18.2,5.9c-6.2,1.3-12,1.9-17.5,1.9H738.4v-57.8h156.1c7.9,0,13.8-2,17.8-6
	c4-4,6-9.8,6-17.3c-0.7-15.4-8.5-23.1-23.3-23.1h-89.6c-12.7,0-23.6-2.2-32.5-6.7c-8.9-4.4-16.1-10-21.7-16.7s-9.6-13.9-12-21.6
	s-3.7-14.9-3.7-21.6c0-12.9,2.3-23.7,6.9-32.6c4.6-8.8,10.4-16,17.3-21.5c7-5.5,14.5-9.5,22.7-11.9c8.1-2.5,15.8-3.7,22.9-3.7h142.1
	V443H805.7c-3,0-5.3,0.3-7,1c-1.7,0.7-3,1.6-3.8,2.7c-0.8,1.1-1.3,2.3-1.4,3.6c-0.1,1.3-0.2,2.5-0.2,3.7c0.1,2.4,0.6,4.2,1.3,5.6
	c0.7,1.3,1.7,2.3,2.8,2.9c1.1,0.6,2.4,0.9,3.8,1c1.4,0.1,2.8,0.1,4.1,0.1h89.6c14.8,0,27.4,2.7,37.8,8c10.4,5.3,18.7,12,25.1,20.1
	c6.4,8.1,11,16.9,13.9,26.3C974.6,527.4,976,536.3,976,544.4z"/>
<path class="st0" d="M1075.2,625.6h-57.8V283.6h57.8V625.6z M1283.8,625.6h-57.8V466.2c0-7.6-1.9-13.3-5.8-17.2
	c-3.9-3.9-9.6-5.9-17.3-5.9h-104.3v-57.8h104.3c5.5,0,11.3,0.6,17.3,1.9c6.1,1.3,12.1,3.2,18.1,5.9c6,2.7,11.7,6.1,17.2,10.3
	c5.5,4.2,10.3,9.3,14.5,15.3c4.1,6,7.5,12.9,10,20.8c2.5,7.9,3.8,16.7,3.8,26.7V625.6z"/>
<path class="st0" d="M1395.4,335.9h-57.8v-52.2h57.8V335.9z M1395.4,625.6h-57.8V385.2h57.8V625.6z"/>
<path class="st0" d="M1831.1,544.4c0,9.9-1.3,18.9-3.8,26.8c-2.5,7.9-5.9,14.9-10,20.9c-4.2,6-9,11.1-14.5,15.3
	c-5.5,4.2-11.2,7.7-17.2,10.3c-6,2.7-12.1,4.6-18.2,5.9c-6.2,1.3-12,1.9-17.5,1.9h-156.5v-57.8h156.1c7.9,0,13.8-2,17.8-6
	c4-4,6-9.8,6-17.3c-0.7-15.4-8.5-23.1-23.3-23.1h-89.6c-12.7,0-23.6-2.2-32.5-6.7c-8.9-4.4-16.1-10-21.7-16.7s-9.6-13.9-12-21.6
	c-2.4-7.7-3.7-14.9-3.7-21.6c0-12.9,2.3-23.7,6.9-32.6c4.6-8.8,10.4-16,17.3-21.5c7-5.5,14.5-9.5,22.7-11.9
	c8.1-2.5,15.8-3.7,22.9-3.7h142.1V443h-141.6c-3,0-5.3,0.3-7,1c-1.7,0.7-3,1.6-3.8,2.7c-0.8,1.1-1.3,2.3-1.4,3.6
	c-0.1,1.3-0.2,2.5-0.2,3.7c0.1,2.4,0.6,4.2,1.3,5.6c0.7,1.3,1.7,2.3,2.8,2.9c1.1,0.6,2.4,0.9,3.8,1c1.4,0.1,2.8,0.1,4.1,0.1h89.6
	c14.8,0,27.4,2.7,37.8,8c10.4,5.3,18.7,12,25.1,20.1c6.4,8.1,11,16.9,13.9,26.3C1829.7,527.4,1831.1,536.3,1831.1,544.4z"/>
<path class="st0" d="M1930.3,335.9h-57.8v-52.2h57.8V335.9z M1930.3,625.6h-57.8V385.2h57.8V625.6z"/>
<g>
	<path class="st27" d="M2183.7,388.1c-1.3-0.1-2.7-0.3-4.1-0.4c-1.6-0.1-3.3-0.1-4.9-0.2l-6.4,12.2c0.6,0,1.3,0,2,0
		c6,0.1,11.6,1.2,17,3.1l8.5-11C2192,390.3,2187.9,389.1,2183.7,388.1z M2093.5,399.6c5.9,0,11.8,0.1,17.8,0.1h0.5l5.8-13.5
		c-6.9,0-13.8,0-20.6,0L2093.5,399.6z"/>
	<path class="st27" d="M2111.3,399.7c-5.9,0-11.8,0-17.8-0.1l-4,16c5-1.5,10.4-1.9,16.3-1.8l6-14.1H2111.3z M2170.2,399.8
		c-0.6,0-1.3,0-2,0l-8,15.4c2.5,0.4,5.1,1.1,7.7,2c2.2,0.7,4.3,1.4,6.6,2.1l12.7-16.3C2181.8,401,2176.2,399.9,2170.2,399.8z"/>
	<path class="st27" d="M2242.6,465.1c-1.9-27.1-14.9-51.6-32.9-65.6c-2.8-1.9-5.7-3.7-9-5.4c-1.6-0.8-3.2-1.6-5-2.3l-8.5,11
		l-12.7,16.3c6.7,2,14.2,4.2,24.6,7.4c-6.8,9-12.4,17.2-17.7,24.5c-4.5,6.2-8.8,11.8-13.5,16.9c-20.9,22.9-43.2,43.7-63.8,67
		c-9,10.1-17.6,21.4-24.7,33.6c-2,3.5-3.9,7.1-5.7,10.7c-7.4,15.7-14.4,19.5-27.1,9.4c1.6-7.2,3.4-14.2,5.5-20.9
		c13.5-44,37.9-78.8,62.7-113c2.6-3.6,5.7-7.1,8.2-11c1.4-2,2.6-4.1,3.4-6.4c7.6-20.3,19.5-24.9,33.7-22.4l8-15.4l6.4-12.2
		c-19-0.8-38.1-1.3-57.1-1.3l-5.8,13.5l-6,14.1c6.5,0.1,13.5,0.9,20.8,1.7c-6.4,9.8-12.9,19.2-19.4,28.4
		c-26.3,37.4-52.6,72.5-66.8,117.2c-2.4,7.6-4.5,15.4-6.1,23.6c-18.9-6.4-21.4-12.1-17.5-32.9c3.8-19.9,10.6-37.7,18.8-54.3
		c7.1-14.3,15.3-27.8,23.9-41.1c1.9-3,4.6-5.7,5.4-9.1c0.3-1.1,0.6-2.2,0.9-3.3c5-17.4,13.3-25.2,23.7-28.4l4-16l3.4-13.4
		c-17.6,0.2-35.3,0.6-52.9,1.4c-3.7,0.6-7.6,1.6-11.6,2.7c-9,2.7-17.3,7-25,13c-15.9,14.6-26.8,38-28.4,63.8
		c-1.6,25.3-1.7,51.1-0.2,76.5c1.9,30.9,16,56.6,35.9,70.7c5.6,3.4,11.5,6.1,17.7,7.9c8,2.4,15.4,3.7,22.4,4c18.4,0.3,36.8,0,55.3,0
		c12.4,0,24.8,0.2,37.1,0.2c6.2,0,12.3-0.1,18.5-0.2c4.7-0.1,9.5-0.6,14.6-1.7c6.1-1.2,12.2-3.2,18.3-5.9c2.6-1.1,5.2-2.5,7.6-4
		c20.3-14,34.6-39.9,36.7-71.2C2244.6,517.5,2244.4,491,2242.6,465.1z M2006.7,526.9c-5.2-58.5,6.7-99,57.8-108.5
		c-4.8,9-9.6,17.9-14.2,26.7c-5,9.3-9.9,18.5-14.7,27.6C2025.6,491.3,2016,509.4,2006.7,526.9z M2130.3,597.6
		c-0.9-2.1-1.8-4.1-2.7-6.2c9.1-7.5,18.3-15.1,27.5-22.7c10.3-8.5,20.7-17.1,31.2-25.7c8.5-7.1,17-14.1,25.7-21.3
		C2219.6,570.6,2179.8,604.7,2130.3,597.6z M2208.3,513.4c-7.6,4-14.8,8.5-22,13.3c-17.8,11.9-34.5,26-50.3,41.9
		c-7.7,7.7-15.2,15.9-22.6,24.3c-6.3,7.3-19.8,4.6-30,6.4c-1.2-2.8-2.5-5.6-3.8-8.4c5.2-7.3,10.1-14.8,15.1-22.2
		c6.7-10,13.5-19.8,21.2-28.4c22.4-25.1,45.6-49.2,70.2-74.9c7.8-8.2,15.9-16.6,24.1-25.2c2.1,20.2,4.7,39.9,5.8,59.7
		C2216.2,504.2,2211.8,511.5,2208.3,513.4z"/>
	<path class="st27" d="M2102.4,421.7l-5.6,13l0.1,0l5.6-12.2C2102.4,422.2,2102.4,421.9,2102.4,421.7z"/>
	<path class="st27" d="M2325.2,214.6c-17.2,24.9-35.3,49.2-53.2,73.6c-22.5,30.9-44.9,61.8-67.6,92.5l-0.3,0.4l-8.3,10.7l-8.5,11
		l-12.7,16.3l-20,25.8c0,0,0-0.1,0-0.1l-1.7,2.2l-0.7,0.9l-23.6,31.3l-2-1.7l18.6-33.7l1.3-2.4h-0.1l13.8-26.5l8-15.4l6.4-12.2
		l7.4-14.1l0.2-0.4c4.4-8,8.8-16,13-24c27.8-51.6,55.4-103.2,83.1-154.9c1.2-2.2,2.4-4.6,3.7-6.7c9.2-14.3,23.7-18.9,36.1-11.4
		C2331.7,184.1,2335.3,199.9,2325.2,214.6z"/>
	<path class="st27" d="M2200.7,185.1c-22.1,54.1-44.3,108.1-66.5,162.2l-16.7,38.9l-5.8,13.5l-6,14.1l-3.4,7.8v0.1l-5.6,13h0.1
		l-27.3,59.2l-2.3-1.2l17.3-58l0.1-0.6l0.3-1h-0.1l4.4-17.5l4-16l3.4-13.4l7.9-31.1c1.2-3.1,2.2-6.7,3.1-10.8
		c2.1-8.9,4.1-17.8,6.3-26.6c12.1-50,25.7-99.6,38.8-149.4c5.1-19.3,18.5-27.9,33.4-22.8C2202.4,151,2208.2,166.6,2200.7,185.1z"/>
	<path class="st27" d="M2102.5,422.5l-5.6,12.2l-0.1,0l5.6-13C2102.4,421.9,2102.4,422.2,2102.5,422.5z"/>
	<polygon class="st27" points="2085.1,433 2085.1,433 2084.8,434.1 	"/>
	<path class="st27" d="M2114.2,317.6c-2.2,8.8-4.3,17.7-6.3,26.6c-0.9,4.1-1.9,7.7-3.2,10.8L2114.2,317.6L2114.2,317.6z"/>
	<polygon class="st27" points="2146.4,441.6 2146.4,441.7 2145.2,444 	"/>
	<path class="st27" d="M2154.5,445l-1.7,2.2L2154.5,445C2154.5,444.9,2154.5,445,2154.5,445z"/>
</g>
</svg>
