<?xml version="1.0" encoding="utf-8"?>
<!-- Generator: Adobe Illustrator 25.4.1, SVG Export Plug-In . SVG Version: 6.00 Build 0)  -->
<svg version="1.1" id="Layer_1" xmlns="http://www.w3.org/2000/svg" xmlns:xlink="http://www.w3.org/1999/xlink" x="0px" y="0px"
	 viewBox="0 0 2400 800" style="enable-background:new 0 0 2400 800;" xml:space="preserve">
<style type="text/css">
	.st0{fill:#FFFFFF;}
	.st1{fill:none;stroke:#FFFFFF;stroke-width:3.276;stroke-linecap:round;stroke-linejoin:round;stroke-miterlimit:10;}
	.st2{fill:none;stroke:#FFFFFF;stroke-width:3.6565;stroke-miterlimit:10;}
	.st3{fill:none;stroke:#FFFFFF;stroke-width:78.1534;stroke-linecap:round;stroke-miterlimit:3.9984;}
	.st4{clip-path:url(#SVGID_00000130619509789089513650000005311437406664567733_);}
	.st5{clip-path:url(#SVGID_00000125600746746266082630000012978647851774541184_);}
	.st6{clip-path:url(#SVGID_00000005958613651952560970000003996848572605371527_);}
	.st7{clip-path:url(#SVGID_00000003803408489734998140000017987403001621821585_);}
	.st8{clip-path:url(#SVGID_00000106844653579994323620000006673854733948288940_);}
	.st9{clip-path:url(#SVGID_00000016797835144436474750000000280287032300388007_);}
	.st10{clip-path:url(#SVGID_00000141440470938681653340000015696315086823445394_);}
	.st11{clip-path:url(#SVGID_00000024689670240872554620000016517825868294646403_);}
	.st12{clip-path:url(#SVGID_00000178179141997222960260000005510890699031449519_);}
	.st13{clip-path:url(#SVGID_00000169534871051363737790000005227287219462075322_);}
	.st14{clip-path:url(#SVGID_00000026880583359736884000000002525676009948133263_);}
	.st15{clip-path:url(#SVGID_00000054249531628603173350000007861847132289056133_);}
	.st16{fill:#020203;}
	.st17{fill:none;stroke:#C72B27;stroke-width:78.1534;stroke-linecap:round;stroke-miterlimit:3.9984;}
	.st18{clip-path:url(#SVGID_00000050632678941858643550000002720326249703520398_);}
	.st19{clip-path:url(#SVGID_00000103972461526790962230000009417454174507547793_);}
	.st20{clip-path:url(#SVGID_00000082326628275514485090000018310698285245249939_);}
	.st21{clip-path:url(#SVGID_00000158724104377449959250000003051877533873201327_);}
	.st22{clip-path:url(#SVGID_00000024684528096409834170000009031757317650249126_);}
	.st23{clip-path:url(#SVGID_00000103265028703357745790000011664273802588607646_);}
	.st24{fill:none;stroke:#C72B27;stroke-width:19.3449;stroke-linecap:round;stroke-miterlimit:3.9984;}
	.st25{fill:#EF7D05;}
	.st26{fill:none;}
	.st27{fill:#E3584B;}
</style>
<g>
	<path class="st3" d="M1562.8,416.5h235.3"/>
	<g>
		<defs>
			<rect id="SVGID_1_" x="1517.7" y="144.3" width="325.6" height="171.4"/>
		</defs>
		<clipPath id="SVGID_00000183929852330461849750000000080288210107157140_">
			<use xlink:href="#SVGID_1_"  style="overflow:visible;"/>
		</clipPath>
		<g style="clip-path:url(#SVGID_00000183929852330461849750000000080288210107157140_);">
			<g>
				<defs>
					<path id="SVGID_00000127031569819909976240000003510365280791743114_" d="M1565.2,315.7c-6.2,0-12.3-1.3-18.5-3.8
						c-24.1-10.3-35.4-38-25.2-62.1c26.9-64.2,89.3-105.5,158.9-105.5c69.6,0,131.9,41.3,159.1,105.5c10.3,24.1-1,52.1-25.2,62.1
						c-24.1,10.3-52.1-1-62.1-25.2c-12.3-28.7-40.6-47.5-71.9-47.5c-31.3,0-59.3,18.7-71.6,47.5
						C1601.4,304.7,1583.7,315.7,1565.2,315.7z"/>
				</defs>
				<clipPath id="SVGID_00000023257515687612070510000005398917312945678745_">
					<use xlink:href="#SVGID_00000127031569819909976240000003510365280791743114_"  style="overflow:visible;"/>
				</clipPath>
				<g style="clip-path:url(#SVGID_00000023257515687612070510000005398917312945678745_);">
					<g transform="matrix(1, 0, 0, 1, 2533, 281)">
						<g>
							<defs>
								
									<rect id="SVGID_00000088845494989009658240000002823936606287267716_" x="-1015.3" y="-136.8" width="325.6" height="171.9"/>
							</defs>
							<clipPath id="SVGID_00000023995218405906189700000017291086964311932858_">
								<use xlink:href="#SVGID_00000088845494989009658240000002823936606287267716_"  style="overflow:visible;"/>
							</clipPath>
							<g style="clip-path:url(#SVGID_00000023995218405906189700000017291086964311932858_);">
								<g>
									<defs>
										
											<rect id="SVGID_00000028305136420990732380000001725870755473786291_" x="-1015.3" y="-136.7" width="325.6" height="171.4"/>
									</defs>
									<clipPath id="SVGID_00000070081937155275719280000007549939470841241219_">
										<use xlink:href="#SVGID_00000028305136420990732380000001725870755473786291_"  style="overflow:visible;"/>
									</clipPath>
									<g style="clip-path:url(#SVGID_00000070081937155275719280000007549939470841241219_);">
										<g>
											<defs>
												<path id="SVGID_00000072259100550942387000000010119860224354619011_" d="M-967.8,34.7c-6.2,0-12.3-1.3-18.5-3.8
													c-24.1-10.3-35.4-38-25.2-62.1c26.9-64.2,89.3-105.5,158.9-105.5c69.6,0,131.9,41.3,159.1,105.5
													c10.3,24.1-1,52.1-25.2,62.1c-24.1,10.3-52.1-1-62.1-25.2C-793-23-821.2-41.8-852.5-41.8c-31.3,0-59.3,18.7-71.6,47.5
													C-931.6,23.7-949.3,34.7-967.8,34.7z"/>
											</defs>
											<clipPath id="SVGID_00000031181888955893627080000000891655248417537694_">
												<use xlink:href="#SVGID_00000072259100550942387000000010119860224354619011_"  style="overflow:visible;"/>
											</clipPath>
											<g style="clip-path:url(#SVGID_00000031181888955893627080000000891655248417537694_);">
												<path class="st0" d="M-1015.3-136.7h325.5V34.7h-325.5V-136.7z"/>
											</g>
										</g>
									</g>
								</g>
							</g>
						</g>
					</g>
				</g>
			</g>
		</g>
	</g>
	<g>
		<defs>
			<rect id="SVGID_00000005964502872219836790000015355404225068884125_" x="1549.7" y="299.1" width="113" height="108.4"/>
		</defs>
		<clipPath id="SVGID_00000179635343577779395420000018047306630770271151_">
			<use xlink:href="#SVGID_00000005964502872219836790000015355404225068884125_"  style="overflow:visible;"/>
		</clipPath>
		<g style="clip-path:url(#SVGID_00000179635343577779395420000018047306630770271151_);">
			<g>
				<defs>
					
						<rect id="SVGID_00000150810350816205896860000007060999737743652241_" x="1549.6" y="300.1" transform="matrix(0.9998 -1.963808e-02 1.963808e-02 0.9998 -6.6355 31.6066)" width="112.7" height="107.1"/>
				</defs>
				<clipPath id="SVGID_00000069373429224081006870000010672230297626677122_">
					<use xlink:href="#SVGID_00000150810350816205896860000007060999737743652241_"  style="overflow:visible;"/>
				</clipPath>
				<g style="clip-path:url(#SVGID_00000069373429224081006870000010672230297626677122_);">
					<g>
						<defs>
							<polygon id="SVGID_00000069397058415939635890000004250718299592629932_" points="1639.8,299.4 1662.6,365.2 1607.1,407.2 
								1550,367.4 1570.2,300.8 							"/>
						</defs>
						<clipPath id="SVGID_00000080901151616791695140000012503124728739105428_">
							<use xlink:href="#SVGID_00000069397058415939635890000004250718299592629932_"  style="overflow:visible;"/>
						</clipPath>
						<g style="clip-path:url(#SVGID_00000080901151616791695140000012503124728739105428_);">
							<g transform="matrix(1, 0, 0, 1, 2595, 581)">
								<g>
									<defs>
										
											<rect id="SVGID_00000094612846716399509050000016922143559739998106_" x="-1045.3" y="-281.9" width="113" height="108.4"/>
									</defs>
									<clipPath id="SVGID_00000038394106427126609150000002622805638290542478_">
										<use xlink:href="#SVGID_00000094612846716399509050000016922143559739998106_"  style="overflow:visible;"/>
									</clipPath>
									<g style="clip-path:url(#SVGID_00000038394106427126609150000002622805638290542478_);">
										<g>
											<defs>
												
													<rect id="SVGID_00000169521486154004622430000017928698844140968373_" x="-1045.1" y="-281.7" width="112.7" height="108"/>
											</defs>
											<clipPath id="SVGID_00000071559609527656486500000001455058989943709065_">
												<use xlink:href="#SVGID_00000169521486154004622430000017928698844140968373_"  style="overflow:visible;"/>
											</clipPath>
											<g style="clip-path:url(#SVGID_00000071559609527656486500000001455058989943709065_);">
												<g>
													<defs>
														
															<rect id="SVGID_00000135658613116927386210000011545749005624871302_" x="-1045.4" y="-280.9" transform="matrix(0.9998 -1.963808e-02 1.963808e-02 0.9998 4.2738 -19.4663)" width="112.7" height="107.1"/>
													</defs>
													<clipPath id="SVGID_00000134962607171495831750000001014889911431966637_">
														<use xlink:href="#SVGID_00000135658613116927386210000011545749005624871302_"  style="overflow:visible;"/>
													</clipPath>
													<g style="clip-path:url(#SVGID_00000134962607171495831750000001014889911431966637_);">
														<g>
															<defs>
																<polygon id="SVGID_00000096018865656015011460000001600694825248429721_" points="-955.2,-281.6 -932.4,-215.8 
																	-987.9,-173.8 -1045,-213.6 -1024.8,-280.2 																"/>
															</defs>
															<clipPath id="SVGID_00000031888405817918168340000014083510811425863829_">
																<use xlink:href="#SVGID_00000096018865656015011460000001600694825248429721_"  style="overflow:visible;"/>
															</clipPath>
															<g style="clip-path:url(#SVGID_00000031888405817918168340000014083510811425863829_);">
																<path class="st16" d="M-931.6-174.9l-112.7,2.2l-2.1-107.1l112.7-2.2L-931.6-174.9z"/>
															</g>
														</g>
													</g>
												</g>
											</g>
										</g>
									</g>
								</g>
							</g>
						</g>
					</g>
				</g>
			</g>
		</g>
	</g>
	<path class="st17" d="M1562.8,305.1h235.3"/>
	<g>
		<defs>
			<rect id="SVGID_00000103951621584110811970000014107431614861725876_" x="211" y="-0.4" width="1258.8" height="600.8"/>
		</defs>
		<clipPath id="SVGID_00000057856436929302060990000013710529403648482713_">
			<use xlink:href="#SVGID_00000103951621584110811970000014107431614861725876_"  style="overflow:visible;"/>
		</clipPath>
		<g style="clip-path:url(#SVGID_00000057856436929302060990000013710529403648482713_);">
			<g>
				<g>
					<defs>
						<rect id="SVGID_00000003814598422593320920000014119350331751609506_" x="210.5" y="-0.8" width="1259.2" height="601.2"/>
					</defs>
					<clipPath id="SVGID_00000049942352154362279440000011579034964601176971_">
						<use xlink:href="#SVGID_00000003814598422593320920000014119350331751609506_"  style="overflow:visible;"/>
					</clipPath>
					<g style="clip-path:url(#SVGID_00000049942352154362279440000011579034964601176971_);">
						<g>
							<g transform="translate(4.839828, 911.390581)">
								<g>
									<path class="st0" d="M242.2-756.6H352c42.8,0,74.5,6.4,95.3,19.1c20.7,12.7,31.1,32.5,31.1,59.3c0,17.7-4.5,32.7-13.6,45.2
										c-9,12.5-21,20.5-35.7,24.1v2.2c19.5,5.2,33.7,13.8,42.4,25.8c8.8,12.1,13.1,27.7,13.1,46.9c0,28.6-10.7,51.1-32.2,67.5
										c-21.5,16.4-50.7,24.7-87.7,24.7H242.2V-756.6z M327.3-635.8h25.6c12.2,0,21.6-2.5,28.3-7.5c6.7-5,10-12.5,10-22.4
										c0-17.7-13.3-26.5-40-26.5h-23.9V-635.8z M327.3-573.6v66.1h29.9c26.6,0,39.8-11.2,39.8-33.6c0-10.5-3.6-18.5-10.7-24.1
										c-7.1-5.6-17.4-8.4-30.9-8.4H327.3z"/>
								</g>
							</g>
						</g>
						<g>
							<g transform="translate(580.531186, 911.390581)">
								<g>
									<path class="st0" d="M231.2-756.6v189.5c0,41.2-11.7,73.1-35,95.7c-23.3,22.6-57,33.9-100.9,33.9
										c-42.9,0-75.9-11-98.9-32.9c-23-22-34.6-53.5-34.6-94.7v-191.4h85.5v184.7c0,22.3,4.2,38.4,12.5,48.4
										c8.3,10,20.6,15.1,36.8,15.1c17.4,0,30-5,37.8-15c7.8-10,11.7-26.3,11.7-49v-184.3H231.2z"/>
								</g>
							</g>
						</g>
						<g>
							<g transform="translate(1227.141044, 911.390581)">
								<g>
									<path class="st0" d="M-264.3-556.4v114.6h-85.1v-314.8h103.1c85.5,0,128.3,31,128.3,93c0,36.5-17.8,64.7-53.4,84.6
										l91.7,137.2H-176l-66.8-114.6H-264.3z M-264.3-620.3h15.9c29.7,0,44.6-13.1,44.6-39.4c0-21.7-14.6-32.5-43.7-32.5h-16.8
										V-620.3z"/>
								</g>
							</g>
						</g>
						<g>
							<g transform="translate(1805.335414, 911.390581)">
								<g>
									<path class="st0" d="M-502.7-626.1h135.9v169.7c-36.9,12.6-77.4,18.9-121.7,18.9c-48.5,0-86-14.1-112.5-42.2
										c-26.5-28.1-39.7-68.3-39.7-120.4c0-50.8,14.5-90.4,43.5-118.6c29-28.3,69.6-42.4,121.9-42.4c19.8,0,38.5,1.9,56.1,5.6
										c17.6,3.7,32.9,8.5,46,14.2l-26.9,66.7c-22.7-11.2-47.6-16.8-74.7-16.8c-24.8,0-44,8.1-57.6,24.2
										c-13.6,16.1-20.3,39.2-20.3,69.2c0,29.4,6.1,51.9,18.4,67.3c12.3,15.4,30,23.1,53.1,23.1c12.6,0,24.3-1.2,34.9-3.7v-49.3
										h-56.2V-626.1z"/>
								</g>
							</g>
						</g>
					</g>
				</g>
			</g>
		</g>
	</g>
	<g>
		<defs>
			<rect id="SVGID_00000006678243421633807490000001825774674662346658_" x="1881.6" y="1.8" width="308.4" height="601.2"/>
		</defs>
		<clipPath id="SVGID_00000127741416664026942280000014531126873079009199_">
			<use xlink:href="#SVGID_00000006678243421633807490000001825774674662346658_"  style="overflow:visible;"/>
		</clipPath>
		<g style="clip-path:url(#SVGID_00000127741416664026942280000014531126873079009199_);">
			<g transform="matrix(1, 0, 0, 1, 3238, 5)">
				<g>
					<defs>
						<rect id="SVGID_00000014618689769383379920000003902786245607194283_" x="-1356.4" y="-3.2" width="308.6" height="601.2"/>
					</defs>
					<clipPath id="SVGID_00000062908841627782900260000008652988524084398727_">
						<use xlink:href="#SVGID_00000014618689769383379920000003902786245607194283_"  style="overflow:visible;"/>
					</clipPath>
					<g style="clip-path:url(#SVGID_00000062908841627782900260000008652988524084398727_);">
						<g>
							<g transform="translate(0.616017, 911.47442)">
								<g>
									<path class="st0" d="M-1237.7-558.8v114.6h-85.1v-314.8h103.1c85.5,0,128.3,31,128.3,93c0,36.5-17.8,64.7-53.4,84.6
										l91.7,137.2h-96.5l-66.8-114.6H-1237.7z M-1237.7-622.8h15.9c29.7,0,44.6-13.1,44.6-39.4c0-21.7-14.6-32.5-43.7-32.5h-16.8
										V-622.8z"/>
								</g>
							</g>
						</g>
					</g>
				</g>
			</g>
		</g>
	</g>
	<g>
		<defs>
			<rect id="SVGID_00000096049974097515767770000015305815776002912428_" x="884.5" y="503.9" width="685.9" height="179.2"/>
		</defs>
		<clipPath id="SVGID_00000093899327269563973960000000345428443360927661_">
			<use xlink:href="#SVGID_00000096049974097515767770000015305815776002912428_"  style="overflow:visible;"/>
		</clipPath>
		<g style="clip-path:url(#SVGID_00000093899327269563973960000000345428443360927661_);">
			<g transform="matrix(1, 0, 0, 1, 1306, 978)">
				<g>
					<defs>
						<rect id="SVGID_00000072254095529767134810000015281342837093951405_" x="-421.5" y="-474.1" width="685.9" height="179.6"/>
					</defs>
					<clipPath id="SVGID_00000093896108673017713160000015525303802128656261_">
						<use xlink:href="#SVGID_00000072254095529767134810000015281342837093951405_"  style="overflow:visible;"/>
					</clipPath>
					<g style="clip-path:url(#SVGID_00000093896108673017713160000015525303802128656261_);">
						<g>
							<g transform="translate(1.261053, 263.46254)">
								<g>
									<path class="st0" d="M-410.1-697.2h29.8c13.6,0,23.4,1.9,29.5,5.8c6.1,3.9,9.2,10,9.2,18.4c0,5.7-1.3,10.4-4,14.1
										c-2.7,3.7-6.2,5.9-10.7,6.6v0.7c6.1,1.4,10.4,3.9,13.1,7.6c2.7,3.7,4,8.6,4,14.8c0,8.7-3.2,15.5-9.5,20.4
										c-6.3,4.9-14.9,7.3-25.7,7.3h-35.8V-697.2z M-389.8-659.3h11.8c5.5,0,9.5-0.8,11.9-2.5c2.5-1.7,3.7-4.5,3.7-8.4
										c0-3.7-1.3-6.3-4-7.9c-2.7-1.6-6.9-2.4-12.7-2.4h-10.7V-659.3z M-389.8-643.2v24.9h13.2c5.6,0,9.7-1.1,12.4-3.2
										c2.7-2.1,4-5.4,4-9.8c0-7.9-5.7-11.9-17-11.9H-389.8z"/>
								</g>
							</g>
						</g>
						<g>
							<g transform="translate(214.2142, 263.46254)">
								<g>
									<path class="st0" d="M-515.5-693.6c0-6.5,3.6-9.7,10.9-9.7c7.2,0,10.9,3.2,10.9,9.7c0,3.1-0.9,5.5-2.7,7.2
										c-1.8,1.7-4.5,2.6-8.1,2.6C-511.9-683.8-515.5-687-515.5-693.6z M-494.7-601.6h-19.9v-73.1h19.9V-601.6z"/>
								</g>
							</g>
						</g>
						<g>
							<g transform="translate(332.052653, 263.46254)">
								<g>
									<path class="st0" d="M-540.9-616.1c3.5,0,7.7-0.8,12.6-2.3v14.8c-5,2.2-11.1,3.3-18.3,3.3c-8,0-13.8-2-17.4-6
										c-3.6-4-5.5-10.1-5.5-18.2v-35.2h-9.5v-8.4l11-6.7l5.7-15.4h12.8v15.6h20.5v15h-20.5v35.2c0,2.8,0.8,4.9,2.4,6.3
										C-545.6-616.8-543.5-616.1-540.9-616.1z"/>
								</g>
							</g>
						</g>
						<g>
							<g transform="translate(589.386832, 263.46254)">
								<g>
									<path class="st0" d="M-638.2-628.1c0,8.6-3.1,15.4-9.3,20.4c-6.2,5-14.9,7.5-25.9,7.5c-10.2,0-19.2-1.9-27.1-5.8v-18.8
										c6.5,2.9,11.9,4.9,16.4,6.1c4.5,1.2,8.6,1.8,12.3,1.8c4.4,0,7.9-0.8,10.2-2.5c2.4-1.7,3.6-4.2,3.6-7.6c0-1.9-0.5-3.5-1.6-5
										c-1-1.5-2.6-2.9-4.6-4.2c-2-1.4-6.2-3.5-12.4-6.5c-5.8-2.7-10.2-5.4-13.2-7.9c-2.9-2.5-5.3-5.5-7-8.8
										c-1.7-3.4-2.6-7.3-2.6-11.8c0-8.5,2.9-15.1,8.6-19.9c5.7-4.8,13.7-7.3,23.8-7.3c5,0,9.7,0.6,14.2,1.8
										c4.5,1.2,9.2,2.8,14.2,5l-6.5,15.8c-5.1-2.1-9.3-3.5-12.7-4.4c-3.3-0.8-6.6-1.2-9.8-1.2c-3.8,0-6.8,0.9-8.8,2.7
										c-2,1.8-3.1,4.1-3.1,7c0,1.8,0.4,3.4,1.2,4.7c0.8,1.3,2.1,2.6,4,3.9c1.8,1.2,6.1,3.5,12.9,6.7c8.9,4.3,15.1,8.6,18.4,12.9
										C-639.9-639.6-638.2-634.3-638.2-628.1z"/>
								</g>
							</g>
						</g>
						<g>
							<g transform="translate(770.930596, 263.46254)">
								<g>
									<path class="st0" d="M-753.3-616.1c3.5,0,7.7-0.8,12.6-2.3v14.8c-5,2.2-11.1,3.3-18.3,3.3c-8,0-13.8-2-17.4-6
										c-3.6-4-5.5-10.1-5.5-18.2v-35.2h-9.5v-8.4l11-6.7l5.7-15.4h12.8v15.6h20.5v15H-762v35.2c0,2.8,0.8,4.9,2.4,6.3
										C-758-616.8-755.9-616.1-753.3-616.1z"/>
								</g>
							</g>
						</g>
						<g>
							<g transform="translate(922.204838, 263.46254)">
								<g>
									<path class="st0" d="M-841.4-638.2c0,7.2,1.2,12.7,3.6,16.4c2.4,3.7,6.3,5.6,11.6,5.6c5.3,0,9.1-1.8,11.5-5.5
										c2.3-3.7,3.5-9.2,3.5-16.4c0-7.2-1.2-12.7-3.5-16.3c-2.4-3.6-6.2-5.4-11.6-5.4c-5.3,0-9.2,1.8-11.5,5.4
										C-840.2-651-841.4-645.5-841.4-638.2z M-790.9-638.2c0,11.9-3.1,21.2-9.4,27.9c-6.3,6.7-15,10.1-26.2,10.1
										c-7,0-13.2-1.5-18.6-4.6c-5.4-3.1-9.5-7.5-12.4-13.2c-2.9-5.8-4.3-12.5-4.3-20.2c0-11.9,3.1-21.2,9.4-27.9
										c6.2-6.6,15-9.9,26.3-9.9c7,0,13.2,1.5,18.6,4.6c5.4,3.1,9.5,7.4,12.4,13.2C-792.3-652.6-790.9-645.9-790.9-638.2z"/>
								</g>
							</g>
						</g>
						<g>
							<g transform="translate(1121.479702, 263.46254)">
								<g>
									<path class="st0" d="M-913.6-600.3c-8.6,0-15.3-3.1-20.2-9.4h-1c0.7,6.1,1,9.6,1,10.6v29.6h-19.9v-105.3h16.2l2.8,9.5h0.9
										c4.7-7.2,11.6-10.9,20.7-10.9c8.6,0,15.4,3.3,20.3,10c4.9,6.7,7.3,15.9,7.3,27.8c0,7.8-1.1,14.6-3.4,20.3
										c-2.3,5.8-5.6,10.1-9.8,13.1C-902.9-601.8-907.9-600.3-913.6-600.3z M-919.5-660.1c-4.9,0-8.5,1.5-10.8,4.5
										c-2.3,3-3.4,8-3.5,15v2.2c0,7.8,1.2,13.5,3.5,16.9c2.3,3.4,6,5.1,11.1,5.1c8.9,0,13.4-7.4,13.4-22.1
										c0-7.2-1.1-12.6-3.3-16.2C-911.3-658.3-914.8-660.1-919.5-660.1z"/>
								</g>
							</g>
						</g>
					</g>
				</g>
			</g>
		</g>
	</g>
	<path class="st24" d="M270.3,577.8h310.1"/>
	<path class="st24" d="M1861.5,577.8h310.1"/>
</g>
</svg>
