<?xml version="1.0" encoding="utf-8"?>
<!-- Generator: Adobe Illustrator 25.4.1, SVG Export Plug-In . SVG Version: 6.00 Build 0)  -->
<svg version="1.1" id="Layer_1" xmlns="http://www.w3.org/2000/svg" xmlns:xlink="http://www.w3.org/1999/xlink" x="0px" y="0px"
	 viewBox="0 0 1080 1080" style="enable-background:new 0 0 1080 1080;" xml:space="preserve">
<style type="text/css">
	.st0{clip-path:url(#SVGID_00000032610099530645833590000014391767421880898218_);enable-background:new    ;}
	.st1{clip-path:url(#SVGID_00000023996645899832198780000017448514015656174739_);}
	.st2{clip-path:url(#SVGID_00000011741887215181538390000004435420125950507907_);}
	.st3{clip-path:url(#SVGID_00000175322763081421945490000016404636301121477024_);fill:#EC6F41;}
	.st4{fill:none;}
	.st5{fill:#EC6F41;}
	.st6{clip-path:url(#SVGID_00000060019369616525883510000014746302817392256642_);enable-background:new    ;}
	.st7{clip-path:url(#SVGID_00000171717969800846780220000013524230119456271519_);}
	.st8{clip-path:url(#SVGID_00000173126321053493158650000016685012011037178518_);fill:#FFFFFF;}
	.st9{clip-path:url(#SVGID_00000160174189610267255040000015758619192780723101_);}
	.st10{clip-path:url(#SVGID_00000083088063414152373120000005212366359448893076_);enable-background:new    ;}
	.st11{clip-path:url(#SVGID_00000061459227983331247470000010661813955267485858_);}
	.st12{clip-path:url(#SVGID_00000108294725687199474930000000603200695705215885_);}
	.st13{clip-path:url(#SVGID_00000032609151675914374690000004070192706176293303_);fill:#EC6F41;}
	.st14{clip-path:url(#SVGID_00000063598905510822812420000008381461462499135397_);}
	.st15{clip-path:url(#SVGID_00000092440682559564646130000000451697140259999641_);}
	.st16{clip-path:url(#SVGID_00000117644480093910527150000009583912833286754189_);enable-background:new    ;}
	.st17{clip-path:url(#SVGID_00000102527432126688646900000009242429580637154702_);}
	.st18{clip-path:url(#SVGID_00000056399220397069468940000013568296390939874955_);}
	.st19{clip-path:url(#SVGID_00000029735786911843143730000007351987904402997139_);}
	.st20{clip-path:url(#SVGID_00000031176424199458138470000001956253142133722753_);fill:#EC6F41;}
</style>
<g>
	<g>
		<defs>
			<path id="SVGID_1_" d="M562.3,403.4h433.3c10.6,0,20.7,4.2,28.2,11.7c7.5,7.5,11.7,17.6,11.7,28.2v194.3
				c0,10.6-4.2,20.7-11.7,28.2c-7.5,7.5-17.6,11.7-28.2,11.7H562.3c-10.6,0-20.7-4.2-28.2-11.7c-7.5-7.5-11.7-17.6-11.7-28.2V443.3
				c0-10.6,4.2-20.7,11.7-28.2C541.6,407.6,551.8,403.4,562.3,403.4z"/>
		</defs>
		<clipPath id="SVGID_00000022533761924172818510000008745545244250767035_">
			<use xlink:href="#SVGID_1_"  style="overflow:visible;"/>
		</clipPath>
		<g style="clip-path:url(#SVGID_00000022533761924172818510000008745545244250767035_);enable-background:new    ;">
			<g>
				<defs>
					<rect id="SVGID_00000098930868025513900400000003082960060003105214_" x="521.5" y="402.4" width="514.8" height="275.2"/>
				</defs>
				<clipPath id="SVGID_00000026121548932477786660000002718745733226356640_">
					<use xlink:href="#SVGID_00000098930868025513900400000003082960060003105214_"  style="overflow:visible;"/>
				</clipPath>
				<g style="clip-path:url(#SVGID_00000026121548932477786660000002718745733226356640_);">
					<defs>
						<rect id="SVGID_00000122002116237025088230000008488050637831506596_" x="521.5" y="402.4" width="514.8" height="275.2"/>
					</defs>
					<clipPath id="SVGID_00000139257944288594066250000007205875126311268249_">
						<use xlink:href="#SVGID_00000122002116237025088230000008488050637831506596_"  style="overflow:visible;"/>
					</clipPath>
					<g style="clip-path:url(#SVGID_00000139257944288594066250000007205875126311268249_);">
						<defs>
							<path id="SVGID_00000054964870551165473290000009611904875632196015_" d="M562.3,403.4h433.3c10.6,0,20.7,4.2,28.2,11.7
								c7.5,7.5,11.7,17.6,11.7,28.2v194.3c0,10.6-4.2,20.7-11.7,28.2c-7.5,7.5-17.6,11.7-28.2,11.7H562.3
								c-10.6,0-20.7-4.2-28.2-11.7c-7.5-7.5-11.7-17.6-11.7-28.2V443.3c0-10.6,4.2-20.7,11.7-28.2
								C541.6,407.6,551.8,403.4,562.3,403.4z"/>
						</defs>
						<clipPath id="SVGID_00000138561665846143212960000007836785021569238670_">
							<use xlink:href="#SVGID_00000054964870551165473290000009611904875632196015_"  style="overflow:visible;"/>
						</clipPath>
						
							<rect x="522.5" y="403.4" style="clip-path:url(#SVGID_00000138561665846143212960000007836785021569238670_);fill:#EC6F41;" width="512.6" height="273.9"/>
					</g>
				</g>
			</g>
		</g>
	</g>
	<rect x="521.5" y="402.4" class="st4" width="514.8" height="275.2"/>
	<path class="st5" d="M56.9,539.6c0-7.8-0.2-14.6-0.7-20.3c-0.5-5.7-1.1-10.6-1.9-14.7c-0.8-4.1-1.6-7.7-2.4-10.7
		c-0.8-3-1.6-5.7-2.4-8.1c-0.8-2.4-1.4-4.9-1.9-7.3c-0.5-2.5-0.7-5.1-0.7-8.1c0-2.7,0.6-4.8,1.9-6.2c1.3-1.4,2.9-2.4,4.7-2.9
		c1.9-0.5,3.7-0.8,5.6-0.9c1.8,0,3.3-0.1,4.5-0.1h28.4c1.2,0,2.7,0,4.5,0.1c1.8,0,3.7,0.3,5.6,0.9c1.9,0.5,3.4,1.5,4.7,2.9
		c1.3,1.4,1.9,3.4,1.9,6.2c0,2.9-0.2,5.6-0.7,8.1c-0.5,2.5-1.1,4.9-1.9,7.3c-0.8,2.4-1.6,5.1-2.4,8.1c-0.8,3-1.6,6.6-2.4,10.7
		c-0.8,4.1-1.4,9-1.9,14.7c-0.5,5.7-0.7,12.4-0.7,20.3c0,7.8,0.2,14.6,0.7,20.3c0.5,5.7,1.1,10.6,1.9,14.7c0.8,4.1,1.6,7.7,2.4,10.7
		c0.8,3,1.6,5.7,2.4,8.1c0.8,2.4,1.4,4.8,1.9,7.3c0.5,2.4,0.7,5.1,0.7,8.1c0,2.7-0.6,4.8-1.9,6.2c-1.3,1.4-2.9,2.4-4.7,2.9
		c-1.9,0.5-3.7,0.8-5.6,0.9c-1.8,0-3.3,0.1-4.5,0.1H63.6c-1.2,0-2.7,0-4.5-0.1c-1.8,0-3.7-0.3-5.6-0.9c-1.9-0.5-3.4-1.5-4.7-2.9
		c-1.3-1.4-1.9-3.4-1.9-6.2c0-3,0.2-5.7,0.7-8.1c0.5-2.4,1.1-4.8,1.9-7.3c0.8-2.4,1.6-5.1,2.4-8.1c0.8-3,1.6-6.6,2.4-10.7
		c0.8-4.1,1.4-9,1.9-14.7C56.6,554.2,56.9,547.4,56.9,539.6z M113.1,608.9c0-3.7,0.3-7.2,1-10.3c0.7-3.1,1.5-6.4,2.5-9.8
		c1-3.4,2-7.4,3-11.9c1-4.5,1.9-10,2.5-16.3c0.7-6.4,1-14.1,1-23.3c0-7.6-0.2-14.2-0.7-19.7c-0.5-5.5-1.1-10.3-1.9-14.2
		c-0.8-4-1.6-7.4-2.4-10.3c-0.8-2.9-1.6-5.6-2.4-8c-0.8-2.4-1.4-4.7-1.9-7.1c-0.5-2.3-0.7-4.9-0.7-7.8c0-2.6,0.6-4.6,1.9-6
		c1.3-1.4,2.9-2.3,4.7-2.9c1.9-0.5,3.7-0.8,5.6-0.9c1.8,0,3.3-0.1,4.5-0.1h62.6c7.5,0,14.2,1.5,20.1,4.6c5.8,3,10.4,7.3,13.7,12.8
		c3.3,5.5,5,11.9,5,19.2c0,3.2-0.4,6.4-1.3,9.7c-0.8,3.3-2.2,6.5-4.2,9.5c-1.9,3-4.5,5.8-7.7,8.1c-3.2,2.4-7.1,4.2-11.8,5.4
		c-1.8,0.5-2.7,1.2-2.7,2.1c0,0.6,0.7,1.2,2.2,1.9c1.5,0.7,3.3,1.5,5.6,2.5c2.3,1,4.7,2.4,7.3,4.2c2.6,1.8,5,4.1,7.3,7
		c2.3,2.9,4.1,6.5,5.6,10.8c1.5,4.3,2.2,9.6,2.2,15.8c0,3.8-0.5,7.8-1.6,11.9c-1.1,4.1-2.7,8.2-5.1,12c-2.3,3.9-5.4,7.4-9.2,10.6
		c-3.8,3.2-8.5,5.6-14,7.5c-5.5,1.8-11.9,2.7-19.4,2.7H128c-1.2,0-2.6,0-4.2-0.1c-1.6,0-3.3-0.3-4.9-0.9c-1.6-0.5-3-1.5-4.1-2.9
		C113.6,613.6,113.1,611.6,113.1,608.9z M164.6,515.3c0,2.3,0.6,3.8,1.8,4.6c1.2,0.8,2.8,1.2,4.8,1.2c3.6,0,6.5-0.5,8.8-1.5
		c2.3-1,4-2.3,5.3-3.8c1.3-1.5,2.2-3.1,2.7-4.7c0.5-1.6,0.8-3.1,0.8-4.4c0-1.2-0.3-2.7-0.8-4.3c-0.5-1.6-1.4-3.2-2.7-4.8
		c-1.3-1.5-3.1-2.8-5.3-3.8c-2.3-1-5.2-1.5-8.8-1.5c-2.1,0-3.7,0.4-4.8,1.2c-1.2,0.8-1.8,2.3-1.8,4.6V515.3z M164.6,578.9
		c0,3.2,0.6,5.3,1.8,6.3c1.2,1.1,2.8,1.6,4.8,1.6c3.6,0,6.5-0.7,8.8-2.1c2.3-1.4,4-3.2,5.3-5.3c1.3-2.1,2.2-4.3,2.7-6.6
		c0.5-2.3,0.8-4.3,0.8-6s-0.3-3.8-0.8-6.1c-0.5-2.3-1.4-4.5-2.7-6.7c-1.3-2.1-3.1-3.9-5.3-5.3c-2.3-1.4-5.2-2.1-8.8-2.1
		c-2.1,0-3.7,0.5-4.8,1.5c-1.2,1-1.8,3.2-1.8,6.4c0,0.7,0,1.9,0.1,3.6c0,1.6,0.1,3.3,0.1,4.9c0,1.6,0.1,2.9,0.1,3.7
		c0,0.7,0,1.9-0.1,3.6c0,1.6-0.1,3.3-0.1,4.9C164.6,576.9,164.6,578.1,164.6,578.9z M236.4,470.2c0-2.6,0.6-4.6,1.9-6
		c1.3-1.4,2.9-2.3,4.7-2.9c1.9-0.5,3.7-0.8,5.6-0.9c1.8,0,3.3-0.1,4.5-0.1h28.4c1.2,0,2.7,0,4.5,0.1c1.8,0,3.7,0.3,5.6,0.9
		c1.9,0.5,3.4,1.5,4.7,2.9c1.3,1.4,1.9,3.4,1.9,6c0,2.9-0.2,5.5-0.7,7.8c-0.5,2.3-1.1,4.7-1.9,7.1c-0.8,2.4-1.6,5-2.4,8
		c-0.8,2.9-1.6,6.4-2.4,10.3c-0.8,4-1.4,8.7-1.9,14.2c-0.5,5.5-0.7,12.1-0.7,19.7v35.5c0,2.9,0.1,5.6,0.3,7.9
		c0.2,2.3,0.8,4.1,1.7,5.4c0.9,1.3,2.4,1.9,4.5,1.9c5.4,0,10.1-0.8,14.2-2.5c4.1-1.6,7.9-3.7,11.2-6.1c3.3-2.4,6.4-4.8,9.1-7.2
		c2.7-2.4,5.4-4.4,7.9-6c2.5-1.6,5.1-2.5,7.8-2.5c2.6,0,4.5,0.7,5.6,2c1.1,1.4,1.7,3,1.9,4.9c0.2,1.9,0.3,3.8,0.3,5.7v31.4
		c0,3.2-1,5.8-3,7.9c-2,2-4.6,3-7.9,3h-90.5c-1.2,0-2.6,0-4.2-0.1c-1.6,0-3.3-0.3-4.9-0.9c-1.6-0.5-3-1.5-4.1-2.9
		c-1.1-1.4-1.6-3.4-1.6-6c0-3.7,0.3-7.2,1-10.3c0.7-3.1,1.5-6.4,2.5-9.8c1-3.4,2-7.4,3-11.9c1-4.5,1.9-10,2.5-16.3
		c0.7-6.4,1-14.1,1-23.3c0-7.6-0.2-14.2-0.7-19.7c-0.5-5.5-1.1-10.3-1.9-14.2c-0.8-4-1.6-7.4-2.4-10.3c-0.8-2.9-1.6-5.6-2.4-8
		c-0.8-2.4-1.4-4.7-1.9-7.1C236.7,475.6,236.4,473,236.4,470.2z M372,618.7c-2.4,0-4.7-0.2-6.8-0.5c-2.1-0.4-3.8-1.1-5.1-2.2
		c-1.3-1.1-1.9-2.7-1.9-4.7c0-2.1,0.3-3.8,0.9-5.2c0.6-1.4,1.4-2.8,2.4-4.2c1-1.4,2.2-3,3.5-4.7c1.3-1.8,2.6-4,3.9-6.6
		c1.3-2.6,2.6-6,3.8-10c1.9-6.2,3.5-11.5,4.8-15.9c1.3-4.5,2.5-8.4,3.5-11.8c1-3.4,1.9-6.6,2.7-9.5c0.8-2.9,1.6-5.8,2.4-8.7
		c0.8-2.9,1.6-6.1,2.6-9.5c1-3.4,2-7.4,3.2-12c1.2-4.5,2.7-9.9,4.5-16.1c1.2-4.3,2-7.6,2.5-10c0.5-2.4,0.8-4.4,0.8-6
		c0.1-1.6,0-3.2-0.1-4.8c-0.1-1.6-0.3-3.7-0.4-6.3c0-0.6,0-1.4,0.1-2.4c0.1-1,0.4-2.1,0.9-3.2c0.5-1.1,1.4-2,2.6-2.8
		c1.2-0.8,3-1.2,5.3-1.2h29.7c2.2,0,4.1,0,5.8,0.1c1.6,0.1,3.1,0.5,4.5,1.2c1.3,0.7,2.6,2.1,3.8,4c1.2,1.9,2.5,4.7,3.7,8.2
		c1.3,3.6,2.7,8.3,4.3,14.2c2.1,7.2,3.8,13.5,5.3,19c1.5,5.5,2.8,10.4,4,14.7c1.2,4.4,2.3,8.6,3.4,12.6c1.1,4.1,2.3,8.3,3.5,12.6
		c1.2,4.4,2.7,9.2,4.2,14.6c1.6,5.4,3.5,11.6,5.7,18.8c1.2,4,2.5,7.4,3.8,10c1.3,2.6,2.6,4.8,3.9,6.6c1.3,1.8,2.4,3.3,3.5,4.7
		c1,1.4,1.8,2.8,2.4,4.2c0.6,1.4,0.9,3.2,0.9,5.2c0,2.1-0.6,3.6-1.9,4.7c-1.3,1.1-3,1.8-5,2.2c-2.1,0.4-4.3,0.5-6.8,0.5h-40.5
		c-1.7,0-3.4-0.2-5-0.7c-1.6-0.5-3-1.2-4.1-2.3c-1.1-1.1-1.6-2.5-1.6-4.3c0-2.4,0.2-4.3,0.6-5.8c0.4-1.4,0.9-2.8,1.4-4.1
		c0.5-1.3,1-2.9,1.4-4.7c0.4-1.9,0.6-4.5,0.6-7.8c0-1.8-0.1-3.8-0.3-5.8H411c0.1,1,0.2,1.9,0.3,2.9c0.1,1,0.3,1.9,0.3,3
		c0.4,3.3,1,5.9,1.6,7.8c0.6,1.9,1.2,3.4,1.8,4.7c0.5,1.3,1,2.6,1.4,4.1c0.4,1.4,0.6,3.4,0.6,5.8c0,1.8-0.5,3.3-1.6,4.3
		c-1.1,1.1-2.4,1.8-4.1,2.3c-1.6,0.5-3.3,0.7-5,0.7H372z M411.3,545.6h19.6c-1-3.4-1.9-6.9-3-10.7c-1-3.8-2.2-7.8-3.4-12
		c-0.7-2.5-1.5-4.6-2.2-6.3c-0.7-1.7-1.5-2.5-2.3-2.3c-0.7,0.1-1.5,1.1-2.2,3c-0.7,1.9-1.5,4.3-2.2,7.1c-0.7,2.8-1.4,5.7-2,8.7
		c-0.6,3-1.1,5.6-1.5,7.9C411.7,543.3,411.4,544.8,411.3,545.6z"/>
	<rect x="43.7" y="458.4" class="st4" width="461.3" height="212.8"/>
	<rect x="43.7" y="458.4" class="st4" width="461.3" height="212.8"/>
	<rect x="43.7" y="458.4" class="st4" width="461.3" height="212.8"/>
	<g>
		<defs>
			<rect id="SVGID_00000039837267088170344270000008816290856958272163_" x="554.5" y="455.6" width="451.3" height="216.1"/>
		</defs>
		<clipPath id="SVGID_00000057836707025367324010000010995374594837425561_">
			<use xlink:href="#SVGID_00000039837267088170344270000008816290856958272163_"  style="overflow:visible;"/>
		</clipPath>
		<g style="clip-path:url(#SVGID_00000057836707025367324010000010995374594837425561_);enable-background:new    ;">
			<g>
				<defs>
					<rect id="SVGID_00000179628613825284552270000000971300533052093591_" x="554.7" y="455.9" width="451.1" height="215.4"/>
				</defs>
				<clipPath id="SVGID_00000023276020973646135510000007794329513453778836_">
					<use xlink:href="#SVGID_00000179628613825284552270000000971300533052093591_"  style="overflow:visible;"/>
				</clipPath>
				<g style="clip-path:url(#SVGID_00000023276020973646135510000007794329513453778836_);">
					<defs>
						<rect id="SVGID_00000112627996435767784480000013122059106976448919_" x="554.5" y="455.6" width="451.3" height="216.1"/>
					</defs>
					<clipPath id="SVGID_00000094589412953219976440000003212865385695318200_">
						<use xlink:href="#SVGID_00000112627996435767784480000013122059106976448919_"  style="overflow:visible;"/>
					</clipPath>
					<path style="clip-path:url(#SVGID_00000094589412953219976440000003212865385695318200_);fill:#FFFFFF;" d="M574.1,618.7
						c-1.2,0-2.7,0-4.5-0.1c-1.8,0-3.7-0.3-5.6-0.9c-1.9-0.5-3.4-1.5-4.7-2.9c-1.3-1.4-1.9-3.4-1.9-6.2c0-3,0.2-5.7,0.7-8.1
						c0.5-2.4,1.1-4.8,1.9-7.3c0.8-2.4,1.6-5.1,2.4-8.1c0.8-3,1.6-6.6,2.4-10.7c0.8-4.1,1.4-9,1.9-14.7c0.5-5.7,0.7-12.4,0.7-20.3
						c0-7.8-0.2-14.6-0.7-20.3c-0.5-5.7-1.1-10.6-1.9-14.7c-0.8-4.1-1.6-7.7-2.4-10.7c-0.8-3-1.6-5.7-2.4-8.1
						c-0.8-2.4-1.4-4.9-1.9-7.3c-0.5-2.5-0.7-5.1-0.7-8.1c0-2.7,0.6-4.8,1.9-6.2c1.3-1.4,2.9-2.4,4.7-2.9c1.9-0.5,3.7-0.8,5.6-0.9
						c1.8,0,3.3-0.1,4.5-0.1h41.3c10.2,0,19.2,1.9,26.9,5.7c7.8,3.8,14.3,9.2,19.5,16.2c5.2,7,9.2,15.3,11.9,25
						c2.7,9.7,4,20.4,4,32.1c0,11.7-1.3,22.5-4,32.2c-2.7,9.7-6.6,18.1-11.9,25.1c-5.2,7-11.7,12.5-19.5,16.3
						c-7.8,3.8-16.8,5.7-26.9,5.7H574.1z M609.1,499.8v79.4c0,2.2,0.3,3.8,1,4.9c0.7,1.1,1.5,1.8,2.5,2.2c1,0.4,1.9,0.5,2.8,0.5
						c2.9,0,5.5-1.3,7.9-3.8c2.4-2.6,4.5-6.1,6.3-10.5c1.8-4.4,3.2-9.5,4.2-15.2c1-5.7,1.5-11.6,1.5-17.9c0-6.2-0.5-12.2-1.5-17.9
						c-1-5.7-2.4-10.7-4.2-15.2c-1.8-4.4-3.9-7.9-6.3-10.5c-2.4-2.6-5.1-3.8-7.9-3.8c-0.9,0-1.8,0.2-2.8,0.5c-1,0.4-1.8,1.1-2.5,2.2
						C609.5,495.9,609.1,497.6,609.1,499.8z M688.9,539.6c0-7.8-0.2-14.6-0.7-20.3c-0.5-5.7-1.1-10.6-1.9-14.7
						c-0.8-4.1-1.6-7.7-2.4-10.7c-0.8-3-1.6-5.7-2.4-8.1c-0.8-2.4-1.4-4.9-1.9-7.3c-0.5-2.5-0.7-5.1-0.7-8.1c0-2.7,0.6-4.8,1.9-6.2
						c1.3-1.4,2.9-2.4,4.7-2.9c1.9-0.5,3.7-0.8,5.6-0.9c1.8,0,3.3-0.1,4.5-0.1h28.4c1.2,0,2.7,0,4.5,0.1c1.8,0,3.7,0.3,5.6,0.9
						c1.9,0.5,3.4,1.5,4.7,2.9c1.3,1.4,1.9,3.4,1.9,6.2c0,2.9-0.2,5.6-0.7,8.1c-0.5,2.5-1.1,4.9-1.9,7.3c-0.8,2.4-1.6,5.1-2.4,8.1
						c-0.8,3-1.6,6.6-2.4,10.7c-0.8,4.1-1.4,9-1.9,14.7c-0.5,5.7-0.7,12.4-0.7,20.3c0,7.8,0.2,14.6,0.7,20.3
						c0.5,5.7,1.1,10.6,1.9,14.7c0.8,4.1,1.6,7.7,2.4,10.7c0.8,3,1.6,5.7,2.4,8.1c0.8,2.4,1.4,4.8,1.9,7.3c0.5,2.4,0.7,5.1,0.7,8.1
						c0,2.7-0.6,4.8-1.9,6.2c-1.3,1.4-2.9,2.4-4.7,2.9c-1.9,0.5-3.7,0.8-5.6,0.9c-1.8,0-3.3,0.1-4.5,0.1h-28.4c-1.2,0-2.7,0-4.5-0.1
						c-1.8,0-3.7-0.3-5.6-0.9c-1.9-0.5-3.4-1.5-4.7-2.9c-1.3-1.4-1.9-3.4-1.9-6.2c0-3,0.2-5.7,0.7-8.1c0.5-2.4,1.1-4.8,1.9-7.3
						c0.8-2.4,1.6-5.1,2.4-8.1c0.8-3,1.6-6.6,2.4-10.7c0.8-4.1,1.4-9,1.9-14.7C688.6,554.2,688.9,547.4,688.9,539.6z M741.9,583.3
						c0-5.3,1.1-9.9,3.3-13.8c2.2-3.9,5-7,8.5-9.2c3.5-2.2,7.1-3.4,10.9-3.5c3.1-0.1,6,0.6,8.6,2c2.7,1.4,5.2,3.2,7.7,5.5
						c2.5,2.3,4.9,4.7,7.3,7.3c2.4,2.6,4.8,5.1,7.1,7.4c2.4,2.3,4.8,4.2,7.4,5.7c2.5,1.5,5.2,2.2,8,2.2c3.6,0,6.2-0.9,7.7-2.7
						c1.5-1.8,2.3-4.1,2.3-6.8c0-3.1-1.1-5.7-3.2-7.8c-2.1-2.1-5-4-8.6-5.6c-3.6-1.6-7.7-3.1-12.3-4.6c-4.5-1.5-9.2-3.1-14-4.8
						c-4.8-1.7-9.5-3.8-14-6.3c-4.5-2.5-8.6-5.4-12.3-9c-3.6-3.5-6.5-7.8-8.6-12.8c-2.1-5-3.2-11-3.2-17.9c0-10.2,2.5-19,7.6-26.4
						c5.1-7.4,12.4-13.2,21.9-17.3c9.6-4.1,21.1-6.2,34.6-6.2c6.2,0,12.4,0.6,18.5,1.9c6.1,1.2,11.6,3.2,16.7,5.9
						c5,2.7,9,6.2,12,10.4c3,4.2,4.5,9.3,4.5,15.2c0,4.3-0.9,8.1-2.8,11.6c-1.9,3.5-4.4,6.3-7.6,8.5c-3.2,2.2-6.8,3.4-10.8,3.7
						c-3.4,0.2-6.7-0.4-9.7-1.9c-3-1.5-5.9-3.5-8.6-5.9c-2.7-2.4-5.4-4.8-8.1-7.3c-2.7-2.4-5.4-4.5-8.2-6.2c-2.8-1.7-5.8-2.5-9-2.5
						c-2.6,0-4.7,0.5-6.3,1.4c-1.5,1-2.6,2.1-3.2,3.5c-0.6,1.4-0.9,2.7-0.9,4c0,3,1.1,5.6,3.4,7.6c2.2,2.1,5.2,3.9,9,5.6
						c3.7,1.6,8,3.2,12.6,4.7c4.7,1.5,9.5,3.2,14.5,5.1c5,1.8,9.8,4.1,14.5,6.7c4.7,2.6,8.9,5.7,12.6,9.4c3.7,3.7,6.7,8.1,9,13.2
						c2.2,5.2,3.4,11.3,3.4,18.4c0,7.6-1.2,14.1-3.7,19.6c-2.5,5.5-5.8,10.1-10,13.9c-4.2,3.7-8.8,6.7-14,9
						c-5.1,2.2-10.4,3.8-15.9,4.8s-10.7,1.4-15.7,1.4c-5.8,0-11.7-0.4-17.6-1.1c-5.9-0.7-11.6-2-17-3.7c-5.4-1.7-10.3-4-14.5-6.8
						c-4.3-2.8-7.6-6.3-10.1-10.6C743.1,594,741.9,589,741.9,583.3z M875,539.6c0-7.8-0.2-14.6-0.7-20.3c-0.5-5.7-1.1-10.6-1.9-14.7
						c-0.8-4.1-1.6-7.7-2.4-10.7c-0.8-3-1.6-5.7-2.4-8.1c-0.8-2.4-1.4-4.9-1.9-7.3c-0.5-2.5-0.7-5.1-0.7-8.1c0-2.7,0.6-4.8,1.9-6.2
						c1.3-1.4,2.9-2.4,4.7-2.9c1.9-0.5,3.7-0.8,5.6-0.9c1.8,0,3.3-0.1,4.5-0.1h28.4c1.2,0,2.7,0,4.5,0.1c1.8,0,3.7,0.3,5.6,0.9
						c1.9,0.5,3.4,1.5,4.7,2.9c1.3,1.4,1.9,3.4,1.9,6.2c0,3.1-0.3,5.8-0.8,8.3c-0.5,2.5-1.2,5-2,7.5c-0.8,2.6-1.6,5.4-2.5,8.6
						c-0.9,3.2-1.7,7-2.4,11.3c-0.7,4.4-1.3,9.7-1.8,15.9h30.8c-0.4-6.2-1-11.5-1.8-15.9c-0.7-4.4-1.5-8.1-2.4-11.3
						c-0.9-3.2-1.7-6.1-2.5-8.6c-0.8-2.6-1.5-5.1-2-7.5c-0.5-2.5-0.8-5.2-0.8-8.3c0-2.7,0.6-4.8,1.9-6.2c1.3-1.4,2.9-2.4,4.7-2.9
						c1.9-0.5,3.7-0.8,5.6-0.9c1.8,0,3.3-0.1,4.5-0.1h28.4c1.2,0,2.7,0,4.5,0.1c1.8,0,3.7,0.3,5.6,0.9c1.9,0.5,3.4,1.5,4.7,2.9
						c1.3,1.4,1.9,3.4,1.9,6.2c0,2.9-0.2,5.6-0.7,8.1c-0.5,2.5-1.1,4.9-1.9,7.3c-0.8,2.4-1.6,5.1-2.4,8.1c-0.8,3-1.6,6.6-2.4,10.7
						c-0.8,4.1-1.4,9-1.9,14.7c-0.5,5.7-0.7,12.4-0.7,20.3c0,7.8,0.2,14.6,0.7,20.3c0.5,5.7,1.1,10.6,1.9,14.7
						c0.8,4.1,1.6,7.7,2.4,10.7c0.8,3,1.6,5.7,2.4,8.1c0.8,2.4,1.4,4.8,1.9,7.3c0.5,2.4,0.7,5.1,0.7,8.1c0,2.7-0.6,4.8-1.9,6.2
						c-1.3,1.4-2.9,2.4-4.7,2.9c-1.9,0.5-3.7,0.8-5.6,0.9c-1.8,0-3.3,0.1-4.5,0.1h-28.4c-1.2,0-2.7,0-4.5-0.1
						c-1.8,0-3.7-0.3-5.6-0.9c-1.9-0.5-3.4-1.5-4.7-2.9c-1.3-1.4-1.9-3.4-1.9-6.2c0-3,0.2-5.7,0.7-8.1c0.5-2.4,1.1-4.8,1.9-7.3
						c0.8-2.4,1.6-5.1,2.4-8.2c0.8-3,1.6-6.6,2.4-10.7c0.8-4.1,1.4-9,1.8-14.8h-30.3c0.4,5.8,1,10.7,1.8,14.8
						c0.8,4.1,1.6,7.6,2.4,10.7c0.8,3,1.6,5.8,2.4,8.2c0.8,2.4,1.4,4.8,1.9,7.3c0.5,2.4,0.7,5.1,0.7,8.1c0,2.7-0.6,4.8-1.9,6.2
						c-1.3,1.4-2.9,2.4-4.7,2.9c-1.9,0.5-3.7,0.8-5.6,0.9c-1.8,0-3.3,0.1-4.5,0.1h-28.4c-1.2,0-2.7,0-4.5-0.1
						c-1.8,0-3.7-0.3-5.6-0.9c-1.9-0.5-3.4-1.5-4.7-2.9c-1.3-1.4-1.9-3.4-1.9-6.2c0-3,0.2-5.7,0.7-8.1c0.5-2.4,1.1-4.8,1.9-7.3
						c0.8-2.4,1.6-5.1,2.4-8.1c0.8-3,1.6-6.6,2.4-10.7c0.8-4.1,1.4-9,1.9-14.7C874.8,554.2,875,547.4,875,539.6z"/>
				</g>
			</g>
		</g>
	</g>
	<g>
		<defs>
			<rect id="SVGID_00000149373775764013626280000015720853969945860778_" x="590.3" y="425.3" width="54.8" height="54.8"/>
		</defs>
		<clipPath id="SVGID_00000106839647253142930320000005214566779970076583_">
			<use xlink:href="#SVGID_00000149373775764013626280000015720853969945860778_"  style="overflow:visible;"/>
		</clipPath>
		<g style="clip-path:url(#SVGID_00000106839647253142930320000005214566779970076583_);">
			<defs>
				<circle id="SVGID_00000080185422551631822910000003304360369952261270_" cx="617.6" cy="452.6" r="27.2"/>
			</defs>
			<clipPath id="SVGID_00000076590688293155844070000002025446650066639544_">
				<use xlink:href="#SVGID_00000080185422551631822910000003304360369952261270_"  style="overflow:visible;"/>
			</clipPath>
			<g style="clip-path:url(#SVGID_00000076590688293155844070000002025446650066639544_);enable-background:new    ;">
				<g>
					<defs>
						<rect id="SVGID_00000059305213119084688640000009127853789528527521_" x="590.3" y="425.3" width="54.8" height="54.8"/>
					</defs>
					<clipPath id="SVGID_00000154410604078969342350000013654270224417602495_">
						<use xlink:href="#SVGID_00000059305213119084688640000009127853789528527521_"  style="overflow:visible;"/>
					</clipPath>
					<g style="clip-path:url(#SVGID_00000154410604078969342350000013654270224417602495_);">
						<defs>
							<rect id="SVGID_00000116229532541156058490000006125931395219368593_" x="590.3" y="425.3" width="54.8" height="54.8"/>
						</defs>
						<clipPath id="SVGID_00000122000035645583031510000008005977253644292795_">
							<use xlink:href="#SVGID_00000116229532541156058490000006125931395219368593_"  style="overflow:visible;"/>
						</clipPath>
						<g style="clip-path:url(#SVGID_00000122000035645583031510000008005977253644292795_);">
							<defs>
								<circle id="SVGID_00000094597839665108504860000004839060953640771766_" cx="617.6" cy="452.6" r="27.2"/>
							</defs>
							<clipPath id="SVGID_00000036941283327815211370000017961925545583768509_">
								<use xlink:href="#SVGID_00000094597839665108504860000004839060953640771766_"  style="overflow:visible;"/>
							</clipPath>
							
								<rect x="590.4" y="425.5" style="clip-path:url(#SVGID_00000036941283327815211370000017961925545583768509_);fill:#EC6F41;" width="54.3" height="54.3"/>
						</g>
					</g>
				</g>
			</g>
		</g>
	</g>
	<g>
		<defs>
			<rect id="SVGID_00000043456489428007868920000010588845226190780037_" x="629.8" y="450.8" width="44.6" height="44.6"/>
		</defs>
		<clipPath id="SVGID_00000152233831090275629510000010948244989313436573_">
			<use xlink:href="#SVGID_00000043456489428007868920000010588845226190780037_"  style="overflow:visible;"/>
		</clipPath>
		<g style="clip-path:url(#SVGID_00000152233831090275629510000010948244989313436573_);">
			<defs>
				<path id="SVGID_00000154419498542837595110000008943549775981721790_" d="M641.9,457.6c-8.8,5.8-11.3,17.6-5.6,26.4
					c5.8,8.8,17.6,11.3,26.4,5.6c8.8-5.8,11.3-17.6,5.6-26.4C662.6,454.3,650.7,451.8,641.9,457.6z"/>
			</defs>
			<clipPath id="SVGID_00000078029762448726540020000010633510434426538880_">
				<use xlink:href="#SVGID_00000154419498542837595110000008943549775981721790_"  style="overflow:visible;"/>
			</clipPath>
			<g style="clip-path:url(#SVGID_00000078029762448726540020000010633510434426538880_);">
				<defs>
					
						<rect id="SVGID_00000057118101052919090850000007004304275311641744_" x="633.2" y="454.5" transform="matrix(0.8378 -0.5459 0.5459 0.8378 -152.7659 432.9393)" width="38.2" height="38.2"/>
				</defs>
				<clipPath id="SVGID_00000034086105071595989030000003071825926943709338_">
					<use xlink:href="#SVGID_00000057118101052919090850000007004304275311641744_"  style="overflow:visible;"/>
				</clipPath>
				<g style="clip-path:url(#SVGID_00000034086105071595989030000003071825926943709338_);enable-background:new    ;">
					<g>
						<defs>
							<rect id="SVGID_00000100357183596790901010000010528813261416968380_" x="629.8" y="450.8" width="44.6" height="44.6"/>
						</defs>
						<clipPath id="SVGID_00000077287561078290609050000009386586928615530163_">
							<use xlink:href="#SVGID_00000100357183596790901010000010528813261416968380_"  style="overflow:visible;"/>
						</clipPath>
						<g style="clip-path:url(#SVGID_00000077287561078290609050000009386586928615530163_);">
							<defs>
								<rect id="SVGID_00000180360448025431432400000016654994990648457881_" x="629.8" y="450.8" width="44.6" height="44.6"/>
							</defs>
							<clipPath id="SVGID_00000064330451796149981180000000091076682555681195_">
								<use xlink:href="#SVGID_00000180360448025431432400000016654994990648457881_"  style="overflow:visible;"/>
							</clipPath>
							<g style="clip-path:url(#SVGID_00000064330451796149981180000000091076682555681195_);">
								<defs>
									<path id="SVGID_00000171693413168350995210000005719982137629349518_" d="M641.9,457.6c-8.8,5.8-11.3,17.6-5.6,26.4
										c5.8,8.8,17.6,11.3,26.4,5.6c8.8-5.8,11.3-17.6,5.6-26.4C662.6,454.3,650.7,451.8,641.9,457.6z"/>
								</defs>
								<clipPath id="SVGID_00000065766803795674668660000006812610489955009961_">
									<use xlink:href="#SVGID_00000171693413168350995210000005719982137629349518_"  style="overflow:visible;"/>
								</clipPath>
								<g style="clip-path:url(#SVGID_00000065766803795674668660000006812610489955009961_);">
									<defs>
										
											<rect id="SVGID_00000018925594734491607580000006653419790454548410_" x="633.2" y="454.5" transform="matrix(0.8378 -0.5459 0.5459 0.8378 -152.7659 432.9393)" width="38.2" height="38.2"/>
									</defs>
									<clipPath id="SVGID_00000172404630618216498780000004599029160441243556_">
										<use xlink:href="#SVGID_00000018925594734491607580000006653419790454548410_"  style="overflow:visible;"/>
									</clipPath>
									
										<rect x="633.2" y="454.5" transform="matrix(0.8378 -0.5459 0.5459 0.8378 -152.7659 432.9393)" style="clip-path:url(#SVGID_00000172404630618216498780000004599029160441243556_);fill:#EC6F41;" width="38.2" height="38.2"/>
								</g>
							</g>
						</g>
					</g>
				</g>
			</g>
		</g>
	</g>
	<rect x="554.7" y="425.3" class="st4" width="451.1" height="245.9"/>
	<rect x="554.7" y="425.3" class="st4" width="451.1" height="245.9"/>
</g>
</svg>
