<?xml version="1.0" encoding="utf-8"?>
<!-- Generator: Adobe Illustrator 25.4.1, SVG Export Plug-In . SVG Version: 6.00 Build 0)  -->
<svg version="1.1" id="Layer_1" xmlns="http://www.w3.org/2000/svg" xmlns:xlink="http://www.w3.org/1999/xlink" x="0px" y="0px"
	 viewBox="0 0 1080 1080" style="enable-background:new 0 0 1080 1080;" xml:space="preserve">
<style type="text/css">
	.st0{clip-path:url(#SVGID_00000127015803190051112190000007939007055361979786_);}
	.st1{clip-path:url(#SVGID_00000112605150392167869960000005942160437357967033_);enable-background:new    ;}
	.st2{clip-path:url(#SVGID_00000144301803537264582520000000577364062483461022_);}
	.st3{clip-path:url(#SVGID_00000034071217769891304240000009698529538385307780_);}
	.st4{clip-path:url(#SVGID_00000099645729430123296230000005358578036859063999_);fill:#ED6F41;}
	.st5{clip-path:url(#SVGID_00000100376102121634490140000014361718923632859540_);enable-background:new    ;}
	.st6{clip-path:url(#SVGID_00000139290257184185186420000000004454555816563346_);}
	.st7{clip-path:url(#SVGID_00000090270808481359973060000006520913241989372302_);fill:#FFFFFF;}
	.st8{fill:#EE7042;}
</style>
<g>
	<defs>
		<rect id="SVGID_1_" x="30.3" y="399.6" width="524.1" height="280.9"/>
	</defs>
	<clipPath id="SVGID_00000165201428688419293880000010477011536906439330_">
		<use xlink:href="#SVGID_1_"  style="overflow:visible;"/>
	</clipPath>
	<g style="clip-path:url(#SVGID_00000165201428688419293880000010477011536906439330_);">
		<defs>
			<path id="SVGID_00000034775738734816423720000000187433829549967025_" d="M71.3,400.1h442.2c10.8,0,21.1,4.3,28.7,11.9
				c7.6,7.6,11.9,18,11.9,28.7V639c0,10.8-4.3,21.1-11.9,28.7c-7.6,7.6-18,11.9-28.7,11.9H71.3c-10.8,0-21.1-4.3-28.7-11.9
				c-7.6-7.6-11.9-18-11.9-28.7V440.7c0-10.8,4.3-21.1,11.9-28.7C50.2,404.4,60.5,400.1,71.3,400.1z"/>
		</defs>
		<clipPath id="SVGID_00000085963627294041106070000014279143437993209732_">
			<use xlink:href="#SVGID_00000034775738734816423720000000187433829549967025_"  style="overflow:visible;"/>
		</clipPath>
		<g style="clip-path:url(#SVGID_00000085963627294041106070000014279143437993209732_);enable-background:new    ;">
			<g>
				<defs>
					<rect id="SVGID_00000175296384768725943270000004624855178868616624_" x="30.3" y="399.6" width="524.1" height="280.9"/>
				</defs>
				<clipPath id="SVGID_00000088115570425273081970000017352189635138333354_">
					<use xlink:href="#SVGID_00000175296384768725943270000004624855178868616624_"  style="overflow:visible;"/>
				</clipPath>
				<g style="clip-path:url(#SVGID_00000088115570425273081970000017352189635138333354_);">
					<defs>
						<rect id="SVGID_00000144336473466409848190000009372896698948999084_" x="30.3" y="399.6" width="524.1" height="280.9"/>
					</defs>
					<clipPath id="SVGID_00000028292977005910990720000016142582802537301169_">
						<use xlink:href="#SVGID_00000144336473466409848190000009372896698948999084_"  style="overflow:visible;"/>
					</clipPath>
					<g style="clip-path:url(#SVGID_00000028292977005910990720000016142582802537301169_);">
						<defs>
							<path id="SVGID_00000118367092121616117950000008380821560420409986_" d="M71.3,400.1h442.2c10.8,0,21.1,4.3,28.7,11.9
								c7.6,7.6,11.9,18,11.9,28.7V639c0,10.8-4.3,21.1-11.9,28.7c-7.6,7.6-18,11.9-28.7,11.9H71.3c-10.8,0-21.1-4.3-28.7-11.9
								c-7.6-7.6-11.9-18-11.9-28.7V440.7c0-10.8,4.3-21.1,11.9-28.7C50.2,404.4,60.5,400.1,71.3,400.1z"/>
						</defs>
						<clipPath id="SVGID_00000064339023888846134620000001803596208347697329_">
							<use xlink:href="#SVGID_00000118367092121616117950000008380821560420409986_"  style="overflow:visible;"/>
						</clipPath>
						
							<rect x="30.7" y="400.1" style="clip-path:url(#SVGID_00000064339023888846134620000001803596208347697329_);fill:#ED6F41;" width="523.1" height="279.6"/>
					</g>
				</g>
			</g>
		</g>
	</g>
</g>
<g>
	<defs>
		<rect id="SVGID_00000024712920561269435960000013036152852356794762_" x="68" y="458.1" width="469.5" height="217.2"/>
	</defs>
	<clipPath id="SVGID_00000179607953868531305590000003596913627998597770_">
		<use xlink:href="#SVGID_00000024712920561269435960000013036152852356794762_"  style="overflow:visible;"/>
	</clipPath>
	<g style="clip-path:url(#SVGID_00000179607953868531305590000003596913627998597770_);enable-background:new    ;">
		<g>
			<defs>
				<rect id="SVGID_00000171000682909919159340000006060162201680970370_" x="68" y="458.1" width="469.5" height="217.2"/>
			</defs>
			<clipPath id="SVGID_00000060740204589267429100000004990985456271305613_">
				<use xlink:href="#SVGID_00000171000682909919159340000006060162201680970370_"  style="overflow:visible;"/>
			</clipPath>
			<g style="clip-path:url(#SVGID_00000060740204589267429100000004990985456271305613_);">
				<defs>
					<rect id="SVGID_00000020380471297693924080000001545698671129197984_" x="68" y="458.1" width="469.5" height="217.2"/>
				</defs>
				<clipPath id="SVGID_00000104680497822174240670000018409964003821151107_">
					<use xlink:href="#SVGID_00000020380471297693924080000001545698671129197984_"  style="overflow:visible;"/>
				</clipPath>
				<path style="clip-path:url(#SVGID_00000104680497822174240670000018409964003821151107_);fill:#FFFFFF;" d="M81.3,540.4
					c0-8-0.2-14.9-0.7-20.7c-0.5-5.8-1.1-10.8-1.9-15c-0.8-4.2-1.6-7.8-2.5-10.9c-0.9-3.1-1.7-5.8-2.5-8.3c-0.8-2.5-1.4-5-1.9-7.5
					c-0.5-2.5-0.7-5.3-0.7-8.2c0-2.8,0.7-4.9,2-6.3c1.3-1.4,2.9-2.4,4.8-3c1.9-0.6,3.8-0.9,5.7-0.9c1.9,0,3.4-0.1,4.6-0.1h29
					c1.2,0,2.7,0,4.6,0.1c1.9,0,3.8,0.3,5.7,0.9c1.9,0.6,3.5,1.6,4.8,3c1.3,1.4,2,3.5,2,6.3c0,3-0.2,5.7-0.7,8.2
					c-0.5,2.5-1.1,5-1.9,7.5c-0.8,2.5-1.6,5.2-2.5,8.3c-0.9,3.1-1.7,6.7-2.5,10.9c-0.8,4.2-1.4,9.2-1.9,15
					c-0.5,5.8-0.7,12.7-0.7,20.7c0,8,0.2,14.9,0.7,20.7c0.5,5.8,1.1,10.8,1.9,15c0.8,4.2,1.6,7.8,2.5,10.9c0.9,3.1,1.7,5.8,2.5,8.3
					c0.8,2.5,1.4,4.9,1.9,7.4c0.5,2.5,0.7,5.2,0.7,8.3c0,2.8-0.7,4.9-2,6.3c-1.3,1.4-2.9,2.4-4.8,3c-1.9,0.6-3.8,0.9-5.7,0.9
					c-1.9,0-3.4,0.1-4.6,0.1h-29c-1.2,0-2.7,0-4.6-0.1c-1.9,0-3.8-0.3-5.7-0.9c-1.9-0.6-3.5-1.6-4.8-3c-1.3-1.4-2-3.5-2-6.3
					c0-3.1,0.2-5.8,0.7-8.3c0.5-2.5,1.1-4.9,1.9-7.4c0.8-2.5,1.6-5.2,2.5-8.3c0.9-3.1,1.7-6.7,2.5-10.9c0.8-4.2,1.4-9.2,1.9-15
					C81.1,555.3,81.3,548.4,81.3,540.4z M138.7,611.2c0-3.8,0.3-7.3,1-10.5c0.7-3.2,1.5-6.5,2.5-10c1-3.5,2-7.5,3.1-12.1
					c1-4.6,1.9-10.2,2.6-16.7c0.7-6.5,1-14.4,1-23.8c0-7.8-0.2-14.5-0.7-20.1c-0.5-5.6-1.1-10.5-1.9-14.5c-0.8-4-1.6-7.6-2.5-10.5
					c-0.9-3-1.7-5.7-2.5-8.1c-0.8-2.4-1.4-4.8-1.9-7.2c-0.5-2.4-0.7-5-0.7-8c0-2.7,0.7-4.7,2-6.1c1.3-1.4,2.9-2.4,4.8-2.9
					c1.9-0.6,3.8-0.9,5.7-0.9c1.9,0,3.4-0.1,4.6-0.1h63.8c7.7,0,14.5,1.6,20.5,4.7c5.9,3.1,10.6,7.5,14,13.1
					c3.4,5.6,5.1,12.2,5.1,19.6c0,3.2-0.4,6.5-1.3,9.9c-0.9,3.4-2.3,6.6-4.3,9.7c-2,3.1-4.6,5.9-7.9,8.3c-3.3,2.4-7.3,4.3-12.1,5.6
					c-1.9,0.5-2.8,1.2-2.8,2.1c0,0.6,0.7,1.2,2.2,1.9c1.5,0.7,3.4,1.5,5.7,2.5c2.3,1,4.8,2.4,7.5,4.3c2.7,1.8,5.1,4.2,7.5,7.1
					c2.3,2.9,4.2,6.6,5.7,11c1.5,4.4,2.2,9.8,2.2,16.2c0,3.9-0.5,7.9-1.6,12.2c-1.1,4.2-2.8,8.3-5.2,12.3c-2.4,4-5.5,7.6-9.4,10.8
					c-3.9,3.2-8.6,5.8-14.3,7.6c-5.6,1.9-12.2,2.8-19.7,2.8h-57.7c-1.2,0-2.6,0-4.3-0.1c-1.7,0-3.4-0.3-5-0.9
					c-1.7-0.6-3.1-1.5-4.2-2.9C139.2,615.9,138.7,613.9,138.7,611.2z M191.3,515.6c0,2.3,0.6,3.9,1.8,4.7c1.2,0.8,2.8,1.2,4.9,1.2
					c3.7,0,6.7-0.5,9-1.5c2.3-1,4.1-2.3,5.4-3.9c1.3-1.6,2.2-3.2,2.7-4.8c0.5-1.6,0.8-3.1,0.8-4.5c0-1.3-0.3-2.7-0.8-4.4
					c-0.5-1.7-1.4-3.3-2.7-4.9c-1.3-1.6-3.1-2.9-5.4-3.9c-2.3-1-5.3-1.5-9-1.5c-2.1,0-3.7,0.4-4.9,1.2c-1.2,0.8-1.8,2.3-1.8,4.7
					V515.6z M191.3,580.5c0,3.2,0.6,5.4,1.8,6.5c1.2,1.1,2.8,1.6,4.9,1.6c3.7,0,6.7-0.7,9-2.1c2.3-1.4,4.1-3.2,5.4-5.4
					c1.3-2.2,2.2-4.4,2.7-6.7c0.5-2.3,0.8-4.4,0.8-6.2c0-1.8-0.3-3.9-0.8-6.2c-0.5-2.4-1.4-4.6-2.7-6.8c-1.3-2.2-3.1-4-5.4-5.4
					c-2.3-1.4-5.3-2.1-9-2.1c-2.1,0-3.7,0.5-4.9,1.6c-1.2,1-1.8,3.2-1.8,6.5c0,0.7,0,2,0.1,3.6c0,1.7,0.1,3.4,0.1,5
					c0,1.7,0.1,2.9,0.1,3.8c0,0.7,0,2-0.1,3.6c0,1.7-0.1,3.3-0.1,5C191.3,578.5,191.3,579.7,191.3,580.5z M264.6,469.6
					c0-2.7,0.7-4.7,2-6.1c1.3-1.4,2.9-2.4,4.8-2.9c1.9-0.6,3.8-0.9,5.7-0.9c1.9,0,3.4-0.1,4.6-0.1h29c1.2,0,2.7,0,4.6,0.1
					c1.9,0,3.8,0.3,5.7,0.9c1.9,0.6,3.5,1.5,4.8,2.9c1.3,1.4,2,3.4,2,6.1c0,2.9-0.2,5.6-0.7,8c-0.5,2.4-1.1,4.8-1.9,7.2
					c-0.8,2.4-1.6,5.1-2.5,8.1c-0.9,3-1.7,6.5-2.5,10.5c-0.8,4-1.4,8.9-1.9,14.5c-0.5,5.6-0.7,12.4-0.7,20.1v36.2c0,3,0.1,5.7,0.3,8
					c0.2,2.4,0.8,4.2,1.7,5.5c0.9,1.3,2.4,2,4.5,2c5.5,0,10.3-0.8,14.5-2.5c4.2-1.7,8-3.8,11.4-6.2c3.4-2.5,6.5-4.9,9.3-7.3
					c2.8-2.4,5.5-4.5,8.1-6.2c2.6-1.7,5.2-2.5,7.9-2.5c2.7,0,4.6,0.7,5.7,2.1c1.1,1.4,1.8,3.1,2,5c0.2,2,0.3,3.9,0.3,5.8v32.1
					c0,3.3-1,6-3.1,8c-2.1,2.1-4.7,3.1-8,3.1h-92.4c-1.2,0-2.6,0-4.3-0.1c-1.7,0-3.4-0.3-5-0.9c-1.7-0.6-3.1-1.5-4.2-2.9
					c-1.1-1.4-1.7-3.4-1.7-6.1c0-3.8,0.3-7.3,1-10.5c0.7-3.2,1.5-6.5,2.5-10c1-3.5,2-7.5,3.1-12.1c1-4.6,1.9-10.2,2.6-16.7
					c0.7-6.5,1-14.4,1-23.8c0-7.8-0.2-14.5-0.7-20.1c-0.5-5.6-1.1-10.5-1.9-14.5c-0.8-4-1.6-7.6-2.5-10.5c-0.9-3-1.7-5.7-2.5-8.1
					c-0.8-2.4-1.4-4.8-1.9-7.2C264.8,475.1,264.6,472.5,264.6,469.6z M402.9,621.2c-2.5,0-4.8-0.2-6.9-0.6c-2.1-0.4-3.9-1.1-5.2-2.2
					c-1.3-1.1-2-2.7-2-4.8c0-2.1,0.3-3.9,0.9-5.3c0.6-1.5,1.4-2.9,2.5-4.3c1-1.4,2.2-3,3.5-4.8c1.3-1.8,2.6-4,4-6.7
					c1.3-2.7,2.7-6.1,3.9-10.2c1.9-6.3,3.6-11.7,4.9-16.3c1.3-4.6,2.5-8.6,3.5-12.1c1-3.5,1.9-6.7,2.7-9.7c0.8-3,1.6-5.9,2.4-8.9
					c0.8-3,1.7-6.2,2.6-9.7c1-3.5,2.1-7.6,3.3-12.2c1.2-4.6,2.7-10.1,4.5-16.4c1.2-4.3,2-7.7,2.5-10.2c0.5-2.5,0.8-4.5,0.8-6.1
					c0.1-1.6,0-3.2-0.1-4.9c-0.2-1.6-0.3-3.8-0.4-6.4c0-0.6,0-1.4,0.1-2.5c0.1-1,0.4-2.1,0.9-3.3c0.5-1.1,1.4-2.1,2.7-2.9
					c1.3-0.8,3.1-1.2,5.4-1.2h30.3c2.2,0,4.2,0,5.9,0.1c1.7,0.1,3.2,0.5,4.5,1.2c1.3,0.7,2.6,2.1,3.9,4c1.2,1.9,2.5,4.8,3.8,8.4
					c1.3,3.7,2.8,8.5,4.4,14.5c2.1,7.3,3.9,13.8,5.4,19.4c1.5,5.6,2.8,10.6,4,15c1.2,4.5,2.4,8.8,3.5,12.9c1.1,4.2,2.3,8.5,3.6,12.9
					c1.3,4.5,2.7,9.4,4.3,14.9c1.6,5.5,3.5,11.9,5.8,19.2c1.3,4.1,2.6,7.5,3.9,10.2s2.7,4.9,4,6.7c1.3,1.8,2.5,3.4,3.5,4.8
					c1,1.4,1.9,2.9,2.5,4.3c0.6,1.5,0.9,3.2,0.9,5.3c0,2.1-0.7,3.7-2,4.8c-1.3,1.1-3,1.9-5.1,2.2c-2.1,0.4-4.4,0.6-7,0.6h-41.3
					c-1.7,0-3.4-0.2-5.1-0.7c-1.7-0.5-3.1-1.3-4.2-2.4c-1.1-1.1-1.6-2.6-1.6-4.4c0-2.5,0.2-4.4,0.6-5.9c0.4-1.5,0.9-2.8,1.4-4.2
					c0.5-1.3,1-2.9,1.4-4.8c0.4-1.9,0.6-4.5,0.6-7.9c0-1.9-0.1-3.9-0.3-5.9h-28.7c0.1,1,0.2,1.9,0.3,2.9c0.1,1,0.3,2,0.3,3
					c0.4,3.4,1,6,1.6,7.9c0.6,1.9,1.2,3.5,1.8,4.8c0.6,1.3,1,2.7,1.5,4.2c0.4,1.5,0.6,3.4,0.6,5.9c0,1.9-0.5,3.3-1.6,4.4
					c-1.1,1.1-2.5,1.9-4.2,2.4c-1.7,0.5-3.4,0.7-5.1,0.7H402.9z M443,546.5h20c-1-3.4-2-7.1-3-10.9c-1-3.9-2.2-7.9-3.5-12.3
					c-0.7-2.5-1.5-4.7-2.2-6.4c-0.7-1.7-1.5-2.5-2.4-2.4c-0.7,0.1-1.5,1.1-2.2,3.1c-0.7,2-1.5,4.4-2.2,7.3c-0.7,2.9-1.4,5.8-2.1,8.9
					c-0.6,3-1.1,5.7-1.5,8C443.4,544.1,443.2,545.7,443,546.5z"/>
			</g>
		</g>
	</g>
</g>
<path class="st8" d="M710.9,505.3c-2-7.3-4.8-13.9-8.2-19.7c-2.1,1.9-4.6,3.3-7.3,4.2c-1.9,0.6-3.9,0.9-5.9,0.9
	c-6.5,0-12.2-3.1-15.8-7.9c0,0,0,0,0,0c-0.5-0.7-1-1.4-1.4-2.2c-1.5-2.7-2.4-5.7-2.5-9c-0.8,0.6-1.5,1.1-2.3,1.5
	c-4.1,2.4-8.9,3.8-14.1,3.8c-12.5,0-23.1-8.3-26.6-19.7h-17.6c-1.2,0-2.8,0-4.6,0c-1.9,0-3.8,0.3-5.7,0.9c-1.9,0.6-3.5,1.5-4.8,3
	c-1.3,1.4-1.9,3.5-1.9,6.3c0,2.9,0.2,5.7,0.7,8.2c0.5,2.5,1.1,5,1.9,7.4c0.8,2.5,1.6,5.3,2.5,8.4c0.8,3.1,1.7,6.7,2.5,10.9
	c0.8,4.2,1.4,9.3,1.9,15c0.5,5.9,0.7,12.7,0.7,20.7c0,8-0.2,15-0.7,20.7c-0.5,5.8-1.1,10.8-1.9,15c-0.8,4.2-1.6,7.8-2.5,10.9
	c-0.8,3.1-1.7,5.9-2.5,8.4c-0.8,2.5-1.4,4.9-1.9,7.4c-0.5,2.5-0.7,5.3-0.7,8.4c0,2.8,0.6,4.9,1.9,6.3c1.3,1.4,2.9,2.4,4.8,3
	c1.9,0.5,3.8,0.8,5.7,0.9c1.9,0,3.4,0,4.6,0v0.1h42.3c10.4,0,19.6-2,27.5-5.9c8-3.9,14.6-9.4,20-16.6c5.4-7.2,9.4-15.8,12.1-25.7
	c2.8-9.9,4.1-20.9,4.1-32.9C715,526.1,713.6,515.2,710.9,505.3z M670.1,556.3c-1,5.8-2.4,11-4.3,15.5c-1.9,4.6-4,8.1-6.5,10.8
	c-2.5,2.6-5.2,3.9-8.1,3.9c-0.9,0-1.9-0.2-2.9-0.6c-1-0.4-1.9-1.2-2.5-2.3s-1-2.8-1-5v-81.2c0-2.2,0.3-3.9,1-4.9
	c0.7-1.2,1.5-1.9,2.5-2.3c1-0.4,2-0.6,2.9-0.6c2.9,0,5.6,1.3,8.1,3.9c2.5,2.7,4.6,6.2,6.5,10.8c1.8,4.5,3.2,9.7,4.3,15.5
	c1,5.8,1.5,11.9,1.5,18.2C671.6,544.4,671.1,550.5,670.1,556.3z"/>
<path class="st8" d="M726.2,538.1c0-8-0.2-14.9-0.7-20.7c-0.5-5.8-1.1-10.8-1.9-15c-0.8-4.2-1.6-7.8-2.5-10.9
	c-0.9-3.1-1.7-5.9-2.5-8.4c-0.8-2.5-1.4-4.9-1.9-7.4c-0.5-2.5-0.7-5.3-0.7-8.2c0-2.8,0.6-4.9,1.9-6.3s2.9-2.4,4.8-3
	c1.9-0.6,3.8-0.9,5.7-0.9c1.9,0,3.4,0,4.6,0h29c1.2,0,2.7,0,4.6,0c1.9,0,3.7,0.3,5.7,0.9c1.9,0.6,3.5,1.6,4.8,3
	c1.3,1.4,1.9,3.5,1.9,6.3c0,3-0.2,5.7-0.7,8.2c-0.5,2.5-1.1,5-1.9,7.4c-0.8,2.5-1.6,5.3-2.5,8.4c-0.9,3.1-1.7,6.7-2.5,10.9
	c-0.8,4.2-1.4,9.2-1.9,15c-0.5,5.8-0.7,12.7-0.7,20.7c0,8,0.2,14.9,0.7,20.7c0.5,5.8,1.1,10.8,1.9,15c0.8,4.2,1.6,7.8,2.5,10.9
	c0.9,3.1,1.7,5.9,2.5,8.4c0.8,2.5,1.4,4.9,1.9,7.4c0.5,2.5,0.7,5.3,0.7,8.4c0,2.8-0.6,4.9-1.9,6.3s-2.9,2.4-4.8,3s-3.8,0.9-5.7,0.9
	c-1.9,0-3.4,0-4.6,0h-29c-1.2,0-2.7,0-4.6,0c-1.9,0-3.7-0.3-5.7-0.9c-1.9-0.6-3.5-1.6-4.8-3c-1.3-1.4-1.9-3.5-1.9-6.3
	c0-3.1,0.2-5.9,0.7-8.4c0.5-2.5,1.1-4.9,1.9-7.4c0.8-2.5,1.6-5.3,2.5-8.4c0.9-3.1,1.7-6.7,2.5-10.9c0.8-4.2,1.4-9.2,1.9-15
	C726,553,726.2,546.2,726.2,538.1z"/>
<path class="st8" d="M780.4,582.9c0-5.4,1.1-10.1,3.4-14.1c2.3-4,5.1-7.2,8.7-9.4c3.6-2.3,7.3-3.5,11.2-3.5c3.1-0.1,6.1,0.6,8.8,2
	c2.7,1.4,5.4,3.3,7.9,5.6c2.5,2.3,5,4.8,7.4,7.4c2.5,2.6,4.9,5.2,7.3,7.5s4.9,4.3,7.5,5.8c2.6,1.5,5.3,2.3,8.1,2.3
	c3.7,0,6.3-0.9,7.9-2.8c1.6-1.9,2.4-4.2,2.4-7c0-3.1-1.1-5.8-3.2-8c-2.2-2.2-5.1-4.1-8.8-5.7c-3.7-1.6-7.9-3.1-12.5-4.7
	c-4.6-1.5-9.4-3.1-14.3-4.9s-9.7-3.9-14.3-6.4s-8.8-5.6-12.5-9.2c-3.7-3.6-6.7-8-8.8-13c-2.2-5.1-3.2-11.2-3.2-18.3
	c0-10.4,2.6-19.5,7.8-27c5.2-7.6,12.7-13.5,22.4-17.7c9.8-4.2,21.6-6.3,35.3-6.3c6.4,0,12.7,0.6,18.9,1.9c6.2,1.3,11.9,3.3,17,6.1
	c5.1,2.8,9.2,6.3,12.3,10.6c3.1,4.3,4.6,9.5,4.6,15.5c0,4.3-1,8.3-2.9,11.8c-1.9,3.6-4.5,6.5-7.7,8.7c-3.3,2.2-6.9,3.5-11.1,3.7
	c-3.5,0.2-6.8-0.4-9.9-1.9c-3.1-1.5-6-3.5-8.7-6c-2.8-2.5-5.5-4.9-8.2-7.4c-2.7-2.5-5.6-4.6-8.4-6.3c-2.9-1.7-5.9-2.6-9.2-2.6
	c-2.7,0-4.8,0.5-6.4,1.5c-1.6,1-2.7,2.2-3.3,3.6c-0.6,1.4-1,2.8-1,4c0,3.1,1.2,5.7,3.4,7.8c2.3,2.1,5.3,4,9.2,5.7
	c3.8,1.7,8.1,3.2,12.9,4.8c4.8,1.6,9.7,3.3,14.8,5.2c5.1,1.9,10,4.1,14.8,6.8c4.8,2.6,9.1,5.9,12.9,9.6c3.8,3.7,6.8,8.2,9.2,13.6
	c2.3,5.3,3.4,11.6,3.4,18.9c0,7.7-1.2,14.4-3.7,20s-5.9,10.3-10.2,14.2c-4.3,3.8-9,6.8-14.2,9.2c-5.3,2.3-10.7,3.9-16.3,4.9
	c-5.6,1-11,1.5-16.1,1.5c-5.9,0-11.9-0.4-17.9-1.1c-6.1-0.7-11.9-2-17.4-3.7c-5.6-1.8-10.5-4.1-14.8-7c-4.3-2.9-7.8-6.5-10.3-10.8
	C781.7,593.8,780.4,588.7,780.4,582.9z"/>
<path class="st8" d="M916.5,538.1c0-8-0.2-14.9-0.7-20.7c-0.5-5.8-1.1-10.8-1.9-15c-0.8-4.2-1.6-7.8-2.5-10.9
	c-0.9-3.1-1.7-5.9-2.5-8.4c-0.8-2.5-1.4-4.9-1.9-7.4c-0.5-2.5-0.7-5.3-0.7-8.2c0-2.8,0.6-4.9,1.9-6.3c1.3-1.4,2.9-2.4,4.8-3
	c1.9-0.6,3.8-0.9,5.7-0.9c1.9,0,3.4,0,4.6,0h29c1.2,0,2.7,0,4.6,0c1.9,0,3.7,0.3,5.7,0.9c1.9,0.6,3.5,1.6,4.8,3
	c1.3,1.4,1.9,3.5,1.9,6.3c0,3.1-0.3,6-0.8,8.5c-0.5,2.5-1.2,5.1-2,7.7c-0.8,2.6-1.7,5.6-2.6,8.8c-0.9,3.2-1.7,7.1-2.5,11.6
	c-0.7,4.4-1.3,9.9-1.8,16.3h31.5c-0.5-6.4-1.1-11.8-1.8-16.3c-0.7-4.4-1.6-8.4-2.5-11.6s-1.8-6.2-2.6-8.8c-0.8-2.6-1.5-5.2-2-7.7
	c-0.5-2.5-0.8-5.3-0.8-8.5c0-2.8,0.6-4.9,1.9-6.3c1.3-1.4,2.9-2.4,4.8-3c1.9-0.6,3.8-0.9,5.7-0.9c1.9,0,3.4,0,4.6,0h29
	c1.2,0,2.7,0,4.6,0c1.9,0,3.7,0.3,5.7,0.9c1.9,0.6,3.5,1.6,4.8,3c1.3,1.4,1.9,3.5,1.9,6.3c0,3-0.2,5.7-0.7,8.2
	c-0.5,2.5-1.1,5-1.9,7.4s-1.6,5.3-2.5,8.4c-0.9,3.1-1.7,6.7-2.5,10.9c-0.8,4.2-1.4,9.2-1.9,15c-0.5,5.8-0.7,12.7-0.7,20.7
	c0,8,0.2,14.9,0.7,20.7c0.5,5.8,1.1,10.8,1.9,15c0.8,4.2,1.6,7.8,2.5,10.9c0.9,3.1,1.7,5.9,2.5,8.4c0.8,2.5,1.4,4.9,1.9,7.4
	c0.5,2.5,0.7,5.3,0.7,8.4c0,2.8-0.6,4.9-1.9,6.3c-1.3,1.4-2.9,2.4-4.8,3s-3.8,0.9-5.7,0.9c-1.9,0-3.4,0-4.6,0h-29
	c-1.2,0-2.7,0-4.6,0c-1.9,0-3.7-0.3-5.7-0.9c-1.9-0.6-3.5-1.6-4.8-3c-1.3-1.4-1.9-3.5-1.9-6.3c0-3.1,0.2-5.9,0.7-8.4
	c0.5-2.5,1.1-4.9,1.9-7.4c0.8-2.5,1.6-5.3,2.5-8.4c0.9-3.1,1.7-6.8,2.5-10.9c0.8-4.2,1.4-9.2,1.9-15.2h-31c0.5,5.9,1.1,11,1.9,15.2
	c0.8,4.2,1.6,7.8,2.5,10.9c0.9,3.1,1.7,5.9,2.5,8.4c0.8,2.5,1.4,4.9,1.9,7.4c0.5,2.5,0.7,5.3,0.7,8.4c0,2.8-0.6,4.9-1.9,6.3
	s-2.9,2.4-4.8,3c-1.9,0.6-3.8,0.9-5.7,0.9c-1.9,0-3.4,0-4.6,0h-29c-1.2,0-2.7,0-4.6,0c-1.9,0-3.7-0.3-5.7-0.9
	c-1.9-0.6-3.5-1.6-4.8-3c-1.3-1.4-1.9-3.5-1.9-6.3c0-3.1,0.2-5.9,0.7-8.4c0.5-2.5,1.1-4.9,1.9-7.4c0.8-2.5,1.6-5.3,2.5-8.4
	c0.9-3.1,1.7-6.7,2.5-10.9c0.8-4.2,1.4-9.2,1.9-15C916.3,553,916.5,546.2,916.5,538.1z"/>
</svg>
