<?xml version="1.0" encoding="utf-8"?>
<!-- Generator: Adobe Illustrator 25.4.1, SVG Export Plug-In . SVG Version: 6.00 Build 0)  -->
<svg version="1.1" id="Layer_1" xmlns="http://www.w3.org/2000/svg" xmlns:xlink="http://www.w3.org/1999/xlink" x="0px" y="0px"
	 viewBox="0 0 800 200" style="enable-background:new 0 0 800 200;" xml:space="preserve">
<style type="text/css">
	.st0{clip-path:url(#SVGID_00000130638493157628513820000013641474606967008948_);}
	.st1{clip-path:url(#SVGID_00000113335948267802621110000005558267714225339565_);enable-background:new    ;}
	.st2{clip-path:url(#SVGID_00000178908448684856454800000015267088645631834793_);}
	.st3{clip-path:url(#SVGID_00000018225884454177679810000014150935394696935055_);}
	.st4{clip-path:url(#SVGID_00000132047372548980077130000016410625937803569306_);fill:#ED6F41;}
	.st5{clip-path:url(#SVGID_00000026132071572233300300000005519531888249455528_);enable-background:new    ;}
	.st6{clip-path:url(#SVGID_00000125575206287554347340000017866998530578742934_);}
	.st7{clip-path:url(#SVGID_00000035517844451359476080000012392967693520793254_);fill:#FFFFFF;}
	.st8{fill:#EE7042;}
</style>
<g>
	<defs>
		<rect id="SVGID_1_" x="128.7" y="25.3" width="278.9" height="149.5"/>
	</defs>
	<clipPath id="SVGID_00000084526539358077235230000003702153553054768061_">
		<use xlink:href="#SVGID_1_"  style="overflow:visible;"/>
	</clipPath>
	<g style="clip-path:url(#SVGID_00000084526539358077235230000003702153553054768061_);">
		<defs>
			<path id="SVGID_00000147937122475319276090000000957935710040098474_" d="M150.5,25.5h235.3c5.7,0,11.2,2.3,15.3,6.3
				c4.1,4.1,6.3,9.6,6.3,15.3v105.5c0,5.7-2.3,11.2-6.3,15.3c-4.1,4.1-9.6,6.3-15.3,6.3H150.5c-5.7,0-11.2-2.3-15.3-6.3
				c-4.1-4.1-6.3-9.6-6.3-15.3V47.1c0-5.7,2.3-11.2,6.3-15.3C139.3,27.8,144.8,25.5,150.5,25.5z"/>
		</defs>
		<clipPath id="SVGID_00000055704077096973586870000005231002970421638072_">
			<use xlink:href="#SVGID_00000147937122475319276090000000957935710040098474_"  style="overflow:visible;"/>
		</clipPath>
		<g style="clip-path:url(#SVGID_00000055704077096973586870000005231002970421638072_);enable-background:new    ;">
			<g>
				<defs>
					<rect id="SVGID_00000124136963260049919700000010343249374216340113_" x="128.7" y="25.3" width="278.9" height="149.5"/>
				</defs>
				<clipPath id="SVGID_00000076591152365131709700000002473430936401297804_">
					<use xlink:href="#SVGID_00000124136963260049919700000010343249374216340113_"  style="overflow:visible;"/>
				</clipPath>
				<g style="clip-path:url(#SVGID_00000076591152365131709700000002473430936401297804_);">
					<defs>
						<rect id="SVGID_00000092448763604445693940000006987790897255482532_" x="128.7" y="25.3" width="278.9" height="149.5"/>
					</defs>
					<clipPath id="SVGID_00000039850931048789544970000009228212234504535963_">
						<use xlink:href="#SVGID_00000092448763604445693940000006987790897255482532_"  style="overflow:visible;"/>
					</clipPath>
					<g style="clip-path:url(#SVGID_00000039850931048789544970000009228212234504535963_);">
						<defs>
							<path id="SVGID_00000143575743134957065650000017638277238985202337_" d="M150.5,25.5h235.3c5.7,0,11.2,2.3,15.3,6.3
								c4.1,4.1,6.3,9.6,6.3,15.3v105.5c0,5.7-2.3,11.2-6.3,15.3c-4.1,4.1-9.6,6.3-15.3,6.3H150.5c-5.7,0-11.2-2.3-15.3-6.3
								c-4.1-4.1-6.3-9.6-6.3-15.3V47.1c0-5.7,2.3-11.2,6.3-15.3C139.3,27.8,144.8,25.5,150.5,25.5z"/>
						</defs>
						<clipPath id="SVGID_00000051356169021934607170000017704816161760532116_">
							<use xlink:href="#SVGID_00000143575743134957065650000017638277238985202337_"  style="overflow:visible;"/>
						</clipPath>
						
							<rect x="128.9" y="25.5" style="clip-path:url(#SVGID_00000051356169021934607170000017704816161760532116_);fill:#ED6F41;" width="278.4" height="148.8"/>
					</g>
				</g>
			</g>
		</g>
	</g>
</g>
<g>
	<defs>
		<rect id="SVGID_00000122716958545498401670000007614285744937016501_" x="148.8" y="56.4" width="249.9" height="115.6"/>
	</defs>
	<clipPath id="SVGID_00000067947842531429877740000004443007465158898845_">
		<use xlink:href="#SVGID_00000122716958545498401670000007614285744937016501_"  style="overflow:visible;"/>
	</clipPath>
	<g style="clip-path:url(#SVGID_00000067947842531429877740000004443007465158898845_);enable-background:new    ;">
		<g>
			<defs>
				<rect id="SVGID_00000094608943845021453840000003095675670133207188_" x="148.8" y="56.4" width="249.9" height="115.6"/>
			</defs>
			<clipPath id="SVGID_00000101090033189028644970000008586624675346527167_">
				<use xlink:href="#SVGID_00000094608943845021453840000003095675670133207188_"  style="overflow:visible;"/>
			</clipPath>
			<g style="clip-path:url(#SVGID_00000101090033189028644970000008586624675346527167_);">
				<defs>
					<rect id="SVGID_00000135668962374427000650000014577168535713971637_" x="148.8" y="56.4" width="249.9" height="115.6"/>
				</defs>
				<clipPath id="SVGID_00000026144952142891694580000012217627817604469410_">
					<use xlink:href="#SVGID_00000135668962374427000650000014577168535713971637_"  style="overflow:visible;"/>
				</clipPath>
				<path style="clip-path:url(#SVGID_00000026144952142891694580000012217627817604469410_);fill:#FFFFFF;" d="M155.9,100.2
					c0-4.3-0.1-7.9-0.4-11c-0.3-3.1-0.6-5.7-1-8c-0.4-2.2-0.9-4.2-1.3-5.8c-0.5-1.6-0.9-3.1-1.3-4.4c-0.4-1.3-0.8-2.6-1-4
					c-0.3-1.3-0.4-2.8-0.4-4.4c0-1.5,0.3-2.6,1-3.3c0.7-0.8,1.6-1.3,2.6-1.6c1-0.3,2-0.5,3-0.5c1,0,1.8,0,2.4,0h15.4
					c0.6,0,1.5,0,2.4,0c1,0,2,0.2,3,0.5c1,0.3,1.9,0.8,2.6,1.6c0.7,0.8,1,1.9,1,3.3c0,1.6-0.1,3.1-0.4,4.4c-0.3,1.3-0.6,2.7-1,4
					c-0.4,1.3-0.9,2.8-1.3,4.4c-0.5,1.6-0.9,3.6-1.3,5.8c-0.4,2.2-0.8,4.9-1,8c-0.3,3.1-0.4,6.8-0.4,11c0,4.3,0.1,7.9,0.4,11
					c0.3,3.1,0.6,5.7,1,8c0.4,2.2,0.9,4.2,1.3,5.8c0.5,1.6,0.9,3.1,1.3,4.4c0.4,1.3,0.8,2.6,1,3.9c0.3,1.3,0.4,2.8,0.4,4.4
					c0,1.5-0.3,2.6-1,3.3c-0.7,0.8-1.6,1.3-2.6,1.6c-1,0.3-2,0.5-3,0.5c-1,0-1.8,0-2.4,0h-15.4c-0.6,0-1.5,0-2.4,0c-1,0-2-0.2-3-0.5
					c-1-0.3-1.9-0.8-2.6-1.6c-0.7-0.8-1-1.9-1-3.3c0-1.6,0.1-3.1,0.4-4.4c0.3-1.3,0.6-2.6,1-3.9c0.4-1.3,0.9-2.8,1.3-4.4
					c0.5-1.6,0.9-3.6,1.3-5.8c0.4-2.2,0.8-4.9,1-8C155.7,108.1,155.9,104.4,155.9,100.2z M186.4,137.8c0-2,0.2-3.9,0.5-5.6
					c0.4-1.7,0.8-3.5,1.3-5.3c0.5-1.9,1.1-4,1.6-6.4c0.6-2.4,1-5.4,1.4-8.9c0.4-3.5,0.5-7.7,0.5-12.7c0-4.1-0.1-7.7-0.4-10.7
					c-0.3-3-0.6-5.6-1-7.7c-0.4-2.1-0.9-4-1.3-5.6c-0.5-1.6-0.9-3-1.3-4.3c-0.4-1.3-0.8-2.6-1-3.9c-0.3-1.3-0.4-2.7-0.4-4.2
					c0-1.4,0.3-2.5,1-3.3c0.7-0.7,1.6-1.3,2.6-1.6c1-0.3,2-0.5,3-0.5c1,0,1.8,0,2.4,0h34c4.1,0,7.7,0.8,10.9,2.5
					c3.2,1.7,5.7,4,7.5,7c1.8,3,2.7,6.5,2.7,10.5c0,1.7-0.2,3.5-0.7,5.3c-0.5,1.8-1.2,3.5-2.3,5.2c-1.1,1.7-2.4,3.1-4.2,4.4
					c-1.7,1.3-3.9,2.3-6.4,3c-1,0.3-1.5,0.7-1.5,1.1c0,0.3,0.4,0.7,1.2,1c0.8,0.4,1.8,0.8,3,1.3c1.2,0.5,2.6,1.3,4,2.3
					c1.4,1,2.7,2.2,4,3.8c1.2,1.6,2.2,3.5,3,5.9c0.8,2.3,1.2,5.2,1.2,8.6c0,2.1-0.3,4.2-0.9,6.5c-0.6,2.2-1.5,4.4-2.7,6.5
					c-1.3,2.1-2.9,4-5,5.7c-2.1,1.7-4.6,3.1-7.6,4.1c-3,1-6.5,1.5-10.5,1.5h-30.7c-0.6,0-1.4,0-2.3,0c-0.9,0-1.8-0.2-2.7-0.5
					c-0.9-0.3-1.6-0.8-2.2-1.6C186.7,140.4,186.4,139.3,186.4,137.8z M214.4,87c0,1.2,0.3,2.1,1,2.5c0.6,0.4,1.5,0.6,2.6,0.6
					c2,0,3.5-0.3,4.8-0.8c1.2-0.5,2.2-1.2,2.9-2.1c0.7-0.8,1.2-1.7,1.5-2.6c0.3-0.9,0.4-1.7,0.4-2.4c0-0.7-0.1-1.5-0.4-2.4
					c-0.3-0.9-0.8-1.8-1.5-2.6c-0.7-0.8-1.7-1.5-2.9-2.1c-1.2-0.5-2.8-0.8-4.8-0.8c-1.1,0-2,0.2-2.6,0.6c-0.6,0.4-1,1.2-1,2.5V87z
					 M214.4,121.5c0,1.7,0.3,2.9,1,3.4c0.6,0.6,1.5,0.9,2.6,0.9c2,0,3.5-0.4,4.8-1.1c1.2-0.8,2.2-1.7,2.9-2.9
					c0.7-1.2,1.2-2.3,1.5-3.6c0.3-1.2,0.4-2.3,0.4-3.3c0-1-0.1-2.1-0.4-3.3c-0.3-1.3-0.8-2.5-1.5-3.6c-0.7-1.2-1.7-2.1-2.9-2.9
					c-1.2-0.8-2.8-1.1-4.8-1.1c-1.1,0-2,0.3-2.6,0.8c-0.6,0.6-1,1.7-1,3.5c0,0.4,0,1,0,1.9c0,0.9,0,1.8,0.1,2.7c0,0.9,0,1.6,0,2
					c0,0.4,0,1,0,1.9c0,0.9,0,1.8-0.1,2.7C214.4,120.4,214.4,121.1,214.4,121.5z M253.4,62.5c0-1.4,0.3-2.5,1-3.3
					c0.7-0.7,1.6-1.3,2.6-1.6c1-0.3,2-0.5,3-0.5c1,0,1.8,0,2.4,0h15.4c0.6,0,1.5,0,2.4,0c1,0,2,0.2,3,0.5c1,0.3,1.9,0.8,2.6,1.6
					c0.7,0.7,1,1.8,1,3.3c0,1.6-0.1,3-0.4,4.2c-0.3,1.3-0.6,2.6-1,3.9c-0.4,1.3-0.9,2.7-1.3,4.3c-0.5,1.6-0.9,3.5-1.3,5.6
					c-0.4,2.2-0.8,4.7-1,7.7c-0.3,3-0.4,6.6-0.4,10.7v19.3c0,1.6,0.1,3,0.2,4.3c0.1,1.3,0.4,2.2,0.9,2.9c0.5,0.7,1.3,1,2.4,1
					c2.9,0,5.5-0.4,7.7-1.3c2.2-0.9,4.3-2,6.1-3.3c1.8-1.3,3.5-2.6,5-3.9c1.5-1.3,2.9-2.4,4.3-3.3c1.4-0.9,2.8-1.3,4.2-1.3
					c1.4,0,2.4,0.4,3,1.1c0.6,0.7,0.9,1.6,1,2.7c0.1,1.1,0.1,2.1,0.1,3.1v17.1c0,1.8-0.5,3.2-1.6,4.3c-1.1,1.1-2.5,1.6-4.3,1.6
					h-49.2c-0.6,0-1.4,0-2.3,0c-0.9,0-1.8-0.2-2.7-0.5c-0.9-0.3-1.6-0.8-2.2-1.6c-0.6-0.7-0.9-1.8-0.9-3.3c0-2,0.2-3.9,0.5-5.6
					c0.4-1.7,0.8-3.5,1.3-5.3c0.5-1.9,1.1-4,1.6-6.4c0.6-2.4,1-5.4,1.4-8.9c0.4-3.5,0.5-7.7,0.5-12.7c0-4.1-0.1-7.7-0.4-10.7
					c-0.3-3-0.6-5.6-1-7.7c-0.4-2.1-0.9-4-1.3-5.6c-0.5-1.6-0.9-3-1.3-4.3c-0.4-1.3-0.8-2.6-1-3.9C253.5,65.4,253.4,64,253.4,62.5z
					 M327,143.2c-1.3,0-2.5-0.1-3.7-0.3c-1.1-0.2-2.1-0.6-2.7-1.2c-0.7-0.6-1-1.5-1-2.6c0-1.1,0.2-2.1,0.5-2.8
					c0.3-0.8,0.8-1.5,1.3-2.3c0.6-0.8,1.2-1.6,1.9-2.6c0.7-1,1.4-2.1,2.1-3.6c0.7-1.4,1.4-3.2,2.1-5.4c1-3.3,1.9-6.2,2.6-8.7
					c0.7-2.4,1.3-4.6,1.9-6.4c0.5-1.9,1-3.6,1.5-5.1c0.4-1.6,0.9-3.1,1.3-4.7c0.4-1.6,0.9-3.3,1.4-5.2c0.5-1.9,1.1-4,1.8-6.5
					c0.7-2.5,1.5-5.4,2.4-8.7c0.6-2.3,1.1-4.1,1.3-5.4c0.3-1.3,0.4-2.4,0.4-3.3c0-0.9,0-1.7-0.1-2.6c-0.1-0.9-0.2-2-0.2-3.4
					c0-0.3,0-0.8,0.1-1.3c0-0.6,0.2-1.1,0.5-1.7c0.3-0.6,0.8-1.1,1.4-1.5c0.7-0.4,1.6-0.6,2.9-0.6h16.1c1.2,0,2.2,0,3.1,0.1
					c0.9,0,1.7,0.3,2.4,0.7c0.7,0.4,1.4,1.1,2.1,2.1c0.7,1,1.3,2.5,2,4.5c0.7,2,1.5,4.5,2.4,7.7c1.1,3.9,2.1,7.3,2.9,10.3
					c0.8,3,1.5,5.6,2.1,8c0.6,2.4,1.3,4.7,1.9,6.9c0.6,2.2,1.2,4.5,1.9,6.9c0.7,2.4,1.4,5,2.3,7.9c0.9,2.9,1.9,6.3,3.1,10.2
					c0.7,2.2,1.4,4,2.1,5.4c0.7,1.4,1.4,2.6,2.1,3.6c0.7,1,1.3,1.8,1.9,2.6c0.6,0.8,1,1.5,1.3,2.3c0.3,0.8,0.5,1.7,0.5,2.8
					c0,1.1-0.3,2-1,2.6c-0.7,0.6-1.6,1-2.7,1.2c-1.1,0.2-2.3,0.3-3.7,0.3h-22c-0.9,0-1.8-0.1-2.7-0.4c-0.9-0.3-1.6-0.7-2.2-1.3
					c-0.6-0.6-0.9-1.4-0.9-2.4c0-1.3,0.1-2.4,0.3-3.1c0.2-0.8,0.5-1.5,0.7-2.2c0.3-0.7,0.5-1.6,0.7-2.6c0.2-1,0.3-2.4,0.3-4.2
					c0-1-0.1-2.1-0.2-3.2h-15.3c0,0.5,0.1,1,0.2,1.6c0.1,0.5,0.1,1.1,0.2,1.6c0.2,1.8,0.5,3.2,0.9,4.2c0.3,1,0.7,1.9,1,2.6
					c0.3,0.7,0.6,1.4,0.8,2.2c0.2,0.8,0.3,1.8,0.3,3.1c0,1-0.3,1.8-0.9,2.4c-0.6,0.6-1.3,1-2.2,1.3c-0.9,0.3-1.8,0.4-2.7,0.4H327z
					 M348.3,103.4H359c-0.5-1.8-1.1-3.8-1.6-5.8c-0.6-2.1-1.2-4.2-1.9-6.5c-0.4-1.4-0.8-2.5-1.2-3.4c-0.4-0.9-0.8-1.3-1.3-1.3
					c-0.4,0-0.8,0.6-1.2,1.6c-0.4,1.1-0.8,2.3-1.2,3.9c-0.4,1.5-0.8,3.1-1.1,4.7c-0.3,1.6-0.6,3-0.8,4.3
					C348.6,102.2,348.4,103,348.3,103.4z"/>
			</g>
		</g>
	</g>
</g>
<path class="st8" d="M490.8,80.7c-1.1-3.9-2.5-7.4-4.4-10.5c-1.1,1-2.4,1.8-3.9,2.2c-1,0.3-2.1,0.5-3.2,0.5c-3.4,0-6.5-1.7-8.4-4.2
	c0,0,0,0,0,0c-0.3-0.4-0.5-0.7-0.7-1.1c-0.8-1.4-1.3-3.1-1.3-4.8c-0.4,0.3-0.8,0.6-1.2,0.8c-2.2,1.3-4.8,2-7.5,2
	c-6.7,0-12.3-4.4-14.2-10.5h-9.4c-0.6,0-1.5,0-2.5,0c-1,0-2,0.2-3,0.5s-1.9,0.8-2.6,1.6c-0.7,0.8-1,1.9-1,3.3c0,1.6,0.1,3,0.4,4.4
	c0.3,1.3,0.6,2.7,1,4c0.4,1.3,0.8,2.8,1.3,4.4c0.4,1.6,0.9,3.5,1.3,5.8c0.4,2.2,0.7,4.9,1,8c0.3,3.1,0.4,6.8,0.4,11
	c0,4.3-0.1,8-0.4,11c-0.3,3.1-0.6,5.7-1,8c-0.4,2.2-0.8,4.2-1.3,5.8c-0.4,1.6-0.9,3.1-1.3,4.4c-0.4,1.3-0.7,2.6-1,3.9
	c-0.3,1.3-0.4,2.8-0.4,4.4c0,1.5,0.3,2.6,1,3.3c0.7,0.7,1.6,1.3,2.6,1.6c1,0.3,2,0.4,3,0.5c1,0,1.8,0,2.5,0v0.1H459
	c5.5,0,10.4-1.1,14.7-3.1c4.2-2.1,7.8-5,10.6-8.8c2.9-3.8,5-8.4,6.5-13.7c1.5-5.3,2.2-11.1,2.2-17.5C493,91.7,492.2,85.9,490.8,80.7
	z M469.1,107.8c-0.5,3.1-1.3,5.8-2.3,8.2c-1,2.4-2.2,4.3-3.5,5.7c-1.3,1.4-2.7,2.1-4.3,2.1c-0.5,0-1-0.1-1.5-0.3
	c-0.5-0.2-1-0.6-1.4-1.2c-0.4-0.6-0.5-1.5-0.5-2.7V76.5c0-1.2,0.2-2.1,0.5-2.6c0.4-0.6,0.8-1,1.4-1.2c0.5-0.2,1.1-0.3,1.5-0.3
	c1.6,0,3,0.7,4.3,2.1c1.3,1.4,2.5,3.3,3.5,5.7c1,2.4,1.7,5.2,2.3,8.2c0.5,3.1,0.8,6.3,0.8,9.7S469.6,104.7,469.1,107.8z"/>
<path class="st8" d="M498.9,98.1c0-4.3-0.1-7.9-0.4-11c-0.3-3.1-0.6-5.7-1-8c-0.4-2.2-0.9-4.2-1.3-5.8c-0.5-1.6-0.9-3.1-1.3-4.4
	c-0.4-1.3-0.8-2.6-1-4c-0.3-1.3-0.4-2.8-0.4-4.4c0-1.5,0.3-2.6,1-3.3c0.7-0.8,1.6-1.3,2.6-1.6c1-0.3,2-0.5,3-0.5c1,0,1.8,0,2.5,0
	H518c0.6,0,1.4,0,2.5,0c1,0,2,0.2,3,0.5c1,0.3,1.9,0.8,2.6,1.6c0.7,0.8,1,1.9,1,3.3c0,1.6-0.1,3-0.4,4.4c-0.3,1.3-0.6,2.7-1,4
	c-0.4,1.3-0.9,2.8-1.3,4.4c-0.5,1.6-0.9,3.6-1.3,5.8c-0.4,2.2-0.8,4.9-1,8c-0.3,3.1-0.4,6.8-0.4,11c0,4.3,0.1,7.9,0.4,11
	c0.3,3.1,0.6,5.7,1,8c0.4,2.2,0.9,4.2,1.3,5.8c0.5,1.6,0.9,3.1,1.3,4.4c0.4,1.3,0.8,2.6,1,3.9c0.3,1.3,0.4,2.8,0.4,4.4
	c0,1.5-0.3,2.6-1,3.3s-1.6,1.3-2.6,1.6c-1,0.3-2,0.5-3,0.5c-1,0-1.8,0-2.5,0h-15.4c-0.6,0-1.4,0-2.5,0c-1,0-2-0.2-3-0.5
	c-1-0.3-1.9-0.8-2.6-1.6c-0.7-0.8-1-1.9-1-3.3c0-1.6,0.1-3.1,0.4-4.4c0.3-1.3,0.6-2.6,1-3.9c0.4-1.3,0.9-2.8,1.3-4.4
	c0.5-1.6,0.9-3.6,1.3-5.8c0.4-2.2,0.8-4.9,1-8C498.8,106.1,498.9,102.4,498.9,98.1z"/>
<path class="st8" d="M527.8,121.9c0-2.9,0.6-5.4,1.8-7.5c1.2-2.2,2.7-3.8,4.6-5c1.9-1.2,3.9-1.9,6-1.9c1.7,0,3.2,0.3,4.7,1.1
	c1.4,0.8,2.9,1.7,4.2,3c1.3,1.2,2.7,2.6,3.9,4c1.3,1.4,2.6,2.7,3.9,4c1.3,1.3,2.6,2.3,4,3.1c1.4,0.8,2.8,1.2,4.3,1.2
	c1.9,0,3.3-0.5,4.2-1.5c0.8-1,1.3-2.2,1.3-3.7c0-1.7-0.6-3.1-1.7-4.2c-1.2-1.2-2.7-2.2-4.7-3c-2-0.9-4.2-1.7-6.7-2.5
	c-2.5-0.8-5-1.7-7.6-2.6c-2.6-0.9-5.2-2.1-7.6-3.4c-2.5-1.3-4.7-3-6.7-4.9c-2-1.9-3.5-4.2-4.7-6.9c-1.2-2.7-1.7-6-1.7-9.8
	c0-5.5,1.4-10.3,4.1-14.4c2.7-4,6.7-7.2,11.9-9.4c5.2-2.2,11.5-3.3,18.8-3.3c3.4,0,6.7,0.3,10.1,1c3.3,0.7,6.3,1.7,9.1,3.2
	c2.7,1.5,4.9,3.3,6.5,5.6c1.6,2.3,2.5,5.1,2.5,8.3c0,2.3-0.5,4.4-1.5,6.3c-1,1.9-2.4,3.4-4.1,4.6s-3.7,1.9-5.9,2
	c-1.9,0.1-3.6-0.2-5.3-1c-1.6-0.8-3.2-1.9-4.6-3.2c-1.5-1.3-2.9-2.6-4.4-3.9c-1.4-1.3-3-2.4-4.5-3.3c-1.5-0.9-3.2-1.4-4.9-1.4
	c-1.4,0-2.6,0.3-3.4,0.8c-0.8,0.5-1.4,1.2-1.8,1.9c-0.3,0.8-0.5,1.5-0.5,2.2c0,1.6,0.6,3,1.8,4.2c1.2,1.1,2.8,2.2,4.9,3
	c2,0.9,4.3,1.7,6.9,2.6c2.6,0.8,5.2,1.7,7.9,2.7c2.7,1,5.3,2.2,7.9,3.6c2.6,1.4,4.9,3.1,6.9,5.1c2,2,3.6,4.4,4.9,7.2
	c1.2,2.8,1.8,6.2,1.8,10c0,4.1-0.7,7.7-2,10.6c-1.3,3-3.1,5.5-5.4,7.5c-2.3,2-4.8,3.6-7.6,4.9c-2.8,1.2-5.7,2.1-8.7,2.6
	c-3,0.5-5.8,0.8-8.5,0.8c-3.2,0-6.3-0.2-9.5-0.6c-3.2-0.4-6.3-1.1-9.2-2c-3-0.9-5.6-2.2-7.9-3.7c-2.3-1.5-4.1-3.5-5.5-5.7
	C528.4,127.7,527.8,125,527.8,121.9z"/>
<path class="st8" d="M600.2,98.1c0-4.3-0.1-7.9-0.4-11c-0.3-3.1-0.6-5.7-1-8c-0.4-2.2-0.9-4.2-1.3-5.8c-0.5-1.6-0.9-3.1-1.3-4.4
	c-0.4-1.3-0.8-2.6-1-4c-0.3-1.3-0.4-2.8-0.4-4.4c0-1.5,0.3-2.6,1-3.3c0.7-0.8,1.6-1.3,2.6-1.6c1-0.3,2-0.5,3-0.5c1,0,1.8,0,2.5,0
	h15.4c0.6,0,1.4,0,2.5,0c1,0,2,0.2,3,0.5c1,0.3,1.9,0.8,2.6,1.6c0.7,0.8,1,1.9,1,3.3c0,1.7-0.1,3.2-0.4,4.5
	c-0.3,1.3-0.6,2.7-1.1,4.1c-0.4,1.4-0.9,3-1.4,4.7c-0.5,1.7-0.9,3.8-1.3,6.2c-0.4,2.4-0.7,5.2-1,8.7h16.7c-0.3-3.4-0.6-6.3-1-8.7
	c-0.4-2.4-0.8-4.4-1.3-6.2s-0.9-3.3-1.4-4.7c-0.4-1.4-0.8-2.7-1.1-4.1c-0.3-1.3-0.4-2.8-0.4-4.5c0-1.5,0.3-2.6,1-3.3
	c0.7-0.8,1.6-1.3,2.6-1.6s2-0.5,3-0.5c1,0,1.8,0,2.5,0h15.4c0.6,0,1.4,0,2.5,0c1,0,2,0.2,3,0.5c1,0.3,1.9,0.8,2.6,1.6
	c0.7,0.8,1,1.9,1,3.3c0,1.6-0.1,3-0.4,4.4c-0.3,1.3-0.6,2.7-1,4s-0.9,2.8-1.3,4.4c-0.5,1.6-0.9,3.6-1.3,5.8c-0.4,2.2-0.8,4.9-1,8
	c-0.3,3.1-0.4,6.8-0.4,11c0,4.3,0.1,7.9,0.4,11c0.3,3.1,0.6,5.7,1,8c0.4,2.2,0.9,4.2,1.3,5.8c0.5,1.6,0.9,3.1,1.3,4.4
	c0.4,1.3,0.8,2.6,1,3.9c0.3,1.3,0.4,2.8,0.4,4.4c0,1.5-0.3,2.6-1,3.3s-1.6,1.3-2.6,1.6c-1,0.3-2,0.5-3,0.5c-1,0-1.8,0-2.5,0h-15.4
	c-0.6,0-1.4,0-2.5,0c-1,0-2-0.2-3-0.5c-1-0.3-1.9-0.8-2.6-1.6c-0.7-0.8-1-1.9-1-3.3c0-1.6,0.1-3.1,0.4-4.4c0.3-1.3,0.6-2.6,1-3.9
	c0.4-1.3,0.9-2.8,1.3-4.5c0.5-1.6,0.9-3.6,1.3-5.8c0.4-2.2,0.7-4.9,1-8.1h-16.5c0.3,3.2,0.6,5.8,1,8.1s0.9,4.1,1.3,5.8
	c0.5,1.6,0.9,3.1,1.3,4.5c0.4,1.3,0.8,2.6,1,3.9c0.3,1.3,0.4,2.8,0.4,4.4c0,1.5-0.3,2.6-1,3.3c-0.7,0.8-1.6,1.3-2.6,1.6
	c-1,0.3-2,0.5-3,0.5c-1,0-1.8,0-2.5,0h-15.4c-0.6,0-1.4,0-2.5,0c-1,0-2-0.2-3-0.5c-1-0.3-1.9-0.8-2.6-1.6c-0.7-0.8-1-1.9-1-3.3
	c0-1.6,0.1-3.1,0.4-4.4c0.3-1.3,0.6-2.6,1-3.9c0.4-1.3,0.9-2.8,1.3-4.4c0.5-1.6,0.9-3.6,1.3-5.8c0.4-2.2,0.8-4.9,1-8
	C600,106.1,600.2,102.4,600.2,98.1z"/>
</svg>
