<?xml version="1.0" encoding="utf-8"?>
<!-- Generator: Adobe Illustrator 25.4.1, SVG Export Plug-In . SVG Version: 6.00 Build 0)  -->
<svg version="1.1" id="Layer_1" xmlns="http://www.w3.org/2000/svg" xmlns:xlink="http://www.w3.org/1999/xlink" x="0px" y="0px"
	 viewBox="0 0 800 200" style="enable-background:new 0 0 800 200;" xml:space="preserve">
<style type="text/css">
	.st0{clip-path:url(#SVGID_00000170257143358256251440000014618381126004138687_);}
	.st1{clip-path:url(#SVGID_00000086692314823971992450000009270112600777382053_);enable-background:new    ;}
	.st2{clip-path:url(#SVGID_00000065777661408728875270000008912936251937225404_);}
	.st3{clip-path:url(#SVGID_00000059278018740012078740000014771635712169627288_);}
	.st4{clip-path:url(#SVGID_00000114053808430727860290000000108103802503643829_);fill:#ED6F41;}
	.st5{clip-path:url(#SVGID_00000042006397875570376740000012903495922756954003_);enable-background:new    ;}
	.st6{clip-path:url(#SVGID_00000167371290467495976660000017688062692457339815_);}
	.st7{clip-path:url(#SVGID_00000174586724911237950470000016566088686476966561_);fill:#FFFFFF;}
	.st8{fill:#EE7042;}
	.st9{clip-path:url(#SVGID_00000174597930662429825590000002076033413984512418_);enable-background:new    ;}
	.st10{clip-path:url(#SVGID_00000060719329608333378840000006965424047760768955_);}
	.st11{clip-path:url(#SVGID_00000148619601792118482650000013078398735223999932_);}
	.st12{clip-path:url(#SVGID_00000161607015047854079930000007558661371983272872_);fill:#EC6F41;}
	.st13{fill:none;}
	.st14{fill:#EC6F41;}
	.st15{clip-path:url(#SVGID_00000133489304920205244580000004406105014115384990_);enable-background:new    ;}
	.st16{clip-path:url(#SVGID_00000077292176347004802560000001970575435369143208_);}
	.st17{clip-path:url(#SVGID_00000016758772517247625620000015814921944576148900_);fill:#FFFFFF;}
	.st18{clip-path:url(#SVGID_00000093887609187421381060000018221090077924244639_);}
	.st19{clip-path:url(#SVGID_00000080196054658975520380000016855340355225701277_);enable-background:new    ;}
	.st20{clip-path:url(#SVGID_00000036961780794702525680000008863958896106643366_);}
	.st21{clip-path:url(#SVGID_00000181047508512285798380000016998109927842517668_);}
	.st22{clip-path:url(#SVGID_00000007400960785545738560000004387016275519283385_);fill:#EC6F41;}
	.st23{clip-path:url(#SVGID_00000068655109000549438360000011574798731230705800_);}
	.st24{clip-path:url(#SVGID_00000136403554999498464860000003293550240647124130_);}
	.st25{clip-path:url(#SVGID_00000045597171947380197990000001932298183542421650_);enable-background:new    ;}
	.st26{clip-path:url(#SVGID_00000084530733173446970750000004884347732918316223_);}
	.st27{clip-path:url(#SVGID_00000085959398726783312130000003846926737803995581_);}
	.st28{clip-path:url(#SVGID_00000142157091272660703820000015767758851743893136_);}
	.st29{clip-path:url(#SVGID_00000048463551675269420710000014851037274322126996_);fill:#EC6F41;}
</style>
<g>
	<g>
		<defs>
			<rect id="SVGID_1_" x="128.7" y="-261.2" width="278.9" height="149.5"/>
		</defs>
		<clipPath id="SVGID_00000117636333828615682010000003979026916677919380_">
			<use xlink:href="#SVGID_1_"  style="overflow:visible;"/>
		</clipPath>
		<g style="clip-path:url(#SVGID_00000117636333828615682010000003979026916677919380_);">
			<g>
				<defs>
					<path id="SVGID_00000147940922919537673300000000862702657626952864_" d="M150.5-261h235.3c5.7,0,11.2,2.3,15.3,6.3
						c4.1,4.1,6.3,9.6,6.3,15.3v105.5c0,5.7-2.3,11.2-6.3,15.3c-4.1,4.1-9.6,6.3-15.3,6.3H150.5c-5.7,0-11.2-2.3-15.3-6.3
						c-4.1-4.1-6.3-9.6-6.3-15.3v-105.5c0-5.7,2.3-11.2,6.3-15.3C139.3-258.7,144.8-261,150.5-261z"/>
				</defs>
				<clipPath id="SVGID_00000173874340360756994410000006256349534230771848_">
					<use xlink:href="#SVGID_00000147940922919537673300000000862702657626952864_"  style="overflow:visible;"/>
				</clipPath>
				<g style="clip-path:url(#SVGID_00000173874340360756994410000006256349534230771848_);enable-background:new    ;">
					<g>
						<g>
							<defs>
								<rect id="SVGID_00000141453596341146650920000008324429612443081614_" x="128.7" y="-261.2" width="278.9" height="149.5"/>
							</defs>
							<clipPath id="SVGID_00000024711406355372945740000016192311553962383026_">
								<use xlink:href="#SVGID_00000141453596341146650920000008324429612443081614_"  style="overflow:visible;"/>
							</clipPath>
							<g style="clip-path:url(#SVGID_00000024711406355372945740000016192311553962383026_);">
								<g>
									<defs>
										
											<rect id="SVGID_00000172427060815874078170000002677709399688948121_" x="128.7" y="-261.2" width="278.9" height="149.5"/>
									</defs>
									<clipPath id="SVGID_00000029763312493934333820000005986226984986123166_">
										<use xlink:href="#SVGID_00000172427060815874078170000002677709399688948121_"  style="overflow:visible;"/>
									</clipPath>
									<g style="clip-path:url(#SVGID_00000029763312493934333820000005986226984986123166_);">
										<g>
											<defs>
												<path id="SVGID_00000011724252274359730980000013036442594568424597_" d="M150.5-261h235.3c5.7,0,11.2,2.3,15.3,6.3
													c4.1,4.1,6.3,9.6,6.3,15.3v105.5c0,5.7-2.3,11.2-6.3,15.3c-4.1,4.1-9.6,6.3-15.3,6.3H150.5c-5.7,0-11.2-2.3-15.3-6.3
													c-4.1-4.1-6.3-9.6-6.3-15.3v-105.5c0-5.7,2.3-11.2,6.3-15.3C139.3-258.7,144.8-261,150.5-261z"/>
											</defs>
											<clipPath id="SVGID_00000149374792171119649110000007571506906849944208_">
												<use xlink:href="#SVGID_00000011724252274359730980000013036442594568424597_"  style="overflow:visible;"/>
											</clipPath>
											
												<rect x="128.9" y="-261" style="clip-path:url(#SVGID_00000149374792171119649110000007571506906849944208_);fill:#ED6F41;" width="278.4" height="148.8"/>
										</g>
									</g>
								</g>
							</g>
						</g>
					</g>
				</g>
			</g>
		</g>
	</g>
</g>
<g>
	<g>
		<defs>
			<rect id="SVGID_00000113348137902659794370000016366033572325749411_" x="148.8" y="-230.1" width="249.9" height="115.6"/>
		</defs>
		<clipPath id="SVGID_00000158738687230838956470000002548064634889926292_">
			<use xlink:href="#SVGID_00000113348137902659794370000016366033572325749411_"  style="overflow:visible;"/>
		</clipPath>
		<g style="clip-path:url(#SVGID_00000158738687230838956470000002548064634889926292_);enable-background:new    ;">
			<g>
				<g>
					<defs>
						<rect id="SVGID_00000075858795395878923370000017644099204815232924_" x="148.8" y="-230.1" width="249.9" height="115.6"/>
					</defs>
					<clipPath id="SVGID_00000018959324966231522490000009792547350206615985_">
						<use xlink:href="#SVGID_00000075858795395878923370000017644099204815232924_"  style="overflow:visible;"/>
					</clipPath>
					<g style="clip-path:url(#SVGID_00000018959324966231522490000009792547350206615985_);">
						<g>
							<defs>
								<rect id="SVGID_00000026133012099242613740000001962575192610206107_" x="148.8" y="-230.1" width="249.9" height="115.6"/>
							</defs>
							<clipPath id="SVGID_00000144310391575969781110000008609695364398212256_">
								<use xlink:href="#SVGID_00000026133012099242613740000001962575192610206107_"  style="overflow:visible;"/>
							</clipPath>
							<path style="clip-path:url(#SVGID_00000144310391575969781110000008609695364398212256_);fill:#FFFFFF;" d="M155.9-186.3
								c0-4.3-0.1-7.9-0.4-11c-0.3-3.1-0.6-5.7-1-8c-0.4-2.2-0.9-4.2-1.3-5.8c-0.5-1.6-0.9-3.1-1.3-4.4c-0.4-1.3-0.8-2.6-1-4
								c-0.3-1.3-0.4-2.8-0.4-4.4c0-1.5,0.3-2.6,1-3.3c0.7-0.8,1.6-1.3,2.6-1.6c1-0.3,2-0.5,3-0.5s1.8,0,2.4,0h15.4
								c0.6,0,1.5,0,2.4,0c1,0,2,0.2,3,0.5c1,0.3,1.9,0.8,2.6,1.6c0.7,0.8,1,1.9,1,3.3c0,1.6-0.1,3.1-0.4,4.4c-0.3,1.3-0.6,2.7-1,4
								s-0.9,2.8-1.3,4.4c-0.5,1.6-0.9,3.6-1.3,5.8c-0.4,2.2-0.8,4.9-1,8c-0.3,3.1-0.4,6.8-0.4,11c0,4.3,0.1,7.9,0.4,11
								c0.3,3.1,0.6,5.7,1,8c0.4,2.2,0.9,4.2,1.3,5.8c0.5,1.6,0.9,3.1,1.3,4.4c0.4,1.3,0.8,2.6,1,3.9c0.3,1.3,0.4,2.8,0.4,4.4
								c0,1.5-0.3,2.6-1,3.3c-0.7,0.8-1.6,1.3-2.6,1.6s-2,0.5-3,0.5s-1.8,0-2.4,0h-15.4c-0.6,0-1.5,0-2.4,0c-1,0-2-0.2-3-0.5
								s-1.9-0.8-2.6-1.6c-0.7-0.8-1-1.9-1-3.3c0-1.6,0.1-3.1,0.4-4.4c0.3-1.3,0.6-2.6,1-3.9c0.4-1.3,0.9-2.8,1.3-4.4
								c0.5-1.6,0.9-3.6,1.3-5.8c0.4-2.2,0.8-4.9,1-8C155.7-178.4,155.9-182.1,155.9-186.3z M186.4-148.7c0-2,0.2-3.9,0.5-5.6
								c0.4-1.7,0.8-3.5,1.3-5.3c0.5-1.9,1.1-4,1.6-6.4c0.6-2.4,1-5.4,1.4-8.9s0.5-7.7,0.5-12.7c0-4.1-0.1-7.7-0.4-10.7
								c-0.3-3-0.6-5.6-1-7.7c-0.4-2.1-0.9-4-1.3-5.6c-0.5-1.6-0.9-3-1.3-4.3c-0.4-1.3-0.8-2.6-1-3.9c-0.3-1.3-0.4-2.7-0.4-4.2
								c0-1.4,0.3-2.5,1-3.3c0.7-0.7,1.6-1.3,2.6-1.6s2-0.5,3-0.5s1.8,0,2.4,0h34c4.1,0,7.7,0.8,10.9,2.5s5.7,4,7.5,7
								s2.7,6.5,2.7,10.5c0,1.7-0.2,3.5-0.7,5.3s-1.2,3.5-2.3,5.2s-2.4,3.1-4.2,4.4c-1.7,1.3-3.9,2.3-6.4,3c-1,0.3-1.5,0.7-1.5,1.1
								c0,0.3,0.4,0.7,1.2,1c0.8,0.4,1.8,0.8,3,1.3s2.6,1.3,4,2.3s2.7,2.2,4,3.8c1.2,1.6,2.2,3.5,3,5.9c0.8,2.3,1.2,5.2,1.2,8.6
								c0,2.1-0.3,4.2-0.9,6.5c-0.6,2.2-1.5,4.4-2.7,6.5c-1.3,2.1-2.9,4-5,5.7s-4.6,3.1-7.6,4.1s-6.5,1.5-10.5,1.5h-30.7
								c-0.6,0-1.4,0-2.3,0c-0.9,0-1.8-0.2-2.7-0.5s-1.6-0.8-2.2-1.6C186.7-146.1,186.4-147.2,186.4-148.7z M214.4-199.5
								c0,1.2,0.3,2.1,1,2.5c0.6,0.4,1.5,0.6,2.6,0.6c2,0,3.5-0.3,4.8-0.8c1.2-0.5,2.2-1.2,2.9-2.1c0.7-0.8,1.2-1.7,1.5-2.6
								c0.3-0.9,0.4-1.7,0.4-2.4s-0.1-1.5-0.4-2.4c-0.3-0.9-0.8-1.8-1.5-2.6c-0.7-0.8-1.7-1.5-2.9-2.1c-1.2-0.5-2.8-0.8-4.8-0.8
								c-1.1,0-2,0.2-2.6,0.6c-0.6,0.4-1,1.2-1,2.5V-199.5z M214.4-165c0,1.7,0.3,2.9,1,3.4c0.6,0.6,1.5,0.9,2.6,0.9
								c2,0,3.5-0.4,4.8-1.1c1.2-0.8,2.2-1.7,2.9-2.9s1.2-2.3,1.5-3.6c0.3-1.2,0.4-2.3,0.4-3.3s-0.1-2.1-0.4-3.3
								c-0.3-1.3-0.8-2.5-1.5-3.6c-0.7-1.2-1.7-2.1-2.9-2.9s-2.8-1.1-4.8-1.1c-1.1,0-2,0.3-2.6,0.8c-0.6,0.6-1,1.7-1,3.5
								c0,0.4,0,1,0,1.9c0,0.9,0,1.8,0.1,2.7c0,0.9,0,1.6,0,2c0,0.4,0,1,0,1.9c0,0.9,0,1.8-0.1,2.7
								C214.4-166.1,214.4-165.4,214.4-165z M253.4-224c0-1.4,0.3-2.5,1-3.3c0.7-0.7,1.6-1.3,2.6-1.6c1-0.3,2-0.5,3-0.5s1.8,0,2.4,0
								h15.4c0.6,0,1.5,0,2.4,0c1,0,2,0.2,3,0.5c1,0.3,1.9,0.8,2.6,1.6c0.7,0.7,1,1.8,1,3.3c0,1.6-0.1,3-0.4,4.2
								c-0.3,1.3-0.6,2.6-1,3.9s-0.9,2.7-1.3,4.3c-0.5,1.6-0.9,3.5-1.3,5.6c-0.4,2.2-0.8,4.7-1,7.7c-0.3,3-0.4,6.6-0.4,10.7v19.3
								c0,1.6,0.1,3,0.2,4.3s0.4,2.2,0.9,2.9s1.3,1,2.4,1c2.9,0,5.5-0.4,7.7-1.3c2.2-0.9,4.3-2,6.1-3.3c1.8-1.3,3.5-2.6,5-3.9
								s2.9-2.4,4.3-3.3c1.4-0.9,2.8-1.3,4.2-1.3c1.4,0,2.4,0.4,3,1.1s0.9,1.6,1,2.7c0.1,1.1,0.1,2.1,0.1,3.1v17.1
								c0,1.8-0.5,3.2-1.6,4.3s-2.5,1.6-4.3,1.6h-49.2c-0.6,0-1.4,0-2.3,0s-1.8-0.2-2.7-0.5c-0.9-0.3-1.6-0.8-2.2-1.6
								c-0.6-0.7-0.9-1.8-0.9-3.3c0-2,0.2-3.9,0.5-5.6c0.4-1.7,0.8-3.5,1.3-5.3c0.5-1.9,1.1-4,1.6-6.4c0.6-2.4,1-5.4,1.4-8.9
								s0.5-7.7,0.5-12.7c0-4.1-0.1-7.7-0.4-10.7s-0.6-5.6-1-7.7c-0.4-2.1-0.9-4-1.3-5.6c-0.5-1.6-0.9-3-1.3-4.3
								c-0.4-1.3-0.8-2.6-1-3.9C253.5-221.1,253.4-222.5,253.4-224z M327-143.3c-1.3,0-2.5-0.1-3.7-0.3c-1.1-0.2-2.1-0.6-2.7-1.2
								c-0.7-0.6-1-1.5-1-2.6s0.2-2.1,0.5-2.8c0.3-0.8,0.8-1.5,1.3-2.3c0.6-0.8,1.2-1.6,1.9-2.6c0.7-1,1.4-2.1,2.1-3.6
								c0.7-1.4,1.4-3.2,2.1-5.4c1-3.3,1.9-6.2,2.6-8.7c0.7-2.4,1.3-4.6,1.9-6.4c0.5-1.9,1-3.6,1.5-5.1c0.4-1.6,0.9-3.1,1.3-4.7
								c0.4-1.6,0.9-3.3,1.4-5.2c0.5-1.9,1.1-4,1.8-6.5c0.7-2.5,1.5-5.4,2.4-8.7c0.6-2.3,1.1-4.1,1.3-5.4c0.3-1.3,0.4-2.4,0.4-3.3
								c0-0.9,0-1.7-0.1-2.6c-0.1-0.9-0.2-2-0.2-3.4c0-0.3,0-0.8,0.1-1.3c0-0.6,0.2-1.1,0.5-1.7c0.3-0.6,0.8-1.1,1.4-1.5
								c0.7-0.4,1.6-0.6,2.9-0.6h16.1c1.2,0,2.2,0,3.1,0.1c0.9,0,1.7,0.3,2.4,0.7c0.7,0.4,1.4,1.1,2.1,2.1s1.3,2.5,2,4.5
								s1.5,4.5,2.4,7.7c1.1,3.9,2.1,7.3,2.9,10.3s1.5,5.6,2.1,8c0.6,2.4,1.3,4.7,1.9,6.9s1.2,4.5,1.9,6.9c0.7,2.4,1.4,5,2.3,7.9
								c0.9,2.9,1.9,6.3,3.1,10.2c0.7,2.2,1.4,4,2.1,5.4c0.7,1.4,1.4,2.6,2.1,3.6s1.3,1.8,1.9,2.6s1,1.5,1.3,2.3s0.5,1.7,0.5,2.8
								s-0.3,2-1,2.6s-1.6,1-2.7,1.2s-2.3,0.3-3.7,0.3h-22c-0.9,0-1.8-0.1-2.7-0.4c-0.9-0.3-1.6-0.7-2.2-1.3s-0.9-1.4-0.9-2.4
								c0-1.3,0.1-2.4,0.3-3.1c0.2-0.8,0.5-1.5,0.7-2.2c0.3-0.7,0.5-1.6,0.7-2.6s0.3-2.4,0.3-4.2c0-1-0.1-2.1-0.2-3.2h-15.3
								c0,0.5,0.1,1,0.2,1.6c0.1,0.5,0.1,1.1,0.2,1.6c0.2,1.8,0.5,3.2,0.9,4.2c0.3,1,0.7,1.9,1,2.6c0.3,0.7,0.6,1.4,0.8,2.2
								c0.2,0.8,0.3,1.8,0.3,3.1c0,1-0.3,1.8-0.9,2.4c-0.6,0.6-1.3,1-2.2,1.3c-0.9,0.3-1.8,0.4-2.7,0.4H327V-143.3z M348.3-183.1
								H359c-0.5-1.8-1.1-3.8-1.6-5.8c-0.6-2.1-1.2-4.2-1.9-6.5c-0.4-1.4-0.8-2.5-1.2-3.4c-0.4-0.9-0.8-1.3-1.3-1.3
								c-0.4,0-0.8,0.6-1.2,1.6c-0.4,1.1-0.8,2.3-1.2,3.9c-0.4,1.5-0.8,3.1-1.1,4.7c-0.3,1.6-0.6,3-0.8,4.3
								C348.6-184.3,348.4-183.5,348.3-183.1z"/>
						</g>
					</g>
				</g>
			</g>
		</g>
	</g>
</g>
<path class="st8" d="M490.8-205.8c-1.1-3.9-2.5-7.4-4.4-10.5c-1.1,1-2.4,1.8-3.9,2.2c-1,0.3-2.1,0.5-3.2,0.5c-3.4,0-6.5-1.7-8.4-4.2
	l0,0c-0.3-0.4-0.5-0.7-0.7-1.1c-0.8-1.4-1.3-3.1-1.3-4.8c-0.4,0.3-0.8,0.6-1.2,0.8c-2.2,1.3-4.8,2-7.5,2c-6.7,0-12.3-4.4-14.2-10.5
	h-9.4c-0.6,0-1.5,0-2.5,0s-2,0.2-3,0.5s-1.9,0.8-2.6,1.6c-0.7,0.8-1,1.9-1,3.3c0,1.6,0.1,3,0.4,4.4c0.3,1.3,0.6,2.7,1,4
	s0.8,2.8,1.3,4.4c0.4,1.6,0.9,3.5,1.3,5.8c0.4,2.2,0.7,4.9,1,8c0.3,3.1,0.4,6.8,0.4,11c0,4.3-0.1,8-0.4,11c-0.3,3.1-0.6,5.7-1,8
	c-0.4,2.2-0.8,4.2-1.3,5.8c-0.4,1.6-0.9,3.1-1.3,4.4s-0.7,2.6-1,3.9c-0.3,1.3-0.4,2.8-0.4,4.4c0,1.5,0.3,2.6,1,3.3s1.6,1.3,2.6,1.6
	s2,0.4,3,0.5c1,0,1.8,0,2.5,0v0.1H459c5.5,0,10.4-1.1,14.7-3.1c4.2-2.1,7.8-5,10.6-8.8c2.9-3.8,5-8.4,6.5-13.7
	c1.5-5.3,2.2-11.1,2.2-17.5C493-194.8,492.2-200.6,490.8-205.8z M469.1-178.7c-0.5,3.1-1.3,5.8-2.3,8.2s-2.2,4.3-3.5,5.7
	s-2.7,2.1-4.3,2.1c-0.5,0-1-0.1-1.5-0.3c-0.5-0.2-1-0.6-1.4-1.2c-0.4-0.6-0.5-1.5-0.5-2.7V-210c0-1.2,0.2-2.1,0.5-2.6
	c0.4-0.6,0.8-1,1.4-1.2c0.5-0.2,1.1-0.3,1.5-0.3c1.6,0,3,0.7,4.3,2.1c1.3,1.4,2.5,3.3,3.5,5.7s1.7,5.2,2.3,8.2
	c0.5,3.1,0.8,6.3,0.8,9.7S469.6-181.8,469.1-178.7z"/>
<path class="st8" d="M498.9-188.4c0-4.3-0.1-7.9-0.4-11c-0.3-3.1-0.6-5.7-1-8c-0.4-2.2-0.9-4.2-1.3-5.8c-0.5-1.6-0.9-3.1-1.3-4.4
	s-0.8-2.6-1-4c-0.3-1.3-0.4-2.8-0.4-4.4c0-1.5,0.3-2.6,1-3.3c0.7-0.8,1.6-1.3,2.6-1.6s2-0.5,3-0.5s1.8,0,2.5,0H518
	c0.6,0,1.4,0,2.5,0c1,0,2,0.2,3,0.5s1.9,0.8,2.6,1.6c0.7,0.8,1,1.9,1,3.3c0,1.6-0.1,3-0.4,4.4c-0.3,1.3-0.6,2.7-1,4
	s-0.9,2.8-1.3,4.4c-0.5,1.6-0.9,3.6-1.3,5.8c-0.4,2.2-0.8,4.9-1,8c-0.3,3.1-0.4,6.8-0.4,11c0,4.3,0.1,7.9,0.4,11
	c0.3,3.1,0.6,5.7,1,8c0.4,2.2,0.9,4.2,1.3,5.8c0.5,1.6,0.9,3.1,1.3,4.4c0.4,1.3,0.8,2.6,1,3.9c0.3,1.3,0.4,2.8,0.4,4.4
	c0,1.5-0.3,2.6-1,3.3s-1.6,1.3-2.6,1.6s-2,0.5-3,0.5s-1.8,0-2.5,0h-15.4c-0.6,0-1.4,0-2.5,0c-1,0-2-0.2-3-0.5s-1.9-0.8-2.6-1.6
	s-1-1.9-1-3.3c0-1.6,0.1-3.1,0.4-4.4c0.3-1.3,0.6-2.6,1-3.9s0.9-2.8,1.3-4.4c0.5-1.6,0.9-3.6,1.3-5.8s0.8-4.9,1-8
	C498.8-180.4,498.9-184.1,498.9-188.4z"/>
<path class="st8" d="M527.8-164.6c0-2.9,0.6-5.4,1.8-7.5c1.2-2.2,2.7-3.8,4.6-5c1.9-1.2,3.9-1.9,6-1.9c1.7,0,3.2,0.3,4.7,1.1
	c1.4,0.8,2.9,1.7,4.2,3c1.3,1.2,2.7,2.6,3.9,4c1.3,1.4,2.6,2.7,3.9,4c1.3,1.3,2.6,2.3,4,3.1s2.8,1.2,4.3,1.2c1.9,0,3.3-0.5,4.2-1.5
	c0.8-1,1.3-2.2,1.3-3.7c0-1.7-0.6-3.1-1.7-4.2c-1.2-1.2-2.7-2.2-4.7-3c-2-0.9-4.2-1.7-6.7-2.5s-5-1.7-7.6-2.6
	c-2.6-0.9-5.2-2.1-7.6-3.4c-2.5-1.3-4.7-3-6.7-4.9c-2-1.9-3.5-4.2-4.7-6.9s-1.7-6-1.7-9.8c0-5.5,1.4-10.3,4.1-14.4
	c2.7-4,6.7-7.2,11.9-9.4c5.2-2.2,11.5-3.3,18.8-3.3c3.4,0,6.7,0.3,10.1,1c3.3,0.7,6.3,1.7,9.1,3.2c2.7,1.5,4.9,3.3,6.5,5.6
	s2.5,5.1,2.5,8.3c0,2.3-0.5,4.4-1.5,6.3c-1,1.9-2.4,3.4-4.1,4.6s-3.7,1.9-5.9,2c-1.9,0.1-3.6-0.2-5.3-1c-1.6-0.8-3.2-1.9-4.6-3.2
	c-1.5-1.3-2.9-2.6-4.4-3.9c-1.4-1.3-3-2.4-4.5-3.3c-1.5-0.9-3.2-1.4-4.9-1.4c-1.4,0-2.6,0.3-3.4,0.8c-0.8,0.5-1.4,1.2-1.8,1.9
	c-0.3,0.8-0.5,1.5-0.5,2.2c0,1.6,0.6,3,1.8,4.2c1.2,1.1,2.8,2.2,4.9,3c2,0.9,4.3,1.7,6.9,2.6c2.6,0.8,5.2,1.7,7.9,2.7
	s5.3,2.2,7.9,3.6c2.6,1.4,4.9,3.1,6.9,5.1s3.6,4.4,4.9,7.2c1.2,2.8,1.8,6.2,1.8,10c0,4.1-0.7,7.7-2,10.6c-1.3,3-3.1,5.5-5.4,7.5
	c-2.3,2-4.8,3.6-7.6,4.9c-2.8,1.2-5.7,2.1-8.7,2.6s-5.8,0.8-8.5,0.8c-3.2,0-6.3-0.2-9.5-0.6c-3.2-0.4-6.3-1.1-9.2-2
	c-3-0.9-5.6-2.2-7.9-3.7c-2.3-1.5-4.1-3.5-5.5-5.7C528.4-158.8,527.8-161.5,527.8-164.6z"/>
<path class="st8" d="M600.2-188.4c0-4.3-0.1-7.9-0.4-11c-0.3-3.1-0.6-5.7-1-8c-0.4-2.2-0.9-4.2-1.3-5.8c-0.5-1.6-0.9-3.1-1.3-4.4
	c-0.4-1.3-0.8-2.6-1-4c-0.3-1.3-0.4-2.8-0.4-4.4c0-1.5,0.3-2.6,1-3.3c0.7-0.8,1.6-1.3,2.6-1.6s2-0.5,3-0.5s1.8,0,2.5,0h15.4
	c0.6,0,1.4,0,2.5,0c1,0,2,0.2,3,0.5s1.9,0.8,2.6,1.6c0.7,0.8,1,1.9,1,3.3c0,1.7-0.1,3.2-0.4,4.5c-0.3,1.3-0.6,2.7-1.1,4.1
	c-0.4,1.4-0.9,3-1.4,4.7s-0.9,3.8-1.3,6.2c-0.4,2.4-0.7,5.2-1,8.7h16.7c-0.3-3.4-0.6-6.3-1-8.7c-0.4-2.4-0.8-4.4-1.3-6.2
	c-0.5-1.8-0.9-3.3-1.4-4.7c-0.4-1.4-0.8-2.7-1.1-4.1c-0.3-1.3-0.4-2.8-0.4-4.5c0-1.5,0.3-2.6,1-3.3c0.7-0.8,1.6-1.3,2.6-1.6
	s2-0.5,3-0.5s1.8,0,2.5,0h15.4c0.6,0,1.4,0,2.5,0c1,0,2,0.2,3,0.5s1.9,0.8,2.6,1.6c0.7,0.8,1,1.9,1,3.3c0,1.6-0.1,3-0.4,4.4
	c-0.3,1.3-0.6,2.7-1,4s-0.9,2.8-1.3,4.4c-0.5,1.6-0.9,3.6-1.3,5.8c-0.4,2.2-0.8,4.9-1,8c-0.3,3.1-0.4,6.8-0.4,11
	c0,4.3,0.1,7.9,0.4,11c0.3,3.1,0.6,5.7,1,8c0.4,2.2,0.9,4.2,1.3,5.8c0.5,1.6,0.9,3.1,1.3,4.4c0.4,1.3,0.8,2.6,1,3.9
	c0.3,1.3,0.4,2.8,0.4,4.4c0,1.5-0.3,2.6-1,3.3s-1.6,1.3-2.6,1.6s-2,0.5-3,0.5s-1.8,0-2.5,0h-15.4c-0.6,0-1.4,0-2.5,0
	c-1,0-2-0.2-3-0.5s-1.9-0.8-2.6-1.6c-0.7-0.8-1-1.9-1-3.3c0-1.6,0.1-3.1,0.4-4.4c0.3-1.3,0.6-2.6,1-3.9s0.9-2.8,1.3-4.5
	c0.5-1.6,0.9-3.6,1.3-5.8c0.4-2.2,0.7-4.9,1-8.1h-16.5c0.3,3.2,0.6,5.8,1,8.1c0.4,2.3,0.9,4.1,1.3,5.8c0.5,1.6,0.9,3.1,1.3,4.5
	c0.4,1.3,0.8,2.6,1,3.9c0.3,1.3,0.4,2.8,0.4,4.4c0,1.5-0.3,2.6-1,3.3c-0.7,0.8-1.6,1.3-2.6,1.6s-2,0.5-3,0.5s-1.8,0-2.5,0h-15.4
	c-0.6,0-1.4,0-2.5,0c-1,0-2-0.2-3-0.5s-1.9-0.8-2.6-1.6c-0.7-0.8-1-1.9-1-3.3c0-1.6,0.1-3.1,0.4-4.4c0.3-1.3,0.6-2.6,1-3.9
	s0.9-2.8,1.3-4.4c0.5-1.6,0.9-3.6,1.3-5.8c0.4-2.2,0.8-4.9,1-8C600-180.4,600.2-184.1,600.2-188.4z"/>
<g>
	<g>
		<defs>
			<path id="SVGID_00000125601033034377450390000007513572682894202266_" d="M412,26.7h232.7c5.7,0,11.1,2.3,15.1,6.3
				c4,4,6.3,9.5,6.3,15.1v104.4c0,5.7-2.3,11.1-6.3,15.1c-4,4-9.4,6.3-15.1,6.3H412c-5.7,0-11.1-2.3-15.1-6.3c-4-4-6.3-9.5-6.3-15.1
				V48.1c0-5.7,2.3-11.1,6.3-15.1C400.9,28.9,406.3,26.7,412,26.7z"/>
		</defs>
		<clipPath id="SVGID_00000062895406229214784070000016600384914540492702_">
			<use xlink:href="#SVGID_00000125601033034377450390000007513572682894202266_"  style="overflow:visible;"/>
		</clipPath>
		<g style="clip-path:url(#SVGID_00000062895406229214784070000016600384914540492702_);enable-background:new    ;">
			<g>
				<defs>
					<rect id="SVGID_00000012436542646415444600000017861356309475919493_" x="390.1" y="26.1" width="276.5" height="147.8"/>
				</defs>
				<clipPath id="SVGID_00000003090162774927315370000010487679871350995584_">
					<use xlink:href="#SVGID_00000012436542646415444600000017861356309475919493_"  style="overflow:visible;"/>
				</clipPath>
				<g style="clip-path:url(#SVGID_00000003090162774927315370000010487679871350995584_);">
					<defs>
						<rect id="SVGID_00000065780586269026389950000009405918479357586620_" x="390.1" y="26.1" width="276.5" height="147.8"/>
					</defs>
					<clipPath id="SVGID_00000129181710231106662610000017140291496587803565_">
						<use xlink:href="#SVGID_00000065780586269026389950000009405918479357586620_"  style="overflow:visible;"/>
					</clipPath>
					<g style="clip-path:url(#SVGID_00000129181710231106662610000017140291496587803565_);">
						<defs>
							<path id="SVGID_00000078042271522240082800000001447939731459493551_" d="M412,26.7h232.7c5.7,0,11.1,2.3,15.1,6.3
								c4,4,6.3,9.5,6.3,15.1v104.4c0,5.7-2.3,11.1-6.3,15.1c-4,4-9.4,6.3-15.1,6.3H412c-5.7,0-11.1-2.3-15.1-6.3
								c-4-4-6.3-9.5-6.3-15.1V48.1c0-5.7,2.3-11.1,6.3-15.1C400.9,28.9,406.3,26.7,412,26.7z"/>
						</defs>
						<clipPath id="SVGID_00000181778652144455920030000015887221387898528915_">
							<use xlink:href="#SVGID_00000078042271522240082800000001447939731459493551_"  style="overflow:visible;"/>
						</clipPath>
						
							<rect x="390.6" y="26.7" style="clip-path:url(#SVGID_00000181778652144455920030000015887221387898528915_);fill:#EC6F41;" width="275.3" height="147.1"/>
					</g>
				</g>
			</g>
		</g>
	</g>
	<rect x="390.1" y="26.1" class="st13" width="276.5" height="147.8"/>
	<path class="st14" d="M140.5,99.8c0-4.2-0.1-7.8-0.4-10.9c-0.3-3.1-0.6-5.7-1-7.9c-0.4-2.2-0.8-4.1-1.3-5.7
		c-0.5-1.6-0.9-3.1-1.3-4.4c-0.4-1.3-0.7-2.6-1-3.9c-0.3-1.3-0.4-2.8-0.4-4.3c0-1.5,0.3-2.6,1-3.3c0.7-0.7,1.5-1.3,2.5-1.6
		c1-0.3,2-0.5,3-0.5c1,0,1.8,0,2.4,0h15.2c0.6,0,1.4,0,2.4,0c1,0,2,0.2,3,0.5c1,0.3,1.9,0.8,2.5,1.6c0.7,0.7,1,1.9,1,3.3
		c0,1.6-0.1,3-0.4,4.3c-0.3,1.3-0.6,2.6-1,3.9c-0.4,1.3-0.8,2.8-1.3,4.4c-0.5,1.6-0.9,3.5-1.3,5.7c-0.4,2.2-0.7,4.8-1,7.9
		c-0.3,3.1-0.4,6.7-0.4,10.9c0,4.2,0.1,7.8,0.4,10.9c0.3,3.1,0.6,5.7,1,7.9c0.4,2.2,0.8,4.1,1.3,5.7c0.5,1.6,0.9,3.1,1.3,4.4
		c0.4,1.3,0.7,2.6,1,3.9c0.3,1.3,0.4,2.8,0.4,4.4c0,1.5-0.3,2.6-1,3.3c-0.7,0.7-1.5,1.3-2.5,1.6c-1,0.3-2,0.5-3,0.5
		c-1,0-1.8,0-2.4,0h-15.2c-0.6,0-1.4,0-2.4,0c-1,0-2-0.2-3-0.5c-1-0.3-1.9-0.8-2.5-1.6c-0.7-0.7-1-1.9-1-3.3c0-1.6,0.1-3.1,0.4-4.4
		c0.3-1.3,0.6-2.6,1-3.9c0.4-1.3,0.8-2.8,1.3-4.4c0.5-1.6,0.9-3.5,1.3-5.7c0.4-2.2,0.7-4.8,1-7.9C140.4,107.6,140.5,104,140.5,99.8z
		 M170.7,137c0-2,0.2-3.8,0.5-5.5c0.4-1.7,0.8-3.4,1.3-5.3c0.5-1.8,1.1-4,1.6-6.4c0.6-2.4,1-5.3,1.4-8.8c0.4-3.4,0.5-7.6,0.5-12.5
		c0-4.1-0.1-7.6-0.4-10.6c-0.3-3-0.6-5.5-1-7.6c-0.4-2.1-0.8-4-1.3-5.6c-0.5-1.6-0.9-3-1.3-4.3c-0.4-1.3-0.7-2.5-1-3.8
		c-0.3-1.3-0.4-2.7-0.4-4.2c0-1.4,0.3-2.5,1-3.2c0.7-0.7,1.5-1.2,2.5-1.5c1-0.3,2-0.5,3-0.5c1,0,1.8,0,2.4,0h33.6
		c4.1,0,7.6,0.8,10.8,2.5c3.1,1.6,5.6,3.9,7.4,6.9c1.8,3,2.7,6.4,2.7,10.3c0,1.7-0.2,3.4-0.7,5.2c-0.5,1.8-1.2,3.5-2.2,5.1
		c-1,1.6-2.4,3.1-4.1,4.4c-1.7,1.3-3.8,2.3-6.3,2.9c-1,0.3-1.5,0.6-1.5,1.1c0,0.3,0.4,0.6,1.2,1c0.8,0.4,1.8,0.8,3,1.3
		c1.2,0.5,2.5,1.3,3.9,2.2c1.4,1,2.7,2.2,3.9,3.7c1.2,1.5,2.2,3.5,3,5.8c0.8,2.3,1.2,5.2,1.2,8.5c0,2-0.3,4.2-0.9,6.4
		c-0.6,2.2-1.5,4.4-2.7,6.5c-1.2,2.1-2.9,4-4.9,5.7c-2,1.7-4.5,3-7.5,4c-3,1-6.4,1.5-10.4,1.5h-30.4c-0.6,0-1.4,0-2.3,0
		c-0.9,0-1.8-0.2-2.7-0.5c-0.9-0.3-1.6-0.8-2.2-1.5C171,139.5,170.7,138.4,170.7,137z M198.4,86.7c0,1.2,0.3,2,0.9,2.5
		c0.6,0.4,1.5,0.6,2.6,0.6c1.9,0,3.5-0.3,4.7-0.8c1.2-0.5,2.2-1.2,2.9-2c0.7-0.8,1.2-1.7,1.4-2.5c0.3-0.9,0.4-1.7,0.4-2.4
		c0-0.7-0.1-1.4-0.4-2.3c-0.3-0.9-0.8-1.7-1.4-2.6c-0.7-0.8-1.6-1.5-2.9-2c-1.2-0.5-2.8-0.8-4.7-0.8c-1.1,0-2,0.2-2.6,0.6
		c-0.6,0.4-0.9,1.2-0.9,2.5V86.7z M198.4,120.9c0,1.7,0.3,2.8,0.9,3.4c0.6,0.6,1.5,0.9,2.6,0.9c1.9,0,3.5-0.4,4.7-1.1
		c1.2-0.7,2.2-1.7,2.9-2.8c0.7-1.1,1.2-2.3,1.4-3.5c0.3-1.2,0.4-2.3,0.4-3.2c0-0.9-0.1-2-0.4-3.3c-0.3-1.2-0.8-2.4-1.4-3.6
		c-0.7-1.1-1.6-2.1-2.9-2.8c-1.2-0.7-2.8-1.1-4.7-1.1c-1.1,0-2,0.3-2.6,0.8c-0.6,0.6-0.9,1.7-0.9,3.4c0,0.4,0,1,0,1.9
		c0,0.9,0,1.8,0.1,2.7c0,0.9,0,1.5,0,2c0,0.4,0,1,0,1.9c0,0.9,0,1.8-0.1,2.6C198.4,119.8,198.4,120.5,198.4,120.9z M237,62.5
		c0-1.4,0.3-2.5,1-3.2c0.7-0.7,1.5-1.2,2.5-1.5c1-0.3,2-0.5,3-0.5c1,0,1.8,0,2.4,0h15.2c0.6,0,1.4,0,2.4,0c1,0,2,0.2,3,0.5
		c1,0.3,1.9,0.8,2.5,1.5c0.7,0.7,1,1.8,1,3.2c0,1.5-0.1,2.9-0.4,4.2c-0.3,1.3-0.6,2.5-1,3.8c-0.4,1.3-0.8,2.7-1.3,4.3
		c-0.5,1.6-0.9,3.4-1.3,5.6c-0.4,2.1-0.7,4.7-1,7.6c-0.3,3-0.4,6.5-0.4,10.6v19.1c0,1.6,0.1,3,0.2,4.2c0.1,1.2,0.4,2.2,0.9,2.9
		c0.5,0.7,1.3,1,2.4,1c2.9,0,5.4-0.4,7.6-1.3c2.2-0.9,4.2-2,6-3.3c1.8-1.3,3.4-2.6,4.9-3.9c1.5-1.3,2.9-2.4,4.3-3.2
		c1.4-0.9,2.7-1.3,4.2-1.3c1.4,0,2.4,0.4,3,1.1c0.6,0.7,0.9,1.6,1,2.7c0.1,1,0.1,2.1,0.1,3v16.9c0,1.7-0.5,3.1-1.6,4.2
		c-1.1,1.1-2.5,1.6-4.2,1.6H245c-0.6,0-1.4,0-2.3,0c-0.9,0-1.8-0.2-2.7-0.5c-0.9-0.3-1.6-0.8-2.2-1.5c-0.6-0.7-0.9-1.8-0.9-3.2
		c0-2,0.2-3.8,0.5-5.5c0.4-1.7,0.8-3.4,1.3-5.3c0.5-1.8,1.1-4,1.6-6.4c0.6-2.4,1-5.3,1.4-8.8c0.4-3.4,0.5-7.6,0.5-12.5
		c0-4.1-0.1-7.6-0.4-10.6c-0.3-3-0.6-5.5-1-7.6c-0.4-2.1-0.8-4-1.3-5.6c-0.5-1.6-0.9-3-1.3-4.3c-0.4-1.3-0.7-2.5-1-3.8
		C237.1,65.4,237,64,237,62.5z M309.8,142.3c-1.3,0-2.5-0.1-3.6-0.3c-1.1-0.2-2-0.6-2.7-1.2c-0.7-0.6-1-1.4-1-2.5
		c0-1.1,0.2-2,0.5-2.8c0.3-0.8,0.7-1.5,1.3-2.3c0.6-0.7,1.2-1.6,1.9-2.5c0.7-0.9,1.4-2.1,2.1-3.5c0.7-1.4,1.4-3.2,2.1-5.4
		c1-3.3,1.9-6.2,2.6-8.6c0.7-2.4,1.3-4.5,1.9-6.3c0.5-1.8,1-3.5,1.4-5.1c0.4-1.6,0.9-3.1,1.3-4.7c0.4-1.6,0.9-3.3,1.4-5.1
		c0.5-1.9,1.1-4,1.7-6.4c0.6-2.4,1.4-5.3,2.4-8.6c0.6-2.3,1.1-4.1,1.3-5.4c0.3-1.3,0.4-2.4,0.4-3.2c0-0.8,0-1.7-0.1-2.6
		c-0.1-0.9-0.2-2-0.2-3.4c0-0.3,0-0.7,0.1-1.3c0-0.6,0.2-1.1,0.5-1.7c0.3-0.6,0.7-1.1,1.4-1.5c0.7-0.4,1.6-0.6,2.8-0.6h15.9
		c1.2,0,2.2,0,3.1,0.1c0.9,0,1.7,0.3,2.4,0.6c0.7,0.4,1.4,1.1,2,2.1c0.6,1,1.3,2.5,2,4.4c0.7,1.9,1.5,4.5,2.3,7.6
		c1.1,3.9,2,7.3,2.8,10.2c0.8,2.9,1.5,5.6,2.1,7.9c0.6,2.3,1.2,4.6,1.8,6.8c0.6,2.2,1.2,4.4,1.9,6.8c0.7,2.3,1.4,5,2.3,7.8
		c0.8,2.9,1.9,6.2,3,10.1c0.7,2.2,1.4,4,2.1,5.4c0.7,1.4,1.4,2.6,2.1,3.5c0.7,0.9,1.3,1.8,1.9,2.5c0.6,0.7,1,1.5,1.3,2.3
		c0.3,0.8,0.5,1.7,0.5,2.8c0,1.1-0.3,1.9-1,2.5c-0.7,0.6-1.6,1-2.7,1.2c-1.1,0.2-2.3,0.3-3.7,0.3h-21.7c-0.9,0-1.8-0.1-2.7-0.4
		c-0.9-0.3-1.6-0.7-2.2-1.2c-0.6-0.6-0.9-1.3-0.9-2.3c0-1.3,0.1-2.3,0.3-3.1c0.2-0.8,0.5-1.5,0.7-2.2c0.3-0.7,0.5-1.5,0.7-2.5
		c0.2-1,0.3-2.4,0.3-4.2c0-1-0.1-2-0.2-3.1h-15.1c0,0.5,0.1,1,0.2,1.5c0.1,0.5,0.1,1,0.2,1.6c0.2,1.8,0.5,3.2,0.9,4.2
		c0.3,1,0.6,1.9,0.9,2.5c0.3,0.7,0.6,1.4,0.8,2.2c0.2,0.8,0.3,1.8,0.3,3.1c0,1-0.3,1.8-0.9,2.3c-0.6,0.6-1.3,1-2.2,1.2
		c-0.9,0.3-1.8,0.4-2.7,0.4H309.8z M330.9,103h10.5c-0.5-1.8-1-3.7-1.6-5.8c-0.6-2-1.2-4.2-1.8-6.5c-0.4-1.3-0.8-2.5-1.2-3.4
		c-0.4-0.9-0.8-1.3-1.2-1.2c-0.4,0-0.8,0.6-1.2,1.6c-0.4,1-0.8,2.3-1.2,3.8c-0.4,1.5-0.8,3.1-1.1,4.7c-0.3,1.6-0.6,3-0.8,4.2
		C331.1,101.8,330.9,102.6,330.9,103z"/>
	<rect x="133.4" y="56.2" class="st13" width="247.7" height="114.3"/>
	<rect x="133.4" y="56.2" class="st13" width="247.7" height="114.3"/>
	<rect x="133.4" y="56.2" class="st13" width="247.7" height="114.3"/>
	<g>
		<defs>
			<rect id="SVGID_00000173148020274041419610000008429033221512833683_" x="407.8" y="54.7" width="242.4" height="116.1"/>
		</defs>
		<clipPath id="SVGID_00000018923720599332486500000017390781718899615642_">
			<use xlink:href="#SVGID_00000173148020274041419610000008429033221512833683_"  style="overflow:visible;"/>
		</clipPath>
		<g style="clip-path:url(#SVGID_00000018923720599332486500000017390781718899615642_);enable-background:new    ;">
			<g>
				<defs>
					<rect id="SVGID_00000047044944055498256520000007556514772748087686_" x="407.9" y="54.8" width="242.3" height="115.7"/>
				</defs>
				<clipPath id="SVGID_00000111881949777741520590000010459133756479931523_">
					<use xlink:href="#SVGID_00000047044944055498256520000007556514772748087686_"  style="overflow:visible;"/>
				</clipPath>
				<g style="clip-path:url(#SVGID_00000111881949777741520590000010459133756479931523_);">
					<defs>
						<rect id="SVGID_00000168085169905283767690000007405861868160907956_" x="407.8" y="54.7" width="242.4" height="116.1"/>
					</defs>
					<clipPath id="SVGID_00000088111521199921648970000015917048797094983075_">
						<use xlink:href="#SVGID_00000168085169905283767690000007405861868160907956_"  style="overflow:visible;"/>
					</clipPath>
					<path style="clip-path:url(#SVGID_00000088111521199921648970000015917048797094983075_);fill:#FFFFFF;" d="M418.3,142.3
						c-0.6,0-1.4,0-2.4,0c-1,0-2-0.2-3-0.5c-1-0.3-1.9-0.8-2.5-1.6c-0.7-0.7-1-1.9-1-3.3c0-1.6,0.1-3.1,0.4-4.4
						c0.3-1.3,0.6-2.6,1-3.9c0.4-1.3,0.8-2.8,1.3-4.4c0.5-1.6,0.9-3.5,1.3-5.7c0.4-2.2,0.7-4.8,1-7.9c0.3-3.1,0.4-6.7,0.4-10.9
						c0-4.2-0.1-7.8-0.4-10.9c-0.3-3.1-0.6-5.7-1-7.9c-0.4-2.2-0.8-4.1-1.3-5.7c-0.5-1.6-0.9-3.1-1.3-4.4c-0.4-1.3-0.7-2.6-1-3.9
						c-0.3-1.3-0.4-2.8-0.4-4.3c0-1.5,0.3-2.6,1-3.3c0.7-0.7,1.5-1.3,2.5-1.6c1-0.3,2-0.5,3-0.5c1,0,1.8,0,2.4,0h22.2
						c5.5,0,10.3,1,14.5,3.1c4.2,2,7.7,5,10.5,8.7c2.8,3.8,4.9,8.2,6.4,13.4c1.4,5.2,2.2,10.9,2.2,17.2c0,6.3-0.7,12.1-2.2,17.3
						c-1.4,5.2-3.6,9.7-6.4,13.5c-2.8,3.8-6.3,6.7-10.5,8.7c-4.2,2-9,3.1-14.5,3.1H418.3z M437.1,78.4V121c0,1.2,0.2,2.1,0.5,2.7
						c0.4,0.6,0.8,1,1.3,1.2c0.5,0.2,1,0.3,1.5,0.3c1.5,0,3-0.7,4.3-2.1c1.3-1.4,2.4-3.3,3.4-5.6c1-2.4,1.7-5.1,2.2-8.1
						c0.5-3.1,0.8-6.2,0.8-9.6c0-3.3-0.3-6.5-0.8-9.6c-0.5-3.1-1.3-5.8-2.2-8.1c-1-2.4-2.1-4.3-3.4-5.6c-1.3-1.4-2.7-2.1-4.3-2.1
						c-0.5,0-1,0.1-1.5,0.3c-0.5,0.2-1,0.6-1.3,1.2C437.3,76.3,437.1,77.2,437.1,78.4z M479.9,99.8c0-4.2-0.1-7.8-0.4-10.9
						c-0.3-3.1-0.6-5.7-1-7.9c-0.4-2.2-0.8-4.1-1.3-5.7c-0.5-1.6-0.9-3.1-1.3-4.4c-0.4-1.3-0.7-2.6-1-3.9c-0.3-1.3-0.4-2.8-0.4-4.3
						c0-1.5,0.3-2.6,1-3.3c0.7-0.7,1.5-1.3,2.5-1.6c1-0.3,2-0.5,3-0.5c1,0,1.8,0,2.4,0h15.2c0.6,0,1.4,0,2.4,0c1,0,2,0.2,3,0.5
						c1,0.3,1.9,0.8,2.5,1.6c0.7,0.7,1,1.9,1,3.3c0,1.6-0.1,3-0.4,4.3c-0.3,1.3-0.6,2.6-1,3.9c-0.4,1.3-0.8,2.8-1.3,4.4
						c-0.5,1.6-0.9,3.5-1.3,5.7c-0.4,2.2-0.7,4.8-1,7.9c-0.3,3.1-0.4,6.7-0.4,10.9c0,4.2,0.1,7.8,0.4,10.9c0.3,3.1,0.6,5.7,1,7.9
						c0.4,2.2,0.8,4.1,1.3,5.7c0.5,1.6,0.9,3.1,1.3,4.4c0.4,1.3,0.7,2.6,1,3.9c0.3,1.3,0.4,2.8,0.4,4.4c0,1.5-0.3,2.6-1,3.3
						c-0.7,0.7-1.5,1.3-2.5,1.6c-1,0.3-2,0.5-3,0.5c-1,0-1.8,0-2.4,0h-15.2c-0.6,0-1.4,0-2.4,0c-1,0-2-0.2-3-0.5
						c-1-0.3-1.9-0.8-2.5-1.6c-0.7-0.7-1-1.9-1-3.3c0-1.6,0.1-3.1,0.4-4.4c0.3-1.3,0.6-2.6,1-3.9c0.4-1.3,0.8-2.8,1.3-4.4
						c0.5-1.6,0.9-3.5,1.3-5.7c0.4-2.2,0.7-4.8,1-7.9C479.8,107.6,479.9,104,479.9,99.8z M508.4,123.3c0-2.8,0.6-5.3,1.8-7.4
						c1.2-2.1,2.7-3.8,4.6-5c1.9-1.2,3.8-1.8,5.9-1.9c1.7,0,3.2,0.3,4.6,1.1c1.4,0.7,2.8,1.7,4.1,3c1.3,1.2,2.6,2.5,3.9,3.9
						c1.3,1.4,2.6,2.7,3.8,4c1.3,1.2,2.6,2.3,4,3c1.4,0.8,2.8,1.2,4.3,1.2c1.9,0,3.3-0.5,4.1-1.5c0.8-1,1.2-2.2,1.2-3.7
						c0-1.7-0.6-3.1-1.7-4.2c-1.1-1.1-2.7-2.1-4.6-3c-1.9-0.8-4.1-1.7-6.6-2.5c-2.4-0.8-5-1.6-7.5-2.6c-2.6-0.9-5.1-2-7.5-3.4
						c-2.4-1.3-4.6-2.9-6.6-4.8c-1.9-1.9-3.5-4.2-4.6-6.9c-1.1-2.7-1.7-5.9-1.7-9.6c0-5.5,1.4-10.2,4.1-14.2c2.7-4,6.6-7.1,11.8-9.3
						c5.1-2.2,11.3-3.3,18.6-3.3c3.3,0,6.7,0.3,9.9,1c3.3,0.7,6.2,1.7,8.9,3.2c2.7,1.5,4.9,3.3,6.5,5.6c1.6,2.3,2.4,5,2.4,8.2
						c0,2.3-0.5,4.4-1.5,6.2c-1,1.9-2.4,3.4-4.1,4.5c-1.7,1.2-3.7,1.8-5.8,2c-1.9,0.1-3.6-0.2-5.2-1c-1.6-0.8-3.2-1.9-4.6-3.2
						c-1.5-1.3-2.9-2.6-4.3-3.9c-1.4-1.3-2.9-2.4-4.4-3.3c-1.5-0.9-3.1-1.4-4.8-1.4c-1.4,0-2.5,0.3-3.4,0.8
						c-0.8,0.5-1.4,1.1-1.7,1.9c-0.3,0.7-0.5,1.5-0.5,2.1c0,1.6,0.6,3,1.8,4.1c1.2,1.1,2.8,2.1,4.8,3c2,0.9,4.3,1.7,6.8,2.5
						c2.5,0.8,5.1,1.7,7.8,2.7c2.7,1,5.3,2.2,7.8,3.6c2.5,1.4,4.8,3.1,6.8,5c2,2,3.6,4.3,4.8,7.1c1.2,2.8,1.8,6.1,1.8,9.9
						c0,4.1-0.7,7.6-2,10.5c-1.3,3-3.1,5.4-5.3,7.4c-2.2,2-4.7,3.6-7.5,4.8c-2.8,1.2-5.6,2.1-8.6,2.6c-3,0.5-5.8,0.8-8.4,0.8
						c-3.1,0-6.3-0.2-9.4-0.6c-3.2-0.4-6.2-1.1-9.2-2c-2.9-0.9-5.5-2.1-7.8-3.7c-2.3-1.5-4.1-3.4-5.4-5.7
						C509.1,129,508.4,126.3,508.4,123.3z M579.9,99.8c0-4.2-0.1-7.8-0.4-10.9c-0.3-3.1-0.6-5.7-1-7.9c-0.4-2.2-0.8-4.1-1.3-5.7
						c-0.5-1.6-0.9-3.1-1.3-4.4c-0.4-1.3-0.7-2.6-1-3.9c-0.3-1.3-0.4-2.8-0.4-4.3c0-1.5,0.3-2.6,1-3.3c0.7-0.7,1.5-1.3,2.5-1.6
						c1-0.3,2-0.5,3-0.5c1,0,1.8,0,2.4,0h15.2c0.6,0,1.4,0,2.4,0c1,0,2,0.2,3,0.5c1,0.3,1.9,0.8,2.5,1.6c0.7,0.7,1,1.9,1,3.3
						c0,1.7-0.1,3.1-0.4,4.5c-0.3,1.3-0.6,2.7-1.1,4c-0.4,1.4-0.9,2.9-1.4,4.6c-0.5,1.7-0.9,3.7-1.3,6.1c-0.4,2.3-0.7,5.2-0.9,8.5
						h16.5c-0.2-3.3-0.6-6.2-0.9-8.5c-0.4-2.3-0.8-4.4-1.3-6.1c-0.5-1.7-0.9-3.3-1.4-4.6c-0.4-1.4-0.8-2.7-1.1-4
						c-0.3-1.3-0.4-2.8-0.4-4.5c0-1.5,0.3-2.6,1-3.3c0.7-0.7,1.5-1.3,2.5-1.6c1-0.3,2-0.5,3-0.5c1,0,1.8,0,2.4,0h15.2
						c0.6,0,1.4,0,2.4,0c1,0,2,0.2,3,0.5c1,0.3,1.9,0.8,2.5,1.6c0.7,0.7,1,1.9,1,3.3c0,1.6-0.1,3-0.4,4.3c-0.3,1.3-0.6,2.6-1,3.9
						c-0.4,1.3-0.8,2.8-1.3,4.4c-0.5,1.6-0.9,3.5-1.3,5.7c-0.4,2.2-0.7,4.8-1,7.9c-0.3,3.1-0.4,6.7-0.4,10.9c0,4.2,0.1,7.8,0.4,10.9
						c0.3,3.1,0.6,5.7,1,7.9c0.4,2.2,0.8,4.1,1.3,5.7c0.5,1.6,0.9,3.1,1.3,4.4c0.4,1.3,0.7,2.6,1,3.9c0.3,1.3,0.4,2.8,0.4,4.4
						c0,1.5-0.3,2.6-1,3.3c-0.7,0.7-1.5,1.3-2.5,1.6c-1,0.3-2,0.5-3,0.5c-1,0-1.8,0-2.4,0h-15.2c-0.6,0-1.4,0-2.4,0
						c-1,0-2-0.2-3-0.5c-1-0.3-1.9-0.8-2.5-1.6c-0.7-0.7-1-1.9-1-3.3c0-1.6,0.1-3.1,0.4-4.4c0.3-1.3,0.6-2.6,1-3.9
						c0.4-1.3,0.8-2.8,1.3-4.4c0.5-1.6,0.9-3.5,1.3-5.7c0.4-2.2,0.7-4.8,1-7.9h-16.3c0.2,3.1,0.6,5.8,1,7.9c0.4,2.2,0.8,4.1,1.3,5.7
						c0.5,1.6,0.9,3.1,1.3,4.4c0.4,1.3,0.7,2.6,1,3.9c0.3,1.3,0.4,2.8,0.4,4.4c0,1.5-0.3,2.6-1,3.3c-0.7,0.7-1.5,1.3-2.5,1.6
						c-1,0.3-2,0.5-3,0.5c-1,0-1.8,0-2.4,0h-15.2c-0.6,0-1.4,0-2.4,0c-1,0-2-0.2-3-0.5c-1-0.3-1.9-0.8-2.5-1.6c-0.7-0.7-1-1.9-1-3.3
						c0-1.6,0.1-3.1,0.4-4.4c0.3-1.3,0.6-2.6,1-3.9c0.4-1.3,0.8-2.8,1.3-4.4c0.5-1.6,0.9-3.5,1.3-5.7c0.4-2.2,0.7-4.8,1-7.9
						C579.8,107.6,579.9,104,579.9,99.8z"/>
				</g>
			</g>
		</g>
	</g>
	<g>
		<defs>
			<rect id="SVGID_00000096030193006951905120000005166356116930534784_" x="427" y="38.4" width="29.4" height="29.4"/>
		</defs>
		<clipPath id="SVGID_00000157308123009261986840000005381808925790925758_">
			<use xlink:href="#SVGID_00000096030193006951905120000005166356116930534784_"  style="overflow:visible;"/>
		</clipPath>
		<g style="clip-path:url(#SVGID_00000157308123009261986840000005381808925790925758_);">
			<defs>
				<circle id="SVGID_00000044159162629105623020000010141326205991515809_" cx="441.7" cy="53.1" r="14.6"/>
			</defs>
			<clipPath id="SVGID_00000083083032623398075160000015810945393532186757_">
				<use xlink:href="#SVGID_00000044159162629105623020000010141326205991515809_"  style="overflow:visible;"/>
			</clipPath>
			<g style="clip-path:url(#SVGID_00000083083032623398075160000015810945393532186757_);enable-background:new    ;">
				<g>
					<defs>
						<rect id="SVGID_00000043417699371870222260000015524267545761811344_" x="427" y="38.4" width="29.4" height="29.4"/>
					</defs>
					<clipPath id="SVGID_00000028312406595781312420000014063844591235264432_">
						<use xlink:href="#SVGID_00000043417699371870222260000015524267545761811344_"  style="overflow:visible;"/>
					</clipPath>
					<g style="clip-path:url(#SVGID_00000028312406595781312420000014063844591235264432_);">
						<defs>
							<rect id="SVGID_00000173143598825648255900000001378904581091253902_" x="427" y="38.4" width="29.4" height="29.4"/>
						</defs>
						<clipPath id="SVGID_00000041272222170996154710000006111993304336056500_">
							<use xlink:href="#SVGID_00000173143598825648255900000001378904581091253902_"  style="overflow:visible;"/>
						</clipPath>
						<g style="clip-path:url(#SVGID_00000041272222170996154710000006111993304336056500_);">
							<defs>
								<circle id="SVGID_00000133495438153962323450000010184915939220765836_" cx="441.7" cy="53.1" r="14.6"/>
							</defs>
							<clipPath id="SVGID_00000114776626962717648380000005276458226965618081_">
								<use xlink:href="#SVGID_00000133495438153962323450000010184915939220765836_"  style="overflow:visible;"/>
							</clipPath>
							
								<rect x="427.1" y="38.5" style="clip-path:url(#SVGID_00000114776626962717648380000005276458226965618081_);fill:#EC6F41;" width="29.2" height="29.2"/>
						</g>
					</g>
				</g>
			</g>
		</g>
	</g>
	<g>
		<defs>
			<rect id="SVGID_00000121251267061035339230000014924487978601270432_" x="448.2" y="52.1" width="24" height="24"/>
		</defs>
		<clipPath id="SVGID_00000020400159627997231100000006377540888819204480_">
			<use xlink:href="#SVGID_00000121251267061035339230000014924487978601270432_"  style="overflow:visible;"/>
		</clipPath>
		<g style="clip-path:url(#SVGID_00000020400159627997231100000006377540888819204480_);">
			<defs>
				<path id="SVGID_00000000190391658919327900000003818349066189238453_" d="M454.7,55.7c-4.7,3.1-6.1,9.4-3,14.2
					c3.1,4.7,9.4,6.1,14.2,3c4.7-3.1,6.1-9.4,3-14.2C465.8,54,459.5,52.7,454.7,55.7z"/>
			</defs>
			<clipPath id="SVGID_00000075155835929247915810000017905891084442827653_">
				<use xlink:href="#SVGID_00000000190391658919327900000003818349066189238453_"  style="overflow:visible;"/>
			</clipPath>
			<g style="clip-path:url(#SVGID_00000075155835929247915810000017905891084442827653_);">
				<defs>
					
						<rect id="SVGID_00000165937144118907332500000012060853114693876377_" x="450.1" y="54.1" transform="matrix(0.8378 -0.5459 0.5459 0.8378 39.5282 261.7454)" width="20.5" height="20.5"/>
				</defs>
				<clipPath id="SVGID_00000117657074802728832180000009250546860764469664_">
					<use xlink:href="#SVGID_00000165937144118907332500000012060853114693876377_"  style="overflow:visible;"/>
				</clipPath>
				<g style="clip-path:url(#SVGID_00000117657074802728832180000009250546860764469664_);enable-background:new    ;">
					<g>
						<defs>
							<rect id="SVGID_00000028306203844286849630000006101143801071750796_" x="448.2" y="52.1" width="24" height="24"/>
						</defs>
						<clipPath id="SVGID_00000098191646059090022470000017854976002200957353_">
							<use xlink:href="#SVGID_00000028306203844286849630000006101143801071750796_"  style="overflow:visible;"/>
						</clipPath>
						<g style="clip-path:url(#SVGID_00000098191646059090022470000017854976002200957353_);">
							<defs>
								<rect id="SVGID_00000088813542005782032700000000101048515296363159_" x="448.2" y="52.1" width="24" height="24"/>
							</defs>
							<clipPath id="SVGID_00000047019644573359190480000016107423377460399000_">
								<use xlink:href="#SVGID_00000088813542005782032700000000101048515296363159_"  style="overflow:visible;"/>
							</clipPath>
							<g style="clip-path:url(#SVGID_00000047019644573359190480000016107423377460399000_);">
								<defs>
									<path id="SVGID_00000065060668800883095540000009738247433043560637_" d="M454.7,55.7c-4.7,3.1-6.1,9.4-3,14.2
										c3.1,4.7,9.4,6.1,14.2,3c4.7-3.1,6.1-9.4,3-14.2C465.8,54,459.5,52.7,454.7,55.7z"/>
								</defs>
								<clipPath id="SVGID_00000111891890400067869900000014632752574145051293_">
									<use xlink:href="#SVGID_00000065060668800883095540000009738247433043560637_"  style="overflow:visible;"/>
								</clipPath>
								<g style="clip-path:url(#SVGID_00000111891890400067869900000014632752574145051293_);">
									<defs>
										
											<rect id="SVGID_00000069378140052463693520000004844409049144508833_" x="450.1" y="54.1" transform="matrix(0.8378 -0.5459 0.5459 0.8378 39.5282 261.7454)" width="20.5" height="20.5"/>
									</defs>
									<clipPath id="SVGID_00000148648765330365049280000013405136456083604361_">
										<use xlink:href="#SVGID_00000069378140052463693520000004844409049144508833_"  style="overflow:visible;"/>
									</clipPath>
									
										<rect x="450.1" y="54.1" transform="matrix(0.8378 -0.5459 0.5459 0.8378 39.5282 261.7454)" style="clip-path:url(#SVGID_00000148648765330365049280000013405136456083604361_);fill:#EC6F41;" width="20.5" height="20.5"/>
								</g>
							</g>
						</g>
					</g>
				</g>
			</g>
		</g>
	</g>
	<rect x="407.9" y="38.4" class="st13" width="242.3" height="132.1"/>
	<rect x="407.9" y="38.4" class="st13" width="242.3" height="132.1"/>
</g>
</svg>
