<?xml version="1.0" encoding="utf-8"?>
<!-- Generator: Adobe Illustrator 25.4.1, SVG Export Plug-In . SVG Version: 6.00 Build 0)  -->
<svg version="1.1" id="Layer_1" xmlns="http://www.w3.org/2000/svg" xmlns:xlink="http://www.w3.org/1999/xlink" x="0px" y="0px"
	 viewBox="0 0 1080 1080" style="enable-background:new 0 0 1080 1080;" xml:space="preserve">
<style type="text/css">
	.st0{clip-path:url(#SVGID_00000153704340270157093730000015182238684517341070_);enable-background:new    ;}
	.st1{clip-path:url(#SVGID_00000004510570198704804720000006729194645141047433_);}
	.st2{clip-path:url(#SVGID_00000114045069610899627470000014764200940793698748_);}
	.st3{clip-path:url(#SVGID_00000001624938913861667350000007603109936867036837_);fill:#EC6F41;}
	.st4{fill:none;}
	.st5{fill:#EC6F41;}
	.st6{clip-path:url(#SVGID_00000111181577139097932620000015401589602001811883_);enable-background:new    ;}
	.st7{clip-path:url(#SVGID_00000005955421044449504800000009617955994200160187_);}
	.st8{clip-path:url(#SVGID_00000181059719648033687240000001983344956836778162_);fill:#FFFFFF;}
	.st9{clip-path:url(#SVGID_00000158731976903415099360000015752932010108250812_);}
	.st10{clip-path:url(#SVGID_00000035503675121211585310000001675202028372098970_);enable-background:new    ;}
	.st11{clip-path:url(#SVGID_00000022557183411905223370000013556832337642817172_);}
	.st12{clip-path:url(#SVGID_00000110441684895723763380000002007285403698595499_);}
	.st13{clip-path:url(#SVGID_00000131344617579750937510000013790948196869024389_);fill:#EC6F41;}
	.st14{clip-path:url(#SVGID_00000066473949219688165190000013464904738776425122_);}
	.st15{clip-path:url(#SVGID_00000002360789850247898630000010510700322893575299_);}
	.st16{clip-path:url(#SVGID_00000148647634393026784170000009897804788120240279_);enable-background:new    ;}
	.st17{clip-path:url(#SVGID_00000070801017921603548370000016941665471850692996_);}
	.st18{clip-path:url(#SVGID_00000006682141309864599630000003460068891535955118_);}
	.st19{clip-path:url(#SVGID_00000132802153299086088010000007837668932303114941_);}
	.st20{clip-path:url(#SVGID_00000161624692611913428350000010521305208015540371_);fill:#EC6F41;}
</style>
<g>
	<g>
		<defs>
			<path id="SVGID_1_" d="M562.3,403.4h433.3c10.6,0,20.7,4.2,28.2,11.7c7.5,7.5,11.7,17.6,11.7,28.2v194.3
				c0,10.6-4.2,20.7-11.7,28.2c-7.5,7.5-17.6,11.7-28.2,11.7H562.3c-10.6,0-20.7-4.2-28.2-11.7c-7.5-7.5-11.7-17.6-11.7-28.2V443.3
				c0-10.6,4.2-20.7,11.7-28.2C541.6,407.6,551.8,403.4,562.3,403.4z"/>
		</defs>
		<clipPath id="SVGID_00000089556630215442142120000014516777825773501881_">
			<use xlink:href="#SVGID_1_"  style="overflow:visible;"/>
		</clipPath>
		<g style="clip-path:url(#SVGID_00000089556630215442142120000014516777825773501881_);enable-background:new    ;">
			<g>
				<defs>
					<rect id="SVGID_00000023281204946471443310000004420961955912924554_" x="521.5" y="402.4" width="514.8" height="275.2"/>
				</defs>
				<clipPath id="SVGID_00000129896160913605306740000011334530374442589340_">
					<use xlink:href="#SVGID_00000023281204946471443310000004420961955912924554_"  style="overflow:visible;"/>
				</clipPath>
				<g style="clip-path:url(#SVGID_00000129896160913605306740000011334530374442589340_);">
					<defs>
						<rect id="SVGID_00000058564098659739315270000002548552596380024763_" x="521.5" y="402.4" width="514.8" height="275.2"/>
					</defs>
					<clipPath id="SVGID_00000015322179361148957800000005337300177272044206_">
						<use xlink:href="#SVGID_00000058564098659739315270000002548552596380024763_"  style="overflow:visible;"/>
					</clipPath>
					<g style="clip-path:url(#SVGID_00000015322179361148957800000005337300177272044206_);">
						<defs>
							<path id="SVGID_00000140736185252830675740000014876851371260527514_" d="M562.3,403.4h433.3c10.6,0,20.7,4.2,28.2,11.7
								c7.5,7.5,11.7,17.6,11.7,28.2v194.3c0,10.6-4.2,20.7-11.7,28.2c-7.5,7.5-17.6,11.7-28.2,11.7H562.3
								c-10.6,0-20.7-4.2-28.2-11.7c-7.5-7.5-11.7-17.6-11.7-28.2V443.3c0-10.6,4.2-20.7,11.7-28.2
								C541.6,407.6,551.8,403.4,562.3,403.4z"/>
						</defs>
						<clipPath id="SVGID_00000075150189141660375680000009639036088125927562_">
							<use xlink:href="#SVGID_00000140736185252830675740000014876851371260527514_"  style="overflow:visible;"/>
						</clipPath>
						
							<rect x="522.5" y="403.4" style="clip-path:url(#SVGID_00000075150189141660375680000009639036088125927562_);fill:#EC6F41;" width="512.6" height="273.9"/>
					</g>
				</g>
			</g>
		</g>
	</g>
	<rect x="521.5" y="402.4" class="st4" width="514.8" height="275.2"/>
	<path class="st5" d="M56.9,539.6c0-7.8-0.2-14.6-0.7-20.3c-0.5-5.7-1.1-10.6-1.9-14.7c-0.8-4.1-1.6-7.7-2.4-10.7
		c-0.8-3-1.6-5.7-2.4-8.1c-0.8-2.4-1.4-4.9-1.9-7.3c-0.5-2.5-0.7-5.1-0.7-8.1c0-2.7,0.6-4.8,1.9-6.2c1.3-1.4,2.9-2.4,4.7-2.9
		c1.9-0.5,3.7-0.8,5.6-0.9c1.8,0,3.3-0.1,4.5-0.1h28.4c1.2,0,2.7,0,4.5,0.1c1.8,0,3.7,0.3,5.6,0.9c1.9,0.5,3.4,1.5,4.7,2.9
		c1.3,1.4,1.9,3.4,1.9,6.2c0,2.9-0.2,5.6-0.7,8.1c-0.5,2.5-1.1,4.9-1.9,7.3c-0.8,2.4-1.6,5.1-2.4,8.1c-0.8,3-1.6,6.6-2.4,10.7
		c-0.8,4.1-1.4,9-1.9,14.7c-0.5,5.7-0.7,12.4-0.7,20.3c0,7.8,0.2,14.6,0.7,20.3c0.5,5.7,1.1,10.6,1.9,14.7c0.8,4.1,1.6,7.7,2.4,10.7
		c0.8,3,1.6,5.7,2.4,8.1c0.8,2.4,1.4,4.8,1.9,7.3c0.5,2.4,0.7,5.1,0.7,8.1c0,2.7-0.6,4.8-1.9,6.2c-1.3,1.4-2.9,2.4-4.7,2.9
		c-1.9,0.5-3.7,0.8-5.6,0.9c-1.8,0-3.3,0.1-4.5,0.1H63.6c-1.2,0-2.7,0-4.5-0.1c-1.8,0-3.7-0.3-5.6-0.9c-1.9-0.5-3.4-1.5-4.7-2.9
		c-1.3-1.4-1.9-3.4-1.9-6.2c0-3,0.2-5.7,0.7-8.1c0.5-2.4,1.1-4.8,1.9-7.3c0.8-2.4,1.6-5.1,2.4-8.1c0.8-3,1.6-6.6,2.4-10.7
		c0.8-4.1,1.4-9,1.9-14.7C56.6,554.2,56.9,547.4,56.9,539.6z M113.1,608.9c0-3.7,0.3-7.2,1-10.3c0.7-3.1,1.5-6.4,2.5-9.8
		c1-3.4,2-7.4,3-11.9c1-4.5,1.9-10,2.5-16.3c0.7-6.4,1-14.1,1-23.3c0-7.6-0.2-14.2-0.7-19.7c-0.5-5.5-1.1-10.3-1.9-14.2
		c-0.8-4-1.6-7.4-2.4-10.3c-0.8-2.9-1.6-5.6-2.4-8c-0.8-2.4-1.4-4.7-1.9-7.1c-0.5-2.3-0.7-4.9-0.7-7.8c0-2.6,0.6-4.6,1.9-6
		c1.3-1.4,2.9-2.3,4.7-2.9c1.9-0.5,3.7-0.8,5.6-0.9c1.8,0,3.3-0.1,4.5-0.1h62.6c7.5,0,14.2,1.5,20.1,4.6c5.8,3,10.4,7.3,13.7,12.8
		c3.3,5.5,5,11.9,5,19.2c0,3.2-0.4,6.4-1.3,9.7c-0.8,3.3-2.2,6.5-4.2,9.5c-1.9,3-4.5,5.8-7.7,8.1c-3.2,2.4-7.1,4.2-11.8,5.4
		c-1.8,0.5-2.7,1.2-2.7,2.1c0,0.6,0.7,1.2,2.2,1.9c1.5,0.7,3.3,1.5,5.6,2.5c2.3,1,4.7,2.4,7.3,4.2c2.6,1.8,5,4.1,7.3,7
		c2.3,2.9,4.1,6.5,5.6,10.8c1.5,4.3,2.2,9.6,2.2,15.8c0,3.8-0.5,7.8-1.6,11.9c-1.1,4.1-2.7,8.2-5.1,12c-2.3,3.9-5.4,7.4-9.2,10.6
		c-3.8,3.2-8.5,5.6-14,7.5c-5.5,1.8-11.9,2.7-19.4,2.7H128c-1.2,0-2.6,0-4.2-0.1c-1.6,0-3.3-0.3-4.9-0.9c-1.6-0.5-3-1.5-4.1-2.9
		C113.6,613.6,113.1,611.6,113.1,608.9z M164.6,515.3c0,2.3,0.6,3.8,1.8,4.6c1.2,0.8,2.8,1.2,4.8,1.2c3.6,0,6.5-0.5,8.8-1.5
		c2.3-1,4-2.3,5.3-3.8c1.3-1.5,2.2-3.1,2.7-4.7c0.5-1.6,0.8-3.1,0.8-4.4c0-1.2-0.3-2.7-0.8-4.3c-0.5-1.6-1.4-3.2-2.7-4.8
		c-1.3-1.5-3.1-2.8-5.3-3.8c-2.3-1-5.2-1.5-8.8-1.5c-2.1,0-3.7,0.4-4.8,1.2c-1.2,0.8-1.8,2.3-1.8,4.6V515.3z M164.6,578.9
		c0,3.2,0.6,5.3,1.8,6.3c1.2,1.1,2.8,1.6,4.8,1.6c3.6,0,6.5-0.7,8.8-2.1c2.3-1.4,4-3.2,5.3-5.3c1.3-2.1,2.2-4.3,2.7-6.6
		c0.5-2.3,0.8-4.3,0.8-6s-0.3-3.8-0.8-6.1c-0.5-2.3-1.4-4.5-2.7-6.7c-1.3-2.1-3.1-3.9-5.3-5.3c-2.3-1.4-5.2-2.1-8.8-2.1
		c-2.1,0-3.7,0.5-4.8,1.5c-1.2,1-1.8,3.2-1.8,6.4c0,0.7,0,1.9,0.1,3.6c0,1.6,0.1,3.3,0.1,4.9c0,1.6,0.1,2.9,0.1,3.7
		c0,0.7,0,1.9-0.1,3.6c0,1.6-0.1,3.3-0.1,4.9C164.6,576.9,164.6,578.1,164.6,578.9z M236.4,470.2c0-2.6,0.6-4.6,1.9-6
		c1.3-1.4,2.9-2.3,4.7-2.9c1.9-0.5,3.7-0.8,5.6-0.9c1.8,0,3.3-0.1,4.5-0.1h28.4c1.2,0,2.7,0,4.5,0.1c1.8,0,3.7,0.3,5.6,0.9
		c1.9,0.5,3.4,1.5,4.7,2.9c1.3,1.4,1.9,3.4,1.9,6c0,2.9-0.2,5.5-0.7,7.8c-0.5,2.3-1.1,4.7-1.9,7.1c-0.8,2.4-1.6,5-2.4,8
		c-0.8,2.9-1.6,6.4-2.4,10.3c-0.8,4-1.4,8.7-1.9,14.2c-0.5,5.5-0.7,12.1-0.7,19.7v35.5c0,2.9,0.1,5.6,0.3,7.9
		c0.2,2.3,0.8,4.1,1.7,5.4c0.9,1.3,2.4,1.9,4.5,1.9c5.4,0,10.1-0.8,14.2-2.5c4.1-1.6,7.9-3.7,11.2-6.1c3.3-2.4,6.4-4.8,9.1-7.2
		c2.7-2.4,5.4-4.4,7.9-6c2.5-1.6,5.1-2.5,7.8-2.5c2.6,0,4.5,0.7,5.6,2c1.1,1.4,1.7,3,1.9,4.9c0.2,1.9,0.3,3.8,0.3,5.7v31.4
		c0,3.2-1,5.8-3,7.9c-2,2-4.6,3-7.9,3h-90.5c-1.2,0-2.6,0-4.2-0.1c-1.6,0-3.3-0.3-4.9-0.9c-1.6-0.5-3-1.5-4.1-2.9
		c-1.1-1.4-1.6-3.4-1.6-6c0-3.7,0.3-7.2,1-10.3c0.7-3.1,1.5-6.4,2.5-9.8c1-3.4,2-7.4,3-11.9c1-4.5,1.9-10,2.5-16.3
		c0.7-6.4,1-14.1,1-23.3c0-7.6-0.2-14.2-0.7-19.7c-0.5-5.5-1.1-10.3-1.9-14.2c-0.8-4-1.6-7.4-2.4-10.3c-0.8-2.9-1.6-5.6-2.4-8
		c-0.8-2.4-1.4-4.7-1.9-7.1C236.7,475.6,236.4,473,236.4,470.2z M372,618.7c-2.4,0-4.7-0.2-6.8-0.5c-2.1-0.4-3.8-1.1-5.1-2.2
		c-1.3-1.1-1.9-2.7-1.9-4.7c0-2.1,0.3-3.8,0.9-5.2c0.6-1.4,1.4-2.8,2.4-4.2c1-1.4,2.2-3,3.5-4.7c1.3-1.8,2.6-4,3.9-6.6
		c1.3-2.6,2.6-6,3.8-10c1.9-6.2,3.5-11.5,4.8-15.9c1.3-4.5,2.5-8.4,3.5-11.8c1-3.4,1.9-6.6,2.7-9.5c0.8-2.9,1.6-5.8,2.4-8.7
		c0.8-2.9,1.6-6.1,2.6-9.5c1-3.4,2-7.4,3.2-12c1.2-4.5,2.7-9.9,4.5-16.1c1.2-4.3,2-7.6,2.5-10c0.5-2.4,0.8-4.4,0.8-6
		c0.1-1.6,0-3.2-0.1-4.8c-0.1-1.6-0.3-3.7-0.4-6.3c0-0.6,0-1.4,0.1-2.4c0.1-1,0.4-2.1,0.9-3.2c0.5-1.1,1.4-2,2.6-2.8
		c1.2-0.8,3-1.2,5.3-1.2h29.7c2.2,0,4.1,0,5.8,0.1c1.6,0.1,3.1,0.5,4.5,1.2c1.3,0.7,2.6,2.1,3.8,4c1.2,1.9,2.5,4.7,3.7,8.2
		c1.3,3.6,2.7,8.3,4.3,14.2c2.1,7.2,3.8,13.5,5.3,19c1.5,5.5,2.8,10.4,4,14.7c1.2,4.4,2.3,8.6,3.4,12.6c1.1,4.1,2.3,8.3,3.5,12.6
		c1.2,4.4,2.7,9.2,4.2,14.6c1.6,5.4,3.5,11.6,5.7,18.8c1.2,4,2.5,7.4,3.8,10c1.3,2.6,2.6,4.8,3.9,6.6c1.3,1.8,2.4,3.3,3.5,4.7
		c1,1.4,1.8,2.8,2.4,4.2c0.6,1.4,0.9,3.2,0.9,5.2c0,2.1-0.6,3.6-1.9,4.7c-1.3,1.1-3,1.8-5,2.2c-2.1,0.4-4.3,0.5-6.8,0.5h-40.5
		c-1.7,0-3.4-0.2-5-0.7c-1.6-0.5-3-1.2-4.1-2.3c-1.1-1.1-1.6-2.5-1.6-4.3c0-2.4,0.2-4.3,0.6-5.8c0.4-1.4,0.9-2.8,1.4-4.1
		c0.5-1.3,1-2.9,1.4-4.7c0.4-1.9,0.6-4.5,0.6-7.8c0-1.8-0.1-3.8-0.3-5.8H411c0.1,1,0.2,1.9,0.3,2.9c0.1,1,0.3,1.9,0.3,3
		c0.4,3.3,1,5.9,1.6,7.8c0.6,1.9,1.2,3.4,1.8,4.7c0.5,1.3,1,2.6,1.4,4.1c0.4,1.4,0.6,3.4,0.6,5.8c0,1.8-0.5,3.3-1.6,4.3
		c-1.1,1.1-2.4,1.8-4.1,2.3c-1.6,0.5-3.3,0.7-5,0.7H372z M411.3,545.6h19.6c-1-3.4-1.9-6.9-3-10.7c-1-3.8-2.2-7.8-3.4-12
		c-0.7-2.5-1.5-4.6-2.2-6.3c-0.7-1.7-1.5-2.5-2.3-2.3c-0.7,0.1-1.5,1.1-2.2,3c-0.7,1.9-1.5,4.3-2.2,7.1c-0.7,2.8-1.4,5.7-2,8.7
		c-0.6,3-1.1,5.6-1.5,7.9C411.7,543.3,411.4,544.8,411.3,545.6z"/>
	<rect x="43.7" y="458.4" class="st4" width="461.3" height="212.8"/>
	<rect x="43.7" y="458.4" class="st4" width="461.3" height="212.8"/>
	<rect x="43.7" y="458.4" class="st4" width="461.3" height="212.8"/>
	<g>
		<defs>
			<rect id="SVGID_00000153696486858633601100000013949009316337267129_" x="554.5" y="455.6" width="451.3" height="216.1"/>
		</defs>
		<clipPath id="SVGID_00000059284960720852249450000006833599502995494325_">
			<use xlink:href="#SVGID_00000153696486858633601100000013949009316337267129_"  style="overflow:visible;"/>
		</clipPath>
		<g style="clip-path:url(#SVGID_00000059284960720852249450000006833599502995494325_);enable-background:new    ;">
			<g>
				<defs>
					<rect id="SVGID_00000005235736168039204920000010424667620069254791_" x="554.7" y="455.9" width="451.1" height="215.4"/>
				</defs>
				<clipPath id="SVGID_00000016050639076786621800000005303317543256029838_">
					<use xlink:href="#SVGID_00000005235736168039204920000010424667620069254791_"  style="overflow:visible;"/>
				</clipPath>
				<g style="clip-path:url(#SVGID_00000016050639076786621800000005303317543256029838_);">
					<defs>
						<rect id="SVGID_00000052814697289772986640000007802712863168869264_" x="554.5" y="455.6" width="451.3" height="216.1"/>
					</defs>
					<clipPath id="SVGID_00000108311307685264560390000006710027640105389478_">
						<use xlink:href="#SVGID_00000052814697289772986640000007802712863168869264_"  style="overflow:visible;"/>
					</clipPath>
					<path style="clip-path:url(#SVGID_00000108311307685264560390000006710027640105389478_);fill:#FFFFFF;" d="M574.1,618.7
						c-1.2,0-2.7,0-4.5-0.1c-1.8,0-3.7-0.3-5.6-0.9c-1.9-0.5-3.4-1.5-4.7-2.9c-1.3-1.4-1.9-3.4-1.9-6.2c0-3,0.2-5.7,0.7-8.1
						c0.5-2.4,1.1-4.8,1.9-7.3c0.8-2.4,1.6-5.1,2.4-8.1c0.8-3,1.6-6.6,2.4-10.7c0.8-4.1,1.4-9,1.9-14.7c0.5-5.7,0.7-12.4,0.7-20.3
						c0-7.8-0.2-14.6-0.7-20.3c-0.5-5.7-1.1-10.6-1.9-14.7c-0.8-4.1-1.6-7.7-2.4-10.7c-0.8-3-1.6-5.7-2.4-8.1
						c-0.8-2.4-1.4-4.9-1.9-7.3c-0.5-2.5-0.7-5.1-0.7-8.1c0-2.7,0.6-4.8,1.9-6.2c1.3-1.4,2.9-2.4,4.7-2.9c1.9-0.5,3.7-0.8,5.6-0.9
						c1.8,0,3.3-0.1,4.5-0.1h41.3c10.2,0,19.2,1.9,26.9,5.7c7.8,3.8,14.3,9.2,19.5,16.2c5.2,7,9.2,15.3,11.9,25
						c2.7,9.7,4,20.4,4,32.1c0,11.7-1.3,22.5-4,32.2c-2.7,9.7-6.6,18.1-11.9,25.1c-5.2,7-11.7,12.5-19.5,16.3
						c-7.8,3.8-16.8,5.7-26.9,5.7H574.1z M609.1,499.8v79.4c0,2.2,0.3,3.8,1,4.9c0.7,1.1,1.5,1.8,2.5,2.2c1,0.4,1.9,0.5,2.8,0.5
						c2.9,0,5.5-1.3,7.9-3.8c2.4-2.6,4.5-6.1,6.3-10.5c1.8-4.4,3.2-9.5,4.2-15.2c1-5.7,1.5-11.6,1.5-17.9c0-6.2-0.5-12.2-1.5-17.9
						c-1-5.7-2.4-10.7-4.2-15.2c-1.8-4.4-3.9-7.9-6.3-10.5c-2.4-2.6-5.1-3.8-7.9-3.8c-0.9,0-1.8,0.2-2.8,0.5c-1,0.4-1.8,1.1-2.5,2.2
						C609.5,495.9,609.1,497.6,609.1,499.8z M688.9,539.6c0-7.8-0.2-14.6-0.7-20.3c-0.5-5.7-1.1-10.6-1.9-14.7
						c-0.8-4.1-1.6-7.7-2.4-10.7c-0.8-3-1.6-5.7-2.4-8.1c-0.8-2.4-1.4-4.9-1.9-7.3c-0.5-2.5-0.7-5.1-0.7-8.1c0-2.7,0.6-4.8,1.9-6.2
						c1.3-1.4,2.9-2.4,4.7-2.9c1.9-0.5,3.7-0.8,5.6-0.9c1.8,0,3.3-0.1,4.5-0.1h28.4c1.2,0,2.7,0,4.5,0.1c1.8,0,3.7,0.3,5.6,0.9
						c1.9,0.5,3.4,1.5,4.7,2.9c1.3,1.4,1.9,3.4,1.9,6.2c0,2.9-0.2,5.6-0.7,8.1c-0.5,2.5-1.1,4.9-1.9,7.3c-0.8,2.4-1.6,5.1-2.4,8.1
						c-0.8,3-1.6,6.6-2.4,10.7c-0.8,4.1-1.4,9-1.9,14.7c-0.5,5.7-0.7,12.4-0.7,20.3c0,7.8,0.2,14.6,0.7,20.3
						c0.5,5.7,1.1,10.6,1.9,14.7c0.8,4.1,1.6,7.7,2.4,10.7c0.8,3,1.6,5.7,2.4,8.1c0.8,2.4,1.4,4.8,1.9,7.3c0.5,2.4,0.7,5.1,0.7,8.1
						c0,2.7-0.6,4.8-1.9,6.2c-1.3,1.4-2.9,2.4-4.7,2.9c-1.9,0.5-3.7,0.8-5.6,0.9c-1.8,0-3.3,0.1-4.5,0.1h-28.4c-1.2,0-2.7,0-4.5-0.1
						c-1.8,0-3.7-0.3-5.6-0.9c-1.9-0.5-3.4-1.5-4.7-2.9c-1.3-1.4-1.9-3.4-1.9-6.2c0-3,0.2-5.7,0.7-8.1c0.5-2.4,1.1-4.8,1.9-7.3
						c0.8-2.4,1.6-5.1,2.4-8.1c0.8-3,1.6-6.6,2.4-10.7c0.8-4.1,1.4-9,1.9-14.7C688.6,554.2,688.9,547.4,688.9,539.6z M741.9,583.3
						c0-5.3,1.1-9.9,3.3-13.8c2.2-3.9,5-7,8.5-9.2c3.5-2.2,7.1-3.4,10.9-3.5c3.1-0.1,6,0.6,8.6,2c2.7,1.4,5.2,3.2,7.7,5.5
						c2.5,2.3,4.9,4.7,7.3,7.3c2.4,2.6,4.8,5.1,7.1,7.4c2.4,2.3,4.8,4.2,7.4,5.7c2.5,1.5,5.2,2.2,8,2.2c3.6,0,6.2-0.9,7.7-2.7
						c1.5-1.8,2.3-4.1,2.3-6.8c0-3.1-1.1-5.7-3.2-7.8c-2.1-2.1-5-4-8.6-5.6c-3.6-1.6-7.7-3.1-12.3-4.6c-4.5-1.5-9.2-3.1-14-4.8
						c-4.8-1.7-9.5-3.8-14-6.3c-4.5-2.5-8.6-5.4-12.3-9c-3.6-3.5-6.5-7.8-8.6-12.8c-2.1-5-3.2-11-3.2-17.9c0-10.2,2.5-19,7.6-26.4
						c5.1-7.4,12.4-13.2,21.9-17.3c9.6-4.1,21.1-6.2,34.6-6.2c6.2,0,12.4,0.6,18.5,1.9c6.1,1.2,11.6,3.2,16.7,5.9
						c5,2.7,9,6.2,12,10.4c3,4.2,4.5,9.3,4.5,15.2c0,4.3-0.9,8.1-2.8,11.6c-1.9,3.5-4.4,6.3-7.6,8.5c-3.2,2.2-6.8,3.4-10.8,3.7
						c-3.4,0.2-6.7-0.4-9.7-1.9c-3-1.5-5.9-3.5-8.6-5.9c-2.7-2.4-5.4-4.8-8.1-7.3c-2.7-2.4-5.4-4.5-8.2-6.2c-2.8-1.7-5.8-2.5-9-2.5
						c-2.6,0-4.7,0.5-6.3,1.4c-1.5,1-2.6,2.1-3.2,3.5c-0.6,1.4-0.9,2.7-0.9,4c0,3,1.1,5.6,3.4,7.6c2.2,2.1,5.2,3.9,9,5.6
						c3.7,1.6,8,3.2,12.6,4.7c4.7,1.5,9.5,3.2,14.5,5.1c5,1.8,9.8,4.1,14.5,6.7c4.7,2.6,8.9,5.7,12.6,9.4c3.7,3.7,6.7,8.1,9,13.2
						c2.2,5.2,3.4,11.3,3.4,18.4c0,7.6-1.2,14.1-3.7,19.6c-2.5,5.5-5.8,10.1-10,13.9c-4.2,3.7-8.8,6.7-14,9
						c-5.1,2.2-10.4,3.8-15.9,4.8s-10.7,1.4-15.7,1.4c-5.8,0-11.7-0.4-17.6-1.1c-5.9-0.7-11.6-2-17-3.7c-5.4-1.7-10.3-4-14.5-6.8
						c-4.3-2.8-7.6-6.3-10.1-10.6C743.1,594,741.9,589,741.9,583.3z M875,539.6c0-7.8-0.2-14.6-0.7-20.3c-0.5-5.7-1.1-10.6-1.9-14.7
						c-0.8-4.1-1.6-7.7-2.4-10.7c-0.8-3-1.6-5.7-2.4-8.1c-0.8-2.4-1.4-4.9-1.9-7.3c-0.5-2.5-0.7-5.1-0.7-8.1c0-2.7,0.6-4.8,1.9-6.2
						c1.3-1.4,2.9-2.4,4.7-2.9c1.9-0.5,3.7-0.8,5.6-0.9c1.8,0,3.3-0.1,4.5-0.1h28.4c1.2,0,2.7,0,4.5,0.1c1.8,0,3.7,0.3,5.6,0.9
						c1.9,0.5,3.4,1.5,4.7,2.9c1.3,1.4,1.9,3.4,1.9,6.2c0,3.1-0.3,5.8-0.8,8.3c-0.5,2.5-1.2,5-2,7.5c-0.8,2.6-1.6,5.4-2.5,8.6
						c-0.9,3.2-1.7,7-2.4,11.3c-0.7,4.4-1.3,9.7-1.8,15.9h30.8c-0.4-6.2-1-11.5-1.8-15.9c-0.7-4.4-1.5-8.1-2.4-11.3
						c-0.9-3.2-1.7-6.1-2.5-8.6c-0.8-2.6-1.5-5.1-2-7.5c-0.5-2.5-0.8-5.2-0.8-8.3c0-2.7,0.6-4.8,1.9-6.2c1.3-1.4,2.9-2.4,4.7-2.9
						c1.9-0.5,3.7-0.8,5.6-0.9c1.8,0,3.3-0.1,4.5-0.1h28.4c1.2,0,2.7,0,4.5,0.1c1.8,0,3.7,0.3,5.6,0.9c1.9,0.5,3.4,1.5,4.7,2.9
						c1.3,1.4,1.9,3.4,1.9,6.2c0,2.9-0.2,5.6-0.7,8.1c-0.5,2.5-1.1,4.9-1.9,7.3c-0.8,2.4-1.6,5.1-2.4,8.1c-0.8,3-1.6,6.6-2.4,10.7
						c-0.8,4.1-1.4,9-1.9,14.7c-0.5,5.7-0.7,12.4-0.7,20.3c0,7.8,0.2,14.6,0.7,20.3c0.5,5.7,1.1,10.6,1.9,14.7
						c0.8,4.1,1.6,7.7,2.4,10.7c0.8,3,1.6,5.7,2.4,8.1c0.8,2.4,1.4,4.8,1.9,7.3c0.5,2.4,0.7,5.1,0.7,8.1c0,2.7-0.6,4.8-1.9,6.2
						c-1.3,1.4-2.9,2.4-4.7,2.9c-1.9,0.5-3.7,0.8-5.6,0.9c-1.8,0-3.3,0.1-4.5,0.1h-28.4c-1.2,0-2.7,0-4.5-0.1
						c-1.8,0-3.7-0.3-5.6-0.9c-1.9-0.5-3.4-1.5-4.7-2.9c-1.3-1.4-1.9-3.4-1.9-6.2c0-3,0.2-5.7,0.7-8.1c0.5-2.4,1.1-4.8,1.9-7.3
						c0.8-2.4,1.6-5.1,2.4-8.2c0.8-3,1.6-6.6,2.4-10.7c0.8-4.1,1.4-9,1.8-14.8h-30.3c0.4,5.8,1,10.7,1.8,14.8
						c0.8,4.1,1.6,7.6,2.4,10.7c0.8,3,1.6,5.8,2.4,8.2c0.8,2.4,1.4,4.8,1.9,7.3c0.5,2.4,0.7,5.1,0.7,8.1c0,2.7-0.6,4.8-1.9,6.2
						c-1.3,1.4-2.9,2.4-4.7,2.9c-1.9,0.5-3.7,0.8-5.6,0.9c-1.8,0-3.3,0.1-4.5,0.1h-28.4c-1.2,0-2.7,0-4.5-0.1
						c-1.8,0-3.7-0.3-5.6-0.9c-1.9-0.5-3.4-1.5-4.7-2.9c-1.3-1.4-1.9-3.4-1.9-6.2c0-3,0.2-5.7,0.7-8.1c0.5-2.4,1.1-4.8,1.9-7.3
						c0.8-2.4,1.6-5.1,2.4-8.1c0.8-3,1.6-6.6,2.4-10.7c0.8-4.1,1.4-9,1.9-14.7C874.8,554.2,875,547.4,875,539.6z"/>
				</g>
			</g>
		</g>
	</g>
	<g>
		<defs>
			<rect id="SVGID_00000150802918036704335670000017251320012068999840_" x="590.3" y="425.3" width="54.8" height="54.8"/>
		</defs>
		<clipPath id="SVGID_00000072272170483946355930000008031121594516833442_">
			<use xlink:href="#SVGID_00000150802918036704335670000017251320012068999840_"  style="overflow:visible;"/>
		</clipPath>
		<g style="clip-path:url(#SVGID_00000072272170483946355930000008031121594516833442_);">
			<defs>
				<circle id="SVGID_00000141440849877753883930000014554798449917546415_" cx="617.6" cy="452.6" r="27.2"/>
			</defs>
			<clipPath id="SVGID_00000175293682517189431500000008617815816450509984_">
				<use xlink:href="#SVGID_00000141440849877753883930000014554798449917546415_"  style="overflow:visible;"/>
			</clipPath>
			<g style="clip-path:url(#SVGID_00000175293682517189431500000008617815816450509984_);enable-background:new    ;">
				<g>
					<defs>
						<rect id="SVGID_00000134937212006576807610000014766750631346996925_" x="590.3" y="425.3" width="54.8" height="54.8"/>
					</defs>
					<clipPath id="SVGID_00000133500062093056479720000005817222197634706077_">
						<use xlink:href="#SVGID_00000134937212006576807610000014766750631346996925_"  style="overflow:visible;"/>
					</clipPath>
					<g style="clip-path:url(#SVGID_00000133500062093056479720000005817222197634706077_);">
						<defs>
							<rect id="SVGID_00000135671667576688541710000004108713887865829050_" x="590.3" y="425.3" width="54.8" height="54.8"/>
						</defs>
						<clipPath id="SVGID_00000052809111923831687540000006759070997850475952_">
							<use xlink:href="#SVGID_00000135671667576688541710000004108713887865829050_"  style="overflow:visible;"/>
						</clipPath>
						<g style="clip-path:url(#SVGID_00000052809111923831687540000006759070997850475952_);">
							<defs>
								<circle id="SVGID_00000099644880431671373660000011332457656823531912_" cx="617.6" cy="452.6" r="27.2"/>
							</defs>
							<clipPath id="SVGID_00000083801071386009757440000001635860380683986863_">
								<use xlink:href="#SVGID_00000099644880431671373660000011332457656823531912_"  style="overflow:visible;"/>
							</clipPath>
							
								<rect x="590.4" y="425.5" style="clip-path:url(#SVGID_00000083801071386009757440000001635860380683986863_);fill:#EC6F41;" width="54.3" height="54.3"/>
						</g>
					</g>
				</g>
			</g>
		</g>
	</g>
	<g>
		<defs>
			<rect id="SVGID_00000173162840719883381630000009193181367057122479_" x="629.8" y="450.8" width="44.6" height="44.6"/>
		</defs>
		<clipPath id="SVGID_00000034772253168575041300000017430938879310878874_">
			<use xlink:href="#SVGID_00000173162840719883381630000009193181367057122479_"  style="overflow:visible;"/>
		</clipPath>
		<g style="clip-path:url(#SVGID_00000034772253168575041300000017430938879310878874_);">
			<defs>
				<path id="SVGID_00000045587035503133389830000007243459608485392262_" d="M641.9,457.6c-8.8,5.8-11.3,17.6-5.6,26.4
					c5.8,8.8,17.6,11.3,26.4,5.6c8.8-5.8,11.3-17.6,5.6-26.4C662.6,454.3,650.7,451.8,641.9,457.6z"/>
			</defs>
			<clipPath id="SVGID_00000016043642694712669300000012289395321917118369_">
				<use xlink:href="#SVGID_00000045587035503133389830000007243459608485392262_"  style="overflow:visible;"/>
			</clipPath>
			<g style="clip-path:url(#SVGID_00000016043642694712669300000012289395321917118369_);">
				<defs>
					
						<rect id="SVGID_00000114045705947171654080000011003094929547521199_" x="633.2" y="454.5" transform="matrix(0.8378 -0.5459 0.5459 0.8378 -152.7659 432.9393)" width="38.2" height="38.2"/>
				</defs>
				<clipPath id="SVGID_00000029028424844637189580000014714443263136687802_">
					<use xlink:href="#SVGID_00000114045705947171654080000011003094929547521199_"  style="overflow:visible;"/>
				</clipPath>
				<g style="clip-path:url(#SVGID_00000029028424844637189580000014714443263136687802_);enable-background:new    ;">
					<g>
						<defs>
							<rect id="SVGID_00000157307567141755444090000005073124518744219281_" x="629.8" y="450.8" width="44.6" height="44.6"/>
						</defs>
						<clipPath id="SVGID_00000063617966923185405400000013973045452347539625_">
							<use xlink:href="#SVGID_00000157307567141755444090000005073124518744219281_"  style="overflow:visible;"/>
						</clipPath>
						<g style="clip-path:url(#SVGID_00000063617966923185405400000013973045452347539625_);">
							<defs>
								<rect id="SVGID_00000075152027352418157990000010621142721775589308_" x="629.8" y="450.8" width="44.6" height="44.6"/>
							</defs>
							<clipPath id="SVGID_00000088126293894772190230000006376602577342018459_">
								<use xlink:href="#SVGID_00000075152027352418157990000010621142721775589308_"  style="overflow:visible;"/>
							</clipPath>
							<g style="clip-path:url(#SVGID_00000088126293894772190230000006376602577342018459_);">
								<defs>
									<path id="SVGID_00000066491968783183165020000001678009308830229378_" d="M641.9,457.6c-8.8,5.8-11.3,17.6-5.6,26.4
										c5.8,8.8,17.6,11.3,26.4,5.6c8.8-5.8,11.3-17.6,5.6-26.4C662.6,454.3,650.7,451.8,641.9,457.6z"/>
								</defs>
								<clipPath id="SVGID_00000026159069222297004850000008466025230238539685_">
									<use xlink:href="#SVGID_00000066491968783183165020000001678009308830229378_"  style="overflow:visible;"/>
								</clipPath>
								<g style="clip-path:url(#SVGID_00000026159069222297004850000008466025230238539685_);">
									<defs>
										
											<rect id="SVGID_00000138561499603466758700000010189258518526932359_" x="633.2" y="454.5" transform="matrix(0.8378 -0.5459 0.5459 0.8378 -152.7659 432.9393)" width="38.2" height="38.2"/>
									</defs>
									<clipPath id="SVGID_00000097471467884893048490000008515341020288270984_">
										<use xlink:href="#SVGID_00000138561499603466758700000010189258518526932359_"  style="overflow:visible;"/>
									</clipPath>
									
										<rect x="633.2" y="454.5" transform="matrix(0.8378 -0.5459 0.5459 0.8378 -152.7659 432.9393)" style="clip-path:url(#SVGID_00000097471467884893048490000008515341020288270984_);fill:#EC6F41;" width="38.2" height="38.2"/>
								</g>
							</g>
						</g>
					</g>
				</g>
			</g>
		</g>
	</g>
	<rect x="554.7" y="425.3" class="st4" width="451.1" height="245.9"/>
	<rect x="554.7" y="425.3" class="st4" width="451.1" height="245.9"/>
</g>
</svg>
