<?xml version="1.0" encoding="utf-8"?>
<!-- Generator: Adobe Illustrator 25.4.1, SVG Export Plug-In . SVG Version: 6.00 Build 0)  -->
<svg version="1.1" id="Layer_1" xmlns="http://www.w3.org/2000/svg" xmlns:xlink="http://www.w3.org/1999/xlink" x="0px" y="0px"
	 viewBox="0 0 1080 1080" style="enable-background:new 0 0 1080 1080;" xml:space="preserve">
<style type="text/css">
	.st0{clip-path:url(#SVGID_00000018946992399516474490000010721894972755867015_);}
	.st1{clip-path:url(#SVGID_00000047057087074416010220000003568073892846400695_);enable-background:new    ;}
	.st2{clip-path:url(#SVGID_00000078020702059276775170000006415951155437506213_);}
	.st3{clip-path:url(#SVGID_00000096039182104705411200000013295242121770509480_);}
	.st4{clip-path:url(#SVGID_00000171691066179774060060000014001746852946279044_);fill:#ED6F41;}
	.st5{clip-path:url(#SVGID_00000000919454944210424060000013836898219670890419_);enable-background:new    ;}
	.st6{clip-path:url(#SVGID_00000076577491578894627420000001852699790680206208_);}
	.st7{clip-path:url(#SVGID_00000152223694829453139550000010584020174394232747_);fill:#FFFFFF;}
	.st8{clip-path:url(#SVGID_00000118392494934251350810000000339787125781931428_);enable-background:new    ;}
	.st9{clip-path:url(#SVGID_00000048490548490141673860000002127810355669109394_);}
	.st10{clip-path:url(#SVGID_00000080190359105124010640000016744567142947891354_);enable-background:new    ;}
	.st11{clip-path:url(#SVGID_00000026144042574489200180000015770070812250595739_);}
	.st12{clip-path:url(#SVGID_00000037670349802172564830000014439374129355539330_);fill:#ED6F41;}
	.st13{clip-path:url(#SVGID_00000008107893414798597100000001470164476344421760_);}
	.st14{clip-path:url(#SVGID_00000066509906119071696240000001537759858678374829_);}
	.st15{clip-path:url(#SVGID_00000120546098851024921150000013029483129396099471_);enable-background:new    ;}
	.st16{clip-path:url(#SVGID_00000078034840249512753990000006621770292377228974_);}
	.st17{clip-path:url(#SVGID_00000086680752394032602070000013181424377123838380_);}
	.st18{clip-path:url(#SVGID_00000065767747645465345800000001990921751612245665_);fill:#FFFFFF;}
	.st19{clip-path:url(#SVGID_00000019665943884781134140000004904439182724190362_);}
	.st20{clip-path:url(#SVGID_00000103241744030759127620000005995494998956704661_);}
	.st21{clip-path:url(#SVGID_00000116232996176229538340000006344936313104678574_);}
	.st22{clip-path:url(#SVGID_00000018950370455546525970000000575763747689747638_);enable-background:new    ;}
	.st23{clip-path:url(#SVGID_00000032638320892229699020000000225810989577517227_);}
	.st24{clip-path:url(#SVGID_00000088826032815243905830000004252275209501331639_);}
	.st25{clip-path:url(#SVGID_00000168105018918824890480000004781848399836894362_);}
	.st26{clip-path:url(#SVGID_00000150074831779342900730000012488202767341318045_);fill:#FFFFFF;}
</style>
<g>
	<g>
		<g>
			<defs>
				<rect id="SVGID_1_" x="39.5" y="271.7" width="1001.1" height="536.6"/>
			</defs>
			<clipPath id="SVGID_00000049917412816456197520000006380663324467651481_">
				<use xlink:href="#SVGID_1_"  style="overflow:visible;"/>
			</clipPath>
			<g style="clip-path:url(#SVGID_00000049917412816456197520000006380663324467651481_);">
				<g>
					<defs>
						<path id="SVGID_00000036953299799436799360000010267823395084200585_" d="M117.8,272.6h844.6c20.6,0,40.3,8.2,54.9,22.7
							c14.6,14.6,22.7,34.3,22.7,54.9V729c0,20.6-8.2,40.3-22.7,54.9c-14.6,14.6-34.3,22.7-54.9,22.7H117.8
							c-20.6,0-40.3-8.2-54.9-22.7c-14.6-14.6-22.7-34.3-22.7-54.9V350.2c0-20.6,8.2-40.3,22.7-54.9
							C77.5,280.8,97.2,272.6,117.8,272.6z"/>
					</defs>
					<clipPath id="SVGID_00000162331692840636552200000004802182169154447038_">
						<use xlink:href="#SVGID_00000036953299799436799360000010267823395084200585_"  style="overflow:visible;"/>
					</clipPath>
					<g style="clip-path:url(#SVGID_00000162331692840636552200000004802182169154447038_);enable-background:new    ;">
						<g>
							<g>
								<defs>
									<rect id="SVGID_00000171715329336134395700000012540462885557892752_" x="39.5" y="271.7" width="1001.1" height="536.6"/>
								</defs>
								<clipPath id="SVGID_00000176733069513308978220000009814128717093875105_">
									<use xlink:href="#SVGID_00000171715329336134395700000012540462885557892752_"  style="overflow:visible;"/>
								</clipPath>
								<g style="clip-path:url(#SVGID_00000176733069513308978220000009814128717093875105_);">
									<g>
										<defs>
											
												<rect id="SVGID_00000068635084405296900440000000833419772768568982_" x="39.5" y="271.7" width="1001.1" height="536.6"/>
										</defs>
										<clipPath id="SVGID_00000071540966608886997400000007519894027014505861_">
											<use xlink:href="#SVGID_00000068635084405296900440000000833419772768568982_"  style="overflow:visible;"/>
										</clipPath>
										<g style="clip-path:url(#SVGID_00000071540966608886997400000007519894027014505861_);">
											<g>
												<defs>
													<path id="SVGID_00000145039918832863936490000008588594759707107229_" d="M117.8,272.6h844.6
														c20.6,0,40.3,8.2,54.9,22.7c14.6,14.6,22.7,34.3,22.7,54.9V729c0,20.6-8.2,40.3-22.7,54.9
														c-14.6,14.6-34.3,22.7-54.9,22.7H117.8c-20.6,0-40.3-8.2-54.9-22.7c-14.6-14.6-22.7-34.3-22.7-54.9V350.2
														c0-20.6,8.2-40.3,22.7-54.9C77.5,280.8,97.2,272.6,117.8,272.6z"/>
												</defs>
												<clipPath id="SVGID_00000178912313591113132230000015445155136937715606_">
													<use xlink:href="#SVGID_00000145039918832863936490000008588594759707107229_"  style="overflow:visible;"/>
												</clipPath>
												
													<rect x="40.2" y="272.6" style="clip-path:url(#SVGID_00000178912313591113132230000015445155136937715606_);fill:#ED6F41;" width="999.2" height="534"/>
											</g>
										</g>
									</g>
								</g>
							</g>
						</g>
					</g>
				</g>
			</g>
		</g>
	</g>
	<g>
		<g>
			<defs>
				<rect id="SVGID_00000056395035828388565070000012662854930587266494_" x="111.5" y="383.5" width="896.8" height="414.8"/>
			</defs>
			<clipPath id="SVGID_00000114045480614090433170000016585208573475962255_">
				<use xlink:href="#SVGID_00000056395035828388565070000012662854930587266494_"  style="overflow:visible;"/>
			</clipPath>
			<g style="clip-path:url(#SVGID_00000114045480614090433170000016585208573475962255_);enable-background:new    ;">
				<g>
					<g>
						<defs>
							<rect id="SVGID_00000011720107509667939920000018019526488106362764_" x="111.5" y="383.5" width="896.8" height="414.8"/>
						</defs>
						<clipPath id="SVGID_00000108993073370692805140000012310347242107802815_">
							<use xlink:href="#SVGID_00000011720107509667939920000018019526488106362764_"  style="overflow:visible;"/>
						</clipPath>
						<g style="clip-path:url(#SVGID_00000108993073370692805140000012310347242107802815_);">
							<g>
								<defs>
									<rect id="SVGID_00000035519991688105355340000015879581657034460300_" x="111.5" y="383.5" width="896.8" height="414.8"/>
								</defs>
								<clipPath id="SVGID_00000160156604319899776730000010998484770549217934_">
									<use xlink:href="#SVGID_00000035519991688105355340000015879581657034460300_"  style="overflow:visible;"/>
								</clipPath>
								<path style="clip-path:url(#SVGID_00000160156604319899776730000010998484770549217934_);fill:#FFFFFF;" d="M137,540.6
									c0-15.3-0.5-28.5-1.4-39.5c-0.9-11.1-2.1-20.6-3.6-28.6s-3.1-14.9-4.7-20.8c-1.6-5.9-3.2-11.1-4.7-15.9
									c-1.5-4.7-2.7-9.5-3.6-14.3s-1.4-10-1.4-15.8c0-5.3,1.2-9.3,3.8-12c2.5-2.7,5.6-4.6,9.2-5.7c3.6-1.1,7.3-1.6,10.8-1.7
									c3.6-0.1,6.5-0.1,8.8-0.1h55.3c2.3,0,5.2,0,8.8,0.1s7.2,0.6,10.8,1.7s6.7,3,9.2,5.7s3.8,6.7,3.8,12c0,5.7-0.5,11-1.4,15.8
									s-2.1,9.5-3.6,14.3c-1.5,4.7-3.1,10-4.7,15.9c-1.6,5.9-3.2,12.8-4.7,20.8s-2.7,17.5-3.6,28.6c-0.9,11.1-1.4,24.3-1.4,39.5
									c0,15.3,0.5,28.5,1.4,39.5c0.9,11.1,2.1,20.6,3.6,28.6s3.1,14.9,4.7,20.8c1.6,5.9,3.2,11.1,4.7,15.9
									c1.5,4.7,2.7,9.4,3.6,14.1c0.9,4.7,1.4,10,1.4,15.9c0,5.3-1.3,9.3-3.8,12s-5.6,4.6-9.2,5.7c-3.6,1.1-7.3,1.6-10.8,1.7
									c-3.6,0.1-6.5,0.1-8.8,0.1H150c-2.3,0-5.2,0-8.8-0.1s-7.2-0.6-10.8-1.7c-3.6-1.1-6.7-3-9.2-5.7s-3.8-6.7-3.8-12
									c0-5.9,0.5-11.1,1.4-15.9c0.9-4.7,2.1-9.4,3.6-14.1c1.5-4.7,3.1-10,4.7-15.9c1.6-5.9,3.2-12.8,4.7-20.8s2.7-17.5,3.6-28.6
									C136.5,569,137,555.8,137,540.6z M246.5,675.8c0-7.3,0.6-14,1.9-20c1.3-6.1,2.9-12.4,4.8-19.1c1.9-6.6,3.9-14.4,5.9-23.1
									c2-8.8,3.6-19.4,4.9-31.8c1.3-12.4,1.9-27.6,1.9-45.4c0-14.9-0.5-27.7-1.4-38.5s-2.1-20-3.6-27.8
									c-1.5-7.7-3.1-14.4-4.7-20.1s-3.2-10.9-4.7-15.5s-2.7-9.3-3.6-13.8c-0.9-4.6-1.4-9.6-1.4-15.2c0-5.1,1.2-9,3.8-11.7
									c2.5-2.6,5.6-4.5,9.2-5.6s7.3-1.6,10.8-1.7c3.6-0.1,6.5-0.1,8.8-0.1h122c14.7,0,27.8,3,39.1,8.9c11.4,5.9,20.3,14.3,26.8,25
									s9.8,23.2,9.8,37.5c0,6.1-0.8,12.4-2.5,18.9c-1.6,6.4-4.4,12.6-8.1,18.5c-3.8,5.9-8.8,11.2-15,15.9
									c-6.2,4.6-13.9,8.2-23,10.6c-3.6,1-5.4,2.4-5.4,4.1c0,1.1,1.4,2.4,4.3,3.6c2.9,1.3,6.5,2.9,10.9,4.8
									c4.4,1.9,9.2,4.6,14.3,8.1c5.1,3.5,9.8,8,14.3,13.6c4.4,5.6,8.1,12.6,10.9,21c2.9,8.4,4.3,18.7,4.3,30.9
									c0,7.4-1,15.2-3.1,23.3s-5.4,15.9-9.9,23.5s-10.5,14.4-17.9,20.6c-7.4,6.1-16.5,11-27.2,14.6s-23.3,5.4-37.7,5.4H275.6
									c-2.3,0-5,0-8.3-0.1c-3.2-0.1-6.4-0.6-9.6-1.7c-3.2-1.1-5.9-2.9-8-5.6C247.6,684.8,246.5,680.9,246.5,675.8z M347,493.2
									c0,4.4,1.1,7.4,3.4,8.9s5.4,2.3,9.4,2.3c7,0,12.7-1,17.1-2.9s7.9-4.4,10.4-7.4s4.3-6.1,5.3-9.2s1.5-6,1.5-8.6
									c0-2.4-0.5-5.3-1.5-8.5s-2.8-6.3-5.3-9.3s-6-5.5-10.4-7.4s-10.1-2.9-17.1-2.9c-4,0-7.1,0.8-9.4,2.3s-3.4,4.5-3.4,8.9V493.2z
									 M347,617.3c0,6.1,1.1,10.3,3.4,12.3c2.3,2.1,5.4,3.1,9.4,3.1c7,0,12.7-1.4,17.1-4.1c4.4-2.7,7.9-6.1,10.4-10.3
									c2.5-4.1,4.3-8.4,5.3-12.9c1-4.4,1.5-8.4,1.5-11.8c0-3.4-0.5-7.4-1.5-11.9s-2.8-8.8-5.3-13c-2.5-4.1-6-7.6-10.4-10.3
									s-10.1-4.1-17.1-4.1c-4,0-7.1,1-9.4,3s-3.4,6.1-3.4,12.4c0,1.4,0,3.8,0.1,7s0.1,6.4,0.2,9.6c0.1,3.2,0.1,5.6,0.1,7.2
									c0,1.4,0,3.8-0.1,7s-0.1,6.4-0.2,9.5C347.1,613.4,347,615.7,347,617.3z M487,405.3c0-5.1,1.2-9,3.8-11.7
									c2.5-2.6,5.6-4.5,9.2-5.6s7.3-1.6,10.8-1.7c3.6-0.1,6.5-0.1,8.8-0.1h55.3c2.3,0,5.2,0,8.8,0.1s7.2,0.6,10.8,1.7
									s6.7,2.9,9.2,5.6c2.5,2.6,3.8,6.5,3.8,11.7c0,5.6-0.5,10.6-1.4,15.2s-2.1,9.2-3.6,13.8c-1.5,4.6-3.1,9.8-4.7,15.5
									c-1.6,5.7-3.2,12.4-4.7,20.1s-2.7,17-3.6,27.8c-0.9,10.8-1.4,23.6-1.4,38.5v69.2c0,5.7,0.2,10.8,0.6,15.3
									c0.4,4.5,1.5,8,3.3,10.5s4.7,3.8,8.7,3.8c10.4,0,19.7-1.6,27.8-4.8s15.4-7.2,21.9-11.9s12.4-9.4,17.8-14
									c5.4-4.6,10.5-8.6,15.4-11.8s10-4.8,15.1-4.8s8.8,1.3,10.9,4c2.1,2.6,3.4,5.9,3.8,9.6c0.4,3.8,0.5,7.5,0.5,11v61.3
									c0,6.3-2,11.4-5.9,15.3c-3.9,3.9-9,5.9-15.3,5.9H516c-2.3,0-5,0-8.3-0.1c-3.2-0.1-6.4-0.6-9.6-1.7c-3.2-1.1-5.9-2.9-8-5.6
									c-2.1-2.6-3.2-6.5-3.2-11.7c0-7.3,0.6-14,1.9-20c1.3-6.1,2.9-12.4,4.8-19.1c1.9-6.6,3.9-14.4,5.9-23.1
									c2-8.8,3.6-19.4,4.9-31.8c1.3-12.4,1.9-27.6,1.9-45.4c0-14.9-0.5-27.7-1.4-38.5s-2.1-20-3.6-27.8
									c-1.5-7.7-3.1-14.4-4.7-20.1s-3.2-10.9-4.7-15.5s-2.7-9.3-3.6-13.8C487.5,415.9,487,410.9,487,405.3z M751.2,694.9
									c-4.7,0-9.1-0.4-13.2-1.1c-4.1-0.7-7.4-2.1-9.9-4.3c-2.5-2.1-3.8-5.2-3.8-9.2s0.6-7.4,1.7-10.2c1.1-2.8,2.7-5.5,4.7-8.3
									c2-2.7,4.3-5.8,6.8-9.2s5-7.7,7.6-12.9c2.6-5.1,5.1-11.6,7.5-19.5c3.7-12,6.9-22.4,9.4-31.1c2.6-8.7,4.8-16.4,6.8-23
									c1.9-6.6,3.7-12.8,5.3-18.4c1.6-5.6,3.1-11.3,4.6-16.9c1.5-5.6,3.2-11.8,5-18.5c1.9-6.7,4-14.5,6.3-23.4
									c2.4-8.9,5.3-19.3,8.7-31.3c2.3-8.3,3.9-14.8,4.8-19.5c0.9-4.7,1.5-8.6,1.6-11.7s0.1-6.2-0.2-9.3c-0.3-3.1-0.6-7.2-0.9-12.2
									c0-1.1,0.1-2.7,0.2-4.7c0.1-2,0.7-4.1,1.7-6.2s2.7-4,5.1-5.5c2.4-1.5,5.9-2.3,10.3-2.3h57.9c4.3,0,8,0.1,11.3,0.2
									c3.2,0.1,6.1,0.9,8.7,2.4c2.6,1.4,5,4,7.4,7.7s4.8,9.1,7.3,16.1s5.3,16.2,8.5,27.7c4,14,7.4,26.3,10.3,37
									c2.9,10.6,5.4,20.2,7.7,28.7c2.3,8.5,4.5,16.7,6.6,24.7c2.1,7.9,4.4,16.2,6.9,24.7c2.4,8.5,5.2,18,8.3,28.4
									s6.8,22.7,11,36.7c2.4,7.9,4.9,14.4,7.5,19.5s5.1,9.4,7.6,12.9c2.5,3.4,4.7,6.5,6.8,9.2c2,2.7,3.6,5.5,4.7,8.3
									c1.1,2.8,1.7,6.2,1.7,10.2s-1.3,7.1-3.8,9.2c-2.5,2.1-5.8,3.6-9.8,4.3s-8.4,1.1-13.3,1.1H896c-3.3,0-6.5-0.5-9.8-1.4
									c-3.2-0.9-5.9-2.4-7.9-4.5c-2.1-2.1-3.1-4.9-3.1-8.5c0-4.7,0.4-8.5,1.2-11.3s1.7-5.4,2.7-7.9s1.9-5.6,2.7-9.2
									c0.8-3.6,1.2-8.7,1.2-15.1c0-3.6-0.2-7.4-0.6-11.4h-54.9c0.1,1.9,0.4,3.7,0.6,5.6c0.3,1.9,0.5,3.8,0.6,5.8
									c0.9,6.4,1.9,11.5,3.1,15.1c1.2,3.6,2.4,6.7,3.4,9.2c1.1,2.5,2,5.1,2.8,7.9c0.8,2.8,1.2,6.5,1.2,11.3c0,3.6-1,6.4-3.1,8.5
									s-4.7,3.6-7.9,4.5s-6.5,1.4-9.8,1.4h-67.1V694.9z M827.8,552.3H866c-1.9-6.6-3.8-13.5-5.8-20.9s-4.2-15.2-6.6-23.5
									c-1.4-4.9-2.9-8.9-4.3-12.2c-1.4-3.3-2.9-4.8-4.5-4.5c-1.4,0.1-2.9,2.1-4.3,5.9c-1.4,3.8-2.9,8.4-4.3,13.9
									c-1.4,5.5-2.8,11.1-4,16.9c-1.2,5.8-2.2,10.9-2.9,15.3C828.5,547.8,828,550.8,827.8,552.3z"/>
							</g>
						</g>
					</g>
				</g>
			</g>
		</g>
	</g>
</g>
<g>
	<g>
		<defs>
			<rect id="SVGID_00000036932655015716079860000014130872982051483570_" x="1404.5" y="387.1" width="443.9" height="243.3"/>
		</defs>
		<clipPath id="SVGID_00000006673490166382399110000011588169532816311683_">
			<use xlink:href="#SVGID_00000036932655015716079860000014130872982051483570_"  style="overflow:visible;"/>
		</clipPath>
		<g style="clip-path:url(#SVGID_00000006673490166382399110000011588169532816311683_);enable-background:new    ;">
			<g>
				<g>
					<defs>
						<rect id="SVGID_00000047767219316477559270000013164797932464414394_" x="1404.5" y="387.1" width="443.9" height="243.3"/>
					</defs>
					<clipPath id="SVGID_00000101787218193170246830000006857631982436138419_">
						<use xlink:href="#SVGID_00000047767219316477559270000013164797932464414394_"  style="overflow:visible;"/>
					</clipPath>
					<g style="clip-path:url(#SVGID_00000101787218193170246830000006857631982436138419_);">
						<g>
							<defs>
								<rect id="SVGID_00000026133056414884705070000016769019210914434181_" x="1404.1" y="418.4" width="444.7" height="212.1"/>
							</defs>
							<clipPath id="SVGID_00000093867456215427568800000010485802386465311412_">
								<use xlink:href="#SVGID_00000026133056414884705070000016769019210914434181_"  style="overflow:visible;"/>
							</clipPath>
							<g style="clip-path:url(#SVGID_00000093867456215427568800000010485802386465311412_);enable-background:new    ;">
								<g>
									<g>
										<defs>
											
												<rect id="SVGID_00000129920373760428133870000011449823715426673816_" x="1404.5" y="418.5" width="443.9" height="211.9"/>
										</defs>
										<clipPath id="SVGID_00000183942611228189399770000012590621549168491939_">
											<use xlink:href="#SVGID_00000129920373760428133870000011449823715426673816_"  style="overflow:visible;"/>
										</clipPath>
										<g style="clip-path:url(#SVGID_00000183942611228189399770000012590621549168491939_);">
											<g>
												<defs>
													
														<rect id="SVGID_00000067219391818958097880000016847578643307029950_" x="1404.1" y="418.4" width="444.7" height="212.1"/>
												</defs>
												<clipPath id="SVGID_00000072275175652289180800000006794925700461744290_">
													<use xlink:href="#SVGID_00000067219391818958097880000016847578643307029950_"  style="overflow:visible;"/>
												</clipPath>
												<path style="clip-path:url(#SVGID_00000072275175652289180800000006794925700461744290_);fill:#ED6F41;" d="
													M1423.5,578.2c-1.2,0-2.6,0-4.4-0.1c-1.8,0-3.6-0.3-5.5-0.9c-1.8-0.5-3.4-1.5-4.7-2.9c-1.3-1.4-1.9-3.4-1.9-6.1
													c0-3,0.2-5.6,0.7-8s1.1-4.8,1.8-7.1c0.8-2.4,1.6-5,2.4-8s1.6-6.5,2.4-10.5s1.4-8.9,1.8-14.4c0.5-5.6,0.7-12.2,0.7-20
													c0-7.7-0.2-14.4-0.7-20s-1.1-10.4-1.8-14.4c-0.8-4-1.6-7.5-2.4-10.5s-1.6-5.6-2.4-8s-1.4-4.8-1.8-7.2
													c-0.5-2.4-0.7-5.1-0.7-8c0-2.7,0.6-4.7,1.9-6.1s2.8-2.3,4.7-2.9c1.8-0.5,3.7-0.8,5.5-0.9c1.8,0,3.3-0.1,4.4-0.1h40.7
													c10,0,18.9,1.9,26.5,5.6c7.6,3.8,14,9.1,19.2,16s9.1,15.1,11.7,24.6s3.9,20.1,3.9,31.6s-1.3,22.1-3.9,31.7
													c-2.6,9.6-6.5,17.8-11.7,24.7s-11.6,12.3-19.2,16c-7.6,3.8-16.5,5.6-26.5,5.6h-40.7V578.2z M1458,461.1v78.1
													c0,2.2,0.3,3.8,1,4.9c0.6,1.1,1.5,1.8,2.4,2.2c1,0.4,1.9,0.5,2.8,0.5c2.8,0,5.4-1.3,7.8-3.8s4.5-6,6.2-10.3
													c1.8-4.4,3.1-9.3,4.1-14.9c1-5.6,1.5-11.5,1.5-17.6s-0.5-12-1.5-17.6s-2.3-10.6-4.1-14.9c-1.8-4.4-3.8-7.8-6.2-10.3
													c-2.4-2.5-5-3.8-7.8-3.8c-0.9,0-1.8,0.2-2.8,0.5c-1,0.4-1.8,1.1-2.4,2.2S1458,458.9,1458,461.1z M1536.5,500.3
													c0-7.7-0.2-14.4-0.7-20s-1.1-10.4-1.8-14.4c-0.8-4-1.6-7.5-2.4-10.5s-1.6-5.6-2.4-8s-1.4-4.8-1.8-7.2
													c-0.5-2.4-0.7-5.1-0.7-8c0-2.7,0.6-4.7,1.9-6.1s2.8-2.3,4.7-2.9c1.8-0.5,3.7-0.8,5.5-0.9c1.8,0,3.3-0.1,4.4-0.1h27.9
													c1.2,0,2.6,0,4.4,0.1c1.8,0,3.6,0.3,5.5,0.9c1.8,0.5,3.4,1.5,4.7,2.9c1.3,1.4,1.9,3.4,1.9,6.1c0,2.9-0.2,5.5-0.7,8
													c-0.5,2.4-1.1,4.8-1.8,7.2c-0.8,2.4-1.6,5.1-2.4,8c-0.8,3-1.6,6.5-2.4,10.5s-1.4,8.9-1.8,14.4c-0.5,5.6-0.7,12.2-0.7,20
													c0,7.7,0.2,14.4,0.7,20s1.1,10.4,1.8,14.4c0.8,4,1.6,7.5,2.4,10.5s1.6,5.6,2.4,8s1.4,4.8,1.8,7.1c0.5,2.4,0.7,5.1,0.7,8
													c0,2.7-0.6,4.7-1.9,6.1c-1.3,1.4-2.8,2.3-4.7,2.9c-1.8,0.5-3.7,0.8-5.5,0.9c-1.8,0-3.3,0.1-4.4,0.1h-27.9
													c-1.2,0-2.6,0-4.4-0.1c-1.8,0-3.6-0.3-5.5-0.9c-1.8-0.5-3.4-1.5-4.7-2.9c-1.3-1.4-1.9-3.4-1.9-6.1c0-3,0.2-5.6,0.7-8
													s1.1-4.8,1.8-7.1c0.8-2.4,1.6-5,2.4-8s1.6-6.5,2.4-10.5s1.4-8.9,1.8-14.4C1536.2,514.6,1536.5,508,1536.5,500.3z
													 M1588.6,543.3c0-5.2,1.1-9.7,3.2-13.6c2.2-3.9,5-6.9,8.4-9.1c3.4-2.2,7-3.3,10.8-3.4c3-0.1,5.9,0.6,8.5,1.9
													c2.6,1.4,5.2,3.2,7.6,5.4s4.8,4.6,7.1,7.2c2.3,2.6,4.7,5,7,7.3s4.8,4.1,7.3,5.6c2.5,1.4,5.1,2.2,7.8,2.2
													c3.5,0,6.1-0.9,7.6-2.7s2.3-4,2.3-6.7c0-3-1-5.6-3.1-7.7c-2.1-2.1-4.9-3.9-8.5-5.5s-7.6-3-12.1-4.5
													c-4.5-1.4-9.1-3-13.8-4.7c-4.7-1.7-9.3-3.8-13.8-6.2c-4.5-2.4-8.5-5.4-12.1-8.8c-3.6-3.5-6.4-7.6-8.5-12.6
													c-2.1-4.9-3.1-10.8-3.1-17.6c0-10,2.5-18.7,7.5-26s12.2-13,21.6-17s20.8-6.1,34-6.1c6.1,0,12.2,0.6,18.2,1.8
													c6,1.2,11.5,3.2,16.4,5.8c4.9,2.7,8.9,6.1,11.8,10.2c3,4.1,4.4,9.1,4.4,15c0,4.2-0.9,8-2.8,11.4
													c-1.8,3.4-4.3,6.2-7.5,8.3c-3.1,2.1-6.7,3.3-10.7,3.6c-3.4,0.2-6.6-0.4-9.5-1.9c-3-1.5-5.8-3.4-8.4-5.8
													c-2.7-2.4-5.3-4.8-8-7.1c-2.6-2.4-5.3-4.4-8.1-6.1c-2.8-1.7-5.7-2.5-8.8-2.5c-2.6,0-4.7,0.5-6.2,1.4s-2.6,2.1-3.2,3.5
													s-0.9,2.7-0.9,3.9c0,3,1.1,5.5,3.3,7.5c2.2,2.1,5.1,3.9,8.8,5.5c3.7,1.6,7.8,3.1,12.4,4.7c4.6,1.5,9.4,3.2,14.3,5
													s9.7,4,14.3,6.5c4.6,2.6,8.8,5.6,12.4,9.3c3.7,3.6,6.6,8,8.8,13c2.2,5.1,3.3,11.1,3.3,18.1c0,7.4-1.2,13.9-3.6,19.3
													c-2.4,5.4-5.7,10-9.8,13.6c-4.1,3.7-8.7,6.6-13.7,8.8c-5.1,2.2-10.3,3.8-15.7,4.7c-5.4,0.9-10.6,1.4-15.5,1.4
													c-5.7,0-11.5-0.4-17.3-1.1c-5.8-0.7-11.4-1.9-16.8-3.6c-5.3-1.7-10.1-3.9-14.3-6.7c-4.2-2.8-7.5-6.2-9.9-10.4
													C1589.8,553.9,1588.6,549,1588.6,543.3z M1719.7,500.3c0-7.7-0.2-14.4-0.7-20s-1.1-10.4-1.8-14.4
													c-0.8-4-1.6-7.5-2.4-10.5s-1.6-5.6-2.4-8s-1.4-4.8-1.8-7.2c-0.5-2.4-0.7-5.1-0.7-8c0-2.7,0.6-4.7,1.9-6.1
													s2.8-2.3,4.7-2.9c1.8-0.5,3.7-0.8,5.5-0.9c1.8,0,3.3-0.1,4.4-0.1h27.9c1.2,0,2.6,0,4.4,0.1c1.8,0,3.6,0.3,5.5,0.9
													c1.8,0.5,3.4,1.5,4.7,2.9c1.3,1.4,1.9,3.4,1.9,6.1c0,3-0.3,5.8-0.8,8.2c-0.5,2.4-1.2,4.9-1.9,7.4
													c-0.8,2.5-1.6,5.4-2.5,8.5s-1.7,6.9-2.4,11.1c-0.7,4.3-1.3,9.5-1.7,15.6h30.3c-0.4-6.1-1-11.3-1.7-15.6
													c-0.7-4.3-1.5-8-2.4-11.1s-1.7-6-2.5-8.5s-1.4-5-1.9-7.4s-0.8-5.1-0.8-8.2c0-2.7,0.6-4.7,1.9-6.1s2.8-2.3,4.7-2.9
													c1.8-0.5,3.7-0.8,5.5-0.9c1.8,0,3.3-0.1,4.4-0.1h27.9c1.2,0,2.6,0,4.4,0.1c1.8,0,3.6,0.3,5.5,0.9
													c1.8,0.5,3.4,1.5,4.7,2.9c1.3,1.4,1.9,3.4,1.9,6.1c0,2.9-0.2,5.5-0.7,8c-0.5,2.4-1.1,4.8-1.8,7.2
													c-0.8,2.4-1.6,5.1-2.4,8c-0.8,3-1.6,6.5-2.4,10.5s-1.4,8.9-1.8,14.4c-0.5,5.6-0.7,12.2-0.7,20c0,7.7,0.2,14.4,0.7,20
													s1.1,10.4,1.8,14.4c0.8,4,1.6,7.5,2.4,10.5s1.6,5.6,2.4,8s1.4,4.8,1.8,7.1c0.5,2.4,0.7,5.1,0.7,8c0,2.7-0.6,4.7-1.9,6.1
													c-1.3,1.4-2.8,2.3-4.7,2.9c-1.8,0.5-3.7,0.8-5.5,0.9c-1.8,0-3.3,0.1-4.4,0.1H1799c-1.2,0-2.6,0-4.4-0.1
													c-1.8,0-3.6-0.3-5.5-0.9c-1.8-0.5-3.4-1.5-4.7-2.9c-1.3-1.4-1.9-3.4-1.9-6.1c0-3,0.2-5.6,0.7-8s1.1-4.8,1.8-7.1
													c0.8-2.4,1.6-5.1,2.4-8.1s1.6-6.5,2.4-10.5s1.4-8.9,1.8-14.6h-29.9c0.4,5.7,1,10.6,1.8,14.6s1.6,7.5,2.4,10.5
													s1.6,5.7,2.4,8.1c0.8,2.4,1.4,4.8,1.8,7.1c0.5,2.4,0.7,5.1,0.7,8c0,2.7-0.6,4.7-1.9,6.1c-1.3,1.4-2.8,2.3-4.7,2.9
													c-1.8,0.5-3.7,0.8-5.5,0.9c-1.8,0-3.3,0.1-4.4,0.1h-27.9c-1.2,0-2.6,0-4.4-0.1c-1.8,0-3.6-0.3-5.5-0.9
													c-1.8-0.5-3.4-1.5-4.7-2.9c-1.3-1.4-1.9-3.4-1.9-6.1c0-3,0.2-5.6,0.7-8s1.1-4.8,1.8-7.1c0.8-2.4,1.6-5,2.4-8
													s1.6-6.5,2.4-10.5s1.4-8.9,1.8-14.4C1719.4,514.6,1719.7,508,1719.7,500.3z"/>
											</g>
										</g>
									</g>
								</g>
							</g>
						</g>
					</g>
				</g>
				<g>
					<defs>
						<rect id="SVGID_00000080180008848901841760000003846062031075399572_" x="1404.5" y="387.1" width="443.9" height="243.3"/>
					</defs>
					<clipPath id="SVGID_00000107550452039860204760000007201590293284860043_">
						<use xlink:href="#SVGID_00000080180008848901841760000003846062031075399572_"  style="overflow:visible;"/>
					</clipPath>
					<g style="clip-path:url(#SVGID_00000107550452039860204760000007201590293284860043_);">
						<g>
							<defs>
								<rect id="SVGID_00000061457092222889110880000011917418568823079053_" x="1438.4" y="387.1" width="55.2" height="55.2"/>
							</defs>
							<clipPath id="SVGID_00000138535228018077149720000008211838848075604359_">
								<use xlink:href="#SVGID_00000061457092222889110880000011917418568823079053_"  style="overflow:visible;"/>
							</clipPath>
							<g style="clip-path:url(#SVGID_00000138535228018077149720000008211838848075604359_);">
								<g>
									<defs>
										<circle id="SVGID_00000003790743274016230500000012335195929356699793_" cx="1466.3" cy="414.7" r="26.7"/>
									</defs>
									<clipPath id="SVGID_00000051358441536656462320000013283101553954759313_">
										<use xlink:href="#SVGID_00000003790743274016230500000012335195929356699793_"  style="overflow:visible;"/>
									</clipPath>
									<g style="clip-path:url(#SVGID_00000051358441536656462320000013283101553954759313_);enable-background:new    ;">
										<g>
											<g>
												<defs>
													
														<rect id="SVGID_00000096758248805681568360000013517788366220456372_" x="1438.4" y="387.1" width="55.2" height="55.2"/>
												</defs>
												<clipPath id="SVGID_00000111188415657197143530000003740611277186670468_">
													<use xlink:href="#SVGID_00000096758248805681568360000013517788366220456372_"  style="overflow:visible;"/>
												</clipPath>
												<g style="clip-path:url(#SVGID_00000111188415657197143530000003740611277186670468_);">
													<g>
														<defs>
															
																<rect id="SVGID_00000054230317308207706140000007626436329351562393_" x="1438.4" y="387.1" width="55.2" height="55.2"/>
														</defs>
														<clipPath id="SVGID_00000079482951529275156150000006020648071584627640_">
															<use xlink:href="#SVGID_00000054230317308207706140000007626436329351562393_"  style="overflow:visible;"/>
														</clipPath>
														<g style="clip-path:url(#SVGID_00000079482951529275156150000006020648071584627640_);">
															<g>
																<defs>
																	<circle id="SVGID_00000104706535126174128550000005092754392715676078_" cx="1466.3" cy="414.7" r="26.7"/>
																</defs>
																<clipPath id="SVGID_00000164479617292465202290000004072284960948338078_">
																	<use xlink:href="#SVGID_00000104706535126174128550000005092754392715676078_"  style="overflow:visible;"/>
																</clipPath>
																
																	<rect x="1439.6" y="388" style="clip-path:url(#SVGID_00000164479617292465202290000004072284960948338078_);fill:#FFFFFF;" width="53.4" height="53.4"/>
															</g>
														</g>
													</g>
												</g>
											</g>
										</g>
									</g>
								</g>
							</g>
						</g>
					</g>
				</g>
				<g>
					<defs>
						<rect id="SVGID_00000013162018092892546310000006090026946773119136_" x="1404.5" y="387.1" width="443.9" height="243.3"/>
					</defs>
					<clipPath id="SVGID_00000009550212331134607240000004543918157952585345_">
						<use xlink:href="#SVGID_00000013162018092892546310000006090026946773119136_"  style="overflow:visible;"/>
					</clipPath>
					<g style="clip-path:url(#SVGID_00000009550212331134607240000004543918157952585345_);">
						<g>
							<defs>
								<rect id="SVGID_00000163073001464603775960000003512358741916669360_" x="1478.5" y="413.5" width="43.9" height="43.9"/>
							</defs>
							<clipPath id="SVGID_00000072256328769724142100000010258802965250848402_">
								<use xlink:href="#SVGID_00000163073001464603775960000003512358741916669360_"  style="overflow:visible;"/>
							</clipPath>
							<g style="clip-path:url(#SVGID_00000072256328769724142100000010258802965250848402_);">
								<g>
									<defs>
										<path id="SVGID_00000094581357944875328980000017516669738969328782_" d="M1490.3,419.6c-8.7,5.7-11.2,17.3-5.5,26
											s17.3,11.2,26,5.5s11.2-17.3,5.5-26C1510.6,416.4,1499,413.9,1490.3,419.6z"/>
									</defs>
									<clipPath id="SVGID_00000017502376375434807040000004114890344621415846_">
										<use xlink:href="#SVGID_00000094581357944875328980000017516669738969328782_"  style="overflow:visible;"/>
									</clipPath>
									<g style="clip-path:url(#SVGID_00000017502376375434807040000004114890344621415846_);">
										<g>
											<defs>
												
													<rect id="SVGID_00000160159477120801697990000011137503095379998386_" x="1481.7" y="416.6" transform="matrix(0.8379 -0.5458 0.5458 0.8379 5.5897 889.5474)" width="37.6" height="37.6"/>
											</defs>
											<clipPath id="SVGID_00000038370696326171092470000008065629361020838324_">
												<use xlink:href="#SVGID_00000160159477120801697990000011137503095379998386_"  style="overflow:visible;"/>
											</clipPath>
											<g style="clip-path:url(#SVGID_00000038370696326171092470000008065629361020838324_);enable-background:new    ;">
												<g>
													<g>
														<defs>
															
																<rect id="SVGID_00000127014604443180949380000006627348888042432186_" x="1478.5" y="413.5" width="43.9" height="43.9"/>
														</defs>
														<clipPath id="SVGID_00000019654967168499547810000013135774439916178572_">
															<use xlink:href="#SVGID_00000127014604443180949380000006627348888042432186_"  style="overflow:visible;"/>
														</clipPath>
														<g style="clip-path:url(#SVGID_00000019654967168499547810000013135774439916178572_);">
															<g>
																<defs>
																	
																		<rect id="SVGID_00000020380467118797440350000012403653003384282514_" x="1478.5" y="413.5" width="43.9" height="43.9"/>
																</defs>
																<clipPath id="SVGID_00000179634257583359663170000000594379321623421843_">
																	<use xlink:href="#SVGID_00000020380467118797440350000012403653003384282514_"  style="overflow:visible;"/>
																</clipPath>
																<g style="clip-path:url(#SVGID_00000179634257583359663170000000594379321623421843_);">
																	<g>
																		<defs>
																			<path id="SVGID_00000104678963779001165450000013833566616893093287_" d="M1490.3,419.6
																				c-8.7,5.7-11.2,17.3-5.5,26s17.3,11.2,26,5.5s11.2-17.3,5.5-26C1510.6,416.4,1499,413.9,1490.3,419.6z"/>
																		</defs>
																		<clipPath id="SVGID_00000114773979191931767200000002729135093346197404_">
																			<use xlink:href="#SVGID_00000104678963779001165450000013833566616893093287_"  style="overflow:visible;"/>
																		</clipPath>
																		<g style="clip-path:url(#SVGID_00000114773979191931767200000002729135093346197404_);">
																			<g>
																				<defs>
																					
																						<rect id="SVGID_00000150815489830351685180000017476951254387666850_" x="1481.7" y="416.5" transform="matrix(0.4042 -0.9147 0.9147 0.4042 495.804 1631.8171)" width="37.6" height="37.6"/>
																				</defs>
																				<clipPath id="SVGID_00000000210039722564539100000009199479986593549446_">
																					<use xlink:href="#SVGID_00000150815489830351685180000017476951254387666850_"  style="overflow:visible;"/>
																				</clipPath>
																				
																					<rect x="1481.7" y="416.6" transform="matrix(0.8379 -0.5458 0.5458 0.8379 5.5894 889.5471)" style="clip-path:url(#SVGID_00000000210039722564539100000009199479986593549446_);fill:#FFFFFF;" width="37.6" height="37.6"/>
																			</g>
																		</g>
																	</g>
																</g>
															</g>
														</g>
													</g>
												</g>
											</g>
										</g>
									</g>
								</g>
							</g>
						</g>
					</g>
				</g>
			</g>
		</g>
	</g>
</g>
</svg>
