<?xml version="1.0" encoding="utf-8"?>
<!-- Generator: Adobe Illustrator 25.4.1, SVG Export Plug-In . SVG Version: 6.00 Build 0)  -->
<svg version="1.1" id="Layer_1" xmlns="http://www.w3.org/2000/svg" xmlns:xlink="http://www.w3.org/1999/xlink" x="0px" y="0px"
	 viewBox="0 0 1080 1080" style="enable-background:new 0 0 1080 1080;" xml:space="preserve">
<style type="text/css">
	.st0{fill:#EC6F41;}
</style>
<path class="st0" d="M50.3,540c0-17.7-0.5-33-1.6-45.8c-1.1-12.8-2.5-23.9-4.2-33.2c-1.7-9.3-3.6-17.3-5.5-24.1
	c-1.9-6.8-3.7-12.9-5.5-18.4c-1.7-5.5-3.1-11-4.2-16.5c-1.1-5.5-1.6-11.6-1.6-18.3c0-6.1,1.4-10.8,4.3-13.9
	c2.9-3.1,6.5-5.3,10.7-6.6c4.2-1.2,8.4-1.9,12.5-2c4.1-0.1,7.5-0.1,10.2-0.1h64.1c2.6,0,6,0,10.2,0.1c4.1,0.1,8.3,0.7,12.5,2
	c4.2,1.2,7.8,3.4,10.7,6.6c2.9,3.1,4.3,7.8,4.3,13.9c0,6.6-0.5,12.7-1.6,18.3c-1.1,5.6-2.5,11.1-4.2,16.5
	c-1.7,5.5-3.6,11.6-5.5,18.4c-1.9,6.8-3.7,14.8-5.5,24.1c-1.7,9.3-3.1,20.3-4.2,33.2c-1.1,12.8-1.6,28.1-1.6,45.8
	c0,17.7,0.5,33,1.6,45.8c1.1,12.8,2.5,23.9,4.2,33.2c1.7,9.3,3.6,17.3,5.5,24.1c1.9,6.8,3.7,12.9,5.5,18.4
	c1.7,5.5,3.1,10.9,4.2,16.4c1.1,5.5,1.6,11.6,1.6,18.4c0,6.1-1.5,10.8-4.3,13.9c-2.9,3.1-6.5,5.3-10.7,6.6c-4.2,1.2-8.4,1.9-12.5,2
	c-4.1,0.1-7.5,0.1-10.2,0.1H65.4c-2.7,0-6,0-10.2-0.1c-4.1-0.1-8.3-0.7-12.5-2c-4.2-1.2-7.8-3.4-10.7-6.6c-2.9-3.1-4.3-7.8-4.3-13.9
	c0-6.8,0.5-12.9,1.6-18.4c1.1-5.5,2.5-10.9,4.2-16.4c1.7-5.5,3.6-11.6,5.5-18.4c1.9-6.8,3.7-14.8,5.5-24.1
	c1.7-9.3,3.1-20.3,4.2-33.2C49.7,573,50.3,557.7,50.3,540z M177.2,696.7c0-8.4,0.7-16.2,2.2-23.2c1.5-7,3.4-14.4,5.6-22.1
	c2.2-7.7,4.5-16.6,6.8-26.8c2.3-10.2,4.2-22.5,5.7-36.9c1.5-14.4,2.2-32,2.2-52.7c0-17.2-0.5-32.1-1.6-44.6
	c-1.1-12.5-2.5-23.2-4.2-32.2c-1.7-8.9-3.6-16.7-5.5-23.4c-1.9-6.6-3.7-12.6-5.5-18c-1.7-5.4-3.1-10.7-4.2-16
	c-1.1-5.3-1.6-11.2-1.6-17.6c0-6,1.4-10.5,4.3-13.5c2.9-3.1,6.5-5.2,10.7-6.5c4.2-1.2,8.4-1.9,12.5-2c4.1-0.1,7.5-0.1,10.2-0.1
	h141.3c17.1,0,32.2,3.4,45.3,10.3c13.2,6.9,23.5,16.5,31.1,28.9c7.5,12.4,11.3,26.9,11.3,43.5c0,7.1-1,14.4-2.9,21.9
	c-1.9,7.5-5.1,14.6-9.4,21.5c-4.4,6.9-10.2,13-17.4,18.4c-7.2,5.4-16.1,9.5-26.7,12.3c-4.1,1.2-6.2,2.7-6.2,4.7c0,1.3,1.7,2.7,5,4.2
	c3.3,1.5,7.5,3.4,12.7,5.6c5.1,2.2,10.6,5.4,16.5,9.4c5.9,4.1,11.4,9.3,16.5,15.8c5.1,6.5,9.4,14.6,12.7,24.3c3.3,9.8,5,21.7,5,35.8
	c0,8.6-1.2,17.6-3.6,27c-2.4,9.4-6.2,18.4-11.4,27.2c-5.2,8.8-12.1,16.7-20.7,23.8c-8.6,7.1-19.1,12.8-31.5,16.9
	c-12.4,4.1-27,6.2-43.7,6.2H211c-2.7,0-5.8,0-9.6-0.1c-3.7-0.1-7.5-0.7-11.2-2c-3.7-1.2-6.8-3.4-9.3-6.5
	C178.4,707.2,177.2,702.7,177.2,696.7z M293.7,485.1c0,5.1,1.3,8.6,4,10.3c2.6,1.7,6.3,2.6,10.9,2.6c8.1,0,14.7-1.1,19.9-3.4
	c5.1-2.2,9.1-5.1,12-8.6c2.9-3.5,4.9-7,6.1-10.7c1.2-3.6,1.7-7,1.7-9.9c0-2.8-0.6-6.1-1.7-9.8c-1.2-3.7-3.2-7.3-6.1-10.8
	c-2.9-3.5-6.9-6.3-12-8.6c-5.1-2.2-11.8-3.4-19.9-3.4c-4.6,0-8.3,0.9-10.9,2.6c-2.7,1.7-4,5.2-4,10.3V485.1z M293.7,628.9
	c0,7.1,1.3,11.9,4,14.3c2.6,2.4,6.3,3.6,10.9,3.6c8.1,0,14.7-1.6,19.9-4.7c5.1-3.1,9.1-7.1,12-11.9c2.9-4.8,4.9-9.8,6.1-14.9
	c1.2-5.1,1.7-9.7,1.7-13.7c0-4-0.6-8.6-1.7-13.8c-1.2-5.2-3.2-10.2-6.1-15c-2.9-4.8-6.9-8.8-12-11.9c-5.1-3.1-11.8-4.7-19.9-4.7
	c-4.6,0-8.3,1.2-10.9,3.5c-2.7,2.3-4,7.1-4,14.4c0,1.7,0,4.3,0.1,8.1c0.1,3.7,0.2,7.5,0.2,11.2c0.1,3.7,0.1,6.5,0.1,8.3
	c0,1.7,0,4.3-0.1,8.1c-0.1,3.7-0.2,7.4-0.2,11.1C293.7,624.4,293.7,627.1,293.7,628.9z M455.9,383.3c0-6,1.4-10.5,4.3-13.5
	c2.9-3.1,6.5-5.2,10.7-6.5c4.2-1.2,8.4-1.9,12.5-2c4.1-0.1,7.5-0.1,10.2-0.1h64.1c2.6,0,6,0,10.2,0.1c4.1,0.1,8.3,0.7,12.5,2
	c4.2,1.2,7.8,3.4,10.7,6.5c2.9,3.1,4.3,7.6,4.3,13.5c0,6.5-0.5,12.3-1.6,17.6c-1.1,5.3-2.5,10.6-4.2,16c-1.7,5.4-3.6,11.4-5.5,18
	c-1.9,6.6-3.7,14.4-5.5,23.4c-1.7,8.9-3.1,19.7-4.2,32.2c-1.1,12.5-1.6,27.4-1.6,44.6v80.2c0,6.6,0.2,12.5,0.7,17.8
	c0.5,5.2,1.8,9.3,3.9,12.2c2.1,2.9,5.4,4.3,10.1,4.3c12.1,0,22.8-1.9,32.2-5.6c9.4-3.7,17.8-8.3,25.3-13.8
	c7.5-5.5,14.4-10.9,20.6-16.3c6.2-5.4,12.2-9.9,17.9-13.7s11.6-5.6,17.5-5.6c6,0,10.2,1.5,12.7,4.6c2.5,3.1,3.9,6.8,4.3,11.2
	c0.4,4.4,0.6,8.7,0.6,12.8v71c0,7.3-2.3,13.2-6.8,17.8c-4.6,4.6-10.5,6.8-17.8,6.8H489.7c-2.7,0-5.8,0-9.6-0.1
	c-3.7-0.1-7.5-0.7-11.2-2c-3.7-1.2-6.8-3.4-9.3-6.5c-2.5-3.1-3.7-7.6-3.7-13.5c0-8.4,0.7-16.2,2.2-23.2c1.5-7,3.4-14.4,5.6-22.1
	c2.2-7.7,4.5-16.6,6.8-26.8c2.3-10.2,4.2-22.5,5.7-36.9c1.5-14.4,2.2-32,2.2-52.7c0-17.2-0.5-32.1-1.6-44.6
	c-1.1-12.5-2.5-23.2-4.2-32.2c-1.7-8.9-3.6-16.7-5.5-23.4c-1.9-6.6-3.7-12.6-5.5-18c-1.7-5.4-3.1-10.7-4.2-16
	C456.4,395.6,455.9,389.7,455.9,383.3z M762.2,718.9c-5.5,0-10.6-0.4-15.3-1.2c-4.7-0.8-8.5-2.5-11.4-5c-2.9-2.5-4.3-6-4.3-10.7
	c0-4.6,0.7-8.6,2-11.8c1.3-3.2,3.1-6.4,5.5-9.6c2.3-3.1,4.9-6.7,7.8-10.7c2.9-4,5.8-8.9,8.8-14.9c3-6,5.9-13.5,8.7-22.6
	c4.3-13.9,7.9-25.9,10.9-36c3-10.1,5.6-19,7.8-26.7c2.2-7.7,4.3-14.8,6.1-21.4c1.8-6.5,3.6-13.1,5.3-19.6c1.7-6.5,3.7-13.7,5.8-21.5
	c2.2-7.8,4.6-16.8,7.3-27.1c2.7-10.3,6.1-22.4,10.1-36.3c2.6-9.6,4.5-17.1,5.6-22.6c1.1-5.5,1.7-10,1.9-13.5
	c0.2-3.6,0.1-7.2-0.2-10.8c-0.3-3.6-0.7-8.4-1-14.2c0-1.3,0.1-3.1,0.2-5.5c0.2-2.3,0.8-4.7,2-7.2c1.2-2.5,3.1-4.6,6-6.3
	c2.8-1.7,6.8-2.6,11.9-2.6h67.1c5,0,9.3,0.1,13,0.2c3.7,0.2,7.1,1.1,10.1,2.7c3,1.7,5.8,4.6,8.6,8.9c2.7,4.3,5.5,10.5,8.4,18.6
	c2.9,8.1,6.2,18.8,9.8,32c4.6,16.2,8.6,30.5,11.9,42.9c3.3,12.3,6.3,23.4,8.9,33.3c2.6,9.9,5.2,19.4,7.7,28.6
	c2.5,9.2,5.1,18.7,7.9,28.6c2.8,9.9,6,20.8,9.6,32.9c3.6,12.1,7.8,26.2,12.8,42.5c2.8,9.1,5.7,16.6,8.7,22.6c3,6,5.9,10.9,8.8,14.9
	c2.9,4,5.5,7.5,7.8,10.7c2.3,3.1,4.1,6.3,5.5,9.6c1.3,3.2,2,7.2,2,11.8c0,4.6-1.5,8.2-4.3,10.7c-2.9,2.5-6.7,4.1-11.3,5
	c-4.6,0.8-9.8,1.2-15.4,1.2h-91.4c-3.8,0-7.6-0.5-11.3-1.6c-3.7-1.1-6.8-2.8-9.2-5.2c-2.4-2.4-3.6-5.7-3.6-9.8c0-5.5,0.5-9.8,1.4-13
	c0.9-3.2,1.9-6.3,3.1-9.2c1.2-2.9,2.2-6.5,3.1-10.7c0.9-4.2,1.4-10.1,1.4-17.5c0-4.1-0.2-8.5-0.7-13.2h-63.6
	c0.2,2.2,0.4,4.3,0.7,6.5c0.3,2.2,0.6,4.4,0.7,6.7c1,7.5,2.2,13.3,3.6,17.5c1.4,4.2,2.7,7.8,4,10.7c1.2,2.9,2.3,6,3.2,9.2
	c0.9,3.2,1.4,7.6,1.4,13c0,4.1-1.2,7.4-3.6,9.8c-2.4,2.4-5.5,4.1-9.2,5.2c-3.7,1.1-7.5,1.6-11.3,1.6H762.2z M850.9,553.7h44.2
	c-2.2-7.6-4.4-15.7-6.7-24.2c-2.3-8.5-4.9-17.6-7.7-27.2c-1.7-5.6-3.3-10.3-5-14.2c-1.7-3.8-3.4-5.5-5.2-5.2c-1.7,0.2-3.3,2.4-5,6.8
	c-1.7,4.4-3.3,9.8-5,16.1c-1.7,6.4-3.2,12.9-4.6,19.6c-1.4,6.7-2.5,12.6-3.4,17.8C851.8,548.4,851.2,551.8,850.9,553.7z"/>
</svg>
