<?xml version="1.0" encoding="utf-8"?>
<!-- Generator: Adobe Illustrator 25.4.1, SVG Export Plug-In . SVG Version: 6.00 Build 0)  -->
<svg version="1.1" id="Layer_1" xmlns="http://www.w3.org/2000/svg" xmlns:xlink="http://www.w3.org/1999/xlink" x="0px" y="0px"
	 viewBox="0 0 1080 1080" style="enable-background:new 0 0 1080 1080;" xml:space="preserve">
<style type="text/css">
	.st0{clip-path:url(#SVGID_00000016068344707432977700000005248869918940832405_);}
	.st1{clip-path:url(#SVGID_00000070816408838910474050000006163065797049617585_);enable-background:new    ;}
	.st2{clip-path:url(#SVGID_00000183237052769045349980000017906198792637566385_);}
	.st3{clip-path:url(#SVGID_00000172411281638149767890000005379297416861392561_);}
	.st4{clip-path:url(#SVGID_00000133511429062953234710000013711570309736167305_);fill:#ED6F41;}
	.st5{clip-path:url(#SVGID_00000092428161451429748290000005447095910364348851_);enable-background:new    ;}
	.st6{clip-path:url(#SVGID_00000168082955882607983470000006923143012290864575_);}
	.st7{clip-path:url(#SVGID_00000173118446511417438510000003029901055458151314_);fill:#FFFFFF;}
	.st8{fill:#ED6F41;}
	.st9{fill:#DDC0B6;}
</style>
<g>
	<g>
		<g>
			<defs>
				<rect id="SVGID_1_" x="-1017.7" y="404.6" width="505.4" height="270.9"/>
			</defs>
			<clipPath id="SVGID_00000077311026624234087680000016217524898528958385_">
				<use xlink:href="#SVGID_1_"  style="overflow:visible;"/>
			</clipPath>
			<g style="clip-path:url(#SVGID_00000077311026624234087680000016217524898528958385_);">
				<g>
					<g>
						<defs>
							<path id="SVGID_00000027589227511110531800000004131852871571295872_" d="M-978.2,405.1h426.4c10.4,0,20.4,4.1,27.7,11.5
								c7.4,7.4,11.5,17.3,11.5,27.7v191.2c0,10.4-4.1,20.4-11.5,27.7c-7.3,7.3-17.3,11.5-27.7,11.5h-426.4
								c-10.4,0-20.4-4.1-27.7-11.5s-11.5-17.3-11.5-27.7V444.3c0-10.4,4.1-20.4,11.5-27.7C-998.5,409.2-988.6,405.1-978.2,405.1z"
								/>
						</defs>
						<clipPath id="SVGID_00000157998127813858985370000000999564884088432309_">
							<use xlink:href="#SVGID_00000027589227511110531800000004131852871571295872_"  style="overflow:visible;"/>
						</clipPath>
						<g style="clip-path:url(#SVGID_00000157998127813858985370000000999564884088432309_);enable-background:new    ;">
							<g>
								<g>
									<g>
										<defs>
											
												<rect id="SVGID_00000057857616705319752350000001202214603325244812_" x="-1017.7" y="404.6" width="505.4" height="270.9"/>
										</defs>
										<clipPath id="SVGID_00000047782665166248004730000014048315889754996356_">
											<use xlink:href="#SVGID_00000057857616705319752350000001202214603325244812_"  style="overflow:visible;"/>
										</clipPath>
										<g style="clip-path:url(#SVGID_00000047782665166248004730000014048315889754996356_);">
											<g>
												<g>
													<defs>
														
															<rect id="SVGID_00000155124110935262457940000016386762101389307323_" x="-1017.7" y="404.6" width="505.4" height="270.9"/>
													</defs>
													<clipPath id="SVGID_00000114042367265773183930000008864666447338984349_">
														<use xlink:href="#SVGID_00000155124110935262457940000016386762101389307323_"  style="overflow:visible;"/>
													</clipPath>
													<g style="clip-path:url(#SVGID_00000114042367265773183930000008864666447338984349_);">
														<g>
															<g>
																<defs>
																	<path id="SVGID_00000036943764039921557530000005580025367802821516_" d="M-978.2,405.1h426.4
																		c10.4,0,20.4,4.1,27.7,11.5c7.4,7.4,11.5,17.3,11.5,27.7v191.2c0,10.4-4.1,20.4-11.5,27.7
																		c-7.3,7.3-17.3,11.5-27.7,11.5h-426.4c-10.4,0-20.4-4.1-27.7-11.5s-11.5-17.3-11.5-27.7V444.3
																		c0-10.4,4.1-20.4,11.5-27.7C-998.5,409.2-988.6,405.1-978.2,405.1z"/>
																</defs>
																<clipPath id="SVGID_00000150085303815842143470000014409482189970611886_">
																	<use xlink:href="#SVGID_00000036943764039921557530000005580025367802821516_"  style="overflow:visible;"/>
																</clipPath>
																
																	<rect x="-1017.4" y="405.1" style="clip-path:url(#SVGID_00000150085303815842143470000014409482189970611886_);fill:#ED6F41;" width="504.4" height="269.6"/>
															</g>
														</g>
													</g>
												</g>
											</g>
										</g>
									</g>
								</g>
							</g>
						</g>
					</g>
				</g>
			</g>
		</g>
	</g>
</g>
<g>
	<g>
		<g>
			<defs>
				<rect id="SVGID_00000018929274553850247550000014621036874901988782_" x="-981.4" y="461.1" width="452.7" height="209.4"/>
			</defs>
			<clipPath id="SVGID_00000173874968893923748780000003189554647731564940_">
				<use xlink:href="#SVGID_00000018929274553850247550000014621036874901988782_"  style="overflow:visible;"/>
			</clipPath>
			<g style="clip-path:url(#SVGID_00000173874968893923748780000003189554647731564940_);enable-background:new    ;">
				<g>
					<g>
						<g>
							<defs>
								<rect id="SVGID_00000112613586631245836050000013200704305557397646_" x="-981.4" y="461.1" width="452.7" height="209.4"/>
							</defs>
							<clipPath id="SVGID_00000034068736775379149190000011715209921559947413_">
								<use xlink:href="#SVGID_00000112613586631245836050000013200704305557397646_"  style="overflow:visible;"/>
							</clipPath>
							<g style="clip-path:url(#SVGID_00000034068736775379149190000011715209921559947413_);">
								<g>
									<g>
										<defs>
											
												<rect id="SVGID_00000076602718866961327960000004426692528109238416_" x="-981.4" y="461.1" width="452.7" height="209.4"/>
										</defs>
										<clipPath id="SVGID_00000091719878034799127980000011191279575968242057_">
											<use xlink:href="#SVGID_00000076602718866961327960000004426692528109238416_"  style="overflow:visible;"/>
										</clipPath>
										<path style="clip-path:url(#SVGID_00000091719878034799127980000011191279575968242057_);fill:#FFFFFF;" d="M-968.5,540.4
											c0-7.7-0.2-14.4-0.7-20s-1.1-10.4-1.8-14.4c-0.8-4-1.6-7.5-2.4-10.5c-0.8-3-1.6-5.6-2.4-8c-0.8-2.4-1.4-4.8-1.8-7.2
											c-0.5-2.4-0.7-5.1-0.7-8c0-2.7,0.6-4.7,1.9-6.1c1.3-1.4,2.8-2.3,4.7-2.9c1.8-0.5,3.7-0.8,5.5-0.9c1.8,0,3.3-0.1,4.4-0.1
											h27.9c1.2,0,2.6,0,4.4,0.1c1.8,0,3.6,0.3,5.5,0.9c1.8,0.5,3.4,1.5,4.7,2.9s1.9,3.4,1.9,6.1c0,2.9-0.2,5.5-0.7,8
											c-0.5,2.4-1.1,4.8-1.8,7.2c-0.8,2.4-1.6,5.1-2.4,8c-0.8,3-1.6,6.5-2.4,10.5c-0.8,4-1.4,8.9-1.8,14.4
											c-0.5,5.6-0.7,12.2-0.7,20c0,7.7,0.2,14.4,0.7,20s1.1,10.4,1.8,14.4c0.8,4,1.6,7.5,2.4,10.5c0.8,3,1.6,5.6,2.4,8
											c0.8,2.4,1.4,4.8,1.8,7.1c0.5,2.4,0.7,5.1,0.7,8c0,2.7-0.6,4.7-1.9,6.1c-1.3,1.4-2.8,2.3-4.7,2.9
											c-1.8,0.5-3.7,0.8-5.5,0.9c-1.8,0-3.3,0.1-4.4,0.1h-27.9c-1.2,0-2.6,0-4.4-0.1c-1.8,0-3.6-0.3-5.5-0.9
											c-1.8-0.5-3.4-1.5-4.7-2.9s-1.9-3.4-1.9-6.1c0-3,0.2-5.6,0.7-8s1.1-4.8,1.8-7.1c0.8-2.4,1.6-5,2.4-8
											c0.8-3,1.6-6.5,2.4-10.5c0.8-4,1.4-8.9,1.8-14.4C-968.7,554.7-968.5,548.1-968.5,540.4z M-913.2,608.6
											c0-3.7,0.3-7.1,1-10.1c0.6-3.1,1.5-6.3,2.4-9.6c1-3.4,2-7.3,3-11.7s1.8-9.8,2.5-16.1c0.6-6.3,1-13.9,1-22.9
											c0-7.5-0.2-14-0.7-19.4s-1.1-10.1-1.8-14c-0.8-3.9-1.6-7.3-2.4-10.2c-0.8-2.9-1.6-5.5-2.4-7.8c-0.8-2.3-1.4-4.7-1.8-7
											c-0.5-2.3-0.7-4.9-0.7-7.7c0-2.6,0.6-4.6,1.9-5.9c1.3-1.3,2.8-2.3,4.7-2.8c1.8-0.5,3.7-0.8,5.5-0.9c1.8,0,3.3-0.1,4.4-0.1
											h61.6c7.4,0,14,1.5,19.7,4.5s10.2,7.2,13.5,12.6s4.9,11.7,4.9,18.9c0,3.1-0.4,6.3-1.2,9.5s-2.2,6.4-4.1,9.4
											c-1.9,3-4.4,5.7-7.6,8c-3.1,2.3-7,4.1-11.6,5.4c-1.8,0.5-2.7,1.2-2.7,2.1c0,0.6,0.7,1.2,2.2,1.8c1.4,0.6,3.3,1.5,5.5,2.4
											c2.2,1,4.6,2.3,7.2,4.1c2.6,1.8,5,4.1,7.2,6.9c2.2,2.8,4.1,6.3,5.5,10.6s2.2,9.5,2.2,15.6c0,3.8-0.5,7.7-1.6,11.7
											c-1,4.1-2.7,8-5,11.8s-5.3,7.3-9,10.4c-3.8,3.1-8.3,5.6-13.7,7.4c-5.4,1.8-11.8,2.7-19,2.7h-55.6c-1.2,0-2.5,0-4.2-0.1
											c-1.6,0-3.2-0.3-4.9-0.9c-1.6-0.5-3-1.5-4.1-2.8C-912.7,613.2-913.2,611.2-913.2,608.6z M-862.5,516.4
											c0,2.2,0.6,3.7,1.7,4.5c1.2,0.8,2.7,1.1,4.8,1.1c3.5,0,6.4-0.5,8.7-1.5c2.2-1,4-2.2,5.2-3.7c1.3-1.5,2.1-3.1,2.7-4.7
											c0.5-1.6,0.8-3,0.8-4.3c0-1.2-0.3-2.7-0.8-4.3c-0.5-1.6-1.4-3.2-2.7-4.7s-3-2.8-5.2-3.7c-2.2-1-5.1-1.5-8.7-1.5
											c-2,0-3.6,0.4-4.8,1.1c-1.2,0.8-1.7,2.3-1.7,4.5V516.4z M-862.5,579.1c0,3.1,0.6,5.2,1.7,6.2c1.2,1,2.7,1.6,4.8,1.6
											c3.5,0,6.4-0.7,8.7-2.1c2.2-1.4,4-3.1,5.2-5.2c1.3-2.1,2.1-4.3,2.7-6.5c0.5-2.2,0.8-4.2,0.8-6c0-1.7-0.3-3.7-0.8-6
											s-1.4-4.5-2.7-6.5c-1.3-2.1-3-3.8-5.2-5.2s-5.1-2.1-8.7-2.1c-2,0-3.6,0.5-4.8,1.5s-1.7,3.1-1.7,6.3c0,0.7,0,1.9,0.1,3.5
											c0,1.6,0.1,3.2,0.1,4.9c0,1.6,0.1,2.8,0.1,3.6c0,0.7,0,1.9-0.1,3.5c0,1.6-0.1,3.2-0.1,4.8
											C-862.4,577.1-862.5,578.3-862.5,579.1z M-791.8,472.1c0-2.6,0.6-4.6,1.9-5.9c1.3-1.3,2.8-2.3,4.7-2.8
											c1.8-0.5,3.7-0.8,5.5-0.9c1.8,0,3.3-0.1,4.4-0.1h27.9c1.2,0,2.6,0,4.4,0.1c1.8,0,3.6,0.3,5.5,0.9c1.8,0.5,3.4,1.5,4.7,2.8
											s1.9,3.3,1.9,5.9c0,2.8-0.2,5.4-0.7,7.7c-0.5,2.3-1.1,4.6-1.8,7c-0.8,2.3-1.6,5-2.4,7.8c-0.8,2.9-1.6,6.3-2.4,10.2
											c-0.8,3.9-1.4,8.6-1.8,14c-0.5,5.4-0.7,11.9-0.7,19.4v35c0,2.9,0.1,5.5,0.3,7.7c0.2,2.3,0.8,4,1.7,5.3s2.4,1.9,4.4,1.9
											c5.3,0,9.9-0.8,14-2.4c4.1-1.6,7.8-3.6,11-6c3.3-2.4,6.3-4.7,9-7.1c2.7-2.3,5.3-4.3,7.8-6c2.5-1.6,5-2.4,7.6-2.4
											s4.4,0.7,5.5,2s1.7,3,1.9,4.9s0.3,3.8,0.3,5.6v30.9c0,3.2-1,5.8-3,7.7c-2,2-4.6,3-7.7,3H-777c-1.2,0-2.5,0-4.2-0.1
											c-1.6,0-3.2-0.3-4.9-0.9c-1.6-0.5-3-1.5-4.1-2.8s-1.6-3.3-1.6-5.9c0-3.7,0.3-7.1,1-10.1c0.6-3.1,1.5-6.3,2.4-9.6
											c1-3.4,2-7.3,3-11.7s1.8-9.8,2.5-16.1c0.6-6.3,1-13.9,1-22.9c0-7.5-0.2-14-0.7-19.4s-1.1-10.1-1.8-14
											c-0.8-3.9-1.6-7.3-2.4-10.2c-0.8-2.9-1.6-5.5-2.4-7.8c-0.8-2.3-1.4-4.7-1.8-7C-791.6,477.5-791.8,474.9-791.8,472.1z
											 M-658.4,618.3c-2.4,0-4.6-0.2-6.7-0.5c-2.1-0.4-3.7-1.1-5-2.2c-1.3-1.1-1.9-2.6-1.9-4.7c0-2,0.3-3.7,0.9-5.1
											c0.6-1.4,1.4-2.8,2.4-4.2s2.1-2.9,3.4-4.7c1.3-1.7,2.5-3.9,3.8-6.5s2.6-5.9,3.8-9.8c1.9-6.1,3.5-11.3,4.8-15.7
											s2.4-8.3,3.4-11.6c1-3.4,1.9-6.5,2.7-9.3s1.6-5.7,2.3-8.5c0.8-2.8,1.6-6,2.5-9.4s2-7.3,3.2-11.8s2.7-9.7,4.4-15.8
											c1.2-4.2,2-7.5,2.4-9.8c0.5-2.4,0.7-4.3,0.8-5.9s0-3.1-0.1-4.7s-0.3-3.6-0.4-6.2c0-0.6,0-1.4,0.1-2.4s0.4-2.1,0.9-3.1
											c0.5-1.1,1.4-2,2.6-2.8c1.2-0.8,3-1.1,5.2-1.1h29.2c2.2,0,4.1,0,5.7,0.1c1.6,0.1,3.1,0.5,4.4,1.2c1.3,0.7,2.5,2,3.7,3.9
											s2.4,4.6,3.7,8.1s2.7,8.2,4.3,14c2,7.1,3.8,13.3,5.2,18.7c1.4,5.4,2.7,10.2,3.9,14.5s2.3,8.4,3.4,12.4
											c1.1,4,2.2,8.2,3.5,12.4c1.2,4.3,2.6,9.1,4.2,14.3c1.6,5.3,3.4,11.4,5.6,18.5c1.2,4,2.5,7.3,3.8,9.8
											c1.3,2.6,2.6,4.8,3.8,6.5c1.3,1.7,2.4,3.3,3.4,4.7s1.8,2.8,2.4,4.2c0.6,1.4,0.9,3.1,0.9,5.1s-0.6,3.6-1.9,4.7
											c-1.3,1.1-2.9,1.8-4.9,2.2s-4.3,0.5-6.7,0.5h-39.8c-1.7,0-3.3-0.2-4.9-0.7c-1.6-0.5-3-1.2-4-2.3c-1-1-1.6-2.5-1.6-4.3
											c0-2.4,0.2-4.3,0.6-5.7c0.4-1.4,0.8-2.7,1.4-4c0.5-1.3,1-2.8,1.4-4.7c0.4-1.8,0.6-4.4,0.6-7.6c0-1.8-0.1-3.7-0.3-5.7H-620
											c0.1,0.9,0.2,1.9,0.3,2.8c0.1,0.9,0.3,1.9,0.3,2.9c0.4,3.2,1,5.8,1.6,7.6s1.2,3.4,1.7,4.7s1,2.6,1.4,4s0.6,3.3,0.6,5.7
											c0,1.8-0.5,3.2-1.6,4.3c-1,1-2.4,1.8-4,2.3s-3.3,0.7-4.9,0.7L-658.4,618.3L-658.4,618.3z M-619.7,546.3h19.3
											c-0.9-3.3-1.9-6.8-2.9-10.6c-1-3.7-2.1-7.7-3.4-11.8c-0.7-2.5-1.4-4.5-2.2-6.2c-0.7-1.7-1.5-2.4-2.3-2.3
											c-0.7,0.1-1.4,1.1-2.2,3c-0.7,1.9-1.4,4.3-2.2,7c-0.7,2.8-1.4,5.6-2,8.5s-1.1,5.5-1.5,7.7
											C-619.3,544-619.6,545.5-619.7,546.3z"/>
									</g>
								</g>
							</g>
						</g>
					</g>
				</g>
			</g>
		</g>
	</g>
</g>
<path class="st8" d="M195,471.6c1,1.8,2.1,3.4,3.3,5L195,471.6z"/>
<g>
	<path class="st8" d="M285,528.9c-4.7-17-11.1-32.2-19.1-45.8c-4.9,4.4-10.7,7.8-17.1,9.8c-4.3,1.4-9,2.1-13.8,2.1
		c-15,0-28.4-7.2-36.8-18.4c0,0,0,0,0,0c-1.2-1.6-2.3-3.3-3.3-5c-3.5-6.2-5.6-13.3-5.8-20.9c-1.8,1.3-3.6,2.5-5.5,3.6
		c-9.6,5.6-20.8,8.9-32.7,8.9c-29.1,0-53.8-19.2-61.9-45.7H48.2c-2.8,0-6.5,0-10.8,0.1c-4.4,0-8.8,0.7-13.2,2
		c-4.4,1.3-8.2,3.6-11.2,6.9s-4.5,8.1-4.5,14.6c0,6.8,0.5,13.3,1.7,19.1c1.1,5.8,2.6,11.6,4.4,17.3c1.8,5.8,3.7,12.3,5.7,19.4
		c1.9,7.1,3.9,15.5,5.7,25.3s3.2,21.5,4.4,34.9c1.2,13.6,1.7,29.6,1.7,48.2c0,18.6-0.5,34.8-1.7,48.2c-1.1,13.5-2.6,25.1-4.4,34.9
		c-1.8,9.7-3.7,18.2-5.7,25.3c-1.9,7.2-3.9,13.7-5.7,19.4c-1.8,5.7-3.2,11.5-4.4,17.2C9,756,8.5,762.5,8.5,769.6
		c0,6.4,1.5,11.3,4.5,14.6c3,3.2,6.8,5.6,11.2,6.9c4.5,1.2,8.9,1.9,13.2,2c4.5,0.1,8,0.1,10.8,0.1v0.3h98.2c24.2,0,45.5-4.6,64-13.6
		s33.9-21.9,46.4-38.6c12.5-16.8,21.8-36.7,28.2-59.7s9.6-48.5,9.6-76.4C294.6,577.3,291.3,551.9,285,528.9z M190.2,647.4
		c-2.4,13.4-5.6,25.5-9.9,36c-4.3,10.6-9.4,18.9-15.1,25c-5.8,6.1-12,9.1-18.8,9.1c-2.2,0-4.3-0.4-6.7-1.3c-2.4-1-4.3-2.7-5.9-5.3
		c-1.6-2.6-2.4-6.4-2.4-11.7V510.6c0-5.2,0.8-9.1,2.4-11.5c1.6-2.7,3.5-4.4,5.9-5.3c2.4-0.9,4.7-1.3,6.7-1.3c6.8,0,13.1,3,18.8,9.1
		c5.8,6.2,10.8,14.5,15.1,25c4.2,10.5,7.5,22.6,9.9,36c2.3,13.5,3.5,27.6,3.5,42.4S192.6,634,190.2,647.4z"/>
	<path class="st8" d="M320.7,605.2c0-18.6-0.5-34.6-1.7-48.2c-1.2-13.4-2.6-25.1-4.4-34.9c-1.8-9.8-3.8-18.2-5.7-25.3
		c-2-7.1-3.9-13.6-5.7-19.4c-1.8-5.7-3.3-11.5-4.4-17.3c-1.2-5.8-1.7-12.3-1.7-19.1c0-6.5,1.5-11.3,4.5-14.6c3-3.3,6.8-5.6,11.2-6.9
		c4.4-1.3,8.8-2,13.2-2c4.3-0.1,8-0.1,10.8-0.1h67.3c2.8,0,6.3,0,10.8,0.1c4.3,0.1,8.7,0.8,13.2,2c4.4,1.3,8.2,3.7,11.2,6.9
		c3,3.3,4.5,8.2,4.5,14.6c0,7-0.5,13.3-1.7,19.1c-1.2,5.8-2.6,11.6-4.4,17.3c-1.8,5.7-3.8,12.2-5.7,19.4c-2,7.1-3.9,15.6-5.7,25.3
		c-1.8,9.8-3.3,21.4-4.4,34.9c-1.2,13.4-1.7,29.6-1.7,48.2c0,18.6,0.5,34.6,1.7,48.2c1.2,13.4,2.6,25.1,4.4,34.9
		c1.8,9.8,3.8,18.2,5.7,25.3c2,7.1,3.9,13.6,5.7,19.4c1.8,5.7,3.3,11.5,4.4,17.2c1.2,5.7,1.7,12.2,1.7,19.4c0,6.5-1.5,11.3-4.5,14.6
		s-6.8,5.6-11.2,6.9c-4.4,1.3-8.8,2-13.2,2c-4.3,0.1-8,0.1-10.8,0.1h-67.3c-2.8,0-6.3,0-10.8-0.1c-4.3-0.1-8.7-0.8-13.2-2
		c-4.4-1.3-8.2-3.7-11.2-6.9c-3-3.3-4.5-8.2-4.5-14.6c0-7.1,0.5-13.6,1.7-19.4c1.2-5.7,2.6-11.5,4.4-17.2s3.8-12.2,5.7-19.4
		c2-7.1,3.9-15.6,5.7-25.3c1.8-9.8,3.3-21.4,4.4-34.9C320.2,639.8,320.7,623.8,320.7,605.2z"/>
	<path class="st8" d="M446.6,709.1c0-12.6,2.6-23.4,7.9-32.8c5.3-9.4,11.9-16.7,20.2-21.9c8.3-5.3,16.9-8.1,26-8.2
		c7.3-0.2,14.1,1.4,20.5,4.7c6.3,3.3,12.5,7.6,18.3,13s11.6,11.2,17.2,17.3c5.7,6.1,11.3,12,17,17.5s11.5,10,17.5,13.4
		s12.3,5.3,18.9,5.3c8.5,0,14.6-2.2,18.3-6.6c3.7-4.3,5.5-9.8,5.5-16.2c0-7.3-2.5-13.4-7.5-18.5c-5.1-5.1-11.8-9.5-20.5-13.2
		c-8.6-3.8-18.3-7.3-29.1-10.9c-10.8-3.4-21.9-7.3-33.3-11.4s-22.5-9-33.3-14.8s-20.5-12.9-29.1-21.3s-15.5-18.5-20.5-30.3
		c-5.1-11.8-7.5-26-7.5-42.6c0-24.2,6-45.2,18.1-62.8c12-17.6,29.4-31.4,52.1-41.1c22.7-9.8,50.1-14.6,82.1-14.6
		c14.8,0,29.4,1.5,43.9,4.4c14.4,3,27.6,7.6,39.6,14.1c11.9,6.5,21.4,14.6,28.6,24.6c7.1,10,10.8,22.1,10.8,36.1
		c0,10.1-2.3,19.3-6.7,27.5c-4.4,8.3-10.4,15-18,20.1s-16.1,8.1-25.7,8.7c-8.2,0.5-15.8-1-23-4.5c-7.1-3.5-13.9-8.2-20.3-14
		c-6.5-5.7-12.8-11.5-19.1-17.2c-6.3-5.7-12.9-10.6-19.6-14.6s-13.8-6-21.3-6c-6.2,0-11.2,1.2-14.8,3.4c-3.7,2.3-6.2,5.1-7.7,8.4
		s-2.3,6.5-2.3,9.4c0,7.1,2.7,13.2,8,18.2c5.3,4.9,12.4,9.4,21.3,13.2c8.9,3.9,18.9,7.5,30,11.2c11.2,3.7,22.6,7.6,34.4,12
		c11.8,4.3,23.3,9.6,34.4,15.8c11.2,6.1,21.2,13.7,30,22.4c8.9,8.7,15.9,19.1,21.3,31.5c5.3,12.3,8,26.9,8,43.8
		c0,18-2.9,33.5-8.7,46.5s-13.7,24-23.7,32.9c-9.9,8.9-21,15.9-33.1,21.3c-12.2,5.3-24.8,9.1-37.9,11.4c-13,2.3-25.5,3.4-37.3,3.4
		c-13.8,0-27.6-0.9-41.7-2.6c-14.1-1.7-27.6-4.6-40.4-8.7c-12.9-4.1-24.4-9.5-34.4-16.2c-10.1-6.7-18.1-15.1-23.9-25.1
		C449.5,734.4,446.6,722.6,446.6,709.1z"/>
	<path class="st8" d="M762.8,605.2c0-18.6-0.5-34.6-1.7-48.2c-1.2-13.4-2.6-25.1-4.4-34.9c-1.8-9.8-3.8-18.2-5.7-25.3
		c-2-7.1-3.9-13.6-5.7-19.4c-1.8-5.7-3.3-11.5-4.4-17.3c-1.2-5.8-1.7-12.3-1.7-19.1c0-6.5,1.5-11.3,4.5-14.6c3-3.3,6.8-5.6,11.2-6.9
		s8.8-2,13.2-2c4.3-0.1,8-0.1,10.8-0.1h67.3c2.8,0,6.3,0,10.8,0.1c4.3,0.1,8.7,0.8,13.2,2c4.4,1.3,8.2,3.7,11.2,6.9
		c3,3.3,4.5,8.2,4.5,14.6c0,7.3-0.6,13.9-1.8,19.7c-1.2,5.8-2.8,11.8-4.7,17.9s-3.9,12.9-6,20.5c-2,7.5-4,16.6-5.7,26.9
		s-3.1,22.9-4.2,37.8h73.1c-1.1-14.8-2.5-27.3-4.2-37.8c-1.7-10.3-3.7-19.4-5.7-26.9s-4.1-14.4-6-20.5s-3.4-12-4.7-17.9
		c-1.2-5.8-1.8-12.4-1.8-19.7c0-6.5,1.5-11.3,4.5-14.6c3-3.3,6.8-5.6,11.2-6.9s8.8-2,13.2-2c4.3-0.1,8-0.1,10.8-0.1h67.3
		c2.8,0,6.3,0,10.8,0.1c4.3,0.1,8.7,0.8,13.2,2c4.4,1.3,8.2,3.7,11.2,6.9c3,3.3,4.5,8.2,4.5,14.6c0,7-0.5,13.3-1.7,19.1
		c-1.2,5.8-2.6,11.6-4.4,17.3c-1.8,5.7-3.8,12.2-5.7,19.4c-2,7.1-3.9,15.6-5.7,25.3c-1.8,9.8-3.3,21.4-4.4,34.9
		c-1.2,13.4-1.7,29.6-1.7,48.2c0,18.6,0.5,34.6,1.7,48.2c1.2,13.4,2.6,25.1,4.4,34.9c1.8,9.8,3.8,18.2,5.7,25.3
		c2,7.1,3.9,13.6,5.7,19.4c1.8,5.7,3.3,11.5,4.4,17.2c1.2,5.7,1.7,12.2,1.7,19.4c0,6.5-1.5,11.3-4.5,14.6s-6.8,5.6-11.2,6.9
		s-8.8,2-13.2,2c-4.3,0.1-8,0.1-10.8,0.1h-67.3c-2.8,0-6.3,0-10.8-0.1c-4.3-0.1-8.7-0.8-13.2-2c-4.4-1.3-8.2-3.7-11.2-6.9
		c-3-3.3-4.5-8.2-4.5-14.6c0-7.1,0.5-13.6,1.7-19.4c1.2-5.7,2.6-11.5,4.4-17.2c1.8-5.7,3.8-12.3,5.7-19.5c2-7.2,3.9-15.7,5.7-25.3
		c1.8-9.7,3.2-21.4,4.3-35.2h-72.1c1.1,13.8,2.5,25.5,4.3,35.2s3.8,18.1,5.7,25.3c2,7.2,3.9,13.7,5.7,19.5
		c1.8,5.7,3.3,11.5,4.4,17.2c1.2,5.7,1.7,12.2,1.7,19.4c0,6.5-1.5,11.3-4.5,14.6s-6.8,5.6-11.2,6.9c-4.4,1.3-8.8,2-13.2,2
		c-4.3,0.1-8,0.1-10.8,0.1h-67.3c-2.8,0-6.3,0-10.8-0.1c-4.3-0.1-8.7-0.8-13.2-2c-4.4-1.3-8.2-3.7-11.2-6.9c-3-3.3-4.5-8.2-4.5-14.6
		c0-7.1,0.5-13.6,1.7-19.4c1.2-5.7,2.6-11.5,4.4-17.2c1.8-5.7,3.8-12.2,5.7-19.4c2-7.1,3.9-15.6,5.7-25.3c1.8-9.8,3.3-21.4,4.4-34.9
		C762.3,639.8,762.8,623.8,762.8,605.2z"/>
</g>
<path class="st9" d="M198.2,476.6c-1.2-1.6-2.3-3.3-3.3-5L198.2,476.6z"/>
</svg>
