<?xml version="1.0" encoding="utf-8"?>
<!-- Generator: Adobe Illustrator 25.4.1, SVG Export Plug-In . SVG Version: 6.00 Build 0)  -->
<svg version="1.1" id="Layer_1" xmlns="http://www.w3.org/2000/svg" xmlns:xlink="http://www.w3.org/1999/xlink" x="0px" y="0px"
	 viewBox="0 0 1080 1080" style="enable-background:new 0 0 1080 1080;" xml:space="preserve">
<style type="text/css">
	.st0{clip-path:url(#SVGID_00000003096615085995980700000004553364421806384802_);enable-background:new    ;}
	.st1{clip-path:url(#SVGID_00000114776508782158805530000000320240095117791126_);}
	.st2{clip-path:url(#SVGID_00000153702306677049269770000004534181922153340851_);}
	.st3{clip-path:url(#SVGID_00000161605362925286485950000006827086302524480411_);fill:#ED7042;}
	.st4{fill:none;}
	.st5{clip-path:url(#SVGID_00000124839945201977763580000007089242510167371678_);enable-background:new    ;}
	.st6{clip-path:url(#SVGID_00000096757433846144266110000001109001650308586941_);}
	.st7{clip-path:url(#SVGID_00000124852853229443814510000015625880671018450593_);fill:#FFFFFF;}
	.st8{clip-path:url(#SVGID_00000020390126882706132040000016795186578394850447_);}
	.st9{clip-path:url(#SVGID_00000011006025074837902080000010358231418921753532_);enable-background:new    ;}
	.st10{clip-path:url(#SVGID_00000048500548062866883060000018216674676759971985_);}
	.st11{clip-path:url(#SVGID_00000026861657052169199320000010580628091106246798_);}
	.st12{clip-path:url(#SVGID_00000041983812052085675580000013883128801688862361_);fill:#ED7042;}
	.st13{clip-path:url(#SVGID_00000121246864666388397100000000261365992988556173_);}
	.st14{clip-path:url(#SVGID_00000145045968174458587570000010509568972409730966_);}
	.st15{clip-path:url(#SVGID_00000014629874212158996160000015060032169499818915_);enable-background:new    ;}
	.st16{clip-path:url(#SVGID_00000079485518127601227010000001735119300628152960_);}
	.st17{clip-path:url(#SVGID_00000007425849563890006500000016808936001253773731_);}
	.st18{clip-path:url(#SVGID_00000070099164892102250850000012552353045381746573_);}
	.st19{clip-path:url(#SVGID_00000015347892048706179850000017374976192450816913_);fill:#ED7042;}
	.st20{fill:#ED7042;}
</style>
<g>
	<g>
		<g>
			<g>
				<defs>
					<path id="SVGID_1_" d="M46.7,400.6H489c10.8,0,21.1,4.3,28.7,11.9c7.6,7.6,11.9,18,11.9,28.7v198.4c0,10.8-4.3,21.1-11.9,28.7
						c-7.6,7.6-18,11.9-28.7,11.9H46.7c-10.8,0-21.1-4.3-28.7-11.9c-7.6-7.6-11.9-18-11.9-28.7V441.2c0-10.8,4.3-21.1,11.9-28.7
						C25.5,404.9,35.9,400.6,46.7,400.6z"/>
				</defs>
				<clipPath id="SVGID_00000060710555714170357120000005291928122771655307_">
					<use xlink:href="#SVGID_1_"  style="overflow:visible;"/>
				</clipPath>
				<g style="clip-path:url(#SVGID_00000060710555714170357120000005291928122771655307_);enable-background:new    ;">
					<g>
						<g>
							<defs>
								<rect id="SVGID_00000059271451101529516300000015101155439504876965_" x="5" y="399.5" width="525.6" height="281"/>
							</defs>
							<clipPath id="SVGID_00000146500104781938104660000011869530692065966988_">
								<use xlink:href="#SVGID_00000059271451101529516300000015101155439504876965_"  style="overflow:visible;"/>
							</clipPath>
							<g style="clip-path:url(#SVGID_00000146500104781938104660000011869530692065966988_);">
								<g>
									<defs>
										<rect id="SVGID_00000145758473844017302990000002176455375630217646_" x="5" y="399.5" width="525.6" height="281"/>
									</defs>
									<clipPath id="SVGID_00000178195195189496868500000013093840871279175063_">
										<use xlink:href="#SVGID_00000145758473844017302990000002176455375630217646_"  style="overflow:visible;"/>
									</clipPath>
									<g style="clip-path:url(#SVGID_00000178195195189496868500000013093840871279175063_);">
										<g>
											<defs>
												<path id="SVGID_00000018917265997712818720000006529427069317227161_" d="M46.7,400.6H489c10.8,0,21.1,4.3,28.7,11.9
													c7.6,7.6,11.9,18,11.9,28.7v198.4c0,10.8-4.3,21.1-11.9,28.7c-7.6,7.6-18,11.9-28.7,11.9H46.7
													c-10.8,0-21.1-4.3-28.7-11.9c-7.6-7.6-11.9-18-11.9-28.7V441.2c0-10.8,4.3-21.1,11.9-28.7
													C25.5,404.9,35.9,400.6,46.7,400.6z"/>
											</defs>
											<clipPath id="SVGID_00000032637473659614373430000011789814663838673027_">
												<use xlink:href="#SVGID_00000018917265997712818720000006529427069317227161_"  style="overflow:visible;"/>
											</clipPath>
											
												<rect x="6" y="400.6" style="clip-path:url(#SVGID_00000032637473659614373430000011789814663838673027_);fill:#ED7042;" width="523.3" height="279.7"/>
										</g>
									</g>
								</g>
							</g>
						</g>
					</g>
				</g>
			</g>
		</g>
		<rect x="5" y="399.5" class="st4" width="525.6" height="281"/>
		<g>
			<g>
				<defs>
					<rect id="SVGID_00000011727013950252654800000011772904628250532773_" x="38.7" y="453.8" width="460.8" height="220.6"/>
				</defs>
				<clipPath id="SVGID_00000082359456709466894380000007891558861033490606_">
					<use xlink:href="#SVGID_00000011727013950252654800000011772904628250532773_"  style="overflow:visible;"/>
				</clipPath>
				<g style="clip-path:url(#SVGID_00000082359456709466894380000007891558861033490606_);enable-background:new    ;">
					<g>
						<g>
							<defs>
								<rect id="SVGID_00000054964073740879522950000015011079603494675072_" x="38.8" y="454.1" width="460.5" height="219.9"/>
							</defs>
							<clipPath id="SVGID_00000063599472782245765920000014180058825852088507_">
								<use xlink:href="#SVGID_00000054964073740879522950000015011079603494675072_"  style="overflow:visible;"/>
							</clipPath>
							<g style="clip-path:url(#SVGID_00000063599472782245765920000014180058825852088507_);">
								<g>
									<defs>
										<rect id="SVGID_00000037671589073055287940000011293642459109630605_" x="38.7" y="453.8" width="460.8" height="220.6"/>
									</defs>
									<clipPath id="SVGID_00000129910278110368425930000013812913733478373251_">
										<use xlink:href="#SVGID_00000037671589073055287940000011293642459109630605_"  style="overflow:visible;"/>
									</clipPath>
									<path style="clip-path:url(#SVGID_00000129910278110368425930000013812913733478373251_);fill:#FFFFFF;" d="M58.7,620.4
										c-1.2,0-2.8,0-4.6,0c-1.9,0-3.8-0.3-5.6-0.9c-1.9-0.5-3.5-1.6-4.8-3c-1.3-1.4-2-3.5-2-6.3c0-3,0.2-5.8,0.7-8.3
										c0.5-2.5,1.1-5,1.9-7.4c0.8-2.5,1.6-5.3,2.5-8.3c0.8-3,1.7-6.7,2.5-10.9c0.8-4.2,1.4-9.2,1.9-15c0.5-5.8,0.7-12.7,0.7-20.7
										s-0.2-14.9-0.7-20.7c-0.5-5.8-1.1-10.8-1.9-15s-1.6-7.8-2.5-10.9c-0.9-3-1.7-5.8-2.5-8.3c-0.8-2.5-1.4-5-1.9-7.5
										c-0.5-2.5-0.7-5.3-0.7-8.3c0-2.8,0.6-4.9,2-6.3c1.3-1.4,2.9-2.4,4.8-3c1.9-0.5,3.8-0.8,5.6-0.9c1.9,0,3.4,0,4.6,0h42.2
										c10.4,0,19.5,2,27.5,5.8c7.9,3.9,14.6,9.4,19.9,16.6c5.4,7.2,9.4,15.7,12.1,25.5c2.8,9.9,4.1,20.8,4.1,32.8
										c0,12-1.4,22.9-4.1,32.8c-2.8,9.9-6.8,18.5-12.1,25.6c-5.4,7.2-12,12.7-19.9,16.6c-8,3.9-17.1,5.8-27.5,5.8L58.7,620.4
										L58.7,620.4z M94.5,498.9v81c0,2.3,0.3,3.9,1,5.1c0.7,1.1,1.5,1.9,2.5,2.3c1,0.4,2,0.5,2.8,0.5c2.9,0,5.6-1.3,8.1-3.9
										c2.5-2.6,4.6-6.2,6.4-10.7c1.8-4.5,3.2-9.7,4.3-15.5s1.5-11.9,1.5-18.2c0-6.3-0.5-12.4-1.5-18.2c-1-5.8-2.5-11-4.3-15.5
										s-4-8.1-6.4-10.7s-5.2-3.9-8.1-3.9c-0.9,0-1.9,0.2-2.8,0.5c-1,0.4-1.9,1.1-2.5,2.3C94.8,495,94.5,496.7,94.5,498.9z
										 M175.9,539.5c0-8-0.2-14.9-0.7-20.7c-0.5-5.8-1.1-10.8-1.9-15s-1.6-7.8-2.5-10.9c-0.9-3-1.7-5.8-2.5-8.3
										c-0.8-2.5-1.4-5-1.9-7.5c-0.5-2.5-0.7-5.3-0.7-8.3c0-2.8,0.6-4.9,2-6.3c1.3-1.4,2.9-2.4,4.8-3c1.9-0.5,3.8-0.8,5.6-0.9
										c1.9,0,3.4,0,4.6,0h29c1.2,0,2.8,0,4.6,0c1.9,0,3.8,0.3,5.6,0.9c1.9,0.5,3.5,1.6,4.8,3c1.3,1.4,2,3.5,2,6.3
										c0,3-0.2,5.7-0.7,8.3c-0.5,2.5-1.1,5-1.9,7.5c-0.8,2.5-1.6,5.3-2.5,8.3c-0.9,3-1.7,6.7-2.5,10.9c-0.8,4.2-1.4,9.2-1.9,15
										c-0.5,5.8-0.7,12.7-0.7,20.7s0.2,14.9,0.7,20.7c0.5,5.8,1.1,10.8,1.9,15s1.6,7.8,2.5,10.9c0.8,3,1.7,5.8,2.5,8.3
										s1.4,5,1.9,7.4c0.5,2.5,0.7,5.3,0.7,8.3c0,2.8-0.6,4.9-2,6.3s-2.9,2.4-4.8,3c-1.9,0.5-3.8,0.9-5.6,0.9c-1.9,0-3.4,0-4.6,0
										h-29c-1.2,0-2.8,0-4.6,0s-3.8-0.3-5.6-0.9c-1.9-0.5-3.5-1.6-4.8-3c-1.3-1.4-2-3.5-2-6.3c0-3,0.2-5.8,0.7-8.3
										c0.5-2.5,1.1-5,1.9-7.4s1.6-5.3,2.5-8.3c0.8-3,1.7-6.7,2.5-10.9c0.8-4.2,1.4-9.2,1.9-15
										C175.6,554.5,175.9,547.5,175.9,539.5z M230,584.2c0-5.4,1.1-10.1,3.4-14.1c2.3-4,5.2-7.1,8.7-9.4
										c3.5-2.3,7.3-3.4,11.2-3.5c3.1,0,6.1,0.6,8.8,2c2.8,1.4,5.4,3.3,7.9,5.6c2.5,2.3,5,4.8,7.4,7.5c2.4,2.7,4.9,5.2,7.3,7.5
										c2.4,2.4,5,4.3,7.5,5.8c2.6,1.5,5.3,2.3,8.2,2.3c3.7,0,6.3-0.9,7.9-2.8s2.4-4.2,2.4-7c0-3.1-1.1-5.8-3.2-8
										c-2.2-2.2-5.1-4.1-8.8-5.6c-3.7-1.6-7.9-3.1-12.5-4.7c-4.6-1.5-9.4-3.1-14.3-4.9c-4.9-1.8-9.7-3.9-14.3-6.4
										c-4.6-2.5-8.8-5.6-12.5-9.1c-3.7-3.6-6.6-7.9-8.8-13c-2.2-5.1-3.2-11.2-3.2-18.3c0-10.4,2.6-19.4,7.8-27
										c5.2-7.6,12.6-13.5,22.4-17.7c9.8-4.2,21.5-6.3,35.3-6.3c6.3,0,12.6,0.6,18.9,1.9c6.2,1.3,11.9,3.3,17,6
										c5.1,2.8,9.2,6.3,12.3,10.6s4.6,9.5,4.6,15.6c0,4.3-0.9,8.3-2.8,11.8c-1.9,3.5-4.5,6.4-7.8,8.6c-3.2,2.2-6.9,3.4-11.1,3.8
										c-3.5,0.2-6.8-0.4-9.9-2c-3-1.5-6-3.5-8.7-6c-2.8-2.5-5.5-5-8.3-7.4c-2.8-2.5-5.6-4.6-8.4-6.3c-2.9-1.7-5.9-2.6-9.1-2.6
										c-2.7,0-4.8,0.5-6.4,1.5c-1.6,1-2.7,2.2-3.3,3.6c-0.6,1.4-0.9,2.8-0.9,4c0,3,1.1,5.6,3.4,7.8c2.3,2.1,5.4,4,9.1,5.6
										c3.8,1.7,8.1,3.2,12.9,4.8c4.8,1.6,9.7,3.3,14.8,5.2c5.1,1.9,10,4.1,14.8,6.8c4.8,2.7,9.1,5.8,12.9,9.6s6.9,8.3,9.1,13.5
										c2.3,5.3,3.4,11.5,3.4,18.8c0,7.7-1.3,14.4-3.8,20c-2.5,5.6-5.9,10.3-10.2,14.1c-4.3,3.8-9,6.9-14.2,9.1
										c-5.3,2.3-10.7,3.9-16.3,4.9c-5.6,1-11,1.5-16.1,1.5c-5.9,0-11.9-0.4-18-1.1c-6-0.7-11.9-2-17.4-3.8
										c-5.6-1.8-10.5-4.1-14.8-7c-4.3-2.9-7.8-6.5-10.3-10.8C231.2,595.1,230,590.1,230,584.2z M365.9,539.5
										c0-8-0.2-14.9-0.7-20.7s-1.1-10.8-1.9-15c-0.8-4.2-1.6-7.8-2.5-10.9c-0.9-3-1.7-5.8-2.5-8.3c-0.8-2.5-1.4-5-1.9-7.5
										c-0.5-2.5-0.7-5.3-0.7-8.3c0-2.8,0.6-4.9,2-6.3c1.3-1.4,2.9-2.4,4.8-3c1.9-0.5,3.8-0.8,5.6-0.9c1.9,0,3.4,0,4.6,0h29
										c1.2,0,2.8,0,4.6,0c1.9,0,3.8,0.3,5.6,0.9c1.9,0.5,3.5,1.6,4.8,3c1.3,1.4,2,3.5,2,6.3c0,3.1-0.2,6-0.8,8.5
										c-0.5,2.5-1.2,5.1-2,7.7c-0.8,2.6-1.7,5.6-2.6,8.8c-0.9,3.2-1.7,7.1-2.5,11.5c-0.7,4.5-1.3,9.9-1.8,16.2h31.4
										c-0.4-6.3-1-11.8-1.8-16.2c-0.7-4.5-1.6-8.3-2.5-11.5c-0.9-3.2-1.8-6.2-2.6-8.8s-1.5-5.2-2-7.7c-0.5-2.5-0.8-5.4-0.8-8.5
										c0-2.8,0.6-4.9,2-6.3c1.3-1.4,2.9-2.4,4.8-3c1.9-0.5,3.8-0.8,5.6-0.9c1.9,0,3.4,0,4.6,0h29c1.2,0,2.8,0,4.6,0
										c1.9,0,3.8,0.3,5.6,0.9c1.9,0.5,3.5,1.6,4.8,3c1.3,1.4,2,3.5,2,6.3c0,3-0.2,5.7-0.7,8.3s-1.1,5-1.9,7.5
										c-0.8,2.5-1.6,5.3-2.5,8.3c-0.9,3-1.7,6.7-2.5,10.9c-0.8,4.2-1.4,9.2-1.9,15s-0.7,12.7-0.7,20.7s0.2,14.9,0.7,20.7
										s1.1,10.8,1.9,15c0.8,4.2,1.6,7.8,2.5,10.9c0.9,3,1.7,5.8,2.5,8.3s1.4,5,1.9,7.4c0.5,2.5,0.7,5.3,0.7,8.3
										c0,2.8-0.6,4.9-2,6.3c-1.3,1.4-2.9,2.4-4.8,3c-1.9,0.5-3.8,0.9-5.6,0.9c-1.9,0-3.4,0-4.6,0h-29c-1.2,0-2.8,0-4.6,0
										c-1.9,0-3.8-0.3-5.6-0.9c-1.9-0.5-3.5-1.6-4.8-3c-1.3-1.4-2-3.5-2-6.3c0-3,0.2-5.8,0.7-8.3c0.5-2.5,1.1-5,1.9-7.4
										s1.6-5.3,2.5-8.4c0.9-3.1,1.7-6.7,2.5-10.9c0.8-4.2,1.4-9.2,1.9-15.1h-31c0.4,5.9,1.1,11,1.9,15.1
										c0.8,4.2,1.6,7.8,2.5,10.9c0.8,3.1,1.7,5.9,2.5,8.4s1.4,5,1.9,7.4c0.5,2.5,0.7,5.3,0.7,8.3c0,2.8-0.6,4.9-2,6.3
										c-1.3,1.4-2.9,2.4-4.8,3c-1.9,0.5-3.8,0.9-5.6,0.9c-1.9,0-3.4,0-4.6,0h-29c-1.2,0-2.8,0-4.6,0s-3.8-0.3-5.6-0.9
										c-1.9-0.5-3.5-1.6-4.8-3c-1.3-1.4-2-3.5-2-6.3c0-3,0.2-5.8,0.7-8.3c0.5-2.5,1.1-5,1.9-7.4c0.8-2.5,1.6-5.3,2.5-8.3
										c0.8-3,1.7-6.7,2.5-10.9c0.8-4.2,1.4-9.2,1.9-15C365.7,554.5,365.9,547.5,365.9,539.5z"/>
								</g>
							</g>
						</g>
					</g>
				</g>
			</g>
		</g>
		<g>
			<g>
				<defs>
					<rect id="SVGID_00000103948326748341794340000016359524480606390171_" x="75.3" y="422.9" width="55.9" height="55.9"/>
				</defs>
				<clipPath id="SVGID_00000182523163595620732120000009453606316921068730_">
					<use xlink:href="#SVGID_00000103948326748341794340000016359524480606390171_"  style="overflow:visible;"/>
				</clipPath>
				<g style="clip-path:url(#SVGID_00000182523163595620732120000009453606316921068730_);">
					<g>
						<defs>
							<circle id="SVGID_00000003786836888144536390000015337699989565186478_" cx="103" cy="450.8" r="27.7"/>
						</defs>
						<clipPath id="SVGID_00000149353880372887664000000011292624392664849299_">
							<use xlink:href="#SVGID_00000003786836888144536390000015337699989565186478_"  style="overflow:visible;"/>
						</clipPath>
						<g style="clip-path:url(#SVGID_00000149353880372887664000000011292624392664849299_);enable-background:new    ;">
							<g>
								<g>
									<defs>
										<rect id="SVGID_00000181770635299666829120000005508388317581113742_" x="75.3" y="422.9" width="55.9" height="55.9"/>
									</defs>
									<clipPath id="SVGID_00000052095992928712055020000017536570488054673818_">
										<use xlink:href="#SVGID_00000181770635299666829120000005508388317581113742_"  style="overflow:visible;"/>
									</clipPath>
									<g style="clip-path:url(#SVGID_00000052095992928712055020000017536570488054673818_);">
										<g>
											<defs>
												<rect id="SVGID_00000083810284075991364850000014289799541320530049_" x="75.3" y="422.9" width="55.9" height="55.9"/>
											</defs>
											<clipPath id="SVGID_00000113328271953605676280000004976449835597566120_">
												<use xlink:href="#SVGID_00000083810284075991364850000014289799541320530049_"  style="overflow:visible;"/>
											</clipPath>
											<g style="clip-path:url(#SVGID_00000113328271953605676280000004976449835597566120_);">
												<g>
													<defs>
														<circle id="SVGID_00000134210931550584483420000007319952015339221426_" cx="103" cy="450.8" r="27.7"/>
													</defs>
													<clipPath id="SVGID_00000005225102293293055200000003194947776157754533_">
														<use xlink:href="#SVGID_00000134210931550584483420000007319952015339221426_"  style="overflow:visible;"/>
													</clipPath>
													
														<rect x="75.3" y="423.1" style="clip-path:url(#SVGID_00000005225102293293055200000003194947776157754533_);fill:#ED7042;" width="55.5" height="55.5"/>
												</g>
											</g>
										</g>
									</g>
								</g>
							</g>
						</g>
					</g>
				</g>
			</g>
		</g>
		<g>
			<g>
				<defs>
					<rect id="SVGID_00000110462266918627135010000013359032079093110153_" x="115.6" y="448.9" width="45.5" height="45.5"/>
				</defs>
				<clipPath id="SVGID_00000114059477721696095190000012760729916840392585_">
					<use xlink:href="#SVGID_00000110462266918627135010000013359032079093110153_"  style="overflow:visible;"/>
				</clipPath>
				<g style="clip-path:url(#SVGID_00000114059477721696095190000012760729916840392585_);">
					<g>
						<defs>
							<path id="SVGID_00000025410687347468329610000009910638168857915050_" d="M127.9,455.9c-9,5.9-11.6,17.9-5.7,27
								c5.9,9,17.9,11.6,27,5.7c9-5.9,11.6-18,5.7-27C149,452.5,136.9,450,127.9,455.9z"/>
						</defs>
						<clipPath id="SVGID_00000083787701243299854270000002823992597275287715_">
							<use xlink:href="#SVGID_00000025410687347468329610000009910638168857915050_"  style="overflow:visible;"/>
						</clipPath>
						<g style="clip-path:url(#SVGID_00000083787701243299854270000002823992597275287715_);">
							<g>
								<defs>
									
										<rect id="SVGID_00000112615720116273079560000006756924852663858829_" x="119.1" y="452.7" transform="matrix(0.8378 -0.5459 0.5459 0.8378 -235.3378 152.2241)" width="39" height="39"/>
								</defs>
								<clipPath id="SVGID_00000091703487164745225850000000567125671815746458_">
									<use xlink:href="#SVGID_00000112615720116273079560000006756924852663858829_"  style="overflow:visible;"/>
								</clipPath>
								<g style="clip-path:url(#SVGID_00000091703487164745225850000000567125671815746458_);enable-background:new    ;">
									<g>
										<g>
											<defs>
												
													<rect id="SVGID_00000012456839488018510960000011343590714332462269_" x="115.6" y="448.9" width="45.5" height="45.5"/>
											</defs>
											<clipPath id="SVGID_00000121268506838194580130000007617558128045609121_">
												<use xlink:href="#SVGID_00000012456839488018510960000011343590714332462269_"  style="overflow:visible;"/>
											</clipPath>
											<g style="clip-path:url(#SVGID_00000121268506838194580130000007617558128045609121_);">
												<g>
													<defs>
														
															<rect id="SVGID_00000100367941927054325050000002018822252900217526_" x="115.6" y="448.9" width="45.5" height="45.5"/>
													</defs>
													<clipPath id="SVGID_00000012466864514737633880000002682290833458142125_">
														<use xlink:href="#SVGID_00000100367941927054325050000002018822252900217526_"  style="overflow:visible;"/>
													</clipPath>
													<g style="clip-path:url(#SVGID_00000012466864514737633880000002682290833458142125_);">
														<g>
															<defs>
																<path id="SVGID_00000178181227183264699790000004768166752099131776_" d="M127.9,455.9c-9,5.9-11.6,17.9-5.7,27
																	c5.9,9,17.9,11.6,27,5.7c9-5.9,11.6-18,5.7-27C149,452.5,136.9,450,127.9,455.9z"/>
															</defs>
															<clipPath id="SVGID_00000134967268509497451180000002434695810541563781_">
																<use xlink:href="#SVGID_00000178181227183264699790000004768166752099131776_"  style="overflow:visible;"/>
															</clipPath>
															<g style="clip-path:url(#SVGID_00000134967268509497451180000002434695810541563781_);">
																<g>
																	<defs>
																		
																			<rect id="SVGID_00000160161482720589127020000011344752333092788895_" x="119.1" y="452.7" transform="matrix(0.4039 -0.9148 0.9148 0.4039 -349.4041 408.2425)" width="39" height="39"/>
																	</defs>
																	<clipPath id="SVGID_00000013905223652002643150000015689337525905329586_">
																		<use xlink:href="#SVGID_00000160161482720589127020000011344752333092788895_"  style="overflow:visible;"/>
																	</clipPath>
																	
																		<rect x="119.1" y="452.7" transform="matrix(0.8378 -0.5459 0.5459 0.8378 -235.3378 152.2241)" style="clip-path:url(#SVGID_00000013905223652002643150000015689337525905329586_);fill:#ED7042;" width="39" height="39"/>
																</g>
															</g>
														</g>
													</g>
												</g>
											</g>
										</g>
									</g>
								</g>
							</g>
						</g>
					</g>
				</g>
			</g>
		</g>
		<rect x="38.8" y="422.9" class="st4" width="460.5" height="251.1"/>
		<rect x="38.8" y="422.9" class="st4" width="460.5" height="251.1"/>
	</g>
	<path class="st20" d="M581.6,539.2c0-8.7-0.2-16.3-0.8-22.6c-0.5-6.3-1.2-11.8-2.1-16.3c-0.8-4.6-1.8-8.5-2.7-11.9
		c-0.9-3.3-1.8-6.4-2.7-9.1c-0.8-2.7-1.5-5.4-2.1-8.1s-0.8-5.7-0.8-9c0-3,0.7-5.3,2.1-6.8s3.2-2.6,5.3-3.3c2.1-0.6,4.1-0.9,6.2-1
		c2,0,3.7,0,5,0h31.6c1.3,0,3,0,5,0c2,0,4.1,0.3,6.2,1c2.1,0.6,3.8,1.7,5.3,3.3c1.4,1.5,2.1,3.8,2.1,6.8c0,3.3-0.2,6.3-0.8,9
		c-0.5,2.8-1.2,5.5-2.1,8.1c-0.8,2.7-1.8,5.7-2.7,9.1c-0.9,3.3-1.8,7.3-2.7,11.9c-0.8,4.6-1.5,10-2.1,16.3
		c-0.5,6.3-0.8,13.8-0.8,22.6c0,8.7,0.2,16.3,0.8,22.6s1.2,11.8,2.1,16.3s1.8,8.5,2.7,11.9c0.9,3.3,1.8,6.4,2.7,9.1
		c0.8,2.7,1.5,5.4,2.1,8.1s0.8,5.7,0.8,9.1c0,3-0.7,5.3-2.1,6.8c-1.4,1.5-3.2,2.6-5.3,3.3c-2.1,0.6-4.1,0.9-6.2,1c-2,0-3.7,0-5,0
		H589c-1.3,0-3,0-5,0c-2,0-4.1-0.3-6.2-1c-2.1-0.6-3.8-1.7-5.3-3.3c-1.4-1.5-2.1-3.8-2.1-6.8c0-3.3,0.2-6.4,0.8-9.1s1.2-5.4,2.1-8.1
		s1.8-5.7,2.7-9.1c0.9-3.3,1.8-7.3,2.7-11.9c0.8-4.6,1.5-10,2.1-16.3C581.3,555.5,581.6,548,581.6,539.2z M644.1,616.4
		c0-4.1,0.3-8,1.1-11.4c0.7-3.4,1.7-7.1,2.8-10.9c1.1-3.8,2.2-8.2,3.3-13.2c1.1-5,2.1-11.1,2.8-18.2c0.7-7.1,1.1-15.8,1.1-26
		c0-8.5-0.2-15.8-0.8-22c-0.5-6.2-1.2-11.4-2.1-15.9c-0.8-4.4-1.8-8.2-2.7-11.5c-0.9-3.3-1.8-6.2-2.7-8.9c-0.8-2.7-1.5-5.3-2.1-7.9
		c-0.5-2.6-0.8-5.5-0.8-8.7c0-3,0.7-5.2,2.1-6.6c1.4-1.5,3.2-2.6,5.3-3.2c2.1-0.6,4.1-0.9,6.2-1c2,0,3.7,0,5,0h69.6
		c8.4,0,15.9,1.7,22.3,5.1c6.5,3.4,11.6,8.1,15.3,14.2c3.7,6.1,5.6,13.2,5.6,21.4c0,3.5-0.5,7.1-1.4,10.8c-0.9,3.7-2.5,7.2-4.6,10.6
		c-2.2,3.4-5,6.4-8.6,9.1s-7.9,4.7-13.1,6.1c-2,0.6-3.1,1.3-3.1,2.3c0,0.6,0.8,1.3,2.5,2.1c1.6,0.7,3.7,1.7,6.3,2.8
		c2.5,1.1,5.2,2.7,8.1,4.6c2.9,2,5.6,4.6,8.1,7.8c2.5,3.2,4.6,7.2,6.3,12c1.6,4.8,2.5,10.7,2.5,17.6c0,4.2-0.6,8.7-1.8,13.3
		c-1.2,4.6-3.1,9.1-5.6,13.4s-6,8.2-10.2,11.7c-4.2,3.5-9.4,6.3-15.5,8.3c-6.1,2-13.3,3.1-21.5,3.1h-62.9c-1.3,0-2.9,0-4.7,0
		c-1.8,0-3.7-0.3-5.5-1c-1.8-0.6-3.3-1.7-4.6-3.2C644.7,621.6,644.1,619.4,644.1,616.4z M701.4,512.2c0,2.5,0.6,4.2,2,5.1
		c1.3,0.8,3.1,1.3,5.4,1.3c4,0,7.2-0.5,9.8-1.7c2.5-1.1,4.5-2.5,5.9-4.2c1.4-1.7,2.4-3.4,3-5.3c0.6-1.8,0.8-3.4,0.8-4.9
		c0-1.4-0.3-3-0.8-4.8c-0.6-1.8-1.6-3.6-3-5.3s-3.4-3.1-5.9-4.2c-2.5-1.1-5.8-1.7-9.8-1.7c-2.3,0-4.1,0.4-5.4,1.3
		c-1.3,0.8-2,2.6-2,5.1V512.2z M701.4,583c0,3.5,0.6,5.9,2,7c1.3,1.2,3.1,1.8,5.4,1.8c4,0,7.2-0.8,9.8-2.3c2.5-1.5,4.5-3.5,5.9-5.9
		c1.4-2.4,2.4-4.8,3-7.3s0.8-4.8,0.8-6.7c0-2-0.3-4.2-0.8-6.8c-0.6-2.6-1.6-5-3-7.4s-3.4-4.3-5.9-5.9c-2.5-1.5-5.8-2.3-9.8-2.3
		c-2.3,0-4.1,0.6-5.4,1.7c-1.3,1.1-2,3.5-2,7.1c0,0.8,0,2.1,0,4c0,1.8,0.1,3.7,0.1,5.5c0,1.8,0,3.2,0,4.1c0,0.8,0,2.1,0,4
		c0,1.8-0.1,3.6-0.1,5.5C701.4,580.8,701.4,582.1,701.4,583z M781.3,462.1c0-3,0.7-5.2,2.1-6.6c1.4-1.5,3.2-2.6,5.3-3.2
		c2.1-0.6,4.1-0.9,6.2-1c2,0,3.7,0,5,0h31.6c1.3,0,3,0,5,0c2,0,4.1,0.3,6.2,1c2.1,0.6,3.8,1.7,5.3,3.2s2.1,3.7,2.1,6.6
		c0,3.2-0.2,6.1-0.8,8.7c-0.5,2.6-1.2,5.2-2.1,7.9c-0.8,2.7-1.8,5.6-2.7,8.9c-0.9,3.3-1.8,7.1-2.7,11.5c-0.8,4.4-1.5,9.7-2.1,15.9
		c-0.5,6.2-0.8,13.5-0.8,22v39.5c0,3.3,0.1,6.2,0.3,8.8c0.2,2.6,0.9,4.6,1.9,6s2.7,2.1,5,2.1c6,0,11.2-0.9,15.9-2.8
		c4.6-1.8,8.8-4.1,12.5-6.8c3.7-2.7,7.1-5.4,10.1-8s6-4.9,8.8-6.7c2.8-1.9,5.7-2.8,8.6-2.8c3,0,5,0.7,6.3,2.3
		c1.2,1.5,1.9,3.3,2.1,5.5c0.2,2.2,0.3,4.3,0.3,6.3v35c0,3.6-1.1,6.5-3.3,8.8c-2.3,2.3-5.2,3.3-8.8,3.3H798c-1.3,0-2.9,0-4.7,0
		c-1.8,0-3.7-0.3-5.5-1c-1.8-0.6-3.3-1.7-4.6-3.2c-1.2-1.5-1.8-3.7-1.8-6.6c0-4.1,0.3-8,1.1-11.4c0.7-3.4,1.7-7.1,2.8-10.9
		c1.1-3.8,2.2-8.2,3.3-13.2c1.1-5,2.1-11.1,2.8-18.2c0.7-7.1,1.1-15.8,1.1-26c0-8.5-0.2-15.8-0.8-22c-0.5-6.2-1.2-11.4-2.1-15.9
		c-0.8-4.4-1.8-8.2-2.7-11.5c-0.9-3.3-1.8-6.2-2.7-8.9c-0.8-2.7-1.5-5.3-2.1-7.9C781.6,468.1,781.3,465.2,781.3,462.1z M932.1,627.3
		c-2.7,0-5.2-0.2-7.5-0.6s-4.2-1.2-5.6-2.5c-1.4-1.2-2.1-3-2.1-5.3c0-2.3,0.3-4.2,1-5.8c0.6-1.6,1.5-3.2,2.7-4.7
		c1.1-1.5,2.4-3.3,3.8-5.3c1.4-2,2.9-4.4,4.3-7.3c1.5-3,2.9-6.6,4.3-11.1c2.1-6.8,3.9-12.8,5.4-17.7c1.5-5,2.8-9.4,3.8-13.1
		s2.1-7.3,3-10.5c0.9-3.2,1.8-6.5,2.6-9.7s1.8-6.7,2.9-10.6c1.1-3.8,2.3-8.3,3.6-13.3c1.3-5.1,3-11,5-17.9c1.3-4.7,2.2-8.4,2.8-11.1
		s0.8-4.9,0.9-6.6c0.1-1.8,0-3.5-0.1-5.3c-0.1-1.8-0.3-4.1-0.5-7c0-0.6,0-1.5,0.1-2.7c0.1-1.1,0.4-2.3,1-3.5s1.5-2.3,3-3.1
		c1.4-0.8,3.3-1.3,5.9-1.3h33c2.5,0,4.6,0,6.4,0.1c1.8,0.1,3.5,0.5,5,1.3c1.5,0.8,2.9,2.3,4.2,4.4c1.3,2.1,2.7,5.2,4.1,9.2
		c1.4,4,3.1,9.3,4.8,15.8c2.3,8,4.2,15,5.9,21.1c1.6,6.1,3.1,11.5,4.4,16.4c1.3,4.9,2.6,9.6,3.8,14.1s2.5,9.2,3.9,14.1
		c1.4,4.9,3,10.2,4.7,16.2c1.8,6,3.8,12.9,6.3,20.9c1.4,4.5,2.8,8.2,4.3,11.1s2.9,5.4,4.3,7.3s2.7,3.7,3.8,5.3
		c1.1,1.5,2,3.1,2.7,4.7c0.6,1.6,1,3.5,1,5.8c0,2.3-0.7,4-2.1,5.3c-1.4,1.2-3.3,2-5.6,2.5c-2.3,0.4-4.8,0.6-7.6,0.6h-45
		c-1.9,0-3.7-0.2-5.6-0.8c-1.8-0.5-3.3-1.4-4.5-2.6s-1.8-2.8-1.8-4.8c0-2.7,0.2-4.8,0.7-6.4c0.4-1.6,0.9-3.1,1.5-4.5
		c0.6-1.4,1.1-3.2,1.5-5.3c0.4-2.1,0.7-5,0.7-8.6c0-2-0.1-4.2-0.3-6.5h-31.3c0.1,1.1,0.2,2.1,0.3,3.2s0.3,2.2,0.3,3.3
		c0.5,3.7,1.1,6.5,1.8,8.6c0.7,2.1,1.3,3.8,2,5.3c0.6,1.4,1.1,3,1.6,4.5c0.4,1.6,0.7,3.7,0.7,6.4c0,2-0.6,3.6-1.8,4.8
		c-1.2,1.2-2.7,2-4.5,2.6c-1.8,0.5-3.7,0.8-5.6,0.8L932.1,627.3L932.1,627.3z M975.8,546h21.8c-1.1-3.7-2.2-7.7-3.3-11.9
		c-1.1-4.2-2.4-8.7-3.8-13.4c-0.8-2.8-1.6-5.1-2.5-7c-0.8-1.9-1.7-2.7-2.6-2.6c-0.8,0.1-1.6,1.2-2.5,3.3s-1.6,4.8-2.5,7.9
		c-0.8,3.2-1.6,6.4-2.3,9.7s-1.2,6.2-1.7,8.8C976.3,543.4,976,545.1,975.8,546z"/>
</g>
</svg>
