<?xml version="1.0" encoding="utf-8"?>
<!-- Generator: Adobe Illustrator 25.4.1, SVG Export Plug-In . SVG Version: 6.00 Build 0)  -->
<svg version="1.1" id="Layer_1" xmlns="http://www.w3.org/2000/svg" xmlns:xlink="http://www.w3.org/1999/xlink" x="0px" y="0px"
	 viewBox="0 0 1080 1080" style="enable-background:new 0 0 1080 1080;" xml:space="preserve">
<style type="text/css">
	.st0{fill:#ED6F41;}
	.st1{fill:#DDC0B6;}
	.st2{clip-path:url(#SVGID_00000025410308842926137730000003315647992238097578_);enable-background:new    ;}
	.st3{clip-path:url(#SVGID_00000093178174802826159150000014347035021363508390_);}
	.st4{clip-path:url(#SVGID_00000044886002221334193840000004678738869669070256_);}
	.st5{clip-path:url(#SVGID_00000103970939089157293410000011513944876096148104_);fill:#EC6F41;}
	.st6{fill:none;}
	.st7{fill:#EC6F41;}
	.st8{clip-path:url(#SVGID_00000067955957488217898160000016937169250422183861_);enable-background:new    ;}
	.st9{clip-path:url(#SVGID_00000181053857700270579770000013239101010666335405_);}
	.st10{clip-path:url(#SVGID_00000136382867235209452080000003804617262608645811_);fill:#FFFFFF;}
	.st11{clip-path:url(#SVGID_00000122709082087317490020000007067866141519361198_);}
	.st12{clip-path:url(#SVGID_00000007396666213700092790000012019978247334478518_);enable-background:new    ;}
	.st13{clip-path:url(#SVGID_00000175282208691652404510000003067816953380079009_);}
	.st14{clip-path:url(#SVGID_00000029044321530083156000000017222001935499793304_);}
	.st15{clip-path:url(#SVGID_00000145763288056418355380000013679472261324787120_);fill:#EC6F41;}
	.st16{clip-path:url(#SVGID_00000031888636873486649480000009536057950196646837_);}
	.st17{clip-path:url(#SVGID_00000016789215808051341860000009341746679675041712_);}
	.st18{clip-path:url(#SVGID_00000029017540084299325880000011444403558174686388_);enable-background:new    ;}
	.st19{clip-path:url(#SVGID_00000155844420175946740610000016996135995185132939_);}
	.st20{clip-path:url(#SVGID_00000117643280137978940950000001688798413054803840_);}
	.st21{clip-path:url(#SVGID_00000038386941354278598050000007870171831063692175_);}
	.st22{clip-path:url(#SVGID_00000168814942435193994670000008063890629288014508_);fill:#EC6F41;}
</style>
<path class="st0" d="M391.4,337.1c2.1,3.7,4.4,7.1,6.9,10.4L391.4,337.1z"/>
<g>
	<path class="st0" d="M285,1397c-4.7-17-11.1-32.2-19.1-45.8c-4.9,4.4-10.7,7.8-17.1,9.8c-4.3,1.4-9,2.1-13.8,2.1
		c-15,0-28.4-7.2-36.8-18.4l0,0c-1.2-1.6-2.3-3.3-3.3-5c-3.5-6.2-5.6-13.3-5.8-20.9c-1.8,1.3-3.6,2.5-5.5,3.6
		c-9.6,5.6-20.8,8.9-32.7,8.9c-29.1,0-53.8-19.2-61.9-45.7H48.2c-2.8,0-6.5,0-10.8,0.1c-4.4,0-8.8,0.7-13.2,2
		c-4.4,1.3-8.2,3.6-11.2,6.9c-3,3.3-4.5,8.1-4.5,14.6c0,6.8,0.5,13.3,1.7,19.1c1.1,5.8,2.6,11.6,4.4,17.3c1.8,5.8,3.7,12.3,5.7,19.4
		c1.9,7.1,3.9,15.5,5.7,25.3c1.8,9.8,3.2,21.5,4.4,34.9c1.2,13.6,1.7,29.6,1.7,48.2s-0.5,34.8-1.7,48.2c-1.1,13.5-2.6,25.1-4.4,34.9
		c-1.8,9.7-3.7,18.2-5.7,25.3c-1.9,7.2-3.9,13.7-5.7,19.4c-1.8,5.7-3.2,11.5-4.4,17.2c-1.2,5.7-1.7,12.2-1.7,19.3
		c0,6.4,1.5,11.3,4.5,14.6c3,3.2,6.8,5.6,11.2,6.9c4.5,1.2,8.9,1.9,13.2,2c4.5,0.1,8,0.1,10.8,0.1v0.3h98.2c24.2,0,45.5-4.6,64-13.6
		s33.9-21.9,46.4-38.6c12.5-16.8,21.8-36.7,28.2-59.7s9.6-48.5,9.6-76.4C294.6,1445.4,291.3,1420,285,1397z M190.2,1515.5
		c-2.4,13.4-5.6,25.5-9.9,36c-4.3,10.6-9.4,18.9-15.1,25c-5.8,6.1-12,9.1-18.8,9.1c-2.2,0-4.3-0.4-6.7-1.3c-2.4-1-4.3-2.7-5.9-5.3
		c-1.6-2.6-2.4-6.4-2.4-11.7v-188.6c0-5.2,0.8-9.1,2.4-11.5c1.6-2.7,3.5-4.4,5.9-5.3s4.7-1.3,6.7-1.3c6.8,0,13.1,3,18.8,9.1
		c5.8,6.2,10.8,14.5,15.1,25c4.2,10.5,7.5,22.6,9.9,36c2.3,13.5,3.5,27.6,3.5,42.4S192.6,1502.1,190.2,1515.5z"/>
	<path class="st0" d="M320.7,1473.3c0-18.6-0.5-34.6-1.7-48.2c-1.2-13.4-2.6-25.1-4.4-34.9c-1.8-9.8-3.8-18.2-5.7-25.3
		c-2-7.1-3.9-13.6-5.7-19.4c-1.8-5.7-3.3-11.5-4.4-17.3c-1.2-5.8-1.7-12.3-1.7-19.1c0-6.5,1.5-11.3,4.5-14.6s6.8-5.6,11.2-6.9
		c4.4-1.3,8.8-2,13.2-2c4.3-0.1,8-0.1,10.8-0.1h67.3c2.8,0,6.3,0,10.8,0.1c4.3,0.1,8.7,0.8,13.2,2c4.4,1.3,8.2,3.7,11.2,6.9
		c3,3.3,4.5,8.2,4.5,14.6c0,7-0.5,13.3-1.7,19.1c-1.2,5.8-2.6,11.6-4.4,17.3s-3.8,12.2-5.7,19.4c-2,7.1-3.9,15.6-5.7,25.3
		c-1.8,9.8-3.3,21.4-4.4,34.9c-1.2,13.4-1.7,29.6-1.7,48.2c0,18.6,0.5,34.6,1.7,48.2c1.2,13.4,2.6,25.1,4.4,34.9s3.8,18.2,5.7,25.3
		c2,7.1,3.9,13.6,5.7,19.4c1.8,5.7,3.3,11.5,4.4,17.2c1.2,5.7,1.7,12.2,1.7,19.4c0,6.5-1.5,11.3-4.5,14.6c-3,3.3-6.8,5.6-11.2,6.9
		c-4.4,1.3-8.8,2-13.2,2c-4.3,0.1-8,0.1-10.8,0.1h-67.3c-2.8,0-6.3,0-10.8-0.1c-4.3-0.1-8.7-0.8-13.2-2c-4.4-1.3-8.2-3.7-11.2-6.9
		c-3-3.3-4.5-8.2-4.5-14.6c0-7.1,0.5-13.6,1.7-19.4c1.2-5.7,2.6-11.5,4.4-17.2c1.8-5.7,3.8-12.2,5.7-19.4c2-7.1,3.9-15.6,5.7-25.3
		c1.8-9.8,3.3-21.4,4.4-34.9C320.2,1507.9,320.7,1491.9,320.7,1473.3z"/>
	<path class="st0" d="M446.6,1577.2c0-12.6,2.6-23.4,7.9-32.8c5.3-9.4,11.9-16.7,20.2-21.9c8.3-5.3,16.9-8.1,26-8.2
		c7.3-0.2,14.1,1.4,20.5,4.7c6.3,3.3,12.5,7.6,18.3,13s11.6,11.2,17.2,17.3c5.7,6.1,11.3,12,17,17.5s11.5,10,17.5,13.4
		s12.3,5.3,18.9,5.3c8.5,0,14.6-2.2,18.3-6.6c3.7-4.3,5.5-9.8,5.5-16.2c0-7.3-2.5-13.4-7.5-18.5c-5.1-5.1-11.8-9.5-20.5-13.2
		c-8.6-3.8-18.3-7.3-29.1-10.9c-10.8-3.4-21.9-7.3-33.3-11.4c-11.4-4.1-22.5-9-33.3-14.8c-10.8-5.8-20.5-12.9-29.1-21.3
		c-8.6-8.4-15.5-18.5-20.5-30.3c-5.1-11.8-7.5-26-7.5-42.6c0-24.2,6-45.2,18.1-62.8c12-17.6,29.4-31.4,52.1-41.1
		c22.7-9.8,50.1-14.6,82.1-14.6c14.8,0,29.4,1.5,43.9,4.4c14.4,3,27.6,7.6,39.6,14.1c11.9,6.5,21.4,14.6,28.6,24.6
		c7.1,10,10.8,22.1,10.8,36.1c0,10.1-2.3,19.3-6.7,27.5c-4.4,8.3-10.4,15-18,20.1s-16.1,8.1-25.7,8.7c-8.2,0.5-15.8-1-23-4.5
		c-7.1-3.5-13.9-8.2-20.3-14c-6.5-5.7-12.8-11.5-19.1-17.2c-6.3-5.7-12.9-10.6-19.6-14.6s-13.8-6-21.3-6c-6.2,0-11.2,1.2-14.8,3.4
		c-3.7,2.3-6.2,5.1-7.7,8.4c-1.5,3.3-2.3,6.5-2.3,9.4c0,7.1,2.7,13.2,8,18.2c5.3,4.9,12.4,9.4,21.3,13.2c8.9,3.9,18.9,7.5,30,11.2
		c11.2,3.7,22.6,7.6,34.4,12c11.8,4.3,23.3,9.6,34.4,15.8c11.2,6.1,21.2,13.7,30,22.4c8.9,8.7,15.9,19.1,21.3,31.5
		c5.3,12.3,8,26.9,8,43.8c0,18-2.9,33.5-8.7,46.5s-13.7,24-23.7,32.9c-9.9,8.9-21,15.9-33.1,21.3c-12.2,5.3-24.8,9.1-37.9,11.4
		c-13,2.3-25.5,3.4-37.3,3.4c-13.8,0-27.6-0.9-41.7-2.6c-14.1-1.7-27.6-4.6-40.4-8.7c-12.9-4.1-24.4-9.5-34.4-16.2
		c-10.1-6.7-18.1-15.1-23.9-25.1C449.5,1602.5,446.6,1590.7,446.6,1577.2z"/>
	<path class="st0" d="M762.8,1473.3c0-18.6-0.5-34.6-1.7-48.2c-1.2-13.4-2.6-25.1-4.4-34.9c-1.8-9.8-3.8-18.2-5.7-25.3
		c-2-7.1-3.9-13.6-5.7-19.4c-1.8-5.7-3.3-11.5-4.4-17.3c-1.2-5.8-1.7-12.3-1.7-19.1c0-6.5,1.5-11.3,4.5-14.6s6.8-5.6,11.2-6.9
		c4.4-1.3,8.8-2,13.2-2c4.3-0.1,8-0.1,10.8-0.1h67.3c2.8,0,6.3,0,10.8,0.1c4.3,0.1,8.7,0.8,13.2,2c4.4,1.3,8.2,3.7,11.2,6.9
		c3,3.3,4.5,8.2,4.5,14.6c0,7.3-0.6,13.9-1.8,19.7c-1.2,5.8-2.8,11.8-4.7,17.9c-1.9,6.1-3.9,12.9-6,20.5c-2,7.5-4,16.6-5.7,26.9
		c-1.7,10.3-3.1,22.9-4.2,37.8h73.1c-1.1-14.8-2.5-27.3-4.2-37.8c-1.7-10.3-3.7-19.4-5.7-26.9s-4.1-14.4-6-20.5
		c-1.9-6.1-3.4-12-4.7-17.9c-1.2-5.8-1.8-12.4-1.8-19.7c0-6.5,1.5-11.3,4.5-14.6s6.8-5.6,11.2-6.9c4.4-1.3,8.8-2,13.2-2
		c4.3-0.1,8-0.1,10.8-0.1h67.3c2.8,0,6.3,0,10.8,0.1c4.3,0.1,8.7,0.8,13.2,2c4.4,1.3,8.2,3.7,11.2,6.9c3,3.3,4.5,8.2,4.5,14.6
		c0,7-0.5,13.3-1.7,19.1c-1.2,5.8-2.6,11.6-4.4,17.3s-3.8,12.2-5.7,19.4c-2,7.1-3.9,15.6-5.7,25.3c-1.8,9.8-3.3,21.4-4.4,34.9
		c-1.2,13.4-1.7,29.6-1.7,48.2c0,18.6,0.5,34.6,1.7,48.2c1.2,13.4,2.6,25.1,4.4,34.9s3.8,18.2,5.7,25.3c2,7.1,3.9,13.6,5.7,19.4
		c1.8,5.7,3.3,11.5,4.4,17.2c1.2,5.7,1.7,12.2,1.7,19.4c0,6.5-1.5,11.3-4.5,14.6c-3,3.3-6.8,5.6-11.2,6.9s-8.8,2-13.2,2
		c-4.3,0.1-8,0.1-10.8,0.1h-67.3c-2.8,0-6.3,0-10.8-0.1c-4.3-0.1-8.7-0.8-13.2-2c-4.4-1.3-8.2-3.7-11.2-6.9c-3-3.3-4.5-8.2-4.5-14.6
		c0-7.1,0.5-13.6,1.7-19.4c1.2-5.7,2.6-11.5,4.4-17.2c1.8-5.7,3.8-12.3,5.7-19.5c2-7.2,3.9-15.7,5.7-25.3c1.8-9.7,3.2-21.4,4.3-35.2
		h-72.1c1.1,13.8,2.5,25.5,4.3,35.2c1.8,9.7,3.8,18.1,5.7,25.3c2,7.2,3.9,13.7,5.7,19.5c1.8,5.7,3.3,11.5,4.4,17.2
		c1.2,5.7,1.7,12.2,1.7,19.4c0,6.5-1.5,11.3-4.5,14.6c-3,3.3-6.8,5.6-11.2,6.9s-8.8,2-13.2,2c-4.3,0.1-8,0.1-10.8,0.1h-67.3
		c-2.8,0-6.3,0-10.8-0.1c-4.3-0.1-8.7-0.8-13.2-2c-4.4-1.3-8.2-3.7-11.2-6.9c-3-3.3-4.5-8.2-4.5-14.6c0-7.1,0.5-13.6,1.7-19.4
		c1.2-5.7,2.6-11.5,4.4-17.2c1.8-5.7,3.8-12.2,5.7-19.4c2-7.1,3.9-15.6,5.7-25.3c1.8-9.8,3.3-21.4,4.4-34.9
		C762.3,1507.9,762.8,1491.9,762.8,1473.3z"/>
</g>
<path class="st1" d="M398,347.5c-2.5-3.3-4.8-6.9-6.9-10.4L398,347.5z"/>
<g>
	<defs>
		<path id="SVGID_1_" d="M88.5,312.5h900.6c22,0,43,8.7,58.5,24.2c15.5,15.5,24.2,36.6,24.2,58.5v403.9c0,22-8.7,43-24.2,58.5
			c-15.5,15.5-36.6,24.2-58.5,24.2H88.5c-22,0-43-8.7-58.5-24.2c-15.5-15.5-24.2-36.6-24.2-58.5V395.3c0-22,8.7-43,24.2-58.5
			C45.5,321.3,66.6,312.5,88.5,312.5z"/>
	</defs>
	<clipPath id="SVGID_00000135653329090978036560000014185237183026521485_">
		<use xlink:href="#SVGID_1_"  style="overflow:visible;"/>
	</clipPath>
	<g style="clip-path:url(#SVGID_00000135653329090978036560000014185237183026521485_);enable-background:new    ;">
		<g>
			<defs>
				<rect id="SVGID_00000080190367615325827410000013020188021120963210_" x="3.7" y="310.3" width="1070" height="572.1"/>
			</defs>
			<clipPath id="SVGID_00000127043588973911401140000003481261392574557869_">
				<use xlink:href="#SVGID_00000080190367615325827410000013020188021120963210_"  style="overflow:visible;"/>
			</clipPath>
			<g style="clip-path:url(#SVGID_00000127043588973911401140000003481261392574557869_);">
				<defs>
					<rect id="SVGID_00000008831777317579211810000015853304998829683590_" x="3.7" y="310.3" width="1070" height="572.1"/>
				</defs>
				<clipPath id="SVGID_00000008838724273630971460000001939782728217554590_">
					<use xlink:href="#SVGID_00000008831777317579211810000015853304998829683590_"  style="overflow:visible;"/>
				</clipPath>
				<g style="clip-path:url(#SVGID_00000008838724273630971460000001939782728217554590_);">
					<defs>
						<path id="SVGID_00000000203628838432193720000014267609038811730853_" d="M88.5,312.5h900.6c22,0,43,8.7,58.5,24.2
							c15.5,15.5,24.2,36.6,24.2,58.5v403.9c0,22-8.7,43-24.2,58.5c-15.5,15.5-36.6,24.2-58.5,24.2H88.5c-22,0-43-8.7-58.5-24.2
							c-15.5-15.5-24.2-36.6-24.2-58.5V395.3c0-22,8.7-43,24.2-58.5C45.5,321.3,66.6,312.5,88.5,312.5z"/>
					</defs>
					<clipPath id="SVGID_00000181055949719882562060000013399272207467398831_">
						<use xlink:href="#SVGID_00000000203628838432193720000014267609038811730853_"  style="overflow:visible;"/>
					</clipPath>
					
						<rect x="5.8" y="312.5" style="clip-path:url(#SVGID_00000181055949719882562060000013399272207467398831_);fill:#EC6F41;" width="1065.4" height="569.4"/>
				</g>
			</g>
		</g>
	</g>
</g>
<rect x="3.7" y="310.3" class="st6" width="1070" height="572.1"/>
<path class="st7" d="M-479.9,1769.1c0-7.8-0.2-14.6-0.7-20.3c-0.5-5.7-1.1-10.6-1.9-14.7c-0.8-4.1-1.6-7.7-2.4-10.7
	c-0.8-3-1.6-5.7-2.4-8.1c-0.8-2.4-1.4-4.9-1.9-7.3c-0.5-2.5-0.7-5.1-0.7-8.1c0-2.7,0.6-4.8,1.9-6.2c1.3-1.4,2.9-2.4,4.7-2.9
	s3.7-0.8,5.6-0.9c1.8,0,3.3-0.1,4.5-0.1h28.4c1.2,0,2.7,0,4.5,0.1c1.8,0,3.7,0.3,5.6,0.9s3.4,1.5,4.7,2.9c1.3,1.4,1.9,3.4,1.9,6.2
	c0,2.9-0.2,5.6-0.7,8.1c-0.5,2.5-1.1,4.9-1.9,7.3c-0.8,2.4-1.6,5.1-2.4,8.1c-0.8,3-1.6,6.6-2.4,10.7c-0.8,4.1-1.4,9-1.9,14.7
	c-0.5,5.7-0.7,12.4-0.7,20.3c0,7.8,0.2,14.6,0.7,20.3c0.5,5.7,1.1,10.6,1.9,14.7c0.8,4.1,1.6,7.7,2.4,10.7c0.8,3,1.6,5.7,2.4,8.1
	c0.8,2.4,1.4,4.8,1.9,7.3c0.5,2.4,0.7,5.1,0.7,8.1c0,2.7-0.6,4.8-1.9,6.2c-1.3,1.4-2.9,2.4-4.7,2.9c-1.9,0.5-3.7,0.8-5.6,0.9
	c-1.8,0-3.3,0.1-4.5,0.1h-28.4c-1.2,0-2.7,0-4.5-0.1c-1.8,0-3.7-0.3-5.6-0.9c-1.9-0.5-3.4-1.5-4.7-2.9c-1.3-1.4-1.9-3.4-1.9-6.2
	c0-3,0.2-5.7,0.7-8.1c0.5-2.4,1.1-4.8,1.9-7.3c0.8-2.4,1.6-5.1,2.4-8.1c0.8-3,1.6-6.6,2.4-10.7c0.8-4.1,1.4-9,1.9-14.7
	C-480.1,1783.7-479.9,1776.9-479.9,1769.1z M-423.7,1838.5c0-3.7,0.3-7.2,1-10.3c0.7-3.1,1.5-6.4,2.5-9.8c1-3.4,2-7.4,3-11.9
	c1-4.5,1.9-10,2.5-16.3c0.7-6.4,1-14.1,1-23.3c0-7.6-0.2-14.2-0.7-19.7c-0.5-5.5-1.1-10.3-1.9-14.2c-0.8-4-1.6-7.4-2.4-10.3
	c-0.8-2.9-1.6-5.6-2.4-8c-0.8-2.4-1.4-4.7-1.9-7.1c-0.5-2.3-0.7-4.9-0.7-7.8c0-2.6,0.6-4.6,1.9-6c1.3-1.4,2.9-2.3,4.7-2.9
	c1.9-0.5,3.7-0.8,5.6-0.9c1.8,0,3.3-0.1,4.5-0.1h62.6c7.5,0,14.2,1.5,20.1,4.6c5.8,3,10.4,7.3,13.7,12.8c3.3,5.5,5,11.9,5,19.2
	c0,3.2-0.4,6.4-1.3,9.7c-0.8,3.3-2.2,6.5-4.2,9.5c-1.9,3-4.5,5.8-7.7,8.1c-3.2,2.4-7.1,4.2-11.8,5.4c-1.8,0.5-2.7,1.2-2.7,2.1
	c0,0.6,0.7,1.2,2.2,1.9c1.5,0.7,3.3,1.5,5.6,2.5c2.3,1,4.7,2.4,7.3,4.2c2.6,1.8,5,4.1,7.3,7c2.3,2.9,4.1,6.5,5.6,10.8
	c1.5,4.3,2.2,9.6,2.2,15.8c0,3.8-0.5,7.8-1.6,11.9c-1.1,4.1-2.7,8.2-5.1,12c-2.3,3.9-5.4,7.4-9.2,10.6c-3.8,3.2-8.5,5.6-14,7.5
	c-5.5,1.8-11.9,2.7-19.4,2.7h-56.5c-1.2,0-2.6,0-4.2-0.1c-1.6,0-3.3-0.3-4.9-0.9c-1.6-0.5-3-1.5-4.1-2.9
	C-423.2,1843.1-423.7,1841.1-423.7,1838.5z M-372.1,1744.8c0,2.3,0.6,3.8,1.8,4.6c1.2,0.8,2.8,1.2,4.8,1.2c3.6,0,6.5-0.5,8.8-1.5
	c2.3-1,4-2.3,5.3-3.8c1.3-1.5,2.2-3.1,2.7-4.7c0.5-1.6,0.8-3.1,0.8-4.4c0-1.2-0.3-2.7-0.8-4.3c-0.5-1.6-1.4-3.2-2.7-4.8
	c-1.3-1.5-3.1-2.8-5.3-3.8c-2.3-1-5.2-1.5-8.8-1.5c-2.1,0-3.7,0.4-4.8,1.2c-1.2,0.8-1.8,2.3-1.8,4.6V1744.8z M-372.1,1808.5
	c0,3.2,0.6,5.3,1.8,6.3c1.2,1.1,2.8,1.6,4.8,1.6c3.6,0,6.5-0.7,8.8-2.1c2.3-1.4,4-3.2,5.3-5.3c1.3-2.1,2.2-4.3,2.7-6.6
	c0.5-2.3,0.8-4.3,0.8-6c0-1.8-0.3-3.8-0.8-6.1c-0.5-2.3-1.4-4.5-2.7-6.7c-1.3-2.1-3.1-3.9-5.3-5.3c-2.3-1.4-5.2-2.1-8.8-2.1
	c-2.1,0-3.7,0.5-4.8,1.5c-1.2,1-1.8,3.2-1.8,6.4c0,0.7,0,1.9,0.1,3.6c0,1.6,0.1,3.3,0.1,4.9c0,1.6,0.1,2.9,0.1,3.7
	c0,0.7,0,1.9-0.1,3.6c0,1.6-0.1,3.3-0.1,4.9C-372.1,1806.4-372.1,1807.7-372.1,1808.5z M-300.3,1699.7c0-2.6,0.6-4.6,1.9-6
	c1.3-1.4,2.9-2.3,4.7-2.9c1.9-0.5,3.7-0.8,5.6-0.9c1.8,0,3.3-0.1,4.5-0.1h28.4c1.2,0,2.7,0,4.5,0.1c1.8,0,3.7,0.3,5.6,0.9
	c1.9,0.5,3.4,1.5,4.7,2.9c1.3,1.4,1.9,3.4,1.9,6c0,2.9-0.2,5.5-0.7,7.8c-0.5,2.3-1.1,4.7-1.9,7.1c-0.8,2.4-1.6,5-2.4,8
	c-0.8,2.9-1.6,6.4-2.4,10.3c-0.8,4-1.4,8.7-1.9,14.2c-0.5,5.5-0.7,12.1-0.7,19.7v35.5c0,2.9,0.1,5.6,0.3,7.9s0.8,4.1,1.7,5.4
	c0.9,1.3,2.4,1.9,4.5,1.9c5.4,0,10.1-0.8,14.2-2.5c4.1-1.6,7.9-3.7,11.2-6.1c3.3-2.4,6.4-4.8,9.1-7.2c2.7-2.4,5.4-4.4,7.9-6
	c2.5-1.6,5.1-2.5,7.8-2.5c2.6,0,4.5,0.7,5.6,2c1.1,1.4,1.7,3,1.9,4.9c0.2,1.9,0.3,3.8,0.3,5.7v31.4c0,3.2-1,5.8-3,7.9
	c-2,2-4.6,3-7.9,3h-90.5c-1.2,0-2.6,0-4.2-0.1c-1.6,0-3.3-0.3-4.9-0.9c-1.6-0.5-3-1.5-4.1-2.9c-1.1-1.4-1.6-3.4-1.6-6
	c0-3.7,0.3-7.2,1-10.3c0.7-3.1,1.5-6.4,2.5-9.8c1-3.4,2-7.4,3-11.9c1-4.5,1.9-10,2.5-16.3c0.7-6.4,1-14.1,1-23.3
	c0-7.6-0.2-14.2-0.7-19.7c-0.5-5.5-1.1-10.3-1.9-14.2c-0.8-4-1.6-7.4-2.4-10.3c-0.8-2.9-1.6-5.6-2.4-8c-0.8-2.4-1.4-4.7-1.9-7.1
	C-300.1,1705.2-300.3,1702.6-300.3,1699.7z M-164.8,1848.3c-2.4,0-4.7-0.2-6.8-0.5c-2.1-0.4-3.8-1.1-5.1-2.2
	c-1.3-1.1-1.9-2.7-1.9-4.7c0-2.1,0.3-3.8,0.9-5.2c0.6-1.4,1.4-2.8,2.4-4.2c1-1.4,2.2-3,3.5-4.7c1.3-1.8,2.6-4,3.9-6.6
	c1.3-2.6,2.6-6,3.8-10c1.9-6.2,3.5-11.5,4.8-15.9c1.3-4.5,2.5-8.4,3.5-11.8c1-3.4,1.9-6.6,2.7-9.5c0.8-2.9,1.6-5.8,2.4-8.7
	c0.8-2.9,1.6-6.1,2.6-9.5c1-3.4,2-7.4,3.2-12c1.2-4.5,2.7-9.9,4.5-16.1c1.2-4.3,2-7.6,2.5-10c0.5-2.4,0.8-4.4,0.8-6
	c0.1-1.6,0-3.2-0.1-4.8c-0.1-1.6-0.3-3.7-0.4-6.3c0-0.6,0-1.4,0.1-2.4c0.1-1,0.4-2.1,0.9-3.2c0.5-1.1,1.4-2,2.6-2.8
	c1.2-0.8,3-1.2,5.3-1.2H-99c2.2,0,4.1,0,5.8,0.1c1.6,0.1,3.1,0.5,4.5,1.2c1.3,0.7,2.6,2.1,3.8,4c1.2,1.9,2.5,4.7,3.7,8.2
	c1.3,3.6,2.7,8.3,4.3,14.2c2.1,7.2,3.8,13.5,5.3,19c1.5,5.5,2.8,10.4,4,14.7c1.2,4.4,2.3,8.6,3.4,12.6c1.1,4.1,2.3,8.3,3.5,12.6
	c1.2,4.4,2.7,9.2,4.2,14.6c1.6,5.4,3.5,11.6,5.7,18.8c1.2,4,2.5,7.4,3.8,10c1.3,2.6,2.6,4.8,3.9,6.6c1.3,1.8,2.4,3.3,3.5,4.7
	c1,1.4,1.8,2.8,2.4,4.2c0.6,1.4,0.9,3.2,0.9,5.2c0,2.1-0.6,3.6-1.9,4.7c-1.3,1.1-3,1.8-5,2.2c-2.1,0.4-4.3,0.5-6.8,0.5h-40.5
	c-1.7,0-3.4-0.2-5-0.7c-1.6-0.5-3-1.2-4.1-2.3c-1.1-1.1-1.6-2.5-1.6-4.3c0-2.4,0.2-4.3,0.6-5.8c0.4-1.4,0.9-2.8,1.4-4.1
	c0.5-1.3,1-2.9,1.4-4.7c0.4-1.9,0.6-4.5,0.6-7.8c0-1.8-0.1-3.8-0.3-5.8h-28.1c0.1,1,0.2,1.9,0.3,2.9c0.1,1,0.3,1.9,0.3,3
	c0.4,3.3,1,5.9,1.6,7.8c0.6,1.9,1.2,3.4,1.8,4.7c0.5,1.3,1,2.6,1.4,4.1c0.4,1.4,0.6,3.4,0.6,5.8c0,1.8-0.5,3.3-1.6,4.3
	c-1.1,1.1-2.4,1.8-4.1,2.3c-1.6,0.5-3.3,0.7-5,0.7H-164.8z M-125.5,1775.1h19.6c-1-3.4-1.9-6.9-3-10.7c-1-3.8-2.2-7.8-3.4-12
	c-0.7-2.5-1.5-4.6-2.2-6.3c-0.7-1.7-1.5-2.5-2.3-2.3c-0.7,0.1-1.5,1.1-2.2,3c-0.7,1.9-1.5,4.3-2.2,7.1c-0.7,2.8-1.4,5.7-2,8.7
	c-0.6,3-1.1,5.6-1.5,7.9C-125.1,1772.8-125.4,1774.3-125.5,1775.1z"/>
<g>
	<defs>
		<rect id="SVGID_00000065792189554686357940000010043700904876651421_" x="72.4" y="420.9" width="938.1" height="449.2"/>
	</defs>
	<clipPath id="SVGID_00000132772895474204491740000011092956366760699559_">
		<use xlink:href="#SVGID_00000065792189554686357940000010043700904876651421_"  style="overflow:visible;"/>
	</clipPath>
	<g style="clip-path:url(#SVGID_00000132772895474204491740000011092956366760699559_);enable-background:new    ;">
		<g>
			<defs>
				<rect id="SVGID_00000039845936539281860580000013994632987363091862_" x="72.6" y="421.5" width="937.6" height="447.6"/>
			</defs>
			<clipPath id="SVGID_00000142138455312215821460000011812255430958850961_">
				<use xlink:href="#SVGID_00000039845936539281860580000013994632987363091862_"  style="overflow:visible;"/>
			</clipPath>
			<g style="clip-path:url(#SVGID_00000142138455312215821460000011812255430958850961_);">
				<defs>
					<rect id="SVGID_00000144300430694179912570000011708233426922981263_" x="72.4" y="420.9" width="938.1" height="449.2"/>
				</defs>
				<clipPath id="SVGID_00000170971893705564541990000009689217100410134199_">
					<use xlink:href="#SVGID_00000144300430694179912570000011708233426922981263_"  style="overflow:visible;"/>
				</clipPath>
				<path style="clip-path:url(#SVGID_00000170971893705564541990000009689217100410134199_);fill:#FFFFFF;" d="M113,760
					c-2.4,0-5.6,0-9.4-0.1c-3.8-0.1-7.7-0.7-11.5-1.8c-3.9-1.1-7.2-3.2-9.8-6.1c-2.7-2.9-4-7.2-4-12.8c0-6.2,0.5-11.9,1.5-16.9
					c1-5,2.3-10.1,3.9-15.1c1.6-5,3.3-10.7,5-16.9c1.7-6.2,3.4-13.6,5-22.2c1.6-8.5,2.9-18.7,3.9-30.5c1-11.8,1.5-25.9,1.5-42.2
					c0-16.3-0.5-30.4-1.5-42.2c-1-11.8-2.3-22-3.9-30.5c-1.6-8.5-3.3-15.9-5-22.2c-1.8-6.2-3.4-11.9-5-16.9
					c-1.6-5-2.9-10.1-3.9-15.2c-1-5.1-1.5-10.7-1.5-16.8c0-5.6,1.3-9.9,4-12.8c2.7-2.9,5.9-4.9,9.8-6.1c3.9-1.1,7.7-1.7,11.5-1.8
					c3.8-0.1,6.9-0.1,9.4-0.1h85.9c21.2,0,39.8,4,56,11.9c16.1,7.9,29.7,19.2,40.6,33.7c10.9,14.6,19.1,31.9,24.7,52
					c5.6,20.1,8.3,42.4,8.3,66.7c0,24.4-2.8,46.7-8.3,66.8c-5.6,20.2-13.8,37.6-24.7,52.2c-10.9,14.6-24.4,25.9-40.6,33.8
					c-16.2,7.9-34.8,11.9-56,11.9H113z M185.9,512.7v165c0,4.6,0.7,8,2.1,10.3c1.4,2.3,3.1,3.8,5.1,4.6c2.1,0.8,4,1.1,5.8,1.1
					c5.9,0,11.4-2.7,16.5-8c5-5.3,9.4-12.6,13.1-21.8c3.7-9.2,6.6-19.7,8.7-31.5c2.1-11.8,3.1-24.2,3.1-37.1c0-12.9-1-25.3-3.1-37.1
					c-2.1-11.8-5-22.3-8.7-31.5c-3.7-9.2-8.1-16.5-13.1-21.8c-5-5.3-10.5-8-16.5-8c-1.8,0-3.8,0.4-5.8,1.1c-2.1,0.8-3.8,2.3-5.1,4.6
					C186.5,504.7,185.9,508.1,185.9,512.7z M351.6,595.4c0-16.3-0.5-30.4-1.5-42.2c-1-11.8-2.3-22-3.9-30.5
					c-1.6-8.5-3.3-15.9-5-22.2c-1.8-6.2-3.4-11.9-5-16.9c-1.6-5-2.9-10.1-3.9-15.2c-1-5.1-1.5-10.7-1.5-16.8c0-5.6,1.3-9.9,4-12.8
					c2.7-2.9,5.9-4.9,9.8-6.1c3.9-1.1,7.7-1.7,11.5-1.8c3.8-0.1,6.9-0.1,9.4-0.1h59c2.4,0,5.6,0,9.4,0.1c3.8,0.1,7.7,0.7,11.5,1.8
					c3.9,1.1,7.2,3.2,9.8,6.1c2.7,2.9,4,7.2,4,12.8c0,6.1-0.5,11.7-1.5,16.8c-1,5.1-2.3,10.2-3.9,15.2c-1.6,5-3.3,10.7-5,16.9
					c-1.8,6.2-3.4,13.6-5,22.2c-1.6,8.5-2.9,18.7-3.9,30.5c-1,11.8-1.5,25.9-1.5,42.2c0,16.3,0.5,30.4,1.5,42.2
					c1,11.8,2.3,22,3.9,30.5c1.6,8.5,3.3,15.9,5,22.2c1.7,6.2,3.4,11.9,5,16.9c1.6,5,2.9,10.1,3.9,15.1c1,5,1.5,10.7,1.5,16.9
					c0,5.6-1.3,9.9-4,12.8c-2.7,2.9-5.9,4.9-9.8,6.1c-3.9,1.1-7.7,1.8-11.5,1.8c-3.8,0.1-6.9,0.1-9.4,0.1h-59c-2.4,0-5.6,0-9.4-0.1
					c-3.8-0.1-7.7-0.7-11.5-1.8c-3.9-1.1-7.2-3.2-9.8-6.1c-2.7-2.9-4-7.2-4-12.8c0-6.2,0.5-11.9,1.5-16.9c1-5,2.3-10.1,3.9-15.1
					c1.6-5,3.3-10.7,5-16.9c1.7-6.2,3.4-13.6,5-22.2c1.6-8.5,2.9-18.7,3.9-30.5C351.1,625.8,351.6,611.7,351.6,595.4z M461.7,686.4
					c0-11,2.3-20.5,6.9-28.7c4.6-8.1,10.5-14.5,17.7-19.2c7.2-4.6,14.8-7,22.7-7.2c6.4-0.1,12.4,1.2,17.9,4.1
					c5.6,2.9,10.9,6.7,16,11.4c5.1,4.7,10.1,9.8,15.1,15.2c4.9,5.4,9.9,10.5,14.9,15.3c4.9,4.8,10.1,8.7,15.3,11.8
					c5.3,3,10.8,4.6,16.6,4.6c7.5,0,12.8-1.9,16-5.7c3.2-3.8,4.8-8.5,4.8-14.2c0-6.4-2.2-11.8-6.6-16.2c-4.4-4.4-10.4-8.3-17.9-11.5
					c-7.5-3.3-16-6.4-25.5-9.5c-9.4-3-19.2-6.4-29.1-9.9c-10-3.6-19.7-7.9-29.1-13c-9.4-5.1-17.9-11.3-25.5-18.6
					c-7.5-7.3-13.5-16.1-17.9-26.5c-4.4-10.4-6.6-22.8-6.6-37.3c0-21.2,5.3-39.5,15.8-55c10.5-15.5,25.7-27.5,45.6-36
					c19.9-8.5,43.8-12.8,71.9-12.8c12.9,0,25.7,1.3,38.4,3.9c12.6,2.6,24.2,6.7,34.6,12.3c10.4,5.6,18.8,12.8,25,21.6
					c6.2,8.8,9.4,19.3,9.4,31.7c0,8.8-1.9,16.9-5.8,24.1c-3.9,7.2-9.1,13.1-15.8,17.6c-6.6,4.5-14.1,7-22.5,7.7
					c-7.2,0.5-13.9-0.9-20.1-4c-6.2-3.1-12.2-7.2-17.8-12.2c-5.6-5-11.2-10.1-16.8-15.1c-5.6-5-11.3-9.3-17.1-12.8
					c-5.9-3.5-12.1-5.3-18.6-5.3c-5.5,0-9.8,1-13,3c-3.2,2-5.4,4.4-6.7,7.3c-1.3,2.9-1.9,5.6-1.9,8.2c0,6.2,2.3,11.5,7,15.9
					c4.6,4.3,10.9,8.2,18.6,11.5c7.8,3.4,16.5,6.6,26.3,9.8c9.7,3.2,19.8,6.7,30.2,10.5c10.4,3.8,20.4,8.4,30.2,13.8
					c9.7,5.4,18.5,11.9,26.3,19.5c7.8,7.6,14,16.8,18.6,27.5c4.6,10.7,7,23.5,7,38.3c0,15.7-2.6,29.3-7.7,40.7
					c-5.1,11.4-12,21-20.7,28.8c-8.7,7.8-18.4,14-29,18.6c-10.7,4.6-21.7,8-33.1,9.9c-11.4,2-22.3,3-32.7,3c-12,0-24.2-0.8-36.6-2.3
					c-12.3-1.5-24.2-4.1-35.4-7.7c-11.3-3.6-21.3-8.3-30.2-14.2c-8.8-5.9-15.8-13.2-20.9-21.9C464.3,708.6,461.7,698.3,461.7,686.4z
					 M738.5,595.4c0-16.3-0.5-30.4-1.5-42.2c-1-11.8-2.3-22-3.9-30.5c-1.6-8.5-3.3-15.9-5-22.2c-1.8-6.2-3.4-11.9-5-16.9
					c-1.6-5-2.9-10.1-3.9-15.2c-1-5.1-1.5-10.7-1.5-16.8c0-5.6,1.3-9.9,4-12.8c2.7-2.9,5.9-4.9,9.8-6.1c3.9-1.1,7.7-1.7,11.5-1.8
					c3.8-0.1,6.9-0.1,9.4-0.1h59c2.4,0,5.6,0,9.4,0.1c3.8,0.1,7.7,0.7,11.5,1.8c3.9,1.1,7.2,3.2,9.8,6.1c2.7,2.9,4,7.2,4,12.8
					c0,6.4-0.5,12.2-1.6,17.3c-1.1,5.1-2.4,10.3-4.1,15.7c-1.7,5.3-3.4,11.3-5.3,17.9c-1.8,6.6-3.5,14.5-5,23.5
					c-1.5,9.1-2.7,20.1-3.7,33h64c-0.9-12.9-2.1-24-3.7-33c-1.5-9.1-3.2-16.9-5-23.5c-1.8-6.6-3.6-12.6-5.3-17.9
					c-1.7-5.3-3-10.5-4.1-15.7c-1.1-5.1-1.6-10.9-1.6-17.3c0-5.6,1.3-9.9,4-12.8c2.7-2.9,5.9-4.9,9.8-6.1c3.9-1.1,7.7-1.7,11.5-1.8
					c3.8-0.1,6.9-0.1,9.4-0.1h59c2.4,0,5.6,0,9.4,0.1c3.8,0.1,7.7,0.7,11.5,1.8c3.9,1.1,7.2,3.2,9.8,6.1c2.7,2.9,4,7.2,4,12.8
					c0,6.1-0.5,11.7-1.5,16.8c-1,5.1-2.3,10.2-3.9,15.2c-1.6,5-3.3,10.7-5,16.9c-1.8,6.2-3.4,13.6-5,22.2
					c-1.6,8.5-2.9,18.7-3.9,30.5c-1,11.8-1.5,25.9-1.5,42.2c0,16.3,0.5,30.4,1.5,42.2c1,11.8,2.3,22,3.9,30.5
					c1.6,8.5,3.3,15.9,5,22.2c1.8,6.2,3.4,11.9,5,16.9c1.6,5,2.9,10.1,3.9,15.1c1,5,1.5,10.7,1.5,16.9c0,5.6-1.3,9.9-4,12.8
					c-2.7,2.9-5.9,4.9-9.8,6.1c-3.9,1.1-7.7,1.8-11.5,1.8c-3.8,0.1-6.9,0.1-9.4,0.1h-59c-2.4,0-5.6,0-9.4-0.1
					c-3.8-0.1-7.7-0.7-11.5-1.8c-3.9-1.1-7.2-3.2-9.8-6.1c-2.7-2.9-4-7.2-4-12.8c0-6.2,0.5-11.9,1.5-16.9c1-5,2.3-10.1,3.9-15.1
					c1.6-5,3.3-10.7,5-17c1.8-6.3,3.4-13.7,5-22.2c1.6-8.5,2.9-18.7,3.8-30.7h-63.1c0.9,12,2.2,22.3,3.8,30.7
					c1.6,8.5,3.3,15.8,5,22.2c1.7,6.3,3.4,12,5,17c1.6,5,2.9,10.1,3.9,15.1c1,5,1.5,10.7,1.5,16.9c0,5.6-1.3,9.9-4,12.8
					c-2.7,2.9-5.9,4.9-9.8,6.1c-3.9,1.1-7.7,1.8-11.5,1.8c-3.8,0.1-6.9,0.1-9.4,0.1h-59c-2.4,0-5.6,0-9.4-0.1
					c-3.8-0.1-7.7-0.7-11.5-1.8c-3.9-1.1-7.2-3.2-9.8-6.1c-2.7-2.9-4-7.2-4-12.8c0-6.2,0.5-11.9,1.5-16.9c1-5,2.3-10.1,3.9-15.1
					c1.6-5,3.3-10.7,5-16.9c1.7-6.2,3.4-13.6,5-22.2c1.6-8.5,2.9-18.7,3.9-30.5C738,625.8,738.5,611.7,738.5,595.4z"/>
			</g>
		</g>
	</g>
</g>
<g>
	<defs>
		<rect id="SVGID_00000133493150678672164680000006511443016198928575_" x="146.8" y="358" width="113.9" height="113.9"/>
	</defs>
	<clipPath id="SVGID_00000121994530600957837020000005299884644119722129_">
		<use xlink:href="#SVGID_00000133493150678672164680000006511443016198928575_"  style="overflow:visible;"/>
	</clipPath>
	<g style="clip-path:url(#SVGID_00000121994530600957837020000005299884644119722129_);">
		<defs>
			<circle id="SVGID_00000088823607313592420460000001420606571124178828_" cx="203.3" cy="414.8" r="56.4"/>
		</defs>
		<clipPath id="SVGID_00000052102053808691509920000002560038684556791688_">
			<use xlink:href="#SVGID_00000088823607313592420460000001420606571124178828_"  style="overflow:visible;"/>
		</clipPath>
		<g style="clip-path:url(#SVGID_00000052102053808691509920000002560038684556791688_);enable-background:new    ;">
			<g>
				<defs>
					<rect id="SVGID_00000091007156123015313560000008055709897394012080_" x="146.8" y="358" width="113.9" height="113.9"/>
				</defs>
				<clipPath id="SVGID_00000155830442720314338590000003252925507305542058_">
					<use xlink:href="#SVGID_00000091007156123015313560000008055709897394012080_"  style="overflow:visible;"/>
				</clipPath>
				<g style="clip-path:url(#SVGID_00000155830442720314338590000003252925507305542058_);">
					<defs>
						<rect id="SVGID_00000098201844746148956920000009850286126002133890_" x="146.8" y="358" width="113.9" height="113.9"/>
					</defs>
					<clipPath id="SVGID_00000076594314536845064190000000611577618606633635_">
						<use xlink:href="#SVGID_00000098201844746148956920000009850286126002133890_"  style="overflow:visible;"/>
					</clipPath>
					<g style="clip-path:url(#SVGID_00000076594314536845064190000000611577618606633635_);">
						<defs>
							<circle id="SVGID_00000033365154551299145310000013213246292465410692_" cx="203.3" cy="414.8" r="56.4"/>
						</defs>
						<clipPath id="SVGID_00000114069230359378511960000014252756255125699770_">
							<use xlink:href="#SVGID_00000033365154551299145310000013213246292465410692_"  style="overflow:visible;"/>
						</clipPath>
						
							<rect x="146.9" y="358.4" style="clip-path:url(#SVGID_00000114069230359378511960000014252756255125699770_);fill:#EC6F41;" width="112.9" height="112.9"/>
					</g>
				</g>
			</g>
		</g>
	</g>
</g>
<g>
	<defs>
		<rect id="SVGID_00000009576500514497882880000015356203984140826779_" x="228.9" y="410.9" width="92.7" height="92.7"/>
	</defs>
	<clipPath id="SVGID_00000049901718307728692000000014424529754600075941_">
		<use xlink:href="#SVGID_00000009576500514497882880000015356203984140826779_"  style="overflow:visible;"/>
	</clipPath>
	<g style="clip-path:url(#SVGID_00000049901718307728692000000014424529754600075941_);">
		<defs>
			<path id="SVGID_00000075866239808113411250000009748492717898721712_" d="M254,425.1c-18.4,12-23.6,36.5-11.6,54.9
				c12,18.4,36.5,23.6,54.9,11.6c18.4-12,23.6-36.6,11.6-54.9C296.9,418.3,272.3,413.1,254,425.1z"/>
		</defs>
		<clipPath id="SVGID_00000110447181046577770270000001564307844960077728_">
			<use xlink:href="#SVGID_00000075866239808113411250000009748492717898721712_"  style="overflow:visible;"/>
		</clipPath>
		<g style="clip-path:url(#SVGID_00000110447181046577770270000001564307844960077728_);">
			<defs>
				
					<rect id="SVGID_00000076561198846181106590000004859101784554170791_" x="235.9" y="418.7" transform="matrix(0.8378 -0.5459 0.5459 0.8378 -205.5265 224.8043)" width="79.4" height="79.4"/>
			</defs>
			<clipPath id="SVGID_00000105427373085583255880000003665929123716618633_">
				<use xlink:href="#SVGID_00000076561198846181106590000004859101784554170791_"  style="overflow:visible;"/>
			</clipPath>
			<g style="clip-path:url(#SVGID_00000105427373085583255880000003665929123716618633_);enable-background:new    ;">
				<g>
					<defs>
						<rect id="SVGID_00000156557894787154327680000007144817978663728272_" x="228.9" y="410.9" width="92.7" height="92.7"/>
					</defs>
					<clipPath id="SVGID_00000124134805984157758620000011421254925792769684_">
						<use xlink:href="#SVGID_00000156557894787154327680000007144817978663728272_"  style="overflow:visible;"/>
					</clipPath>
					<g style="clip-path:url(#SVGID_00000124134805984157758620000011421254925792769684_);">
						<defs>
							<rect id="SVGID_00000158733660065225196050000009745591840846755238_" x="228.9" y="410.9" width="92.7" height="92.7"/>
						</defs>
						<clipPath id="SVGID_00000159437643110824727820000005475583689468959380_">
							<use xlink:href="#SVGID_00000158733660065225196050000009745591840846755238_"  style="overflow:visible;"/>
						</clipPath>
						<g style="clip-path:url(#SVGID_00000159437643110824727820000005475583689468959380_);">
							<defs>
								<path id="SVGID_00000137123595335123880940000005796582884325159552_" d="M254,425.1c-18.4,12-23.6,36.5-11.6,54.9
									c12,18.4,36.5,23.6,54.9,11.6c18.4-12,23.6-36.6,11.6-54.9C296.9,418.3,272.3,413.1,254,425.1z"/>
							</defs>
							<clipPath id="SVGID_00000140707463317641001680000002974459102635737993_">
								<use xlink:href="#SVGID_00000137123595335123880940000005796582884325159552_"  style="overflow:visible;"/>
							</clipPath>
							<g style="clip-path:url(#SVGID_00000140707463317641001680000002974459102635737993_);">
								<defs>
									
										<rect id="SVGID_00000172437258014386515560000008628535697401122206_" x="235.9" y="418.7" transform="matrix(0.8378 -0.5459 0.5459 0.8378 -205.5265 224.8043)" width="79.4" height="79.4"/>
								</defs>
								<clipPath id="SVGID_00000102526428081066047170000006113842583102144385_">
									<use xlink:href="#SVGID_00000172437258014386515560000008628535697401122206_"  style="overflow:visible;"/>
								</clipPath>
								
									<rect x="235.9" y="418.7" transform="matrix(0.8378 -0.5459 0.5459 0.8378 -205.5265 224.8043)" style="clip-path:url(#SVGID_00000102526428081066047170000006113842583102144385_);fill:#EC6F41;" width="79.4" height="79.4"/>
							</g>
						</g>
					</g>
				</g>
			</g>
		</g>
	</g>
</g>
<rect x="72.6" y="358" class="st6" width="937.6" height="511.2"/>
<rect x="72.6" y="358" class="st6" width="937.6" height="511.2"/>
</svg>
