<?xml version="1.0" encoding="utf-8"?>
<!-- Generator: Adobe Illustrator 25.4.1, SVG Export Plug-In . SVG Version: 6.00 Build 0)  -->
<svg version="1.1" id="Layer_1" xmlns="http://www.w3.org/2000/svg" xmlns:xlink="http://www.w3.org/1999/xlink" x="0px" y="0px"
	 viewBox="0 0 1080 1080" style="enable-background:new 0 0 1080 1080;" xml:space="preserve">
<style type="text/css">
	.st0{clip-path:url(#SVGID_00000173845659886553524060000001909058877789290685_);enable-background:new    ;}
	.st1{clip-path:url(#SVGID_00000173855111034645643360000012434013340277264013_);}
	.st2{clip-path:url(#SVGID_00000106860832773207543080000009646802181288007605_);}
	.st3{clip-path:url(#SVGID_00000129192138366860005630000005218534888971279493_);fill:#ED7042;}
	.st4{fill:none;}
	.st5{clip-path:url(#SVGID_00000118355877027698395160000010695361135939985065_);enable-background:new    ;}
	.st6{clip-path:url(#SVGID_00000004528483186496924800000018413504399611506831_);}
	.st7{clip-path:url(#SVGID_00000095303310009397943530000007289849613488515754_);fill:#FFFFFF;}
	.st8{clip-path:url(#SVGID_00000106854109221788972380000014856688986207611031_);}
	.st9{clip-path:url(#SVGID_00000108987742378559160050000001985434506406912388_);enable-background:new    ;}
	.st10{clip-path:url(#SVGID_00000121245221770026397910000007612284837136737411_);}
	.st11{clip-path:url(#SVGID_00000167382316688862338650000018412722576611074954_);}
	.st12{clip-path:url(#SVGID_00000076605258478542679760000010693922884258259083_);fill:#ED7042;}
	.st13{clip-path:url(#SVGID_00000020369642190016376560000006581042034645727898_);}
	.st14{clip-path:url(#SVGID_00000152263478956289057870000002413156840088929720_);}
	.st15{clip-path:url(#SVGID_00000167356472746069687370000011136088074592663993_);enable-background:new    ;}
	.st16{clip-path:url(#SVGID_00000177445016555765689930000000729098466282512514_);}
	.st17{clip-path:url(#SVGID_00000174597428412505781030000009517034960345621376_);}
	.st18{clip-path:url(#SVGID_00000141435826114676265000000008501796496017838495_);}
	.st19{clip-path:url(#SVGID_00000016786226652577375600000011413820721163635090_);fill:#ED7042;}
	.st20{fill:#ED7042;}
</style>
<g>
	<g>
		<g>
			<g>
				<g>
					<defs>
						<path id="SVGID_1_" d="M579.8,400.6h442.3c10.8,0,21.1,4.3,28.7,11.9s11.9,18,11.9,28.7v198.4c0,10.8-4.3,21.1-11.9,28.7
							c-7.6,7.6-18,11.9-28.7,11.9H579.8c-10.8,0-21.1-4.3-28.7-11.9c-7.6-7.6-11.9-18-11.9-28.7V441.2c0-10.8,4.3-21.1,11.9-28.7
							C558.6,404.9,569,400.6,579.8,400.6z"/>
					</defs>
					<clipPath id="SVGID_00000129916788626306072230000014273252062558448786_">
						<use xlink:href="#SVGID_1_"  style="overflow:visible;"/>
					</clipPath>
					<g style="clip-path:url(#SVGID_00000129916788626306072230000014273252062558448786_);enable-background:new    ;">
						<g>
							<g>
								<g>
									<defs>
										<rect id="SVGID_00000163069156364946330720000015747604279895710601_" x="538.1" y="399.5" width="525.6" height="281"/>
									</defs>
									<clipPath id="SVGID_00000167385965014361912040000011290191076869614232_">
										<use xlink:href="#SVGID_00000163069156364946330720000015747604279895710601_"  style="overflow:visible;"/>
									</clipPath>
									<g style="clip-path:url(#SVGID_00000167385965014361912040000011290191076869614232_);">
										<g>
											<g>
												<defs>
													
														<rect id="SVGID_00000011029383543179285810000018126509258217448845_" x="538.1" y="399.5" width="525.6" height="281"/>
												</defs>
												<clipPath id="SVGID_00000034811584380626891030000017493661502230071479_">
													<use xlink:href="#SVGID_00000011029383543179285810000018126509258217448845_"  style="overflow:visible;"/>
												</clipPath>
												<g style="clip-path:url(#SVGID_00000034811584380626891030000017493661502230071479_);">
													<g>
														<g>
															<defs>
																<path id="SVGID_00000010300975876543832260000012631274155510163865_" d="M579.8,400.6h442.3
																	c10.8,0,21.1,4.3,28.7,11.9s11.9,18,11.9,28.7v198.4c0,10.8-4.3,21.1-11.9,28.7c-7.6,7.6-18,11.9-28.7,11.9H579.8
																	c-10.8,0-21.1-4.3-28.7-11.9c-7.6-7.6-11.9-18-11.9-28.7V441.2c0-10.8,4.3-21.1,11.9-28.7
																	C558.6,404.9,569,400.6,579.8,400.6z"/>
															</defs>
															<clipPath id="SVGID_00000058566662117958464680000012142483573003658903_">
																<use xlink:href="#SVGID_00000010300975876543832260000012631274155510163865_"  style="overflow:visible;"/>
															</clipPath>
															
																<rect x="539.1" y="400.6" style="clip-path:url(#SVGID_00000058566662117958464680000012142483573003658903_);fill:#ED7042;" width="523.3" height="279.7"/>
														</g>
													</g>
												</g>
											</g>
										</g>
									</g>
								</g>
							</g>
						</g>
					</g>
				</g>
			</g>
		</g>
		<rect x="538.1" y="399.5" class="st4" width="525.6" height="281"/>
		<g>
			<g>
				<g>
					<defs>
						<rect id="SVGID_00000168809376515022672840000002603482059381959553_" x="571.8" y="453.8" width="460.8" height="220.6"/>
					</defs>
					<clipPath id="SVGID_00000099661527964529953710000007202836393532617649_">
						<use xlink:href="#SVGID_00000168809376515022672840000002603482059381959553_"  style="overflow:visible;"/>
					</clipPath>
					<g style="clip-path:url(#SVGID_00000099661527964529953710000007202836393532617649_);enable-background:new    ;">
						<g>
							<g>
								<g>
									<defs>
										
											<rect id="SVGID_00000181073889528298019310000004203417139514855081_" x="571.9" y="454.1" width="460.5" height="219.9"/>
									</defs>
									<clipPath id="SVGID_00000041279702509603589590000017914074312628581046_">
										<use xlink:href="#SVGID_00000181073889528298019310000004203417139514855081_"  style="overflow:visible;"/>
									</clipPath>
									<g style="clip-path:url(#SVGID_00000041279702509603589590000017914074312628581046_);">
										<g>
											<g>
												<defs>
													
														<rect id="SVGID_00000034804386789435563530000014874136203536772793_" x="571.8" y="453.8" width="460.8" height="220.6"/>
												</defs>
												<clipPath id="SVGID_00000178179322146833210310000018298924109133303694_">
													<use xlink:href="#SVGID_00000034804386789435563530000014874136203536772793_"  style="overflow:visible;"/>
												</clipPath>
												<path style="clip-path:url(#SVGID_00000178179322146833210310000018298924109133303694_);fill:#FFFFFF;" d="
													M591.8,620.4c-1.2,0-2.8,0-4.6,0c-1.9,0-3.8-0.3-5.6-0.9c-1.9-0.5-3.5-1.6-4.8-3c-1.3-1.4-2-3.5-2-6.3
													c0-3,0.2-5.8,0.7-8.3s1.1-5,1.9-7.4c0.8-2.5,1.6-5.3,2.5-8.3c0.8-3,1.7-6.7,2.5-10.9s1.4-9.2,1.9-15s0.7-12.7,0.7-20.7
													s-0.2-14.9-0.7-20.7s-1.1-10.8-1.9-15s-1.6-7.8-2.5-10.9c-0.9-3-1.7-5.8-2.5-8.3s-1.4-5-1.9-7.5s-0.7-5.3-0.7-8.3
													c0-2.8,0.6-4.9,2-6.3c1.3-1.4,2.9-2.4,4.8-3c1.9-0.5,3.8-0.8,5.6-0.9c1.9,0,3.4,0,4.6,0H634c10.4,0,19.5,2,27.5,5.8
													c7.9,3.9,14.6,9.4,19.9,16.6c5.4,7.2,9.4,15.7,12.1,25.5c2.8,9.9,4.1,20.8,4.1,32.8s-1.4,22.9-4.1,32.8
													c-2.8,9.9-6.8,18.5-12.1,25.6c-5.4,7.2-12,12.7-19.9,16.6c-8,3.9-17.1,5.8-27.5,5.8L591.8,620.4L591.8,620.4z
													 M627.6,498.9v81c0,2.3,0.3,3.9,1,5.1c0.7,1.1,1.5,1.9,2.5,2.3c1,0.4,2,0.5,2.8,0.5c2.9,0,5.6-1.3,8.1-3.9
													c2.5-2.6,4.6-6.2,6.4-10.7s3.2-9.7,4.3-15.5c1.1-5.8,1.5-11.9,1.5-18.2s-0.5-12.4-1.5-18.2s-2.5-11-4.3-15.5
													s-4-8.1-6.4-10.7c-2.4-2.6-5.2-3.9-8.1-3.9c-0.9,0-1.9,0.2-2.8,0.5c-1,0.4-1.9,1.1-2.5,2.3
													C627.9,495,627.6,496.7,627.6,498.9z M709,539.5c0-8-0.2-14.9-0.7-20.7s-1.1-10.8-1.9-15s-1.6-7.8-2.5-10.9
													c-0.9-3-1.7-5.8-2.5-8.3s-1.4-5-1.9-7.5s-0.7-5.3-0.7-8.3c0-2.8,0.6-4.9,2-6.3c1.3-1.4,2.9-2.4,4.8-3
													c1.9-0.5,3.8-0.8,5.6-0.9c1.9,0,3.4,0,4.6,0h29c1.2,0,2.8,0,4.6,0c1.9,0,3.8,0.3,5.6,0.9c1.9,0.5,3.5,1.6,4.8,3
													s2,3.5,2,6.3c0,3-0.2,5.7-0.7,8.3c-0.5,2.5-1.1,5-1.9,7.5s-1.6,5.3-2.5,8.3c-0.9,3-1.7,6.7-2.5,10.9
													c-0.8,4.2-1.4,9.2-1.9,15s-0.7,12.7-0.7,20.7s0.2,14.9,0.7,20.7s1.1,10.8,1.9,15s1.6,7.8,2.5,10.9
													c0.8,3,1.7,5.8,2.5,8.3s1.4,5,1.9,7.4c0.5,2.5,0.7,5.3,0.7,8.3c0,2.8-0.6,4.9-2,6.3c-1.4,1.4-2.9,2.4-4.8,3
													c-1.9,0.5-3.8,0.9-5.6,0.9c-1.9,0-3.4,0-4.6,0h-29c-1.2,0-2.8,0-4.6,0c-1.8,0-3.8-0.3-5.6-0.9c-1.9-0.5-3.5-1.6-4.8-3
													c-1.3-1.4-2-3.5-2-6.3c0-3,0.2-5.8,0.7-8.3s1.1-5,1.9-7.4s1.6-5.3,2.5-8.3c0.8-3,1.7-6.7,2.5-10.9s1.4-9.2,1.9-15
													C708.7,554.5,709,547.5,709,539.5z M763.1,584.2c0-5.4,1.1-10.1,3.4-14.1s5.2-7.1,8.7-9.4c3.5-2.3,7.3-3.4,11.2-3.5
													c3.1,0,6.1,0.6,8.8,2c2.8,1.4,5.4,3.3,7.9,5.6s5,4.8,7.4,7.5c2.4,2.7,4.9,5.2,7.3,7.5c2.4,2.4,5,4.3,7.5,5.8
													c2.6,1.5,5.3,2.3,8.2,2.3c3.7,0,6.3-0.9,7.9-2.8c1.6-1.9,2.4-4.2,2.4-7c0-3.1-1.1-5.8-3.2-8c-2.2-2.2-5.1-4.1-8.8-5.6
													c-3.7-1.6-7.9-3.1-12.5-4.7c-4.6-1.5-9.4-3.1-14.3-4.9c-4.9-1.8-9.7-3.9-14.3-6.4c-4.6-2.5-8.8-5.6-12.5-9.1
													c-3.7-3.6-6.6-7.9-8.8-13c-2.2-5.1-3.2-11.2-3.2-18.3c0-10.4,2.6-19.4,7.8-27s12.6-13.5,22.4-17.7
													c9.8-4.2,21.5-6.3,35.3-6.3c6.3,0,12.6,0.6,18.9,1.9c6.2,1.3,11.9,3.3,17,6c5.1,2.8,9.2,6.3,12.3,10.6s4.6,9.5,4.6,15.6
													c0,4.3-0.9,8.3-2.8,11.8c-1.9,3.5-4.5,6.4-7.8,8.6c-3.2,2.2-6.9,3.4-11.1,3.8c-3.5,0.2-6.8-0.4-9.9-2
													c-3-1.5-6-3.5-8.7-6c-2.8-2.5-5.5-5-8.3-7.4c-2.8-2.5-5.6-4.6-8.4-6.3c-2.9-1.7-5.9-2.6-9.1-2.6c-2.7,0-4.8,0.5-6.4,1.5
													c-1.6,1-2.7,2.2-3.3,3.6s-0.9,2.8-0.9,4c0,3,1.1,5.6,3.4,7.8c2.3,2.1,5.4,4,9.1,5.6c3.8,1.7,8.1,3.2,12.9,4.8
													s9.7,3.3,14.8,5.2c5.1,1.9,10,4.1,14.8,6.8s9.1,5.8,12.9,9.6s6.9,8.3,9.1,13.5c2.3,5.3,3.4,11.5,3.4,18.8
													c0,7.7-1.3,14.4-3.8,20s-5.9,10.3-10.2,14.1s-9,6.9-14.2,9.1c-5.3,2.3-10.7,3.9-16.3,4.9c-5.6,1-11,1.5-16.1,1.5
													c-5.9,0-11.9-0.4-18-1.1c-6-0.7-11.9-2-17.4-3.8c-5.6-1.8-10.5-4.1-14.8-7c-4.3-2.9-7.8-6.5-10.3-10.8
													C764.3,595.1,763.1,590.1,763.1,584.2z M899,539.5c0-8-0.2-14.9-0.7-20.7s-1.1-10.8-1.9-15s-1.6-7.8-2.5-10.9
													c-0.9-3-1.7-5.8-2.5-8.3s-1.4-5-1.9-7.5s-0.7-5.3-0.7-8.3c0-2.8,0.6-4.9,2-6.3c1.3-1.4,2.9-2.4,4.8-3
													c1.9-0.5,3.8-0.8,5.6-0.9c1.9,0,3.4,0,4.6,0h29c1.2,0,2.8,0,4.6,0c1.9,0,3.8,0.3,5.6,0.9c1.9,0.5,3.5,1.6,4.8,3
													s2,3.5,2,6.3c0,3.1-0.2,6-0.8,8.5c-0.5,2.5-1.2,5.1-2,7.7s-1.7,5.6-2.6,8.8c-0.9,3.2-1.7,7.1-2.5,11.5
													c-0.7,4.5-1.3,9.9-1.8,16.2h31.4c-0.4-6.3-1-11.8-1.8-16.2c-0.7-4.5-1.6-8.3-2.5-11.5c-0.9-3.2-1.8-6.2-2.6-8.8
													c-0.8-2.6-1.5-5.2-2-7.7s-0.8-5.4-0.8-8.5c0-2.8,0.6-4.9,2-6.3c1.3-1.4,2.9-2.4,4.8-3c1.9-0.5,3.8-0.8,5.6-0.9
													c1.9,0,3.4,0,4.6,0h29c1.2,0,2.8,0,4.6,0c1.9,0,3.8,0.3,5.6,0.9c1.9,0.5,3.5,1.6,4.8,3c1.3,1.4,2,3.5,2,6.3
													c0,3-0.2,5.7-0.7,8.3s-1.1,5-1.9,7.5c-0.8,2.5-1.6,5.3-2.5,8.3c-0.9,3-1.7,6.7-2.5,10.9c-0.8,4.2-1.4,9.2-1.9,15
													s-0.7,12.7-0.7,20.7s0.2,14.9,0.7,20.7s1.1,10.8,1.9,15s1.6,7.8,2.5,10.9c0.9,3,1.7,5.8,2.5,8.3c0.8,2.5,1.4,5,1.9,7.4
													c0.5,2.5,0.7,5.3,0.7,8.3c0,2.8-0.6,4.9-2,6.3c-1.3,1.4-2.9,2.4-4.8,3c-1.9,0.5-3.8,0.9-5.6,0.9c-1.9,0-3.4,0-4.6,0h-29
													c-1.2,0-2.8,0-4.6,0c-1.9,0-3.8-0.3-5.6-0.9c-1.9-0.5-3.5-1.6-4.8-3s-2-3.5-2-6.3c0-3,0.2-5.8,0.7-8.3s1.1-5,1.9-7.4
													s1.6-5.3,2.5-8.4c0.9-3.1,1.7-6.7,2.5-10.9s1.4-9.2,1.9-15.1h-31c0.4,5.9,1.1,11,1.9,15.1c0.8,4.2,1.6,7.8,2.5,10.9
													c0.8,3.1,1.7,5.9,2.5,8.4s1.4,5,1.9,7.4c0.5,2.5,0.7,5.3,0.7,8.3c0,2.8-0.6,4.9-2,6.3c-1.3,1.4-2.9,2.4-4.8,3
													c-1.9,0.5-3.8,0.9-5.6,0.9c-1.9,0-3.4,0-4.6,0h-29c-1.2,0-2.8,0-4.6,0c-1.8,0-3.8-0.3-5.6-0.9c-1.9-0.5-3.5-1.6-4.8-3
													s-2-3.5-2-6.3c0-3,0.2-5.8,0.7-8.3s1.1-5,1.9-7.4c0.8-2.5,1.6-5.3,2.5-8.3c0.8-3,1.7-6.7,2.5-10.9s1.4-9.2,1.9-15
													C898.8,554.5,899,547.5,899,539.5z"/>
											</g>
										</g>
									</g>
								</g>
							</g>
						</g>
					</g>
				</g>
			</g>
		</g>
		<g>
			<g>
				<g>
					<defs>
						<rect id="SVGID_00000025424164337182294840000005100444118279528892_" x="608.4" y="422.9" width="55.9" height="55.9"/>
					</defs>
					<clipPath id="SVGID_00000011026605144625646610000000620501686791327640_">
						<use xlink:href="#SVGID_00000025424164337182294840000005100444118279528892_"  style="overflow:visible;"/>
					</clipPath>
					<g style="clip-path:url(#SVGID_00000011026605144625646610000000620501686791327640_);">
						<g>
							<g>
								<defs>
									<circle id="SVGID_00000154424330448085166360000017577249523651483290_" cx="636.1" cy="450.8" r="27.7"/>
								</defs>
								<clipPath id="SVGID_00000044899387531375773590000016472055292581734579_">
									<use xlink:href="#SVGID_00000154424330448085166360000017577249523651483290_"  style="overflow:visible;"/>
								</clipPath>
								<g style="clip-path:url(#SVGID_00000044899387531375773590000016472055292581734579_);enable-background:new    ;">
									<g>
										<g>
											<g>
												<defs>
													
														<rect id="SVGID_00000043433196215119513420000009313050866739957948_" x="608.4" y="422.9" width="55.9" height="55.9"/>
												</defs>
												<clipPath id="SVGID_00000007429912488151531910000017006222512071416467_">
													<use xlink:href="#SVGID_00000043433196215119513420000009313050866739957948_"  style="overflow:visible;"/>
												</clipPath>
												<g style="clip-path:url(#SVGID_00000007429912488151531910000017006222512071416467_);">
													<g>
														<g>
															<defs>
																
																	<rect id="SVGID_00000055694246933177778280000008956799351676298420_" x="608.4" y="422.9" width="55.9" height="55.9"/>
															</defs>
															<clipPath id="SVGID_00000176003499952528288890000005260853228253580928_">
																<use xlink:href="#SVGID_00000055694246933177778280000008956799351676298420_"  style="overflow:visible;"/>
															</clipPath>
															<g style="clip-path:url(#SVGID_00000176003499952528288890000005260853228253580928_);">
																<g>
																	<g>
																		<defs>
																			<circle id="SVGID_00000182509928858588124900000009760044472664668305_" cx="636.1" cy="450.8" r="27.7"/>
																		</defs>
																		<clipPath id="SVGID_00000061459401405111191520000014826906010249774993_">
																			<use xlink:href="#SVGID_00000182509928858588124900000009760044472664668305_"  style="overflow:visible;"/>
																		</clipPath>
																		
																			<rect x="608.4" y="423.1" style="clip-path:url(#SVGID_00000061459401405111191520000014826906010249774993_);fill:#ED7042;" width="55.5" height="55.5"/>
																	</g>
																</g>
															</g>
														</g>
													</g>
												</g>
											</g>
										</g>
									</g>
								</g>
							</g>
						</g>
					</g>
				</g>
			</g>
		</g>
		<g>
			<g>
				<g>
					<defs>
						<rect id="SVGID_00000159435271074389937100000010781511730862610871_" x="648.7" y="448.9" width="45.5" height="45.5"/>
					</defs>
					<clipPath id="SVGID_00000077307111819587208900000015194630430913808538_">
						<use xlink:href="#SVGID_00000159435271074389937100000010781511730862610871_"  style="overflow:visible;"/>
					</clipPath>
					<g style="clip-path:url(#SVGID_00000077307111819587208900000015194630430913808538_);">
						<g>
							<g>
								<defs>
									<path id="SVGID_00000042736684963126708640000001061579602764235143_" d="M661,455.9c-9,5.9-11.6,17.9-5.7,27
										c5.9,9,17.9,11.6,27,5.7c9-5.9,11.6-18,5.7-27C682.1,452.5,670,450,661,455.9z"/>
								</defs>
								<clipPath id="SVGID_00000073699972336658204880000010023109419569936537_">
									<use xlink:href="#SVGID_00000042736684963126708640000001061579602764235143_"  style="overflow:visible;"/>
								</clipPath>
								<g style="clip-path:url(#SVGID_00000073699972336658204880000010023109419569936537_);">
									<g>
										<g>
											<defs>
												
													<rect id="SVGID_00000147937616149528018330000010600973765407204754_" x="652.1" y="452.7" transform="matrix(0.8378 -0.5459 0.5459 0.8378 -148.8533 443.2323)" width="39" height="39"/>
											</defs>
											<clipPath id="SVGID_00000060728610777658225010000000895712157820107704_">
												<use xlink:href="#SVGID_00000147937616149528018330000010600973765407204754_"  style="overflow:visible;"/>
											</clipPath>
											<g style="clip-path:url(#SVGID_00000060728610777658225010000000895712157820107704_);enable-background:new    ;">
												<g>
													<g>
														<g>
															<defs>
																
																	<rect id="SVGID_00000034078526040782245890000013577636978813045654_" x="648.7" y="448.9" width="45.5" height="45.5"/>
															</defs>
															<clipPath id="SVGID_00000168087590304424253850000013508902726248941211_">
																<use xlink:href="#SVGID_00000034078526040782245890000013577636978813045654_"  style="overflow:visible;"/>
															</clipPath>
															<g style="clip-path:url(#SVGID_00000168087590304424253850000013508902726248941211_);">
																<g>
																	<g>
																		<defs>
																			
																				<rect id="SVGID_00000144317895238416399860000003866847360894397824_" x="648.7" y="448.9" width="45.5" height="45.5"/>
																		</defs>
																		<clipPath id="SVGID_00000067212417185059818160000009781443122380057993_">
																			<use xlink:href="#SVGID_00000144317895238416399860000003866847360894397824_"  style="overflow:visible;"/>
																		</clipPath>
																		<g style="clip-path:url(#SVGID_00000067212417185059818160000009781443122380057993_);">
																			<g>
																				<g>
																					<defs>
																						<path id="SVGID_00000100353210190586851350000000170189095933973171_" d="M661,455.9c-9,5.9-11.6,17.9-5.7,27
																							c5.9,9,17.9,11.6,27,5.7c9-5.9,11.6-18,5.7-27C682.1,452.5,670,450,661,455.9z"/>
																					</defs>
																					<clipPath id="SVGID_00000136395672876578390530000000285819692924610454_">
																						<use xlink:href="#SVGID_00000100353210190586851350000000170189095933973171_"  style="overflow:visible;"/>
																					</clipPath>
																					<g style="clip-path:url(#SVGID_00000136395672876578390530000000285819692924610454_);">
																						<g>
																							<g>
																								<defs>
																									
																										<rect id="SVGID_00000023254846405183263120000010201871843225222828_" x="652.1" y="452.7" transform="matrix(0.987 -0.161 0.161 0.987 -67.263 114.2906)" width="39" height="39"/>
																								</defs>
																								<clipPath id="SVGID_00000141415139568611391110000008828335976546603426_">
																									
																										<use xlink:href="#SVGID_00000023254846405183263120000010201871843225222828_"  style="overflow:visible;"/>
																								</clipPath>
																								
																									<rect x="652.1" y="452.7" transform="matrix(0.8378 -0.5459 0.5459 0.8378 -148.8534 443.2323)" style="clip-path:url(#SVGID_00000141415139568611391110000008828335976546603426_);fill:#ED7042;" width="39" height="39"/>
																							</g>
																						</g>
																					</g>
																				</g>
																			</g>
																		</g>
																	</g>
																</g>
															</g>
														</g>
													</g>
												</g>
											</g>
										</g>
									</g>
								</g>
							</g>
						</g>
					</g>
				</g>
			</g>
		</g>
		<rect x="571.9" y="422.9" class="st4" width="460.5" height="251.1"/>
		<rect x="571.9" y="422.9" class="st4" width="460.5" height="251.1"/>
	</g>
	<path class="st20" d="M27.5,539.2c0-8.7-0.2-16.3-0.8-22.6c-0.5-6.3-1.2-11.8-2.1-16.3c-0.8-4.6-1.8-8.5-2.7-11.9
		c-0.9-3.3-1.8-6.4-2.7-9.1c-0.8-2.7-1.5-5.4-2.1-8.1s-0.8-5.7-0.8-9c0-3,0.7-5.3,2.1-6.8s3.2-2.6,5.3-3.3c2.1-0.6,4.1-0.9,6.2-1
		c2,0,3.7,0,5,0h31.6c1.3,0,3,0,5,0s4.1,0.3,6.2,1c2.1,0.6,3.8,1.7,5.3,3.3c1.4,1.5,2.1,3.8,2.1,6.8c0,3.3-0.2,6.3-0.8,9
		c-0.5,2.8-1.2,5.5-2.1,8.1c-0.8,2.7-1.8,5.7-2.7,9.1c-0.9,3.3-1.8,7.3-2.7,11.9c-0.8,4.6-1.5,10-2.1,16.3
		c-0.5,6.3-0.8,13.8-0.8,22.6c0,8.7,0.2,16.3,0.8,22.6s1.2,11.8,2.1,16.3s1.8,8.5,2.7,11.9c0.9,3.3,1.8,6.4,2.7,9.1
		c0.8,2.7,1.5,5.4,2.1,8.1s0.8,5.7,0.8,9.1c0,3-0.7,5.3-2.1,6.8c-1.4,1.5-3.2,2.6-5.3,3.3c-2.1,0.6-4.1,0.9-6.2,1c-2,0-3.7,0-5,0
		H34.9c-1.3,0-3,0-5,0s-4.1-0.3-6.2-1c-2.1-0.6-3.8-1.7-5.3-3.3c-1.4-1.5-2.1-3.8-2.1-6.8c0-3.3,0.2-6.4,0.8-9.1s1.2-5.4,2.1-8.1
		s1.8-5.7,2.7-9.1c0.9-3.3,1.8-7.3,2.7-11.9c0.8-4.6,1.5-10,2.1-16.3C27.2,555.5,27.5,548,27.5,539.2z M90,616.4
		c0-4.1,0.3-8,1.1-11.4c0.7-3.4,1.7-7.1,2.8-10.9c1.1-3.8,2.2-8.2,3.3-13.2s2.1-11.1,2.8-18.2c0.7-7.1,1.1-15.8,1.1-26
		c0-8.5-0.2-15.8-0.8-22c-0.5-6.2-1.2-11.4-2.1-15.9c-0.8-4.4-1.8-8.2-2.7-11.5s-1.8-6.2-2.7-8.9c-0.8-2.7-1.5-5.3-2.1-7.9
		c-0.5-2.6-0.8-5.5-0.8-8.7c0-3,0.7-5.2,2.1-6.6c1.4-1.5,3.2-2.6,5.3-3.2s4.1-0.9,6.2-1c2,0,3.7,0,5,0h69.6c8.4,0,15.9,1.7,22.3,5.1
		c6.5,3.4,11.6,8.1,15.3,14.2s5.6,13.2,5.6,21.4c0,3.5-0.5,7.1-1.4,10.8c-0.9,3.7-2.5,7.2-4.6,10.6c-2.2,3.4-5,6.4-8.6,9.1
		s-7.9,4.7-13.1,6.1c-2,0.6-3.1,1.3-3.1,2.3c0,0.6,0.8,1.3,2.5,2.1c1.6,0.7,3.7,1.7,6.3,2.8c2.5,1.1,5.2,2.7,8.1,4.6
		c2.9,2,5.6,4.6,8.1,7.8s4.6,7.2,6.3,12c1.6,4.8,2.5,10.7,2.5,17.6c0,4.2-0.6,8.7-1.8,13.3s-3.1,9.1-5.6,13.4s-6,8.2-10.2,11.7
		s-9.4,6.3-15.5,8.3s-13.3,3.1-21.5,3.1h-62.9c-1.3,0-2.9,0-4.7,0s-3.7-0.3-5.5-1c-1.8-0.6-3.3-1.7-4.6-3.2
		C90.6,621.6,90,619.4,90,616.4z M147.3,512.2c0,2.5,0.6,4.2,2,5.1c1.3,0.8,3.1,1.3,5.4,1.3c4,0,7.2-0.5,9.8-1.7
		c2.5-1.1,4.5-2.5,5.9-4.2s2.4-3.4,3-5.3c0.6-1.8,0.8-3.4,0.8-4.9c0-1.4-0.3-3-0.8-4.8c-0.6-1.8-1.6-3.6-3-5.3s-3.4-3.1-5.9-4.2
		s-5.8-1.7-9.8-1.7c-2.3,0-4.1,0.4-5.4,1.3c-1.3,0.8-2,2.6-2,5.1V512.2z M147.3,583c0,3.5,0.6,5.9,2,7c1.3,1.2,3.1,1.8,5.4,1.8
		c4,0,7.2-0.8,9.8-2.3c2.5-1.5,4.5-3.5,5.9-5.9s2.4-4.8,3-7.3s0.8-4.8,0.8-6.7c0-2-0.3-4.2-0.8-6.8c-0.6-2.6-1.6-5-3-7.4
		s-3.4-4.3-5.9-5.9c-2.5-1.5-5.8-2.3-9.8-2.3c-2.3,0-4.1,0.6-5.4,1.7c-1.3,1.1-2,3.5-2,7.1c0,0.8,0,2.1,0,4c0,1.8,0.1,3.7,0.1,5.5
		s0,3.2,0,4.1c0,0.8,0,2.1,0,4c0,1.8-0.1,3.6-0.1,5.5C147.3,580.8,147.3,582.1,147.3,583z M227.2,462.1c0-3,0.7-5.2,2.1-6.6
		c1.4-1.5,3.2-2.6,5.3-3.2s4.1-0.9,6.2-1c2,0,3.7,0,5,0h31.6c1.3,0,3,0,5,0s4.1,0.3,6.2,1c2.1,0.6,3.8,1.7,5.3,3.2s2.1,3.7,2.1,6.6
		c0,3.2-0.2,6.1-0.8,8.7c-0.5,2.6-1.2,5.2-2.1,7.9c-0.8,2.7-1.8,5.6-2.7,8.9s-1.8,7.1-2.7,11.5c-0.8,4.4-1.5,9.7-2.1,15.9
		c-0.5,6.2-0.8,13.5-0.8,22v39.5c0,3.3,0.1,6.2,0.3,8.8s0.9,4.6,1.9,6s2.7,2.1,5,2.1c6,0,11.2-0.9,15.9-2.8
		c4.6-1.8,8.8-4.1,12.5-6.8s7.1-5.4,10.1-8s6-4.9,8.8-6.7c2.8-1.9,5.7-2.8,8.6-2.8c3,0,5,0.7,6.3,2.3c1.2,1.5,1.9,3.3,2.1,5.5
		c0.2,2.2,0.3,4.3,0.3,6.3v35c0,3.6-1.1,6.5-3.3,8.8c-2.3,2.3-5.2,3.3-8.8,3.3H243.9c-1.3,0-2.9,0-4.7,0s-3.7-0.3-5.5-1
		c-1.8-0.6-3.3-1.7-4.6-3.2c-1.2-1.5-1.8-3.7-1.8-6.6c0-4.1,0.3-8,1.1-11.4c0.7-3.4,1.7-7.1,2.8-10.9c1.1-3.8,2.2-8.2,3.3-13.2
		s2.1-11.1,2.8-18.2c0.7-7.1,1.1-15.8,1.1-26c0-8.5-0.2-15.8-0.8-22c-0.5-6.2-1.2-11.4-2.1-15.9c-0.8-4.4-1.8-8.2-2.7-11.5
		s-1.8-6.2-2.7-8.9c-0.8-2.7-1.5-5.3-2.1-7.9C227.5,468.1,227.2,465.2,227.2,462.1z M378,627.3c-2.7,0-5.2-0.2-7.5-0.6
		s-4.2-1.2-5.6-2.5c-1.4-1.2-2.1-3-2.1-5.3s0.3-4.2,1-5.8c0.6-1.6,1.5-3.2,2.7-4.7c1.1-1.5,2.4-3.3,3.8-5.3c1.4-2,2.9-4.4,4.3-7.3
		c1.5-3,2.9-6.6,4.3-11.1c2.1-6.8,3.9-12.8,5.4-17.7c1.5-5,2.8-9.4,3.8-13.1s2.1-7.3,3-10.5s1.8-6.5,2.6-9.7s1.8-6.7,2.9-10.6
		c1.1-3.8,2.3-8.3,3.6-13.3c1.3-5.1,3-11,5-17.9c1.3-4.7,2.2-8.4,2.8-11.1s0.8-4.9,0.9-6.6c0.1-1.8,0-3.5-0.1-5.3s-0.3-4.1-0.5-7
		c0-0.6,0-1.5,0.1-2.7c0.1-1.1,0.4-2.3,1-3.5s1.5-2.3,3-3.1c1.4-0.8,3.3-1.3,5.9-1.3h33c2.5,0,4.6,0,6.4,0.1c1.8,0.1,3.5,0.5,5,1.3
		s2.9,2.3,4.2,4.4s2.7,5.2,4.1,9.2s3.1,9.3,4.8,15.8c2.3,8,4.2,15,5.9,21.1c1.6,6.1,3.1,11.5,4.4,16.4s2.6,9.6,3.8,14.1
		s2.5,9.2,3.9,14.1c1.4,4.9,3,10.2,4.7,16.2c1.8,6,3.8,12.9,6.3,20.9c1.4,4.5,2.8,8.2,4.3,11.1s2.9,5.4,4.3,7.3s2.7,3.7,3.8,5.3
		c1.1,1.5,2,3.1,2.7,4.7c0.6,1.6,1,3.5,1,5.8s-0.7,4-2.1,5.3c-1.4,1.2-3.3,2-5.6,2.5c-2.3,0.4-4.8,0.6-7.6,0.6h-45
		c-1.9,0-3.7-0.2-5.6-0.8c-1.8-0.5-3.3-1.4-4.5-2.6s-1.8-2.8-1.8-4.8c0-2.7,0.2-4.8,0.7-6.4c0.4-1.6,0.9-3.1,1.5-4.5
		s1.1-3.2,1.5-5.3s0.7-5,0.7-8.6c0-2-0.1-4.2-0.3-6.5h-31.3c0.1,1.1,0.2,2.1,0.3,3.2s0.3,2.2,0.3,3.3c0.5,3.7,1.1,6.5,1.8,8.6
		s1.3,3.8,2,5.3c0.6,1.4,1.1,3,1.6,4.5c0.4,1.6,0.7,3.7,0.7,6.4c0,2-0.6,3.6-1.8,4.8s-2.7,2-4.5,2.6c-1.8,0.5-3.7,0.8-5.6,0.8
		L378,627.3L378,627.3z M421.7,546h21.8c-1.1-3.7-2.2-7.7-3.3-11.9s-2.4-8.7-3.8-13.4c-0.8-2.8-1.6-5.1-2.5-7
		c-0.8-1.9-1.7-2.7-2.6-2.6c-0.8,0.1-1.6,1.2-2.5,3.3s-1.6,4.8-2.5,7.9c-0.8,3.2-1.6,6.4-2.3,9.7s-1.2,6.2-1.7,8.8
		C422.2,543.4,421.9,545.1,421.7,546z"/>
</g>
</svg>
